G04 #@! TF.FileFunction,Copper,L1,Top,Signal*
%FSLAX46Y46*%
G04 Gerber Fmt 4.6, Leading zero omitted, Abs format (unit mm)*
G04 Created by KiCad (PCBNEW (2016-09-05 BZR 7119, Git caafcde)-product) date Tue Sep 20 16:16:29 2016*
%MOMM*%
%LPD*%
G01*
G04 APERTURE LIST*
%ADD10C,0.100000*%
%ADD11C,0.300000*%
%ADD12C,1.699260*%
%ADD13R,1.699260X1.699260*%
%ADD14R,1.397000X1.397000*%
%ADD15C,1.397000*%
%ADD16C,1.998980*%
%ADD17R,2.032000X2.032000*%
%ADD18O,2.032000X2.032000*%
%ADD19R,1.300000X1.300000*%
%ADD20C,1.300000*%
%ADD21R,1.750000X0.650000*%
%ADD22R,2.000000X1.900000*%
%ADD23C,1.900000*%
%ADD24C,1.800000*%
%ADD25R,1.998980X1.998980*%
%ADD26R,1.900000X2.000000*%
%ADD27C,1.524000*%
%ADD28O,2.032000X2.540000*%
%ADD29O,1.501140X0.899160*%
%ADD30C,0.500000*%
%ADD31C,0.400000*%
%ADD32C,1.500000*%
%ADD33C,0.254000*%
G04 APERTURE END LIST*
D10*
D11*
X51285714Y-145975000D02*
X52000000Y-145975000D01*
X51142857Y-146403571D02*
X51642857Y-144903571D01*
X52142857Y-146403571D01*
X52642857Y-146403571D02*
X52642857Y-145403571D01*
X52642857Y-145546428D02*
X52714285Y-145475000D01*
X52857142Y-145403571D01*
X53071428Y-145403571D01*
X53214285Y-145475000D01*
X53285714Y-145617857D01*
X53285714Y-146403571D01*
X53285714Y-145617857D02*
X53357142Y-145475000D01*
X53500000Y-145403571D01*
X53714285Y-145403571D01*
X53857142Y-145475000D01*
X53928571Y-145617857D01*
X53928571Y-146403571D01*
X54642857Y-145403571D02*
X54642857Y-146903571D01*
X54642857Y-145475000D02*
X54785714Y-145403571D01*
X55071428Y-145403571D01*
X55214285Y-145475000D01*
X55285714Y-145546428D01*
X55357142Y-145689285D01*
X55357142Y-146117857D01*
X55285714Y-146260714D01*
X55214285Y-146332142D01*
X55071428Y-146403571D01*
X54785714Y-146403571D01*
X54642857Y-146332142D01*
X56214285Y-146403571D02*
X56071428Y-146332142D01*
X56000000Y-146189285D01*
X56000000Y-144903571D01*
X56785714Y-146403571D02*
X56785714Y-145403571D01*
X56785714Y-144903571D02*
X56714285Y-144975000D01*
X56785714Y-145046428D01*
X56857142Y-144975000D01*
X56785714Y-144903571D01*
X56785714Y-145046428D01*
X57285714Y-145403571D02*
X57857142Y-145403571D01*
X57500000Y-146403571D02*
X57500000Y-145117857D01*
X57571428Y-144975000D01*
X57714285Y-144903571D01*
X57857142Y-144903571D01*
X58357142Y-146403571D02*
X58357142Y-145403571D01*
X58357142Y-144903571D02*
X58285714Y-144975000D01*
X58357142Y-145046428D01*
X58428571Y-144975000D01*
X58357142Y-144903571D01*
X58357142Y-145046428D01*
X59714285Y-146332142D02*
X59571428Y-146403571D01*
X59285714Y-146403571D01*
X59142857Y-146332142D01*
X59071428Y-146260714D01*
X59000000Y-146117857D01*
X59000000Y-145689285D01*
X59071428Y-145546428D01*
X59142857Y-145475000D01*
X59285714Y-145403571D01*
X59571428Y-145403571D01*
X59714285Y-145475000D01*
X61000000Y-146403571D02*
X61000000Y-145617857D01*
X60928571Y-145475000D01*
X60785714Y-145403571D01*
X60500000Y-145403571D01*
X60357142Y-145475000D01*
X61000000Y-146332142D02*
X60857142Y-146403571D01*
X60500000Y-146403571D01*
X60357142Y-146332142D01*
X60285714Y-146189285D01*
X60285714Y-146046428D01*
X60357142Y-145903571D01*
X60500000Y-145832142D01*
X60857142Y-145832142D01*
X61000000Y-145760714D01*
X62357142Y-146403571D02*
X62357142Y-144903571D01*
X62357142Y-146332142D02*
X62214285Y-146403571D01*
X61928571Y-146403571D01*
X61785714Y-146332142D01*
X61714285Y-146260714D01*
X61642857Y-146117857D01*
X61642857Y-145689285D01*
X61714285Y-145546428D01*
X61785714Y-145475000D01*
X61928571Y-145403571D01*
X62214285Y-145403571D01*
X62357142Y-145475000D01*
X63285714Y-146403571D02*
X63142857Y-146332142D01*
X63071428Y-146260714D01*
X63000000Y-146117857D01*
X63000000Y-145689285D01*
X63071428Y-145546428D01*
X63142857Y-145475000D01*
X63285714Y-145403571D01*
X63500000Y-145403571D01*
X63642857Y-145475000D01*
X63714285Y-145546428D01*
X63785714Y-145689285D01*
X63785714Y-146117857D01*
X63714285Y-146260714D01*
X63642857Y-146332142D01*
X63500000Y-146403571D01*
X63285714Y-146403571D01*
X64428571Y-146403571D02*
X64428571Y-145403571D01*
X64428571Y-145689285D02*
X64500000Y-145546428D01*
X64571428Y-145475000D01*
X64714285Y-145403571D01*
X64857142Y-145403571D01*
X54821428Y-148810714D02*
X54750000Y-148882142D01*
X54535714Y-148953571D01*
X54392857Y-148953571D01*
X54178571Y-148882142D01*
X54035714Y-148739285D01*
X53964285Y-148596428D01*
X53892857Y-148310714D01*
X53892857Y-148096428D01*
X53964285Y-147810714D01*
X54035714Y-147667857D01*
X54178571Y-147525000D01*
X54392857Y-147453571D01*
X54535714Y-147453571D01*
X54750000Y-147525000D01*
X54821428Y-147596428D01*
X55678571Y-148953571D02*
X55535714Y-148882142D01*
X55464285Y-148739285D01*
X55464285Y-147453571D01*
X56892857Y-148953571D02*
X56892857Y-148167857D01*
X56821428Y-148025000D01*
X56678571Y-147953571D01*
X56392857Y-147953571D01*
X56250000Y-148025000D01*
X56892857Y-148882142D02*
X56750000Y-148953571D01*
X56392857Y-148953571D01*
X56250000Y-148882142D01*
X56178571Y-148739285D01*
X56178571Y-148596428D01*
X56250000Y-148453571D01*
X56392857Y-148382142D01*
X56750000Y-148382142D01*
X56892857Y-148310714D01*
X57535714Y-148882142D02*
X57678571Y-148953571D01*
X57964285Y-148953571D01*
X58107142Y-148882142D01*
X58178571Y-148739285D01*
X58178571Y-148667857D01*
X58107142Y-148525000D01*
X57964285Y-148453571D01*
X57750000Y-148453571D01*
X57607142Y-148382142D01*
X57535714Y-148239285D01*
X57535714Y-148167857D01*
X57607142Y-148025000D01*
X57750000Y-147953571D01*
X57964285Y-147953571D01*
X58107142Y-148025000D01*
X59392857Y-148882142D02*
X59250000Y-148953571D01*
X58964285Y-148953571D01*
X58821428Y-148882142D01*
X58750000Y-148739285D01*
X58750000Y-148167857D01*
X58821428Y-148025000D01*
X58964285Y-147953571D01*
X59250000Y-147953571D01*
X59392857Y-148025000D01*
X59464285Y-148167857D01*
X59464285Y-148310714D01*
X58750000Y-148453571D01*
X62035714Y-147525000D02*
X61892857Y-147453571D01*
X61678571Y-147453571D01*
X61464285Y-147525000D01*
X61321428Y-147667857D01*
X61250000Y-147810714D01*
X61178571Y-148096428D01*
X61178571Y-148310714D01*
X61250000Y-148596428D01*
X61321428Y-148739285D01*
X61464285Y-148882142D01*
X61678571Y-148953571D01*
X61821428Y-148953571D01*
X62035714Y-148882142D01*
X62107142Y-148810714D01*
X62107142Y-148310714D01*
X61821428Y-148310714D01*
D12*
X139722000Y-41024000D03*
D13*
X149882000Y-41024000D03*
D14*
X147450000Y-110160000D03*
D15*
X134750000Y-110160000D03*
D16*
X157556000Y-115160000D03*
X147396000Y-115160000D03*
D12*
X149896000Y-132160000D03*
D13*
X139736000Y-132160000D03*
D16*
X147396000Y-119160000D03*
X157556000Y-119160000D03*
X147396000Y-123660000D03*
X157556000Y-123660000D03*
D12*
X149687080Y-128160000D03*
X147396000Y-128160000D03*
X151978160Y-128160000D03*
D16*
X77586000Y-111660000D03*
X77586000Y-121820000D03*
D17*
X82586000Y-121660000D03*
D18*
X85126000Y-121660000D03*
D16*
X89086000Y-111660000D03*
X89086000Y-121820000D03*
D19*
X101086000Y-100660000D03*
D20*
X101086000Y-95660000D03*
D16*
X91086000Y-92160000D03*
X101246000Y-92160000D03*
D17*
X88586000Y-87660000D03*
D18*
X91126000Y-87660000D03*
D16*
X100086000Y-77500000D03*
X100086000Y-87660000D03*
D14*
X95586000Y-87660000D03*
D15*
X95586000Y-77500000D03*
D16*
X51926000Y-99160000D03*
X62086000Y-99160000D03*
X51926000Y-94160000D03*
X62086000Y-94160000D03*
D17*
X77586000Y-107160000D03*
D18*
X80126000Y-107160000D03*
D21*
X66796000Y-106793000D03*
X72396000Y-106793000D03*
X66796000Y-105523000D03*
X72396000Y-105523000D03*
X66796000Y-104253000D03*
X72396000Y-104253000D03*
X66796000Y-102983000D03*
X72396000Y-102983000D03*
X66796000Y-101713000D03*
X72396000Y-101713000D03*
X66796000Y-100443000D03*
X72396000Y-100443000D03*
X66796000Y-99173000D03*
X72396000Y-99173000D03*
X66796000Y-97903000D03*
X72396000Y-97903000D03*
D22*
X60586000Y-82200000D03*
D23*
X60586000Y-79660000D03*
D24*
X112090000Y-95160000D03*
X157810000Y-95160000D03*
D19*
X77586000Y-73160000D03*
D20*
X82586000Y-73160000D03*
D19*
X54086000Y-73160000D03*
D20*
X49086000Y-73160000D03*
D19*
X157450000Y-85160000D03*
D20*
X157450000Y-90160000D03*
D14*
X122428000Y-144780000D03*
D15*
X135128000Y-144780000D03*
D14*
X72086000Y-58160000D03*
D15*
X59386000Y-58160000D03*
D14*
X54386000Y-116660000D03*
D15*
X67086000Y-116660000D03*
D14*
X134620000Y-27940000D03*
D15*
X121920000Y-27940000D03*
D14*
X100786000Y-107160000D03*
D15*
X88086000Y-107160000D03*
D14*
X88086000Y-68160000D03*
D15*
X100786000Y-68160000D03*
D19*
X77586000Y-92660000D03*
D20*
X77586000Y-97660000D03*
D16*
X223774000Y-55880000D03*
D25*
X223774000Y-66040000D03*
D12*
X134664000Y-46790000D03*
D13*
X134664000Y-36630000D03*
D12*
X134664000Y-59950000D03*
D13*
X134664000Y-49790000D03*
D12*
X134896000Y-125320000D03*
D13*
X134896000Y-115160000D03*
D12*
X134898540Y-138820520D03*
D13*
X134898540Y-128660520D03*
D16*
X223520000Y-109474000D03*
D25*
X223520000Y-119634000D03*
D26*
X62086000Y-88660000D03*
D23*
X59546000Y-88660000D03*
D17*
X77586000Y-68160000D03*
D18*
X80126000Y-68160000D03*
D17*
X81586000Y-53660000D03*
D18*
X84126000Y-53660000D03*
D12*
X149628000Y-33290000D03*
X151919080Y-33290000D03*
X147336920Y-33290000D03*
X149633080Y-37214000D03*
X151924160Y-37214000D03*
X147342000Y-37214000D03*
X149865080Y-135890000D03*
X152156160Y-135890000D03*
X147574000Y-135890000D03*
X149865080Y-140970000D03*
X152156160Y-140970000D03*
X147574000Y-140970000D03*
D16*
X166116000Y-62484000D03*
X166116000Y-72644000D03*
D24*
X157810000Y-80160000D03*
X112090000Y-80160000D03*
D16*
X157502000Y-51692000D03*
X147342000Y-51692000D03*
X166116000Y-102660000D03*
X166116000Y-112820000D03*
X139722000Y-49660000D03*
X139722000Y-59820000D03*
X139896000Y-125320000D03*
X139896000Y-115160000D03*
X100586000Y-116660000D03*
X100586000Y-126820000D03*
X77586000Y-87660000D03*
X77586000Y-77500000D03*
X83586000Y-97820000D03*
X83586000Y-87660000D03*
X58086000Y-63160000D03*
X58086000Y-73320000D03*
X100586000Y-48500000D03*
X100586000Y-58660000D03*
D24*
X200152000Y-91440000D03*
X200152000Y-137160000D03*
X213868000Y-91440000D03*
X213868000Y-137160000D03*
X213868000Y-38100000D03*
X213868000Y-83820000D03*
X200152000Y-38100000D03*
X200152000Y-83820000D03*
D16*
X157502000Y-59820000D03*
X147342000Y-59820000D03*
X89586000Y-53500000D03*
X89586000Y-63660000D03*
X157502000Y-55756000D03*
X147342000Y-55756000D03*
X160274000Y-75184000D03*
X160274000Y-65024000D03*
X159950000Y-100000000D03*
X159950000Y-110160000D03*
X77586000Y-53500000D03*
X77586000Y-63660000D03*
X143764000Y-67564000D03*
X153924000Y-67564000D03*
D27*
X136652000Y-67564000D03*
X139192000Y-67564000D03*
X134112000Y-67564000D03*
D16*
X67086000Y-79660000D03*
X67086000Y-89820000D03*
X62086000Y-75820000D03*
X62086000Y-65660000D03*
D21*
X67050000Y-77089000D03*
X72650000Y-77089000D03*
X67050000Y-75819000D03*
X72650000Y-75819000D03*
X67050000Y-74549000D03*
X72650000Y-74549000D03*
X67050000Y-73279000D03*
X72650000Y-73279000D03*
X67050000Y-72009000D03*
X72650000Y-72009000D03*
X67050000Y-70739000D03*
X72650000Y-70739000D03*
X67050000Y-69469000D03*
X72650000Y-69469000D03*
X67050000Y-68199000D03*
X72650000Y-68199000D03*
D28*
X69586000Y-62160000D03*
X67046000Y-62160000D03*
X72126000Y-62160000D03*
X67126000Y-110660000D03*
X64586000Y-110660000D03*
X69666000Y-110660000D03*
D12*
X149628000Y-45596000D03*
X147336920Y-45596000D03*
X151919080Y-45596000D03*
D29*
X100586000Y-111660000D03*
X100586000Y-110390000D03*
X100586000Y-112930000D03*
X84586000Y-107160000D03*
X84586000Y-105890000D03*
X84586000Y-108430000D03*
X84586000Y-68160000D03*
X84586000Y-69430000D03*
X84586000Y-66890000D03*
X100586000Y-63660000D03*
X100586000Y-64930000D03*
X100586000Y-62390000D03*
D17*
X49000000Y-88540000D03*
D18*
X49000000Y-86000000D03*
D30*
X66796000Y-102983000D02*
X57409000Y-102983000D01*
X57409000Y-102983000D02*
X54086000Y-99660000D01*
X54086000Y-99660000D02*
X54086000Y-81160000D01*
X54086000Y-81160000D02*
X54086000Y-73160000D01*
X67050000Y-73279000D02*
X58127000Y-73279000D01*
X58127000Y-73279000D02*
X58086000Y-73320000D01*
D31*
X66500000Y-73279000D02*
X67050000Y-73279000D01*
D30*
X68586000Y-96737248D02*
X68586000Y-100052351D01*
X68586000Y-100052351D02*
X68195351Y-100443000D01*
X68195351Y-100443000D02*
X68171000Y-100443000D01*
X68171000Y-100443000D02*
X66796000Y-100443000D01*
X63008752Y-91160000D02*
X68586000Y-96737248D01*
X66508752Y-87660000D02*
X63586000Y-90582752D01*
X63586000Y-90582752D02*
X63008752Y-91160000D01*
X77586000Y-87660000D02*
X66508752Y-87660000D01*
X63008752Y-91160000D02*
X59586000Y-91160000D01*
X56086000Y-72160000D02*
X57507000Y-70739000D01*
X57507000Y-70739000D02*
X67050000Y-70739000D01*
X56086000Y-89660000D02*
X56086000Y-72160000D01*
X57586000Y-91160000D02*
X56086000Y-89660000D01*
X59586000Y-91160000D02*
X57586000Y-91160000D01*
D31*
X66500000Y-70739000D02*
X67050000Y-70739000D01*
D30*
X64586000Y-106272998D02*
X64586000Y-110660000D01*
X66796000Y-105523000D02*
X65335998Y-105523000D01*
X65335998Y-105523000D02*
X64586000Y-106272998D01*
X74121001Y-90195001D02*
X73746000Y-89820000D01*
X73746000Y-89820000D02*
X67086000Y-89820000D01*
X72396000Y-100443000D02*
X73771000Y-100443000D01*
X73771000Y-100443000D02*
X74121001Y-100092999D01*
X74121001Y-100092999D02*
X74121001Y-90195001D01*
X66796000Y-105523000D02*
X69207989Y-105523000D01*
X69207989Y-105523000D02*
X69570989Y-105160000D01*
X69570989Y-105160000D02*
X69570989Y-104062360D01*
X69570989Y-104062360D02*
X70473349Y-103160000D01*
X70473349Y-103160000D02*
X70473349Y-102175649D01*
X70473349Y-102175649D02*
X70935998Y-101713000D01*
X70935998Y-101713000D02*
X72396000Y-101713000D01*
X72396000Y-101713000D02*
X72396000Y-100443000D01*
X67050000Y-75819000D02*
X62087000Y-75819000D01*
X62087000Y-75819000D02*
X62086000Y-75820000D01*
X62086000Y-96422752D02*
X62086000Y-94160000D01*
X63566248Y-97903000D02*
X62086000Y-96422752D01*
X66796000Y-97903000D02*
X63566248Y-97903000D01*
X67046000Y-62160000D02*
X67046000Y-68195000D01*
X67046000Y-68195000D02*
X67050000Y-68199000D01*
X59546000Y-88660000D02*
X59546000Y-87316498D01*
X61702498Y-85160000D02*
X73586000Y-85160000D01*
X73586000Y-85160000D02*
X74586000Y-84160000D01*
X59546000Y-87316498D02*
X61702498Y-85160000D01*
X74586000Y-84160000D02*
X74586000Y-72484998D01*
X74586000Y-72484998D02*
X74110002Y-72009000D01*
X74110002Y-72009000D02*
X72650000Y-72009000D01*
X72650000Y-70739000D02*
X72650000Y-72009000D01*
X70924999Y-68498999D02*
X70924999Y-70474001D01*
X70924999Y-70474001D02*
X71189998Y-70739000D01*
X71189998Y-70739000D02*
X72650000Y-70739000D01*
X68688998Y-68160000D02*
X70586000Y-68160000D01*
X70586000Y-68160000D02*
X70924999Y-68498999D01*
X67050000Y-68199000D02*
X68649998Y-68199000D01*
X68649998Y-68199000D02*
X68688998Y-68160000D01*
X72650000Y-68199000D02*
X77547000Y-68199000D01*
X77547000Y-68199000D02*
X77586000Y-68160000D01*
D31*
X72650000Y-68199000D02*
X72650000Y-69469000D01*
D30*
X72396000Y-106793000D02*
X77219000Y-106793000D01*
X77219000Y-106793000D02*
X77586000Y-107160000D01*
X72396000Y-105523000D02*
X72396000Y-106793000D01*
D31*
X72396000Y-106970000D02*
X72396000Y-106793000D01*
D30*
X67086000Y-79660000D02*
X67086000Y-77125000D01*
X67086000Y-77125000D02*
X67050000Y-77089000D01*
X62086000Y-99160000D02*
X66783000Y-99160000D01*
X66783000Y-99160000D02*
X66796000Y-99173000D01*
X70086000Y-73670000D02*
X70086000Y-74660000D01*
X70086000Y-74660000D02*
X70086000Y-76160000D01*
X67050000Y-74549000D02*
X69975000Y-74549000D01*
X69975000Y-74549000D02*
X70086000Y-74660000D01*
X72650000Y-75819000D02*
X72650000Y-77089000D01*
X67050000Y-72009000D02*
X68425000Y-72009000D01*
X68425000Y-72009000D02*
X70086000Y-73670000D01*
X70086000Y-76160000D02*
X71015000Y-77089000D01*
X71015000Y-77089000D02*
X72650000Y-77089000D01*
X72650000Y-74549000D02*
X72650000Y-73279000D01*
X72650000Y-73279000D02*
X71275000Y-73279000D01*
X71275000Y-73279000D02*
X69824989Y-71828989D01*
X68510002Y-69469000D02*
X67050000Y-69469000D01*
X69824989Y-71828989D02*
X69824989Y-70783987D01*
X69824989Y-70783987D02*
X68510002Y-69469000D01*
X70670999Y-106575001D02*
X70453000Y-106793000D01*
X70453000Y-106793000D02*
X66796000Y-106793000D01*
X70670999Y-104517999D02*
X70670999Y-106575001D01*
X72396000Y-104253000D02*
X70935998Y-104253000D01*
X70935998Y-104253000D02*
X70670999Y-104517999D01*
X72396000Y-102983000D02*
X72396000Y-104253000D01*
X72396000Y-97903000D02*
X72396000Y-99173000D01*
X69373339Y-101660000D02*
X69373339Y-100820661D01*
X69373339Y-102704361D02*
X69373339Y-101660000D01*
X69320339Y-101713000D02*
X66796000Y-101713000D01*
X69373339Y-101660000D02*
X69320339Y-101713000D01*
X66796000Y-104253000D02*
X68256002Y-104253000D01*
X68256002Y-104253000D02*
X68470979Y-104038023D01*
X68470979Y-104038023D02*
X68470979Y-103606721D01*
X68470979Y-103606721D02*
X69373339Y-102704361D01*
X69373339Y-100820661D02*
X71021000Y-99173000D01*
X71021000Y-99173000D02*
X72396000Y-99173000D01*
D32*
X74000000Y-54000000D02*
X63546000Y-54000000D01*
X63546000Y-54000000D02*
X59386000Y-58160000D01*
X82586000Y-62586000D02*
X74000000Y-54000000D01*
X82586000Y-73160000D02*
X82586000Y-62586000D01*
X82586000Y-73160000D02*
X81160000Y-73160000D01*
X83000000Y-75000000D02*
X84000000Y-75000000D01*
X83235999Y-70780001D02*
X83235999Y-72510001D01*
X81160000Y-73160000D02*
X83000000Y-75000000D01*
X84000000Y-75000000D02*
X87000000Y-72000000D01*
X87000000Y-72000000D02*
X84609590Y-69609590D01*
X84609590Y-69609590D02*
X84406410Y-69609590D01*
X84406410Y-69609590D02*
X83235999Y-70780001D01*
X83235999Y-72510001D02*
X82586000Y-73160000D01*
X90086000Y-97660000D02*
X86833309Y-97660000D01*
X92000000Y-101746000D02*
X90919309Y-101746000D01*
X90919309Y-101746000D02*
X90086000Y-100912691D01*
X90086000Y-100912691D02*
X90086000Y-97660000D01*
X93340000Y-100660000D02*
X93086000Y-100660000D01*
X93086000Y-100660000D02*
X92000000Y-101746000D01*
X101086000Y-100660000D02*
X93340000Y-100660000D01*
X101086000Y-100660000D02*
X91000000Y-100660000D01*
X90086000Y-95086000D02*
X91000000Y-96000000D01*
X91000000Y-96000000D02*
X91000000Y-100660000D01*
X90086000Y-97660000D02*
X90086000Y-95086000D01*
X90086000Y-97660000D02*
X82142001Y-105603999D01*
X75181491Y-113659491D02*
X72182000Y-110660000D01*
X82142001Y-105603999D02*
X82142001Y-110063247D01*
X82142001Y-110063247D02*
X78545757Y-113659491D01*
X78545757Y-113659491D02*
X75181491Y-113659491D01*
X72182000Y-110660000D02*
X69666000Y-110660000D01*
X90086000Y-97660000D02*
X85585491Y-93159491D01*
X85585491Y-93159491D02*
X85585491Y-76159491D01*
X85585491Y-76159491D02*
X83235999Y-73809999D01*
X83235999Y-73809999D02*
X82586000Y-73160000D01*
D30*
X86833309Y-97660000D02*
X84586000Y-99907309D01*
X84586000Y-99907309D02*
X84586000Y-104940420D01*
X84586000Y-104940420D02*
X84586000Y-105890000D01*
X84586000Y-105890000D02*
X83999955Y-105890000D01*
X83999955Y-105890000D02*
X80999955Y-108890000D01*
X80999955Y-108890000D02*
X72952000Y-108890000D01*
X72952000Y-108890000D02*
X71182000Y-110660000D01*
X71182000Y-110660000D02*
X69666000Y-110660000D01*
X94000000Y-100660000D02*
X93086000Y-100660000D01*
X85836570Y-105890000D02*
X84586000Y-105890000D01*
X101086000Y-100660000D02*
X94000000Y-100660000D01*
X94000000Y-100660000D02*
X91066570Y-100660000D01*
X91066570Y-100660000D02*
X85836570Y-105890000D01*
X68196000Y-59000000D02*
X60226000Y-59000000D01*
X60226000Y-59000000D02*
X59386000Y-58160000D01*
X69586000Y-62160000D02*
X69586000Y-60390000D01*
X69586000Y-60390000D02*
X68196000Y-59000000D01*
X61000000Y-64574000D02*
X59500000Y-64574000D01*
X59500000Y-64574000D02*
X58086000Y-63160000D01*
X62086000Y-65660000D02*
X61000000Y-64574000D01*
X57000000Y-60546000D02*
X57000000Y-62074000D01*
X57000000Y-62074000D02*
X58086000Y-63160000D01*
X59386000Y-58160000D02*
X57000000Y-60546000D01*
X69666000Y-110660000D02*
X69666000Y-110914000D01*
X69666000Y-110914000D02*
X63920000Y-116660000D01*
X63920000Y-116660000D02*
X55584500Y-116660000D01*
X55584500Y-116660000D02*
X54386000Y-116660000D01*
D33*
G36*
X225873000Y-156873000D02*
X45127000Y-156873000D01*
X45127000Y-144000000D01*
X49873000Y-144000000D01*
X49873000Y-150000000D01*
X49882667Y-150048601D01*
X49910197Y-150089803D01*
X49951399Y-150117333D01*
X50000000Y-150127000D01*
X66000000Y-150127000D01*
X66048601Y-150117333D01*
X66089803Y-150089803D01*
X66117333Y-150048601D01*
X66127000Y-150000000D01*
X66127000Y-148893991D01*
X140704735Y-148893991D01*
X140937932Y-149458371D01*
X141369357Y-149890551D01*
X141933330Y-150124733D01*
X142543991Y-150125265D01*
X143108371Y-149892068D01*
X143540551Y-149460643D01*
X143774733Y-148896670D01*
X143774735Y-148893991D01*
X155944735Y-148893991D01*
X156177932Y-149458371D01*
X156609357Y-149890551D01*
X157173330Y-150124733D01*
X157783991Y-150125265D01*
X158348371Y-149892068D01*
X158780551Y-149460643D01*
X159014733Y-148896670D01*
X159015265Y-148286009D01*
X158782068Y-147721629D01*
X158350643Y-147289449D01*
X157786670Y-147055267D01*
X157176009Y-147054735D01*
X156611629Y-147287932D01*
X156179449Y-147719357D01*
X155945267Y-148283330D01*
X155944735Y-148893991D01*
X143774735Y-148893991D01*
X143775265Y-148286009D01*
X143542068Y-147721629D01*
X143110643Y-147289449D01*
X142546670Y-147055267D01*
X141936009Y-147054735D01*
X141371629Y-147287932D01*
X140939449Y-147719357D01*
X140705267Y-148283330D01*
X140704735Y-148893991D01*
X66127000Y-148893991D01*
X66127000Y-145065750D01*
X121094500Y-145065750D01*
X121094500Y-145604810D01*
X121191173Y-145838199D01*
X121369802Y-146016827D01*
X121603191Y-146113500D01*
X122142250Y-146113500D01*
X122301000Y-145954750D01*
X122301000Y-144907000D01*
X122555000Y-144907000D01*
X122555000Y-145954750D01*
X122713750Y-146113500D01*
X123252809Y-146113500D01*
X123486198Y-146016827D01*
X123664827Y-145838199D01*
X123761500Y-145604810D01*
X123761500Y-145065750D01*
X123739836Y-145044086D01*
X133794269Y-145044086D01*
X133996854Y-145534380D01*
X134371647Y-145909827D01*
X134861587Y-146113268D01*
X135392086Y-146113731D01*
X135882380Y-145911146D01*
X136257827Y-145536353D01*
X136461268Y-145046413D01*
X136461731Y-144515914D01*
X136259146Y-144025620D01*
X135884353Y-143650173D01*
X135394413Y-143446732D01*
X134863914Y-143446269D01*
X134373620Y-143648854D01*
X133998173Y-144023647D01*
X133794732Y-144513587D01*
X133794269Y-145044086D01*
X123739836Y-145044086D01*
X123602750Y-144907000D01*
X122555000Y-144907000D01*
X122301000Y-144907000D01*
X121253250Y-144907000D01*
X121094500Y-145065750D01*
X66127000Y-145065750D01*
X66127000Y-144000000D01*
X66118088Y-143955190D01*
X121094500Y-143955190D01*
X121094500Y-144494250D01*
X121253250Y-144653000D01*
X122301000Y-144653000D01*
X122301000Y-143605250D01*
X122555000Y-143605250D01*
X122555000Y-144653000D01*
X123602750Y-144653000D01*
X123761500Y-144494250D01*
X123761500Y-143955190D01*
X123664827Y-143721801D01*
X123486198Y-143543173D01*
X123252809Y-143446500D01*
X122713750Y-143446500D01*
X122555000Y-143605250D01*
X122301000Y-143605250D01*
X122142250Y-143446500D01*
X121603191Y-143446500D01*
X121369802Y-143543173D01*
X121191173Y-143721801D01*
X121094500Y-143955190D01*
X66118088Y-143955190D01*
X66117333Y-143951399D01*
X66089803Y-143910197D01*
X66048601Y-143882667D01*
X66000000Y-143873000D01*
X50000000Y-143873000D01*
X49951399Y-143882667D01*
X49910197Y-143910197D01*
X49882667Y-143951399D01*
X49873000Y-144000000D01*
X45127000Y-144000000D01*
X45127000Y-141264016D01*
X146089112Y-141264016D01*
X146314658Y-141809877D01*
X146731926Y-142227874D01*
X147277393Y-142454372D01*
X147868016Y-142454888D01*
X148413877Y-142229342D01*
X148719707Y-141924045D01*
X149023006Y-142227874D01*
X149568473Y-142454372D01*
X150159096Y-142454888D01*
X150704957Y-142229342D01*
X151010787Y-141924045D01*
X151314086Y-142227874D01*
X151859553Y-142454372D01*
X152450176Y-142454888D01*
X152996037Y-142229342D01*
X153414034Y-141812074D01*
X153640532Y-141266607D01*
X153641048Y-140675984D01*
X153415502Y-140130123D01*
X152998234Y-139712126D01*
X152452767Y-139485628D01*
X151862144Y-139485112D01*
X151316283Y-139710658D01*
X151010453Y-140015955D01*
X150707154Y-139712126D01*
X150161687Y-139485628D01*
X149571064Y-139485112D01*
X149025203Y-139710658D01*
X148719373Y-140015955D01*
X148416074Y-139712126D01*
X147870607Y-139485628D01*
X147279984Y-139485112D01*
X146734123Y-139710658D01*
X146316126Y-140127926D01*
X146089628Y-140673393D01*
X146089112Y-141264016D01*
X45127000Y-141264016D01*
X45127000Y-139114536D01*
X133413652Y-139114536D01*
X133639198Y-139660397D01*
X134056466Y-140078394D01*
X134601933Y-140304892D01*
X135192556Y-140305408D01*
X135738417Y-140079862D01*
X136156414Y-139662594D01*
X136382912Y-139117127D01*
X136383428Y-138526504D01*
X136157882Y-137980643D01*
X135740614Y-137562646D01*
X135195147Y-137336148D01*
X134604524Y-137335632D01*
X134058663Y-137561178D01*
X133640666Y-137978446D01*
X133414168Y-138523913D01*
X133413652Y-139114536D01*
X45127000Y-139114536D01*
X45127000Y-136184016D01*
X146089112Y-136184016D01*
X146314658Y-136729877D01*
X146731926Y-137147874D01*
X147277393Y-137374372D01*
X147868016Y-137374888D01*
X148413877Y-137149342D01*
X148719707Y-136844045D01*
X149023006Y-137147874D01*
X149568473Y-137374372D01*
X150159096Y-137374888D01*
X150704957Y-137149342D01*
X151010787Y-136844045D01*
X151314086Y-137147874D01*
X151859553Y-137374372D01*
X152450176Y-137374888D01*
X152996037Y-137149342D01*
X153414034Y-136732074D01*
X153640532Y-136186607D01*
X153641048Y-135595984D01*
X153415502Y-135050123D01*
X152998234Y-134632126D01*
X152452767Y-134405628D01*
X151862144Y-134405112D01*
X151316283Y-134630658D01*
X151010453Y-134935955D01*
X150707154Y-134632126D01*
X150161687Y-134405628D01*
X149571064Y-134405112D01*
X149025203Y-134630658D01*
X148719373Y-134935955D01*
X148416074Y-134632126D01*
X147870607Y-134405628D01*
X147279984Y-134405112D01*
X146734123Y-134630658D01*
X146316126Y-135047926D01*
X146089628Y-135593393D01*
X146089112Y-136184016D01*
X45127000Y-136184016D01*
X45127000Y-131310370D01*
X138238930Y-131310370D01*
X138238930Y-133009630D01*
X138288213Y-133257395D01*
X138428561Y-133467439D01*
X138638605Y-133607787D01*
X138886370Y-133657070D01*
X140585630Y-133657070D01*
X140833395Y-133607787D01*
X141043439Y-133467439D01*
X141183787Y-133257395D01*
X141233070Y-133009630D01*
X141233070Y-132454016D01*
X148411112Y-132454016D01*
X148636658Y-132999877D01*
X149053926Y-133417874D01*
X149599393Y-133644372D01*
X150190016Y-133644888D01*
X150735877Y-133419342D01*
X151153874Y-133002074D01*
X151380372Y-132456607D01*
X151380888Y-131865984D01*
X151155342Y-131320123D01*
X150738074Y-130902126D01*
X150192607Y-130675628D01*
X149601984Y-130675112D01*
X149056123Y-130900658D01*
X148638126Y-131317926D01*
X148411628Y-131863393D01*
X148411112Y-132454016D01*
X141233070Y-132454016D01*
X141233070Y-131310370D01*
X141183787Y-131062605D01*
X141043439Y-130852561D01*
X140833395Y-130712213D01*
X140585630Y-130662930D01*
X138886370Y-130662930D01*
X138638605Y-130712213D01*
X138428561Y-130852561D01*
X138288213Y-131062605D01*
X138238930Y-131310370D01*
X45127000Y-131310370D01*
X45127000Y-127143694D01*
X98951226Y-127143694D01*
X99199538Y-127744655D01*
X99658927Y-128204846D01*
X100259453Y-128454206D01*
X100909694Y-128454774D01*
X101510655Y-128206462D01*
X101906917Y-127810890D01*
X133401470Y-127810890D01*
X133401470Y-129510150D01*
X133450753Y-129757915D01*
X133591101Y-129967959D01*
X133801145Y-130108307D01*
X134048910Y-130157590D01*
X135748170Y-130157590D01*
X135995935Y-130108307D01*
X136205979Y-129967959D01*
X136346327Y-129757915D01*
X136395610Y-129510150D01*
X136395610Y-128454016D01*
X145911112Y-128454016D01*
X146136658Y-128999877D01*
X146553926Y-129417874D01*
X147099393Y-129644372D01*
X147690016Y-129644888D01*
X148235877Y-129419342D01*
X148541707Y-129114045D01*
X148845006Y-129417874D01*
X149390473Y-129644372D01*
X149981096Y-129644888D01*
X150526957Y-129419342D01*
X150832787Y-129114045D01*
X151136086Y-129417874D01*
X151681553Y-129644372D01*
X152272176Y-129644888D01*
X152818037Y-129419342D01*
X153236034Y-129002074D01*
X153462532Y-128456607D01*
X153463048Y-127865984D01*
X153237502Y-127320123D01*
X152820234Y-126902126D01*
X152274767Y-126675628D01*
X151684144Y-126675112D01*
X151138283Y-126900658D01*
X150832453Y-127205955D01*
X150529154Y-126902126D01*
X149983687Y-126675628D01*
X149393064Y-126675112D01*
X148847203Y-126900658D01*
X148541373Y-127205955D01*
X148238074Y-126902126D01*
X147692607Y-126675628D01*
X147101984Y-126675112D01*
X146556123Y-126900658D01*
X146138126Y-127317926D01*
X145911628Y-127863393D01*
X145911112Y-128454016D01*
X136395610Y-128454016D01*
X136395610Y-127810890D01*
X136346327Y-127563125D01*
X136205979Y-127353081D01*
X135995935Y-127212733D01*
X135748170Y-127163450D01*
X134048910Y-127163450D01*
X133801145Y-127212733D01*
X133591101Y-127353081D01*
X133450753Y-127563125D01*
X133401470Y-127810890D01*
X101906917Y-127810890D01*
X101970846Y-127747073D01*
X102220206Y-127146547D01*
X102220774Y-126496306D01*
X101972462Y-125895345D01*
X101691624Y-125614016D01*
X133411112Y-125614016D01*
X133636658Y-126159877D01*
X134053926Y-126577874D01*
X134599393Y-126804372D01*
X135190016Y-126804888D01*
X135735877Y-126579342D01*
X136153874Y-126162074D01*
X136369124Y-125643694D01*
X138261226Y-125643694D01*
X138509538Y-126244655D01*
X138968927Y-126704846D01*
X139569453Y-126954206D01*
X140219694Y-126954774D01*
X140820655Y-126706462D01*
X141280846Y-126247073D01*
X141530206Y-125646547D01*
X141530774Y-124996306D01*
X141282462Y-124395345D01*
X140871529Y-123983694D01*
X145761226Y-123983694D01*
X146009538Y-124584655D01*
X146468927Y-125044846D01*
X147069453Y-125294206D01*
X147719694Y-125294774D01*
X148320655Y-125046462D01*
X148780846Y-124587073D01*
X149030206Y-123986547D01*
X149030208Y-123983694D01*
X155921226Y-123983694D01*
X156169538Y-124584655D01*
X156628927Y-125044846D01*
X157229453Y-125294206D01*
X157879694Y-125294774D01*
X158480655Y-125046462D01*
X158527198Y-125000000D01*
X160873000Y-125000000D01*
X160873000Y-146000000D01*
X160882667Y-146048601D01*
X160910197Y-146089803D01*
X160951399Y-146117333D01*
X161000000Y-146127000D01*
X187000000Y-146127000D01*
X187048601Y-146117333D01*
X187089803Y-146089803D01*
X187117333Y-146048601D01*
X187127000Y-146000000D01*
X187127000Y-137463991D01*
X198616735Y-137463991D01*
X198849932Y-138028371D01*
X199281357Y-138460551D01*
X199845330Y-138694733D01*
X200455991Y-138695265D01*
X201020371Y-138462068D01*
X201452551Y-138030643D01*
X201686733Y-137466670D01*
X201686735Y-137463991D01*
X212332735Y-137463991D01*
X212565932Y-138028371D01*
X212997357Y-138460551D01*
X213561330Y-138694733D01*
X214171991Y-138695265D01*
X214736371Y-138462068D01*
X215168551Y-138030643D01*
X215402733Y-137466670D01*
X215403265Y-136856009D01*
X215170068Y-136291629D01*
X214738643Y-135859449D01*
X214174670Y-135625267D01*
X213564009Y-135624735D01*
X212999629Y-135857932D01*
X212567449Y-136289357D01*
X212333267Y-136853330D01*
X212332735Y-137463991D01*
X201686735Y-137463991D01*
X201687265Y-136856009D01*
X201454068Y-136291629D01*
X201022643Y-135859449D01*
X200458670Y-135625267D01*
X199848009Y-135624735D01*
X199283629Y-135857932D01*
X198851449Y-136289357D01*
X198617267Y-136853330D01*
X198616735Y-137463991D01*
X187127000Y-137463991D01*
X187127000Y-125000000D01*
X187117333Y-124951399D01*
X187089803Y-124910197D01*
X187048601Y-124882667D01*
X187000000Y-124873000D01*
X161000000Y-124873000D01*
X160951399Y-124882667D01*
X160910197Y-124910197D01*
X160882667Y-124951399D01*
X160873000Y-125000000D01*
X158527198Y-125000000D01*
X158940846Y-124587073D01*
X159190206Y-123986547D01*
X159190774Y-123336306D01*
X158942462Y-122735345D01*
X158483073Y-122275154D01*
X157882547Y-122025794D01*
X157232306Y-122025226D01*
X156631345Y-122273538D01*
X156171154Y-122732927D01*
X155921794Y-123333453D01*
X155921226Y-123983694D01*
X149030208Y-123983694D01*
X149030774Y-123336306D01*
X148782462Y-122735345D01*
X148323073Y-122275154D01*
X147722547Y-122025794D01*
X147072306Y-122025226D01*
X146471345Y-122273538D01*
X146011154Y-122732927D01*
X145761794Y-123333453D01*
X145761226Y-123983694D01*
X140871529Y-123983694D01*
X140823073Y-123935154D01*
X140222547Y-123685794D01*
X139572306Y-123685226D01*
X138971345Y-123933538D01*
X138511154Y-124392927D01*
X138261794Y-124993453D01*
X138261226Y-125643694D01*
X136369124Y-125643694D01*
X136380372Y-125616607D01*
X136380888Y-125025984D01*
X136155342Y-124480123D01*
X135738074Y-124062126D01*
X135192607Y-123835628D01*
X134601984Y-123835112D01*
X134056123Y-124060658D01*
X133638126Y-124477926D01*
X133411628Y-125023393D01*
X133411112Y-125614016D01*
X101691624Y-125614016D01*
X101513073Y-125435154D01*
X100912547Y-125185794D01*
X100262306Y-125185226D01*
X99661345Y-125433538D01*
X99201154Y-125892927D01*
X98951794Y-126493453D01*
X98951226Y-127143694D01*
X45127000Y-127143694D01*
X45127000Y-122143694D01*
X75951226Y-122143694D01*
X76199538Y-122744655D01*
X76658927Y-123204846D01*
X77259453Y-123454206D01*
X77909694Y-123454774D01*
X78510655Y-123206462D01*
X78970846Y-122747073D01*
X79220206Y-122146547D01*
X79220774Y-121496306D01*
X78972462Y-120895345D01*
X78721556Y-120644000D01*
X80922560Y-120644000D01*
X80922560Y-122676000D01*
X80971843Y-122923765D01*
X81112191Y-123133809D01*
X81322235Y-123274157D01*
X81570000Y-123323440D01*
X83602000Y-123323440D01*
X83849765Y-123274157D01*
X84059809Y-123133809D01*
X84155146Y-122991128D01*
X84494190Y-123217670D01*
X85126000Y-123343345D01*
X85757810Y-123217670D01*
X86293433Y-122859778D01*
X86651325Y-122324155D01*
X86687220Y-122143694D01*
X87451226Y-122143694D01*
X87699538Y-122744655D01*
X88158927Y-123204846D01*
X88759453Y-123454206D01*
X89409694Y-123454774D01*
X90010655Y-123206462D01*
X90470846Y-122747073D01*
X90720206Y-122146547D01*
X90720774Y-121496306D01*
X90472462Y-120895345D01*
X90013073Y-120435154D01*
X89412547Y-120185794D01*
X88762306Y-120185226D01*
X88161345Y-120433538D01*
X87701154Y-120892927D01*
X87451794Y-121493453D01*
X87451226Y-122143694D01*
X86687220Y-122143694D01*
X86777000Y-121692345D01*
X86777000Y-121627655D01*
X86651325Y-120995845D01*
X86293433Y-120460222D01*
X85757810Y-120102330D01*
X85126000Y-119976655D01*
X84494190Y-120102330D01*
X84155146Y-120328872D01*
X84059809Y-120186191D01*
X83849765Y-120045843D01*
X83602000Y-119996560D01*
X81570000Y-119996560D01*
X81322235Y-120045843D01*
X81112191Y-120186191D01*
X80971843Y-120396235D01*
X80922560Y-120644000D01*
X78721556Y-120644000D01*
X78513073Y-120435154D01*
X77912547Y-120185794D01*
X77262306Y-120185226D01*
X76661345Y-120433538D01*
X76201154Y-120892927D01*
X75951794Y-121493453D01*
X75951226Y-122143694D01*
X45127000Y-122143694D01*
X45127000Y-119483694D01*
X145761226Y-119483694D01*
X146009538Y-120084655D01*
X146468927Y-120544846D01*
X147069453Y-120794206D01*
X147719694Y-120794774D01*
X148320655Y-120546462D01*
X148780846Y-120087073D01*
X149030206Y-119486547D01*
X149030208Y-119483694D01*
X155921226Y-119483694D01*
X156169538Y-120084655D01*
X156628927Y-120544846D01*
X157229453Y-120794206D01*
X157879694Y-120794774D01*
X158480655Y-120546462D01*
X158940846Y-120087073D01*
X159190206Y-119486547D01*
X159190774Y-118836306D01*
X159107394Y-118634510D01*
X221873070Y-118634510D01*
X221873070Y-120633490D01*
X221922353Y-120881255D01*
X222062701Y-121091299D01*
X222272745Y-121231647D01*
X222520510Y-121280930D01*
X224519490Y-121280930D01*
X224767255Y-121231647D01*
X224977299Y-121091299D01*
X225117647Y-120881255D01*
X225166930Y-120633490D01*
X225166930Y-118634510D01*
X225117647Y-118386745D01*
X224977299Y-118176701D01*
X224767255Y-118036353D01*
X224519490Y-117987070D01*
X222520510Y-117987070D01*
X222272745Y-118036353D01*
X222062701Y-118176701D01*
X221922353Y-118386745D01*
X221873070Y-118634510D01*
X159107394Y-118634510D01*
X158942462Y-118235345D01*
X158483073Y-117775154D01*
X157882547Y-117525794D01*
X157232306Y-117525226D01*
X156631345Y-117773538D01*
X156171154Y-118232927D01*
X155921794Y-118833453D01*
X155921226Y-119483694D01*
X149030208Y-119483694D01*
X149030774Y-118836306D01*
X148782462Y-118235345D01*
X148323073Y-117775154D01*
X147722547Y-117525794D01*
X147072306Y-117525226D01*
X146471345Y-117773538D01*
X146011154Y-118232927D01*
X145761794Y-118833453D01*
X145761226Y-119483694D01*
X45127000Y-119483694D01*
X45127000Y-116945750D01*
X53052500Y-116945750D01*
X53052500Y-117484810D01*
X53149173Y-117718199D01*
X53327802Y-117896827D01*
X53561191Y-117993500D01*
X54100250Y-117993500D01*
X54259000Y-117834750D01*
X54259000Y-116787000D01*
X54513000Y-116787000D01*
X54513000Y-117834750D01*
X54671750Y-117993500D01*
X55210809Y-117993500D01*
X55444198Y-117896827D01*
X55622827Y-117718199D01*
X55719500Y-117484810D01*
X55719500Y-116945750D01*
X55697836Y-116924086D01*
X65752269Y-116924086D01*
X65954854Y-117414380D01*
X66329647Y-117789827D01*
X66819587Y-117993268D01*
X67350086Y-117993731D01*
X67840380Y-117791146D01*
X68215827Y-117416353D01*
X68395482Y-116983694D01*
X98951226Y-116983694D01*
X99199538Y-117584655D01*
X99658927Y-118044846D01*
X100259453Y-118294206D01*
X100909694Y-118294774D01*
X101510655Y-118046462D01*
X101970846Y-117587073D01*
X102220206Y-116986547D01*
X102220774Y-116336306D01*
X101972462Y-115735345D01*
X101513073Y-115275154D01*
X100912547Y-115025794D01*
X100262306Y-115025226D01*
X99661345Y-115273538D01*
X99201154Y-115732927D01*
X98951794Y-116333453D01*
X98951226Y-116983694D01*
X68395482Y-116983694D01*
X68419268Y-116926413D01*
X68419731Y-116395914D01*
X68217146Y-115905620D01*
X67842353Y-115530173D01*
X67352413Y-115326732D01*
X66821914Y-115326269D01*
X66331620Y-115528854D01*
X65956173Y-115903647D01*
X65752732Y-116393587D01*
X65752269Y-116924086D01*
X55697836Y-116924086D01*
X55560750Y-116787000D01*
X54513000Y-116787000D01*
X54259000Y-116787000D01*
X53211250Y-116787000D01*
X53052500Y-116945750D01*
X45127000Y-116945750D01*
X45127000Y-115835190D01*
X53052500Y-115835190D01*
X53052500Y-116374250D01*
X53211250Y-116533000D01*
X54259000Y-116533000D01*
X54259000Y-115485250D01*
X54513000Y-115485250D01*
X54513000Y-116533000D01*
X55560750Y-116533000D01*
X55719500Y-116374250D01*
X55719500Y-115835190D01*
X55622827Y-115601801D01*
X55444198Y-115423173D01*
X55210809Y-115326500D01*
X54671750Y-115326500D01*
X54513000Y-115485250D01*
X54259000Y-115485250D01*
X54100250Y-115326500D01*
X53561191Y-115326500D01*
X53327802Y-115423173D01*
X53149173Y-115601801D01*
X53052500Y-115835190D01*
X45127000Y-115835190D01*
X45127000Y-114310370D01*
X133398930Y-114310370D01*
X133398930Y-116009630D01*
X133448213Y-116257395D01*
X133588561Y-116467439D01*
X133798605Y-116607787D01*
X134046370Y-116657070D01*
X135745630Y-116657070D01*
X135993395Y-116607787D01*
X136203439Y-116467439D01*
X136343787Y-116257395D01*
X136393070Y-116009630D01*
X136393070Y-115483694D01*
X138261226Y-115483694D01*
X138509538Y-116084655D01*
X138968927Y-116544846D01*
X139569453Y-116794206D01*
X140219694Y-116794774D01*
X140820655Y-116546462D01*
X141280846Y-116087073D01*
X141530206Y-115486547D01*
X141530208Y-115483694D01*
X145761226Y-115483694D01*
X146009538Y-116084655D01*
X146468927Y-116544846D01*
X147069453Y-116794206D01*
X147719694Y-116794774D01*
X148320655Y-116546462D01*
X148780846Y-116087073D01*
X149030206Y-115486547D01*
X149030208Y-115483694D01*
X155921226Y-115483694D01*
X156169538Y-116084655D01*
X156628927Y-116544846D01*
X157229453Y-116794206D01*
X157879694Y-116794774D01*
X158480655Y-116546462D01*
X158940846Y-116087073D01*
X159190206Y-115486547D01*
X159190774Y-114836306D01*
X158942462Y-114235345D01*
X158483073Y-113775154D01*
X157882547Y-113525794D01*
X157232306Y-113525226D01*
X156631345Y-113773538D01*
X156171154Y-114232927D01*
X155921794Y-114833453D01*
X155921226Y-115483694D01*
X149030208Y-115483694D01*
X149030774Y-114836306D01*
X148782462Y-114235345D01*
X148323073Y-113775154D01*
X147722547Y-113525794D01*
X147072306Y-113525226D01*
X146471345Y-113773538D01*
X146011154Y-114232927D01*
X145761794Y-114833453D01*
X145761226Y-115483694D01*
X141530208Y-115483694D01*
X141530774Y-114836306D01*
X141282462Y-114235345D01*
X140823073Y-113775154D01*
X140222547Y-113525794D01*
X139572306Y-113525226D01*
X138971345Y-113773538D01*
X138511154Y-114232927D01*
X138261794Y-114833453D01*
X138261226Y-115483694D01*
X136393070Y-115483694D01*
X136393070Y-114310370D01*
X136343787Y-114062605D01*
X136203439Y-113852561D01*
X135993395Y-113712213D01*
X135745630Y-113662930D01*
X134046370Y-113662930D01*
X133798605Y-113712213D01*
X133588561Y-113852561D01*
X133448213Y-114062605D01*
X133398930Y-114310370D01*
X45127000Y-114310370D01*
X45127000Y-99483694D01*
X50291226Y-99483694D01*
X50539538Y-100084655D01*
X50998927Y-100544846D01*
X51599453Y-100794206D01*
X52249694Y-100794774D01*
X52850655Y-100546462D01*
X53310846Y-100087073D01*
X53317203Y-100071764D01*
X53348097Y-100118000D01*
X53460210Y-100285790D01*
X56783208Y-103608787D01*
X56783210Y-103608790D01*
X57070325Y-103800633D01*
X57126516Y-103811810D01*
X57409000Y-103868001D01*
X57409005Y-103868000D01*
X65285495Y-103868000D01*
X65273560Y-103928000D01*
X65273560Y-104578000D01*
X65287417Y-104647663D01*
X64997323Y-104705367D01*
X64710208Y-104897210D01*
X64710206Y-104897213D01*
X63960210Y-105647208D01*
X63768367Y-105934323D01*
X63763657Y-105958000D01*
X63700999Y-106272998D01*
X63701000Y-106273003D01*
X63701000Y-109012530D01*
X63418567Y-109201246D01*
X63060675Y-109736869D01*
X62935000Y-110368679D01*
X62935000Y-110951321D01*
X63060675Y-111583131D01*
X63418567Y-112118754D01*
X63954190Y-112476646D01*
X64586000Y-112602321D01*
X65217810Y-112476646D01*
X65753433Y-112118754D01*
X65856000Y-111965252D01*
X65958567Y-112118754D01*
X66494190Y-112476646D01*
X67126000Y-112602321D01*
X67757810Y-112476646D01*
X68293433Y-112118754D01*
X68410054Y-111944219D01*
X68588370Y-112171236D01*
X69151523Y-112487926D01*
X69283056Y-112519975D01*
X69539000Y-112400836D01*
X69539000Y-110787000D01*
X69793000Y-110787000D01*
X69793000Y-112400836D01*
X70048944Y-112519975D01*
X70180477Y-112487926D01*
X70743630Y-112171236D01*
X70890939Y-111983694D01*
X75951226Y-111983694D01*
X76199538Y-112584655D01*
X76658927Y-113044846D01*
X77259453Y-113294206D01*
X77909694Y-113294774D01*
X78510655Y-113046462D01*
X78970846Y-112587073D01*
X79220206Y-111986547D01*
X79220208Y-111983694D01*
X87451226Y-111983694D01*
X87699538Y-112584655D01*
X88158927Y-113044846D01*
X88759453Y-113294206D01*
X89409694Y-113294774D01*
X90010655Y-113046462D01*
X90470846Y-112587073D01*
X90720206Y-111986547D01*
X90720774Y-111336306D01*
X90472462Y-110735345D01*
X90127719Y-110390000D01*
X99173285Y-110390000D01*
X99255844Y-110805051D01*
X99402809Y-111025000D01*
X99255844Y-111244949D01*
X99173285Y-111660000D01*
X99255844Y-112075051D01*
X99402809Y-112295000D01*
X99255844Y-112514949D01*
X99173285Y-112930000D01*
X99255844Y-113345051D01*
X99490951Y-113696914D01*
X99842814Y-113932021D01*
X100257865Y-114014580D01*
X100914135Y-114014580D01*
X101329186Y-113932021D01*
X101681049Y-113696914D01*
X101916156Y-113345051D01*
X101956208Y-113143694D01*
X164481226Y-113143694D01*
X164729538Y-113744655D01*
X165188927Y-114204846D01*
X165789453Y-114454206D01*
X166439694Y-114454774D01*
X167040655Y-114206462D01*
X167500846Y-113747073D01*
X167750206Y-113146547D01*
X167750774Y-112496306D01*
X167502462Y-111895345D01*
X167043073Y-111435154D01*
X166442547Y-111185794D01*
X165792306Y-111185226D01*
X165191345Y-111433538D01*
X164731154Y-111892927D01*
X164481794Y-112493453D01*
X164481226Y-113143694D01*
X101956208Y-113143694D01*
X101998715Y-112930000D01*
X101916156Y-112514949D01*
X101769191Y-112295000D01*
X101916156Y-112075051D01*
X101998715Y-111660000D01*
X101916156Y-111244949D01*
X101769191Y-111025000D01*
X101916156Y-110805051D01*
X101991934Y-110424086D01*
X133416269Y-110424086D01*
X133618854Y-110914380D01*
X133993647Y-111289827D01*
X134483587Y-111493268D01*
X135014086Y-111493731D01*
X135504380Y-111291146D01*
X135879827Y-110916353D01*
X136083268Y-110426413D01*
X136083731Y-109895914D01*
X135904236Y-109461500D01*
X146104060Y-109461500D01*
X146104060Y-110858500D01*
X146153343Y-111106265D01*
X146293691Y-111316309D01*
X146503735Y-111456657D01*
X146751500Y-111505940D01*
X148148500Y-111505940D01*
X148396265Y-111456657D01*
X148606309Y-111316309D01*
X148746657Y-111106265D01*
X148795940Y-110858500D01*
X148795940Y-110483694D01*
X158315226Y-110483694D01*
X158563538Y-111084655D01*
X159022927Y-111544846D01*
X159623453Y-111794206D01*
X160273694Y-111794774D01*
X160874655Y-111546462D01*
X161334846Y-111087073D01*
X161584206Y-110486547D01*
X161584774Y-109836306D01*
X161336462Y-109235345D01*
X160877073Y-108775154D01*
X160276547Y-108525794D01*
X159626306Y-108525226D01*
X159025345Y-108773538D01*
X158565154Y-109232927D01*
X158315794Y-109833453D01*
X158315226Y-110483694D01*
X148795940Y-110483694D01*
X148795940Y-109461500D01*
X148746657Y-109213735D01*
X148606309Y-109003691D01*
X148396265Y-108863343D01*
X148148500Y-108814060D01*
X146751500Y-108814060D01*
X146503735Y-108863343D01*
X146293691Y-109003691D01*
X146153343Y-109213735D01*
X146104060Y-109461500D01*
X135904236Y-109461500D01*
X135881146Y-109405620D01*
X135506353Y-109030173D01*
X135016413Y-108826732D01*
X134485914Y-108826269D01*
X133995620Y-109028854D01*
X133620173Y-109403647D01*
X133416732Y-109893587D01*
X133416269Y-110424086D01*
X101991934Y-110424086D01*
X101998715Y-110390000D01*
X101916156Y-109974949D01*
X101681049Y-109623086D01*
X101329186Y-109387979D01*
X100914135Y-109305420D01*
X100257865Y-109305420D01*
X99842814Y-109387979D01*
X99490951Y-109623086D01*
X99255844Y-109974949D01*
X99173285Y-110390000D01*
X90127719Y-110390000D01*
X90013073Y-110275154D01*
X89412547Y-110025794D01*
X88762306Y-110025226D01*
X88161345Y-110273538D01*
X87701154Y-110732927D01*
X87451794Y-111333453D01*
X87451226Y-111983694D01*
X79220208Y-111983694D01*
X79220774Y-111336306D01*
X78972462Y-110735345D01*
X78513073Y-110275154D01*
X77912547Y-110025794D01*
X77262306Y-110025226D01*
X76661345Y-110273538D01*
X76201154Y-110732927D01*
X75951794Y-111333453D01*
X75951226Y-111983694D01*
X70890939Y-111983694D01*
X71142724Y-111663143D01*
X71317000Y-111041000D01*
X71317000Y-110787000D01*
X69793000Y-110787000D01*
X69539000Y-110787000D01*
X69519000Y-110787000D01*
X69519000Y-110533000D01*
X69539000Y-110533000D01*
X69539000Y-108919164D01*
X69793000Y-108919164D01*
X69793000Y-110533000D01*
X71317000Y-110533000D01*
X71317000Y-110279000D01*
X71142724Y-109656857D01*
X70743630Y-109148764D01*
X70180477Y-108832074D01*
X70048944Y-108800025D01*
X69793000Y-108919164D01*
X69539000Y-108919164D01*
X69283056Y-108800025D01*
X69151523Y-108832074D01*
X68588370Y-109148764D01*
X68410054Y-109375781D01*
X68293433Y-109201246D01*
X67757810Y-108843354D01*
X67126000Y-108717679D01*
X66494190Y-108843354D01*
X65958567Y-109201246D01*
X65856000Y-109354748D01*
X65753433Y-109201246D01*
X65471000Y-109012530D01*
X65471000Y-107581027D01*
X65673235Y-107716157D01*
X65921000Y-107765440D01*
X67671000Y-107765440D01*
X67918765Y-107716157D01*
X67975871Y-107678000D01*
X70452995Y-107678000D01*
X70453000Y-107678001D01*
X70735484Y-107621810D01*
X70791675Y-107610633D01*
X70995472Y-107474461D01*
X71063191Y-107575809D01*
X71273235Y-107716157D01*
X71521000Y-107765440D01*
X72197120Y-107765440D01*
X72396000Y-107805000D01*
X72594880Y-107765440D01*
X73271000Y-107765440D01*
X73518765Y-107716157D01*
X73575871Y-107678000D01*
X75922560Y-107678000D01*
X75922560Y-108176000D01*
X75971843Y-108423765D01*
X76112191Y-108633809D01*
X76322235Y-108774157D01*
X76570000Y-108823440D01*
X78602000Y-108823440D01*
X78849765Y-108774157D01*
X79059809Y-108633809D01*
X79155146Y-108491128D01*
X79494190Y-108717670D01*
X80126000Y-108843345D01*
X80757810Y-108717670D01*
X81293433Y-108359778D01*
X81651325Y-107824155D01*
X81777000Y-107192345D01*
X81777000Y-107160000D01*
X83173285Y-107160000D01*
X83255844Y-107575051D01*
X83402809Y-107795000D01*
X83255844Y-108014949D01*
X83173285Y-108430000D01*
X83255844Y-108845051D01*
X83490951Y-109196914D01*
X83842814Y-109432021D01*
X84257865Y-109514580D01*
X84914135Y-109514580D01*
X85329186Y-109432021D01*
X85681049Y-109196914D01*
X85916156Y-108845051D01*
X85998715Y-108430000D01*
X85916156Y-108014949D01*
X85769191Y-107795000D01*
X85916156Y-107575051D01*
X85946184Y-107424086D01*
X86752269Y-107424086D01*
X86954854Y-107914380D01*
X87329647Y-108289827D01*
X87819587Y-108493268D01*
X88350086Y-108493731D01*
X88840380Y-108291146D01*
X89215827Y-107916353D01*
X89419268Y-107426413D01*
X89419731Y-106895914D01*
X89240236Y-106461500D01*
X99440060Y-106461500D01*
X99440060Y-107858500D01*
X99489343Y-108106265D01*
X99629691Y-108316309D01*
X99839735Y-108456657D01*
X100087500Y-108505940D01*
X101484500Y-108505940D01*
X101732265Y-108456657D01*
X101942309Y-108316309D01*
X102082657Y-108106265D01*
X102124744Y-107894677D01*
X116314794Y-107894677D01*
X116494820Y-108330372D01*
X116827875Y-108664009D01*
X117263255Y-108844794D01*
X117734677Y-108845206D01*
X118170372Y-108665180D01*
X118504009Y-108332125D01*
X118684794Y-107896745D01*
X118684795Y-107894677D01*
X121214794Y-107894677D01*
X121394820Y-108330372D01*
X121727875Y-108664009D01*
X122163255Y-108844794D01*
X122634677Y-108845206D01*
X123070372Y-108665180D01*
X123404009Y-108332125D01*
X123584794Y-107896745D01*
X123584795Y-107894677D01*
X126264794Y-107894677D01*
X126444820Y-108330372D01*
X126777875Y-108664009D01*
X127213255Y-108844794D01*
X127684677Y-108845206D01*
X128120372Y-108665180D01*
X128454009Y-108332125D01*
X128634794Y-107896745D01*
X128635206Y-107425323D01*
X128455180Y-106989628D01*
X128122125Y-106655991D01*
X127686745Y-106475206D01*
X127215323Y-106474794D01*
X126779628Y-106654820D01*
X126445991Y-106987875D01*
X126265206Y-107423255D01*
X126264794Y-107894677D01*
X123584795Y-107894677D01*
X123585206Y-107425323D01*
X123405180Y-106989628D01*
X123072125Y-106655991D01*
X122636745Y-106475206D01*
X122165323Y-106474794D01*
X121729628Y-106654820D01*
X121395991Y-106987875D01*
X121215206Y-107423255D01*
X121214794Y-107894677D01*
X118684795Y-107894677D01*
X118685206Y-107425323D01*
X118505180Y-106989628D01*
X118172125Y-106655991D01*
X117736745Y-106475206D01*
X117265323Y-106474794D01*
X116829628Y-106654820D01*
X116495991Y-106987875D01*
X116315206Y-107423255D01*
X116314794Y-107894677D01*
X102124744Y-107894677D01*
X102131940Y-107858500D01*
X102131940Y-106461500D01*
X102082657Y-106213735D01*
X101942309Y-106003691D01*
X101732265Y-105863343D01*
X101484500Y-105814060D01*
X100087500Y-105814060D01*
X99839735Y-105863343D01*
X99629691Y-106003691D01*
X99489343Y-106213735D01*
X99440060Y-106461500D01*
X89240236Y-106461500D01*
X89217146Y-106405620D01*
X88842353Y-106030173D01*
X88352413Y-105826732D01*
X87821914Y-105826269D01*
X87331620Y-106028854D01*
X86956173Y-106403647D01*
X86752732Y-106893587D01*
X86752269Y-107424086D01*
X85946184Y-107424086D01*
X85998715Y-107160000D01*
X85916156Y-106744949D01*
X85766359Y-106520762D01*
X85930981Y-106183935D01*
X85804068Y-106017000D01*
X84713000Y-106017000D01*
X84713000Y-106037000D01*
X84459000Y-106037000D01*
X84459000Y-106017000D01*
X83367932Y-106017000D01*
X83241019Y-106183935D01*
X83405641Y-106520762D01*
X83255844Y-106744949D01*
X83173285Y-107160000D01*
X81777000Y-107160000D01*
X81777000Y-107127655D01*
X81651325Y-106495845D01*
X81293433Y-105960222D01*
X80757810Y-105602330D01*
X80726314Y-105596065D01*
X83241019Y-105596065D01*
X83367932Y-105763000D01*
X84459000Y-105763000D01*
X84459000Y-104805420D01*
X84713000Y-104805420D01*
X84713000Y-105763000D01*
X85804068Y-105763000D01*
X85930981Y-105596065D01*
X85743706Y-105212889D01*
X85419373Y-104936580D01*
X85013990Y-104805420D01*
X84713000Y-104805420D01*
X84459000Y-104805420D01*
X84158010Y-104805420D01*
X83752627Y-104936580D01*
X83428294Y-105212889D01*
X83241019Y-105596065D01*
X80726314Y-105596065D01*
X80126000Y-105476655D01*
X79494190Y-105602330D01*
X79155146Y-105828872D01*
X79059809Y-105686191D01*
X78849765Y-105545843D01*
X78602000Y-105496560D01*
X76570000Y-105496560D01*
X76322235Y-105545843D01*
X76112191Y-105686191D01*
X75971843Y-105896235D01*
X75969503Y-105908000D01*
X73906505Y-105908000D01*
X73918440Y-105848000D01*
X73918440Y-105198000D01*
X73869157Y-104950235D01*
X73827573Y-104888000D01*
X73869157Y-104825765D01*
X73918440Y-104578000D01*
X73918440Y-103928000D01*
X73869157Y-103680235D01*
X73827573Y-103618000D01*
X73869157Y-103555765D01*
X73918440Y-103308000D01*
X73918440Y-102983694D01*
X164481226Y-102983694D01*
X164729538Y-103584655D01*
X165188927Y-104044846D01*
X165789453Y-104294206D01*
X166439694Y-104294774D01*
X167040655Y-104046462D01*
X167500846Y-103587073D01*
X167750206Y-102986547D01*
X167750774Y-102336306D01*
X167502462Y-101735345D01*
X167043073Y-101275154D01*
X166442547Y-101025794D01*
X165792306Y-101025226D01*
X165191345Y-101273538D01*
X164731154Y-101732927D01*
X164481794Y-102333453D01*
X164481226Y-102983694D01*
X73918440Y-102983694D01*
X73918440Y-102658000D01*
X73869157Y-102410235D01*
X73827573Y-102348000D01*
X73869157Y-102285765D01*
X73918440Y-102038000D01*
X73918440Y-101388000D01*
X73901348Y-101302073D01*
X74053484Y-101271810D01*
X74109675Y-101260633D01*
X74396790Y-101068790D01*
X74519829Y-100945750D01*
X99801000Y-100945750D01*
X99801000Y-101436309D01*
X99897673Y-101669698D01*
X100076301Y-101848327D01*
X100309690Y-101945000D01*
X100800250Y-101945000D01*
X100959000Y-101786250D01*
X100959000Y-100787000D01*
X101213000Y-100787000D01*
X101213000Y-101786250D01*
X101371750Y-101945000D01*
X101862310Y-101945000D01*
X102095699Y-101848327D01*
X102274327Y-101669698D01*
X102371000Y-101436309D01*
X102371000Y-100945750D01*
X102212250Y-100787000D01*
X101213000Y-100787000D01*
X100959000Y-100787000D01*
X99959750Y-100787000D01*
X99801000Y-100945750D01*
X74519829Y-100945750D01*
X74746788Y-100718791D01*
X74746791Y-100718789D01*
X74938634Y-100431674D01*
X75006002Y-100092999D01*
X75006001Y-100092994D01*
X75006001Y-99883691D01*
X99801000Y-99883691D01*
X99801000Y-100374250D01*
X99959750Y-100533000D01*
X100959000Y-100533000D01*
X100959000Y-99533750D01*
X101213000Y-99533750D01*
X101213000Y-100533000D01*
X102212250Y-100533000D01*
X102371000Y-100374250D01*
X102371000Y-100323694D01*
X158315226Y-100323694D01*
X158563538Y-100924655D01*
X159022927Y-101384846D01*
X159623453Y-101634206D01*
X160273694Y-101634774D01*
X160874655Y-101386462D01*
X161334846Y-100927073D01*
X161584206Y-100326547D01*
X161584774Y-99676306D01*
X161336462Y-99075345D01*
X160877073Y-98615154D01*
X160276547Y-98365794D01*
X159626306Y-98365226D01*
X159025345Y-98613538D01*
X158565154Y-99072927D01*
X158315794Y-99673453D01*
X158315226Y-100323694D01*
X102371000Y-100323694D01*
X102371000Y-99883691D01*
X102274327Y-99650302D01*
X102095699Y-99471673D01*
X101862310Y-99375000D01*
X101371750Y-99375000D01*
X101213000Y-99533750D01*
X100959000Y-99533750D01*
X100800250Y-99375000D01*
X100309690Y-99375000D01*
X100076301Y-99471673D01*
X99897673Y-99650302D01*
X99801000Y-99883691D01*
X75006001Y-99883691D01*
X75006001Y-97914481D01*
X76300777Y-97914481D01*
X76495995Y-98386943D01*
X76857155Y-98748735D01*
X77329276Y-98944777D01*
X77840481Y-98945223D01*
X78312943Y-98750005D01*
X78674735Y-98388845D01*
X78776530Y-98143694D01*
X81951226Y-98143694D01*
X82199538Y-98744655D01*
X82658927Y-99204846D01*
X83259453Y-99454206D01*
X83909694Y-99454774D01*
X84510655Y-99206462D01*
X84970846Y-98747073D01*
X85220206Y-98146547D01*
X85220365Y-97963991D01*
X88550735Y-97963991D01*
X88783932Y-98528371D01*
X89215357Y-98960551D01*
X89779330Y-99194733D01*
X90389991Y-99195265D01*
X90954371Y-98962068D01*
X91386551Y-98530643D01*
X91620733Y-97966670D01*
X91621265Y-97356009D01*
X91388068Y-96791629D01*
X90956643Y-96359449D01*
X90392670Y-96125267D01*
X89782009Y-96124735D01*
X89217629Y-96357932D01*
X88785449Y-96789357D01*
X88551267Y-97353330D01*
X88550735Y-97963991D01*
X85220365Y-97963991D01*
X85220774Y-97496306D01*
X84972462Y-96895345D01*
X84513073Y-96435154D01*
X83912547Y-96185794D01*
X83262306Y-96185226D01*
X82661345Y-96433538D01*
X82201154Y-96892927D01*
X81951794Y-97493453D01*
X81951226Y-98143694D01*
X78776530Y-98143694D01*
X78870777Y-97916724D01*
X78871223Y-97405519D01*
X78676005Y-96933057D01*
X78314845Y-96571265D01*
X77842724Y-96375223D01*
X77331519Y-96374777D01*
X76859057Y-96569995D01*
X76497265Y-96931155D01*
X76301223Y-97403276D01*
X76300777Y-97914481D01*
X75006001Y-97914481D01*
X75006001Y-95914481D01*
X99800777Y-95914481D01*
X99995995Y-96386943D01*
X100357155Y-96748735D01*
X100829276Y-96944777D01*
X101340481Y-96945223D01*
X101812943Y-96750005D01*
X102174735Y-96388845D01*
X102370777Y-95916724D01*
X102371171Y-95463991D01*
X110554735Y-95463991D01*
X110787932Y-96028371D01*
X111219357Y-96460551D01*
X111783330Y-96694733D01*
X112393991Y-96695265D01*
X112958371Y-96462068D01*
X113390551Y-96030643D01*
X113624733Y-95466670D01*
X113624735Y-95463991D01*
X156274735Y-95463991D01*
X156507932Y-96028371D01*
X156939357Y-96460551D01*
X157503330Y-96694733D01*
X158113991Y-96695265D01*
X158678371Y-96462068D01*
X159110551Y-96030643D01*
X159344733Y-95466670D01*
X159345265Y-94856009D01*
X159112068Y-94291629D01*
X158680643Y-93859449D01*
X158116670Y-93625267D01*
X157506009Y-93624735D01*
X156941629Y-93857932D01*
X156509449Y-94289357D01*
X156275267Y-94853330D01*
X156274735Y-95463991D01*
X113624735Y-95463991D01*
X113625265Y-94856009D01*
X113392068Y-94291629D01*
X112960643Y-93859449D01*
X112396670Y-93625267D01*
X111786009Y-93624735D01*
X111221629Y-93857932D01*
X110789449Y-94289357D01*
X110555267Y-94853330D01*
X110554735Y-95463991D01*
X102371171Y-95463991D01*
X102371223Y-95405519D01*
X102176005Y-94933057D01*
X101814845Y-94571265D01*
X101342724Y-94375223D01*
X100831519Y-94374777D01*
X100359057Y-94569995D01*
X99997265Y-94931155D01*
X99801223Y-95403276D01*
X99800777Y-95914481D01*
X75006001Y-95914481D01*
X75006001Y-92010000D01*
X76288560Y-92010000D01*
X76288560Y-93310000D01*
X76337843Y-93557765D01*
X76478191Y-93767809D01*
X76688235Y-93908157D01*
X76936000Y-93957440D01*
X78236000Y-93957440D01*
X78483765Y-93908157D01*
X78693809Y-93767809D01*
X78834157Y-93557765D01*
X78883440Y-93310000D01*
X78883440Y-92483694D01*
X89451226Y-92483694D01*
X89699538Y-93084655D01*
X90158927Y-93544846D01*
X90759453Y-93794206D01*
X91409694Y-93794774D01*
X92010655Y-93546462D01*
X92470846Y-93087073D01*
X92720206Y-92486547D01*
X92720208Y-92483694D01*
X99611226Y-92483694D01*
X99859538Y-93084655D01*
X100318927Y-93544846D01*
X100919453Y-93794206D01*
X101569694Y-93794774D01*
X102170655Y-93546462D01*
X102630846Y-93087073D01*
X102880206Y-92486547D01*
X102880774Y-91836306D01*
X102632462Y-91235345D01*
X102173073Y-90775154D01*
X101572547Y-90525794D01*
X100922306Y-90525226D01*
X100321345Y-90773538D01*
X99861154Y-91232927D01*
X99611794Y-91833453D01*
X99611226Y-92483694D01*
X92720208Y-92483694D01*
X92720774Y-91836306D01*
X92472462Y-91235345D01*
X92013073Y-90775154D01*
X91412547Y-90525794D01*
X90762306Y-90525226D01*
X90161345Y-90773538D01*
X89701154Y-91232927D01*
X89451794Y-91833453D01*
X89451226Y-92483694D01*
X78883440Y-92483694D01*
X78883440Y-92010000D01*
X78834157Y-91762235D01*
X78693809Y-91552191D01*
X78483765Y-91411843D01*
X78236000Y-91362560D01*
X76936000Y-91362560D01*
X76688235Y-91411843D01*
X76478191Y-91552191D01*
X76337843Y-91762235D01*
X76288560Y-92010000D01*
X75006001Y-92010000D01*
X75006001Y-90414481D01*
X156164777Y-90414481D01*
X156359995Y-90886943D01*
X156721155Y-91248735D01*
X157193276Y-91444777D01*
X157704481Y-91445223D01*
X158176943Y-91250005D01*
X158538735Y-90888845D01*
X158734777Y-90416724D01*
X158735140Y-90000000D01*
X170873000Y-90000000D01*
X170873000Y-116000000D01*
X170882667Y-116048601D01*
X170910197Y-116089803D01*
X170951399Y-116117333D01*
X171000000Y-116127000D01*
X181000000Y-116127000D01*
X181048601Y-116117333D01*
X181089803Y-116089803D01*
X181117333Y-116048601D01*
X181127000Y-116000000D01*
X181127000Y-109797694D01*
X221885226Y-109797694D01*
X222133538Y-110398655D01*
X222592927Y-110858846D01*
X223193453Y-111108206D01*
X223843694Y-111108774D01*
X224444655Y-110860462D01*
X224904846Y-110401073D01*
X225154206Y-109800547D01*
X225154774Y-109150306D01*
X224906462Y-108549345D01*
X224447073Y-108089154D01*
X223846547Y-107839794D01*
X223196306Y-107839226D01*
X222595345Y-108087538D01*
X222135154Y-108546927D01*
X221885794Y-109147453D01*
X221885226Y-109797694D01*
X181127000Y-109797694D01*
X181127000Y-91743991D01*
X198616735Y-91743991D01*
X198849932Y-92308371D01*
X199281357Y-92740551D01*
X199845330Y-92974733D01*
X200455991Y-92975265D01*
X201020371Y-92742068D01*
X201452551Y-92310643D01*
X201686733Y-91746670D01*
X201686735Y-91743991D01*
X212332735Y-91743991D01*
X212565932Y-92308371D01*
X212997357Y-92740551D01*
X213561330Y-92974733D01*
X214171991Y-92975265D01*
X214736371Y-92742068D01*
X215168551Y-92310643D01*
X215402733Y-91746670D01*
X215403265Y-91136009D01*
X215170068Y-90571629D01*
X214738643Y-90139449D01*
X214174670Y-89905267D01*
X213564009Y-89904735D01*
X212999629Y-90137932D01*
X212567449Y-90569357D01*
X212333267Y-91133330D01*
X212332735Y-91743991D01*
X201686735Y-91743991D01*
X201687265Y-91136009D01*
X201454068Y-90571629D01*
X201022643Y-90139449D01*
X200458670Y-89905267D01*
X199848009Y-89904735D01*
X199283629Y-90137932D01*
X198851449Y-90569357D01*
X198617267Y-91133330D01*
X198616735Y-91743991D01*
X181127000Y-91743991D01*
X181127000Y-90000000D01*
X181117333Y-89951399D01*
X181089803Y-89910197D01*
X181048601Y-89882667D01*
X181000000Y-89873000D01*
X171000000Y-89873000D01*
X170951399Y-89882667D01*
X170910197Y-89910197D01*
X170882667Y-89951399D01*
X170873000Y-90000000D01*
X158735140Y-90000000D01*
X158735223Y-89905519D01*
X158540005Y-89433057D01*
X158178845Y-89071265D01*
X157706724Y-88875223D01*
X157195519Y-88874777D01*
X156723057Y-89069995D01*
X156361265Y-89431155D01*
X156165223Y-89903276D01*
X156164777Y-90414481D01*
X75006001Y-90414481D01*
X75006001Y-90195006D01*
X75006002Y-90195001D01*
X74938635Y-89856327D01*
X74807454Y-89660000D01*
X74746791Y-89569211D01*
X74746788Y-89569209D01*
X74371790Y-89194210D01*
X74281393Y-89133809D01*
X74084675Y-89002367D01*
X74028484Y-88991190D01*
X73746000Y-88934999D01*
X73745995Y-88935000D01*
X68488847Y-88935000D01*
X68472462Y-88895345D01*
X68122728Y-88545000D01*
X76183153Y-88545000D01*
X76199538Y-88584655D01*
X76658927Y-89044846D01*
X77259453Y-89294206D01*
X77909694Y-89294774D01*
X78510655Y-89046462D01*
X78970846Y-88587073D01*
X79220206Y-87986547D01*
X79220208Y-87983694D01*
X81951226Y-87983694D01*
X82199538Y-88584655D01*
X82658927Y-89044846D01*
X83259453Y-89294206D01*
X83909694Y-89294774D01*
X84510655Y-89046462D01*
X84970846Y-88587073D01*
X85220206Y-87986547D01*
X85220774Y-87336306D01*
X84972462Y-86735345D01*
X84881277Y-86644000D01*
X86922560Y-86644000D01*
X86922560Y-88676000D01*
X86971843Y-88923765D01*
X87112191Y-89133809D01*
X87322235Y-89274157D01*
X87570000Y-89323440D01*
X89602000Y-89323440D01*
X89849765Y-89274157D01*
X90059809Y-89133809D01*
X90155146Y-88991128D01*
X90494190Y-89217670D01*
X91126000Y-89343345D01*
X91757810Y-89217670D01*
X92293433Y-88859778D01*
X92651325Y-88324155D01*
X92777000Y-87692345D01*
X92777000Y-87627655D01*
X92651325Y-86995845D01*
X92628377Y-86961500D01*
X94240060Y-86961500D01*
X94240060Y-88358500D01*
X94289343Y-88606265D01*
X94429691Y-88816309D01*
X94639735Y-88956657D01*
X94887500Y-89005940D01*
X96284500Y-89005940D01*
X96532265Y-88956657D01*
X96742309Y-88816309D01*
X96882657Y-88606265D01*
X96931940Y-88358500D01*
X96931940Y-87983694D01*
X98451226Y-87983694D01*
X98699538Y-88584655D01*
X99158927Y-89044846D01*
X99759453Y-89294206D01*
X100409694Y-89294774D01*
X101010655Y-89046462D01*
X101470846Y-88587073D01*
X101720206Y-87986547D01*
X101720774Y-87336306D01*
X101472462Y-86735345D01*
X101013073Y-86275154D01*
X100412547Y-86025794D01*
X99762306Y-86025226D01*
X99161345Y-86273538D01*
X98701154Y-86732927D01*
X98451794Y-87333453D01*
X98451226Y-87983694D01*
X96931940Y-87983694D01*
X96931940Y-86961500D01*
X96882657Y-86713735D01*
X96742309Y-86503691D01*
X96532265Y-86363343D01*
X96284500Y-86314060D01*
X94887500Y-86314060D01*
X94639735Y-86363343D01*
X94429691Y-86503691D01*
X94289343Y-86713735D01*
X94240060Y-86961500D01*
X92628377Y-86961500D01*
X92293433Y-86460222D01*
X91757810Y-86102330D01*
X91126000Y-85976655D01*
X90494190Y-86102330D01*
X90155146Y-86328872D01*
X90059809Y-86186191D01*
X89849765Y-86045843D01*
X89602000Y-85996560D01*
X87570000Y-85996560D01*
X87322235Y-86045843D01*
X87112191Y-86186191D01*
X86971843Y-86396235D01*
X86922560Y-86644000D01*
X84881277Y-86644000D01*
X84513073Y-86275154D01*
X83912547Y-86025794D01*
X83262306Y-86025226D01*
X82661345Y-86273538D01*
X82201154Y-86732927D01*
X81951794Y-87333453D01*
X81951226Y-87983694D01*
X79220208Y-87983694D01*
X79220774Y-87336306D01*
X78972462Y-86735345D01*
X78513073Y-86275154D01*
X77912547Y-86025794D01*
X77262306Y-86025226D01*
X76661345Y-86273538D01*
X76201154Y-86732927D01*
X76183684Y-86775000D01*
X66508757Y-86775000D01*
X66508752Y-86774999D01*
X66170078Y-86842366D01*
X66170076Y-86842367D01*
X66170077Y-86842367D01*
X65882962Y-87034210D01*
X65882960Y-87034213D01*
X63683440Y-89233732D01*
X63683440Y-87660000D01*
X63634157Y-87412235D01*
X63493809Y-87202191D01*
X63283765Y-87061843D01*
X63036000Y-87012560D01*
X61136000Y-87012560D01*
X61092956Y-87021122D01*
X62069077Y-86045000D01*
X73585995Y-86045000D01*
X73586000Y-86045001D01*
X73868484Y-85988810D01*
X73924675Y-85977633D01*
X74211790Y-85785790D01*
X74211791Y-85785789D01*
X75211787Y-84785792D01*
X75211790Y-84785790D01*
X75339975Y-84593946D01*
X75396066Y-84510000D01*
X156152560Y-84510000D01*
X156152560Y-85810000D01*
X156201843Y-86057765D01*
X156342191Y-86267809D01*
X156552235Y-86408157D01*
X156800000Y-86457440D01*
X158100000Y-86457440D01*
X158347765Y-86408157D01*
X158557809Y-86267809D01*
X158698157Y-86057765D01*
X158747440Y-85810000D01*
X158747440Y-84510000D01*
X158698157Y-84262235D01*
X158557809Y-84052191D01*
X158347765Y-83911843D01*
X158100000Y-83862560D01*
X156800000Y-83862560D01*
X156552235Y-83911843D01*
X156342191Y-84052191D01*
X156201843Y-84262235D01*
X156152560Y-84510000D01*
X75396066Y-84510000D01*
X75403634Y-84498674D01*
X75471001Y-84160000D01*
X75471000Y-84159995D01*
X75471000Y-80463991D01*
X110554735Y-80463991D01*
X110787932Y-81028371D01*
X111219357Y-81460551D01*
X111783330Y-81694733D01*
X112393991Y-81695265D01*
X112958371Y-81462068D01*
X113390551Y-81030643D01*
X113624733Y-80466670D01*
X113624735Y-80463991D01*
X156274735Y-80463991D01*
X156507932Y-81028371D01*
X156939357Y-81460551D01*
X157503330Y-81694733D01*
X158113991Y-81695265D01*
X158678371Y-81462068D01*
X159110551Y-81030643D01*
X159344733Y-80466670D01*
X159345265Y-79856009D01*
X159112068Y-79291629D01*
X158680643Y-78859449D01*
X158116670Y-78625267D01*
X157506009Y-78624735D01*
X156941629Y-78857932D01*
X156509449Y-79289357D01*
X156275267Y-79853330D01*
X156274735Y-80463991D01*
X113624735Y-80463991D01*
X113625265Y-79856009D01*
X113392068Y-79291629D01*
X112960643Y-78859449D01*
X112396670Y-78625267D01*
X111786009Y-78624735D01*
X111221629Y-78857932D01*
X110789449Y-79289357D01*
X110555267Y-79853330D01*
X110554735Y-80463991D01*
X75471000Y-80463991D01*
X75471000Y-77823694D01*
X75951226Y-77823694D01*
X76199538Y-78424655D01*
X76658927Y-78884846D01*
X77259453Y-79134206D01*
X77909694Y-79134774D01*
X78510655Y-78886462D01*
X78970846Y-78427073D01*
X79163134Y-77963991D01*
X88550735Y-77963991D01*
X88783932Y-78528371D01*
X89215357Y-78960551D01*
X89779330Y-79194733D01*
X90389991Y-79195265D01*
X90954371Y-78962068D01*
X91386551Y-78530643D01*
X91620733Y-77966670D01*
X91620909Y-77764086D01*
X94252269Y-77764086D01*
X94454854Y-78254380D01*
X94829647Y-78629827D01*
X95319587Y-78833268D01*
X95850086Y-78833731D01*
X96340380Y-78631146D01*
X96715827Y-78256353D01*
X96895482Y-77823694D01*
X98451226Y-77823694D01*
X98699538Y-78424655D01*
X99158927Y-78884846D01*
X99759453Y-79134206D01*
X100409694Y-79134774D01*
X101010655Y-78886462D01*
X101470846Y-78427073D01*
X101720206Y-77826547D01*
X101720774Y-77176306D01*
X101472462Y-76575345D01*
X101013073Y-76115154D01*
X100412547Y-75865794D01*
X99762306Y-75865226D01*
X99161345Y-76113538D01*
X98701154Y-76572927D01*
X98451794Y-77173453D01*
X98451226Y-77823694D01*
X96895482Y-77823694D01*
X96919268Y-77766413D01*
X96919731Y-77235914D01*
X96717146Y-76745620D01*
X96342353Y-76370173D01*
X95852413Y-76166732D01*
X95321914Y-76166269D01*
X94831620Y-76368854D01*
X94456173Y-76743647D01*
X94252732Y-77233587D01*
X94252269Y-77764086D01*
X91620909Y-77764086D01*
X91621265Y-77356009D01*
X91388068Y-76791629D01*
X90956643Y-76359449D01*
X90392670Y-76125267D01*
X89782009Y-76124735D01*
X89217629Y-76357932D01*
X88785449Y-76789357D01*
X88551267Y-77353330D01*
X88550735Y-77963991D01*
X79163134Y-77963991D01*
X79220206Y-77826547D01*
X79220774Y-77176306D01*
X78972462Y-76575345D01*
X78513073Y-76115154D01*
X77912547Y-75865794D01*
X77262306Y-75865226D01*
X76661345Y-76113538D01*
X76201154Y-76572927D01*
X75951794Y-77173453D01*
X75951226Y-77823694D01*
X75471000Y-77823694D01*
X75471000Y-75507694D01*
X158639226Y-75507694D01*
X158887538Y-76108655D01*
X159346927Y-76568846D01*
X159947453Y-76818206D01*
X160597694Y-76818774D01*
X161198655Y-76570462D01*
X161658846Y-76111073D01*
X161908206Y-75510547D01*
X161908774Y-74860306D01*
X161660462Y-74259345D01*
X161201073Y-73799154D01*
X160600547Y-73549794D01*
X159950306Y-73549226D01*
X159349345Y-73797538D01*
X158889154Y-74256927D01*
X158639794Y-74857453D01*
X158639226Y-75507694D01*
X75471000Y-75507694D01*
X75471000Y-72510000D01*
X76288560Y-72510000D01*
X76288560Y-73810000D01*
X76337843Y-74057765D01*
X76478191Y-74267809D01*
X76688235Y-74408157D01*
X76936000Y-74457440D01*
X78236000Y-74457440D01*
X78483765Y-74408157D01*
X78693809Y-74267809D01*
X78833321Y-74059016D01*
X81866590Y-74059016D01*
X81922271Y-74289611D01*
X82405078Y-74457622D01*
X82915428Y-74428083D01*
X83249729Y-74289611D01*
X83305410Y-74059016D01*
X82586000Y-73339605D01*
X81866590Y-74059016D01*
X78833321Y-74059016D01*
X78834157Y-74057765D01*
X78883440Y-73810000D01*
X78883440Y-72979078D01*
X81288378Y-72979078D01*
X81317917Y-73489428D01*
X81456389Y-73823729D01*
X81686984Y-73879410D01*
X82406395Y-73160000D01*
X82765605Y-73160000D01*
X83485016Y-73879410D01*
X83715611Y-73823729D01*
X83883622Y-73340922D01*
X83862020Y-72967694D01*
X164481226Y-72967694D01*
X164729538Y-73568655D01*
X165188927Y-74028846D01*
X165789453Y-74278206D01*
X166439694Y-74278774D01*
X167040655Y-74030462D01*
X167500846Y-73571073D01*
X167750206Y-72970547D01*
X167750774Y-72320306D01*
X167502462Y-71719345D01*
X167043073Y-71259154D01*
X166442547Y-71009794D01*
X165792306Y-71009226D01*
X165191345Y-71257538D01*
X164731154Y-71716927D01*
X164481794Y-72317453D01*
X164481226Y-72967694D01*
X83862020Y-72967694D01*
X83854083Y-72830572D01*
X83715611Y-72496271D01*
X83485016Y-72440590D01*
X82765605Y-73160000D01*
X82406395Y-73160000D01*
X81686984Y-72440590D01*
X81456389Y-72496271D01*
X81288378Y-72979078D01*
X78883440Y-72979078D01*
X78883440Y-72510000D01*
X78834157Y-72262235D01*
X78833322Y-72260984D01*
X81866590Y-72260984D01*
X82586000Y-72980395D01*
X83305410Y-72260984D01*
X83249729Y-72030389D01*
X82766922Y-71862378D01*
X82256572Y-71891917D01*
X81922271Y-72030389D01*
X81866590Y-72260984D01*
X78833322Y-72260984D01*
X78693809Y-72052191D01*
X78483765Y-71911843D01*
X78236000Y-71862560D01*
X76936000Y-71862560D01*
X76688235Y-71911843D01*
X76478191Y-72052191D01*
X76337843Y-72262235D01*
X76288560Y-72510000D01*
X75471000Y-72510000D01*
X75471000Y-72485003D01*
X75471001Y-72484998D01*
X75407878Y-72167663D01*
X75403633Y-72146323D01*
X75211790Y-71859208D01*
X75211787Y-71859206D01*
X74735792Y-71383210D01*
X74573843Y-71275000D01*
X74448677Y-71191367D01*
X74392486Y-71180190D01*
X74158583Y-71133663D01*
X74172440Y-71064000D01*
X74172440Y-70414000D01*
X74123157Y-70166235D01*
X74081573Y-70104000D01*
X74123157Y-70041765D01*
X74172440Y-69794000D01*
X74172440Y-69144000D01*
X74160505Y-69084000D01*
X75922560Y-69084000D01*
X75922560Y-69176000D01*
X75971843Y-69423765D01*
X76112191Y-69633809D01*
X76322235Y-69774157D01*
X76570000Y-69823440D01*
X78602000Y-69823440D01*
X78849765Y-69774157D01*
X79059809Y-69633809D01*
X79155146Y-69491128D01*
X79494190Y-69717670D01*
X80126000Y-69843345D01*
X80726313Y-69723935D01*
X83241019Y-69723935D01*
X83428294Y-70107111D01*
X83752627Y-70383420D01*
X84158010Y-70514580D01*
X84459000Y-70514580D01*
X84459000Y-69557000D01*
X84713000Y-69557000D01*
X84713000Y-70514580D01*
X85013990Y-70514580D01*
X85419373Y-70383420D01*
X85743706Y-70107111D01*
X85930981Y-69723935D01*
X85804068Y-69557000D01*
X84713000Y-69557000D01*
X84459000Y-69557000D01*
X83367932Y-69557000D01*
X83241019Y-69723935D01*
X80726313Y-69723935D01*
X80757810Y-69717670D01*
X81293433Y-69359778D01*
X81651325Y-68824155D01*
X81777000Y-68192345D01*
X81777000Y-68127655D01*
X81651325Y-67495845D01*
X81293433Y-66960222D01*
X81188339Y-66890000D01*
X83173285Y-66890000D01*
X83255844Y-67305051D01*
X83402809Y-67525000D01*
X83255844Y-67744949D01*
X83173285Y-68160000D01*
X83255844Y-68575051D01*
X83405641Y-68799238D01*
X83241019Y-69136065D01*
X83367932Y-69303000D01*
X84459000Y-69303000D01*
X84459000Y-69283000D01*
X84713000Y-69283000D01*
X84713000Y-69303000D01*
X85804068Y-69303000D01*
X85930981Y-69136065D01*
X85766359Y-68799238D01*
X85916156Y-68575051D01*
X85998715Y-68160000D01*
X85916156Y-67744949D01*
X85769191Y-67525000D01*
X85811620Y-67461500D01*
X86740060Y-67461500D01*
X86740060Y-68858500D01*
X86789343Y-69106265D01*
X86929691Y-69316309D01*
X87139735Y-69456657D01*
X87387500Y-69505940D01*
X88784500Y-69505940D01*
X89032265Y-69456657D01*
X89242309Y-69316309D01*
X89382657Y-69106265D01*
X89431940Y-68858500D01*
X89431940Y-68424086D01*
X99452269Y-68424086D01*
X99654854Y-68914380D01*
X100029647Y-69289827D01*
X100519587Y-69493268D01*
X101050086Y-69493731D01*
X101540380Y-69291146D01*
X101915827Y-68916353D01*
X102119268Y-68426413D01*
X102119731Y-67895914D01*
X102119220Y-67894677D01*
X116314794Y-67894677D01*
X116494820Y-68330372D01*
X116827875Y-68664009D01*
X117263255Y-68844794D01*
X117734677Y-68845206D01*
X118170372Y-68665180D01*
X118504009Y-68332125D01*
X118684794Y-67896745D01*
X118684795Y-67894677D01*
X121214794Y-67894677D01*
X121394820Y-68330372D01*
X121727875Y-68664009D01*
X122163255Y-68844794D01*
X122634677Y-68845206D01*
X123070372Y-68665180D01*
X123404009Y-68332125D01*
X123584794Y-67896745D01*
X123584795Y-67894677D01*
X126264794Y-67894677D01*
X126444820Y-68330372D01*
X126777875Y-68664009D01*
X127213255Y-68844794D01*
X127684677Y-68845206D01*
X128120372Y-68665180D01*
X128454009Y-68332125D01*
X128634794Y-67896745D01*
X128634843Y-67840661D01*
X132714758Y-67840661D01*
X132926990Y-68354303D01*
X133319630Y-68747629D01*
X133832900Y-68960757D01*
X134388661Y-68961242D01*
X134902303Y-68749010D01*
X135295629Y-68356370D01*
X135381949Y-68148488D01*
X135466990Y-68354303D01*
X135859630Y-68747629D01*
X136372900Y-68960757D01*
X136928661Y-68961242D01*
X137442303Y-68749010D01*
X137835629Y-68356370D01*
X137921949Y-68148488D01*
X138006990Y-68354303D01*
X138399630Y-68747629D01*
X138912900Y-68960757D01*
X139468661Y-68961242D01*
X139982303Y-68749010D01*
X140375629Y-68356370D01*
X140570239Y-67887694D01*
X142129226Y-67887694D01*
X142377538Y-68488655D01*
X142836927Y-68948846D01*
X143437453Y-69198206D01*
X144087694Y-69198774D01*
X144688655Y-68950462D01*
X145148846Y-68491073D01*
X145398206Y-67890547D01*
X145398208Y-67887694D01*
X152289226Y-67887694D01*
X152537538Y-68488655D01*
X152996927Y-68948846D01*
X153597453Y-69198206D01*
X154247694Y-69198774D01*
X154848655Y-68950462D01*
X155308846Y-68491073D01*
X155558206Y-67890547D01*
X155558774Y-67240306D01*
X155310462Y-66639345D01*
X154851073Y-66179154D01*
X154250547Y-65929794D01*
X153600306Y-65929226D01*
X152999345Y-66177538D01*
X152539154Y-66636927D01*
X152289794Y-67237453D01*
X152289226Y-67887694D01*
X145398208Y-67887694D01*
X145398774Y-67240306D01*
X145150462Y-66639345D01*
X144691073Y-66179154D01*
X144090547Y-65929794D01*
X143440306Y-65929226D01*
X142839345Y-66177538D01*
X142379154Y-66636927D01*
X142129794Y-67237453D01*
X142129226Y-67887694D01*
X140570239Y-67887694D01*
X140588757Y-67843100D01*
X140589242Y-67287339D01*
X140377010Y-66773697D01*
X139984370Y-66380371D01*
X139471100Y-66167243D01*
X138915339Y-66166758D01*
X138401697Y-66378990D01*
X138008371Y-66771630D01*
X137922051Y-66979512D01*
X137837010Y-66773697D01*
X137444370Y-66380371D01*
X136931100Y-66167243D01*
X136375339Y-66166758D01*
X135861697Y-66378990D01*
X135468371Y-66771630D01*
X135382051Y-66979512D01*
X135297010Y-66773697D01*
X134904370Y-66380371D01*
X134391100Y-66167243D01*
X133835339Y-66166758D01*
X133321697Y-66378990D01*
X132928371Y-66771630D01*
X132715243Y-67284900D01*
X132714758Y-67840661D01*
X128634843Y-67840661D01*
X128635206Y-67425323D01*
X128455180Y-66989628D01*
X128122125Y-66655991D01*
X127686745Y-66475206D01*
X127215323Y-66474794D01*
X126779628Y-66654820D01*
X126445991Y-66987875D01*
X126265206Y-67423255D01*
X126264794Y-67894677D01*
X123584795Y-67894677D01*
X123585206Y-67425323D01*
X123405180Y-66989628D01*
X123072125Y-66655991D01*
X122636745Y-66475206D01*
X122165323Y-66474794D01*
X121729628Y-66654820D01*
X121395991Y-66987875D01*
X121215206Y-67423255D01*
X121214794Y-67894677D01*
X118684795Y-67894677D01*
X118685206Y-67425323D01*
X118505180Y-66989628D01*
X118172125Y-66655991D01*
X117736745Y-66475206D01*
X117265323Y-66474794D01*
X116829628Y-66654820D01*
X116495991Y-66987875D01*
X116315206Y-67423255D01*
X116314794Y-67894677D01*
X102119220Y-67894677D01*
X101917146Y-67405620D01*
X101542353Y-67030173D01*
X101052413Y-66826732D01*
X100521914Y-66826269D01*
X100031620Y-67028854D01*
X99656173Y-67403647D01*
X99452732Y-67893587D01*
X99452269Y-68424086D01*
X89431940Y-68424086D01*
X89431940Y-67461500D01*
X89382657Y-67213735D01*
X89242309Y-67003691D01*
X89032265Y-66863343D01*
X88784500Y-66814060D01*
X87387500Y-66814060D01*
X87139735Y-66863343D01*
X86929691Y-67003691D01*
X86789343Y-67213735D01*
X86740060Y-67461500D01*
X85811620Y-67461500D01*
X85916156Y-67305051D01*
X85998715Y-66890000D01*
X85916156Y-66474949D01*
X85681049Y-66123086D01*
X85329186Y-65887979D01*
X84914135Y-65805420D01*
X84257865Y-65805420D01*
X83842814Y-65887979D01*
X83490951Y-66123086D01*
X83255844Y-66474949D01*
X83173285Y-66890000D01*
X81188339Y-66890000D01*
X80757810Y-66602330D01*
X80126000Y-66476655D01*
X79494190Y-66602330D01*
X79155146Y-66828872D01*
X79059809Y-66686191D01*
X78849765Y-66545843D01*
X78602000Y-66496560D01*
X76570000Y-66496560D01*
X76322235Y-66545843D01*
X76112191Y-66686191D01*
X75971843Y-66896235D01*
X75922560Y-67144000D01*
X75922560Y-67314000D01*
X73829871Y-67314000D01*
X73772765Y-67275843D01*
X73525000Y-67226560D01*
X71775000Y-67226560D01*
X71527235Y-67275843D01*
X71317191Y-67416191D01*
X71227701Y-67550121D01*
X71211790Y-67534210D01*
X71102971Y-67461500D01*
X70924675Y-67342367D01*
X70868484Y-67331190D01*
X70586000Y-67274999D01*
X70585995Y-67275000D01*
X68688998Y-67275000D01*
X68492933Y-67314000D01*
X68229871Y-67314000D01*
X68172765Y-67275843D01*
X67931000Y-67227753D01*
X67931000Y-63807470D01*
X68213433Y-63618754D01*
X68330054Y-63444219D01*
X68508370Y-63671236D01*
X69071523Y-63987926D01*
X69203056Y-64019975D01*
X69459000Y-63900836D01*
X69459000Y-62287000D01*
X69439000Y-62287000D01*
X69439000Y-62033000D01*
X69459000Y-62033000D01*
X69459000Y-60419164D01*
X69713000Y-60419164D01*
X69713000Y-62033000D01*
X69733000Y-62033000D01*
X69733000Y-62287000D01*
X69713000Y-62287000D01*
X69713000Y-63900836D01*
X69968944Y-64019975D01*
X70100477Y-63987926D01*
X70663630Y-63671236D01*
X70841946Y-63444219D01*
X70958567Y-63618754D01*
X71494190Y-63976646D01*
X72126000Y-64102321D01*
X72722377Y-63983694D01*
X75951226Y-63983694D01*
X76199538Y-64584655D01*
X76658927Y-65044846D01*
X77259453Y-65294206D01*
X77909694Y-65294774D01*
X78510655Y-65046462D01*
X78970846Y-64587073D01*
X79220206Y-63986547D01*
X79220208Y-63983694D01*
X87951226Y-63983694D01*
X88199538Y-64584655D01*
X88658927Y-65044846D01*
X89259453Y-65294206D01*
X89909694Y-65294774D01*
X90510655Y-65046462D01*
X90970846Y-64587073D01*
X91220206Y-63986547D01*
X91220774Y-63336306D01*
X90972462Y-62735345D01*
X90627719Y-62390000D01*
X99173285Y-62390000D01*
X99255844Y-62805051D01*
X99402809Y-63025000D01*
X99255844Y-63244949D01*
X99173285Y-63660000D01*
X99255844Y-64075051D01*
X99402809Y-64295000D01*
X99255844Y-64514949D01*
X99173285Y-64930000D01*
X99255844Y-65345051D01*
X99490951Y-65696914D01*
X99842814Y-65932021D01*
X100257865Y-66014580D01*
X100914135Y-66014580D01*
X101329186Y-65932021D01*
X101681049Y-65696914D01*
X101914390Y-65347694D01*
X158639226Y-65347694D01*
X158887538Y-65948655D01*
X159346927Y-66408846D01*
X159947453Y-66658206D01*
X160597694Y-66658774D01*
X161198655Y-66410462D01*
X161658846Y-65951073D01*
X161908206Y-65350547D01*
X161908774Y-64700306D01*
X161660462Y-64099345D01*
X161201073Y-63639154D01*
X160600547Y-63389794D01*
X159950306Y-63389226D01*
X159349345Y-63637538D01*
X158889154Y-64096927D01*
X158639794Y-64697453D01*
X158639226Y-65347694D01*
X101914390Y-65347694D01*
X101916156Y-65345051D01*
X101998715Y-64930000D01*
X101916156Y-64514949D01*
X101769191Y-64295000D01*
X101916156Y-64075051D01*
X101998715Y-63660000D01*
X101916156Y-63244949D01*
X101769191Y-63025000D01*
X101914390Y-62807694D01*
X164481226Y-62807694D01*
X164729538Y-63408655D01*
X165188927Y-63868846D01*
X165789453Y-64118206D01*
X166439694Y-64118774D01*
X167040655Y-63870462D01*
X167500846Y-63411073D01*
X167750206Y-62810547D01*
X167750774Y-62160306D01*
X167502462Y-61559345D01*
X167043073Y-61099154D01*
X166442547Y-60849794D01*
X165792306Y-60849226D01*
X165191345Y-61097538D01*
X164731154Y-61556927D01*
X164481794Y-62157453D01*
X164481226Y-62807694D01*
X101914390Y-62807694D01*
X101916156Y-62805051D01*
X101998715Y-62390000D01*
X101916156Y-61974949D01*
X101681049Y-61623086D01*
X101329186Y-61387979D01*
X100914135Y-61305420D01*
X100257865Y-61305420D01*
X99842814Y-61387979D01*
X99490951Y-61623086D01*
X99255844Y-61974949D01*
X99173285Y-62390000D01*
X90627719Y-62390000D01*
X90513073Y-62275154D01*
X89912547Y-62025794D01*
X89262306Y-62025226D01*
X88661345Y-62273538D01*
X88201154Y-62732927D01*
X87951794Y-63333453D01*
X87951226Y-63983694D01*
X79220208Y-63983694D01*
X79220774Y-63336306D01*
X78972462Y-62735345D01*
X78513073Y-62275154D01*
X77912547Y-62025794D01*
X77262306Y-62025226D01*
X76661345Y-62273538D01*
X76201154Y-62732927D01*
X75951794Y-63333453D01*
X75951226Y-63983694D01*
X72722377Y-63983694D01*
X72757810Y-63976646D01*
X73293433Y-63618754D01*
X73651325Y-63083131D01*
X73777000Y-62451321D01*
X73777000Y-61868679D01*
X73651325Y-61236869D01*
X73293433Y-60701246D01*
X72757810Y-60343354D01*
X72126000Y-60217679D01*
X71494190Y-60343354D01*
X70958567Y-60701246D01*
X70841946Y-60875781D01*
X70663630Y-60648764D01*
X70100477Y-60332074D01*
X69968944Y-60300025D01*
X69713000Y-60419164D01*
X69459000Y-60419164D01*
X69203056Y-60300025D01*
X69071523Y-60332074D01*
X68508370Y-60648764D01*
X68330054Y-60875781D01*
X68213433Y-60701246D01*
X67677810Y-60343354D01*
X67046000Y-60217679D01*
X66414190Y-60343354D01*
X65878567Y-60701246D01*
X65520675Y-61236869D01*
X65395000Y-61868679D01*
X65395000Y-62451321D01*
X65520675Y-63083131D01*
X65878567Y-63618754D01*
X66161000Y-63807470D01*
X66161000Y-67229345D01*
X65927235Y-67275843D01*
X65717191Y-67416191D01*
X65576843Y-67626235D01*
X65527560Y-67874000D01*
X65527560Y-68524000D01*
X65576843Y-68771765D01*
X65618427Y-68834000D01*
X65576843Y-68896235D01*
X65527560Y-69144000D01*
X65527560Y-69794000D01*
X65539495Y-69854000D01*
X57507000Y-69854000D01*
X57168325Y-69921367D01*
X56881210Y-70113210D01*
X56881208Y-70113213D01*
X55460210Y-71534210D01*
X55268367Y-71821325D01*
X55268367Y-71821326D01*
X55215875Y-72085215D01*
X55193809Y-72052191D01*
X54983765Y-71911843D01*
X54736000Y-71862560D01*
X53436000Y-71862560D01*
X53188235Y-71911843D01*
X52978191Y-72052191D01*
X52837843Y-72262235D01*
X52788560Y-72510000D01*
X52788560Y-73810000D01*
X52837843Y-74057765D01*
X52978191Y-74267809D01*
X53188235Y-74408157D01*
X53201000Y-74410696D01*
X53201000Y-93232838D01*
X53078163Y-93187443D01*
X52105605Y-94160000D01*
X53078163Y-95132557D01*
X53201000Y-95087162D01*
X53201000Y-98123688D01*
X52853073Y-97775154D01*
X52252547Y-97525794D01*
X51602306Y-97525226D01*
X51001345Y-97773538D01*
X50541154Y-98232927D01*
X50291794Y-98833453D01*
X50291226Y-99483694D01*
X45127000Y-99483694D01*
X45127000Y-95312163D01*
X50953443Y-95312163D01*
X51052042Y-95578965D01*
X51661582Y-95805401D01*
X52311377Y-95781341D01*
X52799958Y-95578965D01*
X52898557Y-95312163D01*
X51926000Y-94339605D01*
X50953443Y-95312163D01*
X45127000Y-95312163D01*
X45127000Y-93895582D01*
X50280599Y-93895582D01*
X50304659Y-94545377D01*
X50507035Y-95033958D01*
X50773837Y-95132557D01*
X51746395Y-94160000D01*
X50773837Y-93187443D01*
X50507035Y-93286042D01*
X50280599Y-93895582D01*
X45127000Y-93895582D01*
X45127000Y-93007837D01*
X50953443Y-93007837D01*
X51926000Y-93980395D01*
X52898557Y-93007837D01*
X52799958Y-92741035D01*
X52190418Y-92514599D01*
X51540623Y-92538659D01*
X51052042Y-92741035D01*
X50953443Y-93007837D01*
X45127000Y-93007837D01*
X45127000Y-88825750D01*
X47349000Y-88825750D01*
X47349000Y-89682310D01*
X47445673Y-89915699D01*
X47624302Y-90094327D01*
X47857691Y-90191000D01*
X48714250Y-90191000D01*
X48873000Y-90032250D01*
X48873000Y-88667000D01*
X49127000Y-88667000D01*
X49127000Y-90032250D01*
X49285750Y-90191000D01*
X50142309Y-90191000D01*
X50375698Y-90094327D01*
X50554327Y-89915699D01*
X50651000Y-89682310D01*
X50651000Y-88825750D01*
X50492250Y-88667000D01*
X49127000Y-88667000D01*
X48873000Y-88667000D01*
X47507750Y-88667000D01*
X47349000Y-88825750D01*
X45127000Y-88825750D01*
X45127000Y-86000000D01*
X47316655Y-86000000D01*
X47442330Y-86631810D01*
X47666966Y-86968001D01*
X47624302Y-86985673D01*
X47445673Y-87164301D01*
X47349000Y-87397690D01*
X47349000Y-88254250D01*
X47507750Y-88413000D01*
X48873000Y-88413000D01*
X48873000Y-88393000D01*
X49127000Y-88393000D01*
X49127000Y-88413000D01*
X50492250Y-88413000D01*
X50651000Y-88254250D01*
X50651000Y-87397690D01*
X50554327Y-87164301D01*
X50375698Y-86985673D01*
X50333034Y-86968001D01*
X50557670Y-86631810D01*
X50683345Y-86000000D01*
X50557670Y-85368190D01*
X50199778Y-84832567D01*
X49664155Y-84474675D01*
X49032345Y-84349000D01*
X48967655Y-84349000D01*
X48335845Y-84474675D01*
X47800222Y-84832567D01*
X47442330Y-85368190D01*
X47316655Y-86000000D01*
X45127000Y-86000000D01*
X45127000Y-73414481D01*
X47800777Y-73414481D01*
X47995995Y-73886943D01*
X48357155Y-74248735D01*
X48829276Y-74444777D01*
X49340481Y-74445223D01*
X49812943Y-74250005D01*
X50174735Y-73888845D01*
X50370777Y-73416724D01*
X50371223Y-72905519D01*
X50176005Y-72433057D01*
X49814845Y-72071265D01*
X49342724Y-71875223D01*
X48831519Y-71874777D01*
X48359057Y-72069995D01*
X47997265Y-72431155D01*
X47801223Y-72903276D01*
X47800777Y-73414481D01*
X45127000Y-73414481D01*
X45127000Y-66812163D01*
X61113443Y-66812163D01*
X61212042Y-67078965D01*
X61821582Y-67305401D01*
X62471377Y-67281341D01*
X62959958Y-67078965D01*
X63058557Y-66812163D01*
X62086000Y-65839605D01*
X61113443Y-66812163D01*
X45127000Y-66812163D01*
X45127000Y-65395582D01*
X60440599Y-65395582D01*
X60464659Y-66045377D01*
X60667035Y-66533958D01*
X60933837Y-66632557D01*
X61906395Y-65660000D01*
X62265605Y-65660000D01*
X63238163Y-66632557D01*
X63504965Y-66533958D01*
X63731401Y-65924418D01*
X63707341Y-65274623D01*
X63504965Y-64786042D01*
X63238163Y-64687443D01*
X62265605Y-65660000D01*
X61906395Y-65660000D01*
X60933837Y-64687443D01*
X60667035Y-64786042D01*
X60440599Y-65395582D01*
X45127000Y-65395582D01*
X45127000Y-64312163D01*
X57113443Y-64312163D01*
X57212042Y-64578965D01*
X57821582Y-64805401D01*
X58471377Y-64781341D01*
X58959958Y-64578965D01*
X58986243Y-64507837D01*
X61113443Y-64507837D01*
X62086000Y-65480395D01*
X63058557Y-64507837D01*
X62959958Y-64241035D01*
X62350418Y-64014599D01*
X61700623Y-64038659D01*
X61212042Y-64241035D01*
X61113443Y-64507837D01*
X58986243Y-64507837D01*
X59058557Y-64312163D01*
X58086000Y-63339605D01*
X57113443Y-64312163D01*
X45127000Y-64312163D01*
X45127000Y-62895582D01*
X56440599Y-62895582D01*
X56464659Y-63545377D01*
X56667035Y-64033958D01*
X56933837Y-64132557D01*
X57906395Y-63160000D01*
X58265605Y-63160000D01*
X59238163Y-64132557D01*
X59504965Y-64033958D01*
X59731401Y-63424418D01*
X59707341Y-62774623D01*
X59504965Y-62286042D01*
X59238163Y-62187443D01*
X58265605Y-63160000D01*
X57906395Y-63160000D01*
X56933837Y-62187443D01*
X56667035Y-62286042D01*
X56440599Y-62895582D01*
X45127000Y-62895582D01*
X45127000Y-62007837D01*
X57113443Y-62007837D01*
X58086000Y-62980395D01*
X59058557Y-62007837D01*
X58959958Y-61741035D01*
X58350418Y-61514599D01*
X57700623Y-61538659D01*
X57212042Y-61741035D01*
X57113443Y-62007837D01*
X45127000Y-62007837D01*
X45127000Y-59094188D01*
X58631417Y-59094188D01*
X58693071Y-59329800D01*
X59193480Y-59505927D01*
X59723199Y-59477148D01*
X60078929Y-59329800D01*
X60140583Y-59094188D01*
X59386000Y-58339605D01*
X58631417Y-59094188D01*
X45127000Y-59094188D01*
X45127000Y-57967480D01*
X58040073Y-57967480D01*
X58068852Y-58497199D01*
X58216200Y-58852929D01*
X58451812Y-58914583D01*
X59206395Y-58160000D01*
X59565605Y-58160000D01*
X60320188Y-58914583D01*
X60555800Y-58852929D01*
X60731927Y-58352520D01*
X60703148Y-57822801D01*
X60555800Y-57467071D01*
X60534511Y-57461500D01*
X70740060Y-57461500D01*
X70740060Y-58858500D01*
X70789343Y-59106265D01*
X70929691Y-59316309D01*
X71139735Y-59456657D01*
X71387500Y-59505940D01*
X72784500Y-59505940D01*
X73032265Y-59456657D01*
X73242309Y-59316309D01*
X73382657Y-59106265D01*
X73407037Y-58983694D01*
X98951226Y-58983694D01*
X99199538Y-59584655D01*
X99658927Y-60044846D01*
X100259453Y-60294206D01*
X100909694Y-60294774D01*
X101032537Y-60244016D01*
X133179112Y-60244016D01*
X133404658Y-60789877D01*
X133821926Y-61207874D01*
X134367393Y-61434372D01*
X134958016Y-61434888D01*
X135503877Y-61209342D01*
X135921874Y-60792074D01*
X136148372Y-60246607D01*
X136148461Y-60143694D01*
X138087226Y-60143694D01*
X138335538Y-60744655D01*
X138794927Y-61204846D01*
X139395453Y-61454206D01*
X140045694Y-61454774D01*
X140646655Y-61206462D01*
X141106846Y-60747073D01*
X141356206Y-60146547D01*
X141356208Y-60143694D01*
X145707226Y-60143694D01*
X145955538Y-60744655D01*
X146414927Y-61204846D01*
X147015453Y-61454206D01*
X147665694Y-61454774D01*
X148266655Y-61206462D01*
X148726846Y-60747073D01*
X148976206Y-60146547D01*
X148976208Y-60143694D01*
X155867226Y-60143694D01*
X156115538Y-60744655D01*
X156574927Y-61204846D01*
X157175453Y-61454206D01*
X157825694Y-61454774D01*
X158426655Y-61206462D01*
X158886846Y-60747073D01*
X159136206Y-60146547D01*
X159136334Y-60000000D01*
X170873000Y-60000000D01*
X170873000Y-85000000D01*
X170882667Y-85048601D01*
X170910197Y-85089803D01*
X170951399Y-85117333D01*
X171000000Y-85127000D01*
X181000000Y-85127000D01*
X181048601Y-85117333D01*
X181089803Y-85089803D01*
X181117333Y-85048601D01*
X181127000Y-85000000D01*
X181127000Y-84123991D01*
X198616735Y-84123991D01*
X198849932Y-84688371D01*
X199281357Y-85120551D01*
X199845330Y-85354733D01*
X200455991Y-85355265D01*
X201020371Y-85122068D01*
X201452551Y-84690643D01*
X201686733Y-84126670D01*
X201686735Y-84123991D01*
X212332735Y-84123991D01*
X212565932Y-84688371D01*
X212997357Y-85120551D01*
X213561330Y-85354733D01*
X214171991Y-85355265D01*
X214736371Y-85122068D01*
X215168551Y-84690643D01*
X215402733Y-84126670D01*
X215403265Y-83516009D01*
X215170068Y-82951629D01*
X214738643Y-82519449D01*
X214174670Y-82285267D01*
X213564009Y-82284735D01*
X212999629Y-82517932D01*
X212567449Y-82949357D01*
X212333267Y-83513330D01*
X212332735Y-84123991D01*
X201686735Y-84123991D01*
X201687265Y-83516009D01*
X201454068Y-82951629D01*
X201022643Y-82519449D01*
X200458670Y-82285267D01*
X199848009Y-82284735D01*
X199283629Y-82517932D01*
X198851449Y-82949357D01*
X198617267Y-83513330D01*
X198616735Y-84123991D01*
X181127000Y-84123991D01*
X181127000Y-65040510D01*
X222127070Y-65040510D01*
X222127070Y-67039490D01*
X222176353Y-67287255D01*
X222316701Y-67497299D01*
X222526745Y-67637647D01*
X222774510Y-67686930D01*
X224773490Y-67686930D01*
X225021255Y-67637647D01*
X225231299Y-67497299D01*
X225371647Y-67287255D01*
X225420930Y-67039490D01*
X225420930Y-65040510D01*
X225371647Y-64792745D01*
X225231299Y-64582701D01*
X225021255Y-64442353D01*
X224773490Y-64393070D01*
X222774510Y-64393070D01*
X222526745Y-64442353D01*
X222316701Y-64582701D01*
X222176353Y-64792745D01*
X222127070Y-65040510D01*
X181127000Y-65040510D01*
X181127000Y-60000000D01*
X181117333Y-59951399D01*
X181089803Y-59910197D01*
X181048601Y-59882667D01*
X181000000Y-59873000D01*
X171000000Y-59873000D01*
X170951399Y-59882667D01*
X170910197Y-59910197D01*
X170882667Y-59951399D01*
X170873000Y-60000000D01*
X159136334Y-60000000D01*
X159136774Y-59496306D01*
X158888462Y-58895345D01*
X158429073Y-58435154D01*
X157828547Y-58185794D01*
X157178306Y-58185226D01*
X156577345Y-58433538D01*
X156117154Y-58892927D01*
X155867794Y-59493453D01*
X155867226Y-60143694D01*
X148976208Y-60143694D01*
X148976774Y-59496306D01*
X148728462Y-58895345D01*
X148269073Y-58435154D01*
X147668547Y-58185794D01*
X147018306Y-58185226D01*
X146417345Y-58433538D01*
X145957154Y-58892927D01*
X145707794Y-59493453D01*
X145707226Y-60143694D01*
X141356208Y-60143694D01*
X141356774Y-59496306D01*
X141108462Y-58895345D01*
X140649073Y-58435154D01*
X140048547Y-58185794D01*
X139398306Y-58185226D01*
X138797345Y-58433538D01*
X138337154Y-58892927D01*
X138087794Y-59493453D01*
X138087226Y-60143694D01*
X136148461Y-60143694D01*
X136148888Y-59655984D01*
X135923342Y-59110123D01*
X135506074Y-58692126D01*
X134960607Y-58465628D01*
X134369984Y-58465112D01*
X133824123Y-58690658D01*
X133406126Y-59107926D01*
X133179628Y-59653393D01*
X133179112Y-60244016D01*
X101032537Y-60244016D01*
X101510655Y-60046462D01*
X101970846Y-59587073D01*
X102220206Y-58986547D01*
X102220774Y-58336306D01*
X101972462Y-57735345D01*
X101513073Y-57275154D01*
X100912547Y-57025794D01*
X100262306Y-57025226D01*
X99661345Y-57273538D01*
X99201154Y-57732927D01*
X98951794Y-58333453D01*
X98951226Y-58983694D01*
X73407037Y-58983694D01*
X73431940Y-58858500D01*
X73431940Y-57461500D01*
X73382657Y-57213735D01*
X73242309Y-57003691D01*
X73032265Y-56863343D01*
X72784500Y-56814060D01*
X71387500Y-56814060D01*
X71139735Y-56863343D01*
X70929691Y-57003691D01*
X70789343Y-57213735D01*
X70740060Y-57461500D01*
X60534511Y-57461500D01*
X60320188Y-57405417D01*
X59565605Y-58160000D01*
X59206395Y-58160000D01*
X58451812Y-57405417D01*
X58216200Y-57467071D01*
X58040073Y-57967480D01*
X45127000Y-57967480D01*
X45127000Y-57225812D01*
X58631417Y-57225812D01*
X59386000Y-57980395D01*
X60140583Y-57225812D01*
X60078929Y-56990200D01*
X59578520Y-56814073D01*
X59048801Y-56842852D01*
X58693071Y-56990200D01*
X58631417Y-57225812D01*
X45127000Y-57225812D01*
X45127000Y-56079694D01*
X145707226Y-56079694D01*
X145955538Y-56680655D01*
X146414927Y-57140846D01*
X147015453Y-57390206D01*
X147665694Y-57390774D01*
X148266655Y-57142462D01*
X148726846Y-56683073D01*
X148976206Y-56082547D01*
X148976208Y-56079694D01*
X155867226Y-56079694D01*
X156115538Y-56680655D01*
X156574927Y-57140846D01*
X157175453Y-57390206D01*
X157825694Y-57390774D01*
X158426655Y-57142462D01*
X158886846Y-56683073D01*
X159085901Y-56203694D01*
X222139226Y-56203694D01*
X222387538Y-56804655D01*
X222846927Y-57264846D01*
X223447453Y-57514206D01*
X224097694Y-57514774D01*
X224698655Y-57266462D01*
X225158846Y-56807073D01*
X225408206Y-56206547D01*
X225408774Y-55556306D01*
X225160462Y-54955345D01*
X224701073Y-54495154D01*
X224100547Y-54245794D01*
X223450306Y-54245226D01*
X222849345Y-54493538D01*
X222389154Y-54952927D01*
X222139794Y-55553453D01*
X222139226Y-56203694D01*
X159085901Y-56203694D01*
X159136206Y-56082547D01*
X159136774Y-55432306D01*
X158888462Y-54831345D01*
X158429073Y-54371154D01*
X157828547Y-54121794D01*
X157178306Y-54121226D01*
X156577345Y-54369538D01*
X156117154Y-54828927D01*
X155867794Y-55429453D01*
X155867226Y-56079694D01*
X148976208Y-56079694D01*
X148976774Y-55432306D01*
X148728462Y-54831345D01*
X148269073Y-54371154D01*
X147668547Y-54121794D01*
X147018306Y-54121226D01*
X146417345Y-54369538D01*
X145957154Y-54828927D01*
X145707794Y-55429453D01*
X145707226Y-56079694D01*
X45127000Y-56079694D01*
X45127000Y-53823694D01*
X75951226Y-53823694D01*
X76199538Y-54424655D01*
X76658927Y-54884846D01*
X77259453Y-55134206D01*
X77909694Y-55134774D01*
X78510655Y-54886462D01*
X78970846Y-54427073D01*
X79220206Y-53826547D01*
X79220774Y-53176306D01*
X79000830Y-52644000D01*
X79922560Y-52644000D01*
X79922560Y-54676000D01*
X79971843Y-54923765D01*
X80112191Y-55133809D01*
X80322235Y-55274157D01*
X80570000Y-55323440D01*
X82602000Y-55323440D01*
X82849765Y-55274157D01*
X83059809Y-55133809D01*
X83155146Y-54991128D01*
X83494190Y-55217670D01*
X84126000Y-55343345D01*
X84757810Y-55217670D01*
X85293433Y-54859778D01*
X85651325Y-54324155D01*
X85750873Y-53823694D01*
X87951226Y-53823694D01*
X88199538Y-54424655D01*
X88658927Y-54884846D01*
X89259453Y-55134206D01*
X89909694Y-55134774D01*
X90510655Y-54886462D01*
X90970846Y-54427073D01*
X91220206Y-53826547D01*
X91220774Y-53176306D01*
X90972462Y-52575345D01*
X90513073Y-52115154D01*
X90273547Y-52015694D01*
X145707226Y-52015694D01*
X145955538Y-52616655D01*
X146414927Y-53076846D01*
X147015453Y-53326206D01*
X147665694Y-53326774D01*
X148266655Y-53078462D01*
X148726846Y-52619073D01*
X148976206Y-52018547D01*
X148976208Y-52015694D01*
X155867226Y-52015694D01*
X156115538Y-52616655D01*
X156574927Y-53076846D01*
X157175453Y-53326206D01*
X157825694Y-53326774D01*
X158426655Y-53078462D01*
X158886846Y-52619073D01*
X159136206Y-52018547D01*
X159136774Y-51368306D01*
X158888462Y-50767345D01*
X158429073Y-50307154D01*
X157828547Y-50057794D01*
X157178306Y-50057226D01*
X156577345Y-50305538D01*
X156117154Y-50764927D01*
X155867794Y-51365453D01*
X155867226Y-52015694D01*
X148976208Y-52015694D01*
X148976774Y-51368306D01*
X148728462Y-50767345D01*
X148269073Y-50307154D01*
X147668547Y-50057794D01*
X147018306Y-50057226D01*
X146417345Y-50305538D01*
X145957154Y-50764927D01*
X145707794Y-51365453D01*
X145707226Y-52015694D01*
X90273547Y-52015694D01*
X89912547Y-51865794D01*
X89262306Y-51865226D01*
X88661345Y-52113538D01*
X88201154Y-52572927D01*
X87951794Y-53173453D01*
X87951226Y-53823694D01*
X85750873Y-53823694D01*
X85777000Y-53692345D01*
X85777000Y-53627655D01*
X85651325Y-52995845D01*
X85293433Y-52460222D01*
X84757810Y-52102330D01*
X84126000Y-51976655D01*
X83494190Y-52102330D01*
X83155146Y-52328872D01*
X83059809Y-52186191D01*
X82849765Y-52045843D01*
X82602000Y-51996560D01*
X80570000Y-51996560D01*
X80322235Y-52045843D01*
X80112191Y-52186191D01*
X79971843Y-52396235D01*
X79922560Y-52644000D01*
X79000830Y-52644000D01*
X78972462Y-52575345D01*
X78513073Y-52115154D01*
X77912547Y-51865794D01*
X77262306Y-51865226D01*
X76661345Y-52113538D01*
X76201154Y-52572927D01*
X75951794Y-53173453D01*
X75951226Y-53823694D01*
X45127000Y-53823694D01*
X45127000Y-48823694D01*
X98951226Y-48823694D01*
X99199538Y-49424655D01*
X99658927Y-49884846D01*
X100259453Y-50134206D01*
X100909694Y-50134774D01*
X101510655Y-49886462D01*
X101970846Y-49427073D01*
X102172942Y-48940370D01*
X133166930Y-48940370D01*
X133166930Y-50639630D01*
X133216213Y-50887395D01*
X133356561Y-51097439D01*
X133566605Y-51237787D01*
X133814370Y-51287070D01*
X135513630Y-51287070D01*
X135761395Y-51237787D01*
X135971439Y-51097439D01*
X136111787Y-50887395D01*
X136161070Y-50639630D01*
X136161070Y-49983694D01*
X138087226Y-49983694D01*
X138335538Y-50584655D01*
X138794927Y-51044846D01*
X139395453Y-51294206D01*
X140045694Y-51294774D01*
X140646655Y-51046462D01*
X141106846Y-50587073D01*
X141356206Y-49986547D01*
X141356774Y-49336306D01*
X141108462Y-48735345D01*
X140649073Y-48275154D01*
X140048547Y-48025794D01*
X139398306Y-48025226D01*
X138797345Y-48273538D01*
X138337154Y-48732927D01*
X138087794Y-49333453D01*
X138087226Y-49983694D01*
X136161070Y-49983694D01*
X136161070Y-48940370D01*
X136111787Y-48692605D01*
X135971439Y-48482561D01*
X135761395Y-48342213D01*
X135513630Y-48292930D01*
X133814370Y-48292930D01*
X133566605Y-48342213D01*
X133356561Y-48482561D01*
X133216213Y-48692605D01*
X133166930Y-48940370D01*
X102172942Y-48940370D01*
X102220206Y-48826547D01*
X102220774Y-48176306D01*
X101972462Y-47575345D01*
X101513073Y-47115154D01*
X101438085Y-47084016D01*
X133179112Y-47084016D01*
X133404658Y-47629877D01*
X133821926Y-48047874D01*
X134367393Y-48274372D01*
X134958016Y-48274888D01*
X135503877Y-48049342D01*
X135921874Y-47632074D01*
X136148372Y-47086607D01*
X136148888Y-46495984D01*
X135923342Y-45950123D01*
X135863340Y-45890016D01*
X145852032Y-45890016D01*
X146077578Y-46435877D01*
X146494846Y-46853874D01*
X147040313Y-47080372D01*
X147630936Y-47080888D01*
X148176797Y-46855342D01*
X148482627Y-46550045D01*
X148785926Y-46853874D01*
X149331393Y-47080372D01*
X149922016Y-47080888D01*
X150467877Y-46855342D01*
X150773707Y-46550045D01*
X151077006Y-46853874D01*
X151622473Y-47080372D01*
X152213096Y-47080888D01*
X152758957Y-46855342D01*
X153176954Y-46438074D01*
X153403452Y-45892607D01*
X153403968Y-45301984D01*
X153178422Y-44756123D01*
X152761154Y-44338126D01*
X152215687Y-44111628D01*
X151625064Y-44111112D01*
X151079203Y-44336658D01*
X150773373Y-44641955D01*
X150470074Y-44338126D01*
X149924607Y-44111628D01*
X149333984Y-44111112D01*
X148788123Y-44336658D01*
X148482293Y-44641955D01*
X148178994Y-44338126D01*
X147633527Y-44111628D01*
X147042904Y-44111112D01*
X146497043Y-44336658D01*
X146079046Y-44753926D01*
X145852548Y-45299393D01*
X145852032Y-45890016D01*
X135863340Y-45890016D01*
X135506074Y-45532126D01*
X134960607Y-45305628D01*
X134369984Y-45305112D01*
X133824123Y-45530658D01*
X133406126Y-45947926D01*
X133179628Y-46493393D01*
X133179112Y-47084016D01*
X101438085Y-47084016D01*
X100912547Y-46865794D01*
X100262306Y-46865226D01*
X99661345Y-47113538D01*
X99201154Y-47572927D01*
X98951794Y-48173453D01*
X98951226Y-48823694D01*
X45127000Y-48823694D01*
X45127000Y-41318016D01*
X138237112Y-41318016D01*
X138462658Y-41863877D01*
X138879926Y-42281874D01*
X139425393Y-42508372D01*
X140016016Y-42508888D01*
X140561877Y-42283342D01*
X140979874Y-41866074D01*
X141206372Y-41320607D01*
X141206888Y-40729984D01*
X140981342Y-40184123D01*
X140971607Y-40174370D01*
X148384930Y-40174370D01*
X148384930Y-41873630D01*
X148434213Y-42121395D01*
X148574561Y-42331439D01*
X148784605Y-42471787D01*
X149032370Y-42521070D01*
X150731630Y-42521070D01*
X150979395Y-42471787D01*
X151189439Y-42331439D01*
X151329787Y-42121395D01*
X151379070Y-41873630D01*
X151379070Y-40174370D01*
X151329787Y-39926605D01*
X151189439Y-39716561D01*
X150979395Y-39576213D01*
X150731630Y-39526930D01*
X149032370Y-39526930D01*
X148784605Y-39576213D01*
X148574561Y-39716561D01*
X148434213Y-39926605D01*
X148384930Y-40174370D01*
X140971607Y-40174370D01*
X140564074Y-39766126D01*
X140018607Y-39539628D01*
X139427984Y-39539112D01*
X138882123Y-39764658D01*
X138464126Y-40181926D01*
X138237628Y-40727393D01*
X138237112Y-41318016D01*
X45127000Y-41318016D01*
X45127000Y-35780370D01*
X133166930Y-35780370D01*
X133166930Y-37479630D01*
X133216213Y-37727395D01*
X133356561Y-37937439D01*
X133566605Y-38077787D01*
X133814370Y-38127070D01*
X135513630Y-38127070D01*
X135761395Y-38077787D01*
X135971439Y-37937439D01*
X136111787Y-37727395D01*
X136155423Y-37508016D01*
X145857112Y-37508016D01*
X146082658Y-38053877D01*
X146499926Y-38471874D01*
X147045393Y-38698372D01*
X147636016Y-38698888D01*
X148181877Y-38473342D01*
X148487707Y-38168045D01*
X148791006Y-38471874D01*
X149336473Y-38698372D01*
X149927096Y-38698888D01*
X150472957Y-38473342D01*
X150778787Y-38168045D01*
X151082086Y-38471874D01*
X151627553Y-38698372D01*
X152218176Y-38698888D01*
X152764037Y-38473342D01*
X153182034Y-38056074D01*
X153408532Y-37510607D01*
X153409048Y-36919984D01*
X153183502Y-36374123D01*
X152766234Y-35956126D01*
X152220767Y-35729628D01*
X151630144Y-35729112D01*
X151084283Y-35954658D01*
X150778453Y-36259955D01*
X150475154Y-35956126D01*
X149929687Y-35729628D01*
X149339064Y-35729112D01*
X148793203Y-35954658D01*
X148487373Y-36259955D01*
X148184074Y-35956126D01*
X147638607Y-35729628D01*
X147047984Y-35729112D01*
X146502123Y-35954658D01*
X146084126Y-36371926D01*
X145857628Y-36917393D01*
X145857112Y-37508016D01*
X136155423Y-37508016D01*
X136161070Y-37479630D01*
X136161070Y-35780370D01*
X136111787Y-35532605D01*
X135971439Y-35322561D01*
X135761395Y-35182213D01*
X135513630Y-35132930D01*
X133814370Y-35132930D01*
X133566605Y-35182213D01*
X133356561Y-35322561D01*
X133216213Y-35532605D01*
X133166930Y-35780370D01*
X45127000Y-35780370D01*
X45127000Y-33584016D01*
X145852032Y-33584016D01*
X146077578Y-34129877D01*
X146494846Y-34547874D01*
X147040313Y-34774372D01*
X147630936Y-34774888D01*
X148176797Y-34549342D01*
X148482627Y-34244045D01*
X148785926Y-34547874D01*
X149331393Y-34774372D01*
X149922016Y-34774888D01*
X150467877Y-34549342D01*
X150773707Y-34244045D01*
X151077006Y-34547874D01*
X151622473Y-34774372D01*
X152213096Y-34774888D01*
X152758957Y-34549342D01*
X153176954Y-34132074D01*
X153403452Y-33586607D01*
X153403968Y-32995984D01*
X153178422Y-32450123D01*
X152761154Y-32032126D01*
X152215687Y-31805628D01*
X151625064Y-31805112D01*
X151079203Y-32030658D01*
X150773373Y-32335955D01*
X150470074Y-32032126D01*
X149924607Y-31805628D01*
X149333984Y-31805112D01*
X148788123Y-32030658D01*
X148482293Y-32335955D01*
X148178994Y-32032126D01*
X147633527Y-31805628D01*
X147042904Y-31805112D01*
X146497043Y-32030658D01*
X146079046Y-32447926D01*
X145852548Y-32993393D01*
X145852032Y-33584016D01*
X45127000Y-33584016D01*
X45127000Y-28874188D01*
X121165417Y-28874188D01*
X121227071Y-29109800D01*
X121727480Y-29285927D01*
X122257199Y-29257148D01*
X122612929Y-29109800D01*
X122674583Y-28874188D01*
X121920000Y-28119605D01*
X121165417Y-28874188D01*
X45127000Y-28874188D01*
X45127000Y-27747480D01*
X120574073Y-27747480D01*
X120602852Y-28277199D01*
X120750200Y-28632929D01*
X120985812Y-28694583D01*
X121740395Y-27940000D01*
X122099605Y-27940000D01*
X122854188Y-28694583D01*
X123089800Y-28632929D01*
X123265927Y-28132520D01*
X123237148Y-27602801D01*
X123089800Y-27247071D01*
X123068511Y-27241500D01*
X133274060Y-27241500D01*
X133274060Y-28638500D01*
X133323343Y-28886265D01*
X133463691Y-29096309D01*
X133673735Y-29236657D01*
X133921500Y-29285940D01*
X135318500Y-29285940D01*
X135566265Y-29236657D01*
X135776309Y-29096309D01*
X135916657Y-28886265D01*
X135965940Y-28638500D01*
X135965940Y-28000000D01*
X160873000Y-28000000D01*
X160873000Y-50000000D01*
X160882667Y-50048601D01*
X160910197Y-50089803D01*
X160951399Y-50117333D01*
X161000000Y-50127000D01*
X187000000Y-50127000D01*
X187048601Y-50117333D01*
X187089803Y-50089803D01*
X187117333Y-50048601D01*
X187127000Y-50000000D01*
X187127000Y-38403991D01*
X198616735Y-38403991D01*
X198849932Y-38968371D01*
X199281357Y-39400551D01*
X199845330Y-39634733D01*
X200455991Y-39635265D01*
X201020371Y-39402068D01*
X201452551Y-38970643D01*
X201686733Y-38406670D01*
X201686735Y-38403991D01*
X212332735Y-38403991D01*
X212565932Y-38968371D01*
X212997357Y-39400551D01*
X213561330Y-39634733D01*
X214171991Y-39635265D01*
X214736371Y-39402068D01*
X215168551Y-38970643D01*
X215402733Y-38406670D01*
X215403265Y-37796009D01*
X215170068Y-37231629D01*
X214738643Y-36799449D01*
X214174670Y-36565267D01*
X213564009Y-36564735D01*
X212999629Y-36797932D01*
X212567449Y-37229357D01*
X212333267Y-37793330D01*
X212332735Y-38403991D01*
X201686735Y-38403991D01*
X201687265Y-37796009D01*
X201454068Y-37231629D01*
X201022643Y-36799449D01*
X200458670Y-36565267D01*
X199848009Y-36564735D01*
X199283629Y-36797932D01*
X198851449Y-37229357D01*
X198617267Y-37793330D01*
X198616735Y-38403991D01*
X187127000Y-38403991D01*
X187127000Y-28000000D01*
X187117333Y-27951399D01*
X187089803Y-27910197D01*
X187048601Y-27882667D01*
X187000000Y-27873000D01*
X161000000Y-27873000D01*
X160951399Y-27882667D01*
X160910197Y-27910197D01*
X160882667Y-27951399D01*
X160873000Y-28000000D01*
X135965940Y-28000000D01*
X135965940Y-27241500D01*
X135916657Y-26993735D01*
X135776309Y-26783691D01*
X135566265Y-26643343D01*
X135318500Y-26594060D01*
X133921500Y-26594060D01*
X133673735Y-26643343D01*
X133463691Y-26783691D01*
X133323343Y-26993735D01*
X133274060Y-27241500D01*
X123068511Y-27241500D01*
X122854188Y-27185417D01*
X122099605Y-27940000D01*
X121740395Y-27940000D01*
X120985812Y-27185417D01*
X120750200Y-27247071D01*
X120574073Y-27747480D01*
X45127000Y-27747480D01*
X45127000Y-27005812D01*
X121165417Y-27005812D01*
X121920000Y-27760395D01*
X122674583Y-27005812D01*
X122612929Y-26770200D01*
X122112520Y-26594073D01*
X121582801Y-26622852D01*
X121227071Y-26770200D01*
X121165417Y-27005812D01*
X45127000Y-27005812D01*
X45127000Y-24433991D01*
X143244735Y-24433991D01*
X143477932Y-24998371D01*
X143909357Y-25430551D01*
X144473330Y-25664733D01*
X145083991Y-25665265D01*
X145648371Y-25432068D01*
X146080551Y-25000643D01*
X146314733Y-24436670D01*
X146314735Y-24433991D01*
X155944735Y-24433991D01*
X156177932Y-24998371D01*
X156609357Y-25430551D01*
X157173330Y-25664733D01*
X157783991Y-25665265D01*
X158348371Y-25432068D01*
X158780551Y-25000643D01*
X159014733Y-24436670D01*
X159015265Y-23826009D01*
X158782068Y-23261629D01*
X158350643Y-22829449D01*
X157786670Y-22595267D01*
X157176009Y-22594735D01*
X156611629Y-22827932D01*
X156179449Y-23259357D01*
X155945267Y-23823330D01*
X155944735Y-24433991D01*
X146314735Y-24433991D01*
X146315265Y-23826009D01*
X146082068Y-23261629D01*
X145650643Y-22829449D01*
X145086670Y-22595267D01*
X144476009Y-22594735D01*
X143911629Y-22827932D01*
X143479449Y-23259357D01*
X143245267Y-23823330D01*
X143244735Y-24433991D01*
X45127000Y-24433991D01*
X45127000Y-16127000D01*
X225873000Y-16127000D01*
X225873000Y-156873000D01*
X225873000Y-156873000D01*
G37*
X225873000Y-156873000D02*
X45127000Y-156873000D01*
X45127000Y-144000000D01*
X49873000Y-144000000D01*
X49873000Y-150000000D01*
X49882667Y-150048601D01*
X49910197Y-150089803D01*
X49951399Y-150117333D01*
X50000000Y-150127000D01*
X66000000Y-150127000D01*
X66048601Y-150117333D01*
X66089803Y-150089803D01*
X66117333Y-150048601D01*
X66127000Y-150000000D01*
X66127000Y-148893991D01*
X140704735Y-148893991D01*
X140937932Y-149458371D01*
X141369357Y-149890551D01*
X141933330Y-150124733D01*
X142543991Y-150125265D01*
X143108371Y-149892068D01*
X143540551Y-149460643D01*
X143774733Y-148896670D01*
X143774735Y-148893991D01*
X155944735Y-148893991D01*
X156177932Y-149458371D01*
X156609357Y-149890551D01*
X157173330Y-150124733D01*
X157783991Y-150125265D01*
X158348371Y-149892068D01*
X158780551Y-149460643D01*
X159014733Y-148896670D01*
X159015265Y-148286009D01*
X158782068Y-147721629D01*
X158350643Y-147289449D01*
X157786670Y-147055267D01*
X157176009Y-147054735D01*
X156611629Y-147287932D01*
X156179449Y-147719357D01*
X155945267Y-148283330D01*
X155944735Y-148893991D01*
X143774735Y-148893991D01*
X143775265Y-148286009D01*
X143542068Y-147721629D01*
X143110643Y-147289449D01*
X142546670Y-147055267D01*
X141936009Y-147054735D01*
X141371629Y-147287932D01*
X140939449Y-147719357D01*
X140705267Y-148283330D01*
X140704735Y-148893991D01*
X66127000Y-148893991D01*
X66127000Y-145065750D01*
X121094500Y-145065750D01*
X121094500Y-145604810D01*
X121191173Y-145838199D01*
X121369802Y-146016827D01*
X121603191Y-146113500D01*
X122142250Y-146113500D01*
X122301000Y-145954750D01*
X122301000Y-144907000D01*
X122555000Y-144907000D01*
X122555000Y-145954750D01*
X122713750Y-146113500D01*
X123252809Y-146113500D01*
X123486198Y-146016827D01*
X123664827Y-145838199D01*
X123761500Y-145604810D01*
X123761500Y-145065750D01*
X123739836Y-145044086D01*
X133794269Y-145044086D01*
X133996854Y-145534380D01*
X134371647Y-145909827D01*
X134861587Y-146113268D01*
X135392086Y-146113731D01*
X135882380Y-145911146D01*
X136257827Y-145536353D01*
X136461268Y-145046413D01*
X136461731Y-144515914D01*
X136259146Y-144025620D01*
X135884353Y-143650173D01*
X135394413Y-143446732D01*
X134863914Y-143446269D01*
X134373620Y-143648854D01*
X133998173Y-144023647D01*
X133794732Y-144513587D01*
X133794269Y-145044086D01*
X123739836Y-145044086D01*
X123602750Y-144907000D01*
X122555000Y-144907000D01*
X122301000Y-144907000D01*
X121253250Y-144907000D01*
X121094500Y-145065750D01*
X66127000Y-145065750D01*
X66127000Y-144000000D01*
X66118088Y-143955190D01*
X121094500Y-143955190D01*
X121094500Y-144494250D01*
X121253250Y-144653000D01*
X122301000Y-144653000D01*
X122301000Y-143605250D01*
X122555000Y-143605250D01*
X122555000Y-144653000D01*
X123602750Y-144653000D01*
X123761500Y-144494250D01*
X123761500Y-143955190D01*
X123664827Y-143721801D01*
X123486198Y-143543173D01*
X123252809Y-143446500D01*
X122713750Y-143446500D01*
X122555000Y-143605250D01*
X122301000Y-143605250D01*
X122142250Y-143446500D01*
X121603191Y-143446500D01*
X121369802Y-143543173D01*
X121191173Y-143721801D01*
X121094500Y-143955190D01*
X66118088Y-143955190D01*
X66117333Y-143951399D01*
X66089803Y-143910197D01*
X66048601Y-143882667D01*
X66000000Y-143873000D01*
X50000000Y-143873000D01*
X49951399Y-143882667D01*
X49910197Y-143910197D01*
X49882667Y-143951399D01*
X49873000Y-144000000D01*
X45127000Y-144000000D01*
X45127000Y-141264016D01*
X146089112Y-141264016D01*
X146314658Y-141809877D01*
X146731926Y-142227874D01*
X147277393Y-142454372D01*
X147868016Y-142454888D01*
X148413877Y-142229342D01*
X148719707Y-141924045D01*
X149023006Y-142227874D01*
X149568473Y-142454372D01*
X150159096Y-142454888D01*
X150704957Y-142229342D01*
X151010787Y-141924045D01*
X151314086Y-142227874D01*
X151859553Y-142454372D01*
X152450176Y-142454888D01*
X152996037Y-142229342D01*
X153414034Y-141812074D01*
X153640532Y-141266607D01*
X153641048Y-140675984D01*
X153415502Y-140130123D01*
X152998234Y-139712126D01*
X152452767Y-139485628D01*
X151862144Y-139485112D01*
X151316283Y-139710658D01*
X151010453Y-140015955D01*
X150707154Y-139712126D01*
X150161687Y-139485628D01*
X149571064Y-139485112D01*
X149025203Y-139710658D01*
X148719373Y-140015955D01*
X148416074Y-139712126D01*
X147870607Y-139485628D01*
X147279984Y-139485112D01*
X146734123Y-139710658D01*
X146316126Y-140127926D01*
X146089628Y-140673393D01*
X146089112Y-141264016D01*
X45127000Y-141264016D01*
X45127000Y-139114536D01*
X133413652Y-139114536D01*
X133639198Y-139660397D01*
X134056466Y-140078394D01*
X134601933Y-140304892D01*
X135192556Y-140305408D01*
X135738417Y-140079862D01*
X136156414Y-139662594D01*
X136382912Y-139117127D01*
X136383428Y-138526504D01*
X136157882Y-137980643D01*
X135740614Y-137562646D01*
X135195147Y-137336148D01*
X134604524Y-137335632D01*
X134058663Y-137561178D01*
X133640666Y-137978446D01*
X133414168Y-138523913D01*
X133413652Y-139114536D01*
X45127000Y-139114536D01*
X45127000Y-136184016D01*
X146089112Y-136184016D01*
X146314658Y-136729877D01*
X146731926Y-137147874D01*
X147277393Y-137374372D01*
X147868016Y-137374888D01*
X148413877Y-137149342D01*
X148719707Y-136844045D01*
X149023006Y-137147874D01*
X149568473Y-137374372D01*
X150159096Y-137374888D01*
X150704957Y-137149342D01*
X151010787Y-136844045D01*
X151314086Y-137147874D01*
X151859553Y-137374372D01*
X152450176Y-137374888D01*
X152996037Y-137149342D01*
X153414034Y-136732074D01*
X153640532Y-136186607D01*
X153641048Y-135595984D01*
X153415502Y-135050123D01*
X152998234Y-134632126D01*
X152452767Y-134405628D01*
X151862144Y-134405112D01*
X151316283Y-134630658D01*
X151010453Y-134935955D01*
X150707154Y-134632126D01*
X150161687Y-134405628D01*
X149571064Y-134405112D01*
X149025203Y-134630658D01*
X148719373Y-134935955D01*
X148416074Y-134632126D01*
X147870607Y-134405628D01*
X147279984Y-134405112D01*
X146734123Y-134630658D01*
X146316126Y-135047926D01*
X146089628Y-135593393D01*
X146089112Y-136184016D01*
X45127000Y-136184016D01*
X45127000Y-131310370D01*
X138238930Y-131310370D01*
X138238930Y-133009630D01*
X138288213Y-133257395D01*
X138428561Y-133467439D01*
X138638605Y-133607787D01*
X138886370Y-133657070D01*
X140585630Y-133657070D01*
X140833395Y-133607787D01*
X141043439Y-133467439D01*
X141183787Y-133257395D01*
X141233070Y-133009630D01*
X141233070Y-132454016D01*
X148411112Y-132454016D01*
X148636658Y-132999877D01*
X149053926Y-133417874D01*
X149599393Y-133644372D01*
X150190016Y-133644888D01*
X150735877Y-133419342D01*
X151153874Y-133002074D01*
X151380372Y-132456607D01*
X151380888Y-131865984D01*
X151155342Y-131320123D01*
X150738074Y-130902126D01*
X150192607Y-130675628D01*
X149601984Y-130675112D01*
X149056123Y-130900658D01*
X148638126Y-131317926D01*
X148411628Y-131863393D01*
X148411112Y-132454016D01*
X141233070Y-132454016D01*
X141233070Y-131310370D01*
X141183787Y-131062605D01*
X141043439Y-130852561D01*
X140833395Y-130712213D01*
X140585630Y-130662930D01*
X138886370Y-130662930D01*
X138638605Y-130712213D01*
X138428561Y-130852561D01*
X138288213Y-131062605D01*
X138238930Y-131310370D01*
X45127000Y-131310370D01*
X45127000Y-127143694D01*
X98951226Y-127143694D01*
X99199538Y-127744655D01*
X99658927Y-128204846D01*
X100259453Y-128454206D01*
X100909694Y-128454774D01*
X101510655Y-128206462D01*
X101906917Y-127810890D01*
X133401470Y-127810890D01*
X133401470Y-129510150D01*
X133450753Y-129757915D01*
X133591101Y-129967959D01*
X133801145Y-130108307D01*
X134048910Y-130157590D01*
X135748170Y-130157590D01*
X135995935Y-130108307D01*
X136205979Y-129967959D01*
X136346327Y-129757915D01*
X136395610Y-129510150D01*
X136395610Y-128454016D01*
X145911112Y-128454016D01*
X146136658Y-128999877D01*
X146553926Y-129417874D01*
X147099393Y-129644372D01*
X147690016Y-129644888D01*
X148235877Y-129419342D01*
X148541707Y-129114045D01*
X148845006Y-129417874D01*
X149390473Y-129644372D01*
X149981096Y-129644888D01*
X150526957Y-129419342D01*
X150832787Y-129114045D01*
X151136086Y-129417874D01*
X151681553Y-129644372D01*
X152272176Y-129644888D01*
X152818037Y-129419342D01*
X153236034Y-129002074D01*
X153462532Y-128456607D01*
X153463048Y-127865984D01*
X153237502Y-127320123D01*
X152820234Y-126902126D01*
X152274767Y-126675628D01*
X151684144Y-126675112D01*
X151138283Y-126900658D01*
X150832453Y-127205955D01*
X150529154Y-126902126D01*
X149983687Y-126675628D01*
X149393064Y-126675112D01*
X148847203Y-126900658D01*
X148541373Y-127205955D01*
X148238074Y-126902126D01*
X147692607Y-126675628D01*
X147101984Y-126675112D01*
X146556123Y-126900658D01*
X146138126Y-127317926D01*
X145911628Y-127863393D01*
X145911112Y-128454016D01*
X136395610Y-128454016D01*
X136395610Y-127810890D01*
X136346327Y-127563125D01*
X136205979Y-127353081D01*
X135995935Y-127212733D01*
X135748170Y-127163450D01*
X134048910Y-127163450D01*
X133801145Y-127212733D01*
X133591101Y-127353081D01*
X133450753Y-127563125D01*
X133401470Y-127810890D01*
X101906917Y-127810890D01*
X101970846Y-127747073D01*
X102220206Y-127146547D01*
X102220774Y-126496306D01*
X101972462Y-125895345D01*
X101691624Y-125614016D01*
X133411112Y-125614016D01*
X133636658Y-126159877D01*
X134053926Y-126577874D01*
X134599393Y-126804372D01*
X135190016Y-126804888D01*
X135735877Y-126579342D01*
X136153874Y-126162074D01*
X136369124Y-125643694D01*
X138261226Y-125643694D01*
X138509538Y-126244655D01*
X138968927Y-126704846D01*
X139569453Y-126954206D01*
X140219694Y-126954774D01*
X140820655Y-126706462D01*
X141280846Y-126247073D01*
X141530206Y-125646547D01*
X141530774Y-124996306D01*
X141282462Y-124395345D01*
X140871529Y-123983694D01*
X145761226Y-123983694D01*
X146009538Y-124584655D01*
X146468927Y-125044846D01*
X147069453Y-125294206D01*
X147719694Y-125294774D01*
X148320655Y-125046462D01*
X148780846Y-124587073D01*
X149030206Y-123986547D01*
X149030208Y-123983694D01*
X155921226Y-123983694D01*
X156169538Y-124584655D01*
X156628927Y-125044846D01*
X157229453Y-125294206D01*
X157879694Y-125294774D01*
X158480655Y-125046462D01*
X158527198Y-125000000D01*
X160873000Y-125000000D01*
X160873000Y-146000000D01*
X160882667Y-146048601D01*
X160910197Y-146089803D01*
X160951399Y-146117333D01*
X161000000Y-146127000D01*
X187000000Y-146127000D01*
X187048601Y-146117333D01*
X187089803Y-146089803D01*
X187117333Y-146048601D01*
X187127000Y-146000000D01*
X187127000Y-137463991D01*
X198616735Y-137463991D01*
X198849932Y-138028371D01*
X199281357Y-138460551D01*
X199845330Y-138694733D01*
X200455991Y-138695265D01*
X201020371Y-138462068D01*
X201452551Y-138030643D01*
X201686733Y-137466670D01*
X201686735Y-137463991D01*
X212332735Y-137463991D01*
X212565932Y-138028371D01*
X212997357Y-138460551D01*
X213561330Y-138694733D01*
X214171991Y-138695265D01*
X214736371Y-138462068D01*
X215168551Y-138030643D01*
X215402733Y-137466670D01*
X215403265Y-136856009D01*
X215170068Y-136291629D01*
X214738643Y-135859449D01*
X214174670Y-135625267D01*
X213564009Y-135624735D01*
X212999629Y-135857932D01*
X212567449Y-136289357D01*
X212333267Y-136853330D01*
X212332735Y-137463991D01*
X201686735Y-137463991D01*
X201687265Y-136856009D01*
X201454068Y-136291629D01*
X201022643Y-135859449D01*
X200458670Y-135625267D01*
X199848009Y-135624735D01*
X199283629Y-135857932D01*
X198851449Y-136289357D01*
X198617267Y-136853330D01*
X198616735Y-137463991D01*
X187127000Y-137463991D01*
X187127000Y-125000000D01*
X187117333Y-124951399D01*
X187089803Y-124910197D01*
X187048601Y-124882667D01*
X187000000Y-124873000D01*
X161000000Y-124873000D01*
X160951399Y-124882667D01*
X160910197Y-124910197D01*
X160882667Y-124951399D01*
X160873000Y-125000000D01*
X158527198Y-125000000D01*
X158940846Y-124587073D01*
X159190206Y-123986547D01*
X159190774Y-123336306D01*
X158942462Y-122735345D01*
X158483073Y-122275154D01*
X157882547Y-122025794D01*
X157232306Y-122025226D01*
X156631345Y-122273538D01*
X156171154Y-122732927D01*
X155921794Y-123333453D01*
X155921226Y-123983694D01*
X149030208Y-123983694D01*
X149030774Y-123336306D01*
X148782462Y-122735345D01*
X148323073Y-122275154D01*
X147722547Y-122025794D01*
X147072306Y-122025226D01*
X146471345Y-122273538D01*
X146011154Y-122732927D01*
X145761794Y-123333453D01*
X145761226Y-123983694D01*
X140871529Y-123983694D01*
X140823073Y-123935154D01*
X140222547Y-123685794D01*
X139572306Y-123685226D01*
X138971345Y-123933538D01*
X138511154Y-124392927D01*
X138261794Y-124993453D01*
X138261226Y-125643694D01*
X136369124Y-125643694D01*
X136380372Y-125616607D01*
X136380888Y-125025984D01*
X136155342Y-124480123D01*
X135738074Y-124062126D01*
X135192607Y-123835628D01*
X134601984Y-123835112D01*
X134056123Y-124060658D01*
X133638126Y-124477926D01*
X133411628Y-125023393D01*
X133411112Y-125614016D01*
X101691624Y-125614016D01*
X101513073Y-125435154D01*
X100912547Y-125185794D01*
X100262306Y-125185226D01*
X99661345Y-125433538D01*
X99201154Y-125892927D01*
X98951794Y-126493453D01*
X98951226Y-127143694D01*
X45127000Y-127143694D01*
X45127000Y-122143694D01*
X75951226Y-122143694D01*
X76199538Y-122744655D01*
X76658927Y-123204846D01*
X77259453Y-123454206D01*
X77909694Y-123454774D01*
X78510655Y-123206462D01*
X78970846Y-122747073D01*
X79220206Y-122146547D01*
X79220774Y-121496306D01*
X78972462Y-120895345D01*
X78721556Y-120644000D01*
X80922560Y-120644000D01*
X80922560Y-122676000D01*
X80971843Y-122923765D01*
X81112191Y-123133809D01*
X81322235Y-123274157D01*
X81570000Y-123323440D01*
X83602000Y-123323440D01*
X83849765Y-123274157D01*
X84059809Y-123133809D01*
X84155146Y-122991128D01*
X84494190Y-123217670D01*
X85126000Y-123343345D01*
X85757810Y-123217670D01*
X86293433Y-122859778D01*
X86651325Y-122324155D01*
X86687220Y-122143694D01*
X87451226Y-122143694D01*
X87699538Y-122744655D01*
X88158927Y-123204846D01*
X88759453Y-123454206D01*
X89409694Y-123454774D01*
X90010655Y-123206462D01*
X90470846Y-122747073D01*
X90720206Y-122146547D01*
X90720774Y-121496306D01*
X90472462Y-120895345D01*
X90013073Y-120435154D01*
X89412547Y-120185794D01*
X88762306Y-120185226D01*
X88161345Y-120433538D01*
X87701154Y-120892927D01*
X87451794Y-121493453D01*
X87451226Y-122143694D01*
X86687220Y-122143694D01*
X86777000Y-121692345D01*
X86777000Y-121627655D01*
X86651325Y-120995845D01*
X86293433Y-120460222D01*
X85757810Y-120102330D01*
X85126000Y-119976655D01*
X84494190Y-120102330D01*
X84155146Y-120328872D01*
X84059809Y-120186191D01*
X83849765Y-120045843D01*
X83602000Y-119996560D01*
X81570000Y-119996560D01*
X81322235Y-120045843D01*
X81112191Y-120186191D01*
X80971843Y-120396235D01*
X80922560Y-120644000D01*
X78721556Y-120644000D01*
X78513073Y-120435154D01*
X77912547Y-120185794D01*
X77262306Y-120185226D01*
X76661345Y-120433538D01*
X76201154Y-120892927D01*
X75951794Y-121493453D01*
X75951226Y-122143694D01*
X45127000Y-122143694D01*
X45127000Y-119483694D01*
X145761226Y-119483694D01*
X146009538Y-120084655D01*
X146468927Y-120544846D01*
X147069453Y-120794206D01*
X147719694Y-120794774D01*
X148320655Y-120546462D01*
X148780846Y-120087073D01*
X149030206Y-119486547D01*
X149030208Y-119483694D01*
X155921226Y-119483694D01*
X156169538Y-120084655D01*
X156628927Y-120544846D01*
X157229453Y-120794206D01*
X157879694Y-120794774D01*
X158480655Y-120546462D01*
X158940846Y-120087073D01*
X159190206Y-119486547D01*
X159190774Y-118836306D01*
X159107394Y-118634510D01*
X221873070Y-118634510D01*
X221873070Y-120633490D01*
X221922353Y-120881255D01*
X222062701Y-121091299D01*
X222272745Y-121231647D01*
X222520510Y-121280930D01*
X224519490Y-121280930D01*
X224767255Y-121231647D01*
X224977299Y-121091299D01*
X225117647Y-120881255D01*
X225166930Y-120633490D01*
X225166930Y-118634510D01*
X225117647Y-118386745D01*
X224977299Y-118176701D01*
X224767255Y-118036353D01*
X224519490Y-117987070D01*
X222520510Y-117987070D01*
X222272745Y-118036353D01*
X222062701Y-118176701D01*
X221922353Y-118386745D01*
X221873070Y-118634510D01*
X159107394Y-118634510D01*
X158942462Y-118235345D01*
X158483073Y-117775154D01*
X157882547Y-117525794D01*
X157232306Y-117525226D01*
X156631345Y-117773538D01*
X156171154Y-118232927D01*
X155921794Y-118833453D01*
X155921226Y-119483694D01*
X149030208Y-119483694D01*
X149030774Y-118836306D01*
X148782462Y-118235345D01*
X148323073Y-117775154D01*
X147722547Y-117525794D01*
X147072306Y-117525226D01*
X146471345Y-117773538D01*
X146011154Y-118232927D01*
X145761794Y-118833453D01*
X145761226Y-119483694D01*
X45127000Y-119483694D01*
X45127000Y-116945750D01*
X53052500Y-116945750D01*
X53052500Y-117484810D01*
X53149173Y-117718199D01*
X53327802Y-117896827D01*
X53561191Y-117993500D01*
X54100250Y-117993500D01*
X54259000Y-117834750D01*
X54259000Y-116787000D01*
X54513000Y-116787000D01*
X54513000Y-117834750D01*
X54671750Y-117993500D01*
X55210809Y-117993500D01*
X55444198Y-117896827D01*
X55622827Y-117718199D01*
X55719500Y-117484810D01*
X55719500Y-116945750D01*
X55697836Y-116924086D01*
X65752269Y-116924086D01*
X65954854Y-117414380D01*
X66329647Y-117789827D01*
X66819587Y-117993268D01*
X67350086Y-117993731D01*
X67840380Y-117791146D01*
X68215827Y-117416353D01*
X68395482Y-116983694D01*
X98951226Y-116983694D01*
X99199538Y-117584655D01*
X99658927Y-118044846D01*
X100259453Y-118294206D01*
X100909694Y-118294774D01*
X101510655Y-118046462D01*
X101970846Y-117587073D01*
X102220206Y-116986547D01*
X102220774Y-116336306D01*
X101972462Y-115735345D01*
X101513073Y-115275154D01*
X100912547Y-115025794D01*
X100262306Y-115025226D01*
X99661345Y-115273538D01*
X99201154Y-115732927D01*
X98951794Y-116333453D01*
X98951226Y-116983694D01*
X68395482Y-116983694D01*
X68419268Y-116926413D01*
X68419731Y-116395914D01*
X68217146Y-115905620D01*
X67842353Y-115530173D01*
X67352413Y-115326732D01*
X66821914Y-115326269D01*
X66331620Y-115528854D01*
X65956173Y-115903647D01*
X65752732Y-116393587D01*
X65752269Y-116924086D01*
X55697836Y-116924086D01*
X55560750Y-116787000D01*
X54513000Y-116787000D01*
X54259000Y-116787000D01*
X53211250Y-116787000D01*
X53052500Y-116945750D01*
X45127000Y-116945750D01*
X45127000Y-115835190D01*
X53052500Y-115835190D01*
X53052500Y-116374250D01*
X53211250Y-116533000D01*
X54259000Y-116533000D01*
X54259000Y-115485250D01*
X54513000Y-115485250D01*
X54513000Y-116533000D01*
X55560750Y-116533000D01*
X55719500Y-116374250D01*
X55719500Y-115835190D01*
X55622827Y-115601801D01*
X55444198Y-115423173D01*
X55210809Y-115326500D01*
X54671750Y-115326500D01*
X54513000Y-115485250D01*
X54259000Y-115485250D01*
X54100250Y-115326500D01*
X53561191Y-115326500D01*
X53327802Y-115423173D01*
X53149173Y-115601801D01*
X53052500Y-115835190D01*
X45127000Y-115835190D01*
X45127000Y-114310370D01*
X133398930Y-114310370D01*
X133398930Y-116009630D01*
X133448213Y-116257395D01*
X133588561Y-116467439D01*
X133798605Y-116607787D01*
X134046370Y-116657070D01*
X135745630Y-116657070D01*
X135993395Y-116607787D01*
X136203439Y-116467439D01*
X136343787Y-116257395D01*
X136393070Y-116009630D01*
X136393070Y-115483694D01*
X138261226Y-115483694D01*
X138509538Y-116084655D01*
X138968927Y-116544846D01*
X139569453Y-116794206D01*
X140219694Y-116794774D01*
X140820655Y-116546462D01*
X141280846Y-116087073D01*
X141530206Y-115486547D01*
X141530208Y-115483694D01*
X145761226Y-115483694D01*
X146009538Y-116084655D01*
X146468927Y-116544846D01*
X147069453Y-116794206D01*
X147719694Y-116794774D01*
X148320655Y-116546462D01*
X148780846Y-116087073D01*
X149030206Y-115486547D01*
X149030208Y-115483694D01*
X155921226Y-115483694D01*
X156169538Y-116084655D01*
X156628927Y-116544846D01*
X157229453Y-116794206D01*
X157879694Y-116794774D01*
X158480655Y-116546462D01*
X158940846Y-116087073D01*
X159190206Y-115486547D01*
X159190774Y-114836306D01*
X158942462Y-114235345D01*
X158483073Y-113775154D01*
X157882547Y-113525794D01*
X157232306Y-113525226D01*
X156631345Y-113773538D01*
X156171154Y-114232927D01*
X155921794Y-114833453D01*
X155921226Y-115483694D01*
X149030208Y-115483694D01*
X149030774Y-114836306D01*
X148782462Y-114235345D01*
X148323073Y-113775154D01*
X147722547Y-113525794D01*
X147072306Y-113525226D01*
X146471345Y-113773538D01*
X146011154Y-114232927D01*
X145761794Y-114833453D01*
X145761226Y-115483694D01*
X141530208Y-115483694D01*
X141530774Y-114836306D01*
X141282462Y-114235345D01*
X140823073Y-113775154D01*
X140222547Y-113525794D01*
X139572306Y-113525226D01*
X138971345Y-113773538D01*
X138511154Y-114232927D01*
X138261794Y-114833453D01*
X138261226Y-115483694D01*
X136393070Y-115483694D01*
X136393070Y-114310370D01*
X136343787Y-114062605D01*
X136203439Y-113852561D01*
X135993395Y-113712213D01*
X135745630Y-113662930D01*
X134046370Y-113662930D01*
X133798605Y-113712213D01*
X133588561Y-113852561D01*
X133448213Y-114062605D01*
X133398930Y-114310370D01*
X45127000Y-114310370D01*
X45127000Y-99483694D01*
X50291226Y-99483694D01*
X50539538Y-100084655D01*
X50998927Y-100544846D01*
X51599453Y-100794206D01*
X52249694Y-100794774D01*
X52850655Y-100546462D01*
X53310846Y-100087073D01*
X53317203Y-100071764D01*
X53348097Y-100118000D01*
X53460210Y-100285790D01*
X56783208Y-103608787D01*
X56783210Y-103608790D01*
X57070325Y-103800633D01*
X57126516Y-103811810D01*
X57409000Y-103868001D01*
X57409005Y-103868000D01*
X65285495Y-103868000D01*
X65273560Y-103928000D01*
X65273560Y-104578000D01*
X65287417Y-104647663D01*
X64997323Y-104705367D01*
X64710208Y-104897210D01*
X64710206Y-104897213D01*
X63960210Y-105647208D01*
X63768367Y-105934323D01*
X63763657Y-105958000D01*
X63700999Y-106272998D01*
X63701000Y-106273003D01*
X63701000Y-109012530D01*
X63418567Y-109201246D01*
X63060675Y-109736869D01*
X62935000Y-110368679D01*
X62935000Y-110951321D01*
X63060675Y-111583131D01*
X63418567Y-112118754D01*
X63954190Y-112476646D01*
X64586000Y-112602321D01*
X65217810Y-112476646D01*
X65753433Y-112118754D01*
X65856000Y-111965252D01*
X65958567Y-112118754D01*
X66494190Y-112476646D01*
X67126000Y-112602321D01*
X67757810Y-112476646D01*
X68293433Y-112118754D01*
X68410054Y-111944219D01*
X68588370Y-112171236D01*
X69151523Y-112487926D01*
X69283056Y-112519975D01*
X69539000Y-112400836D01*
X69539000Y-110787000D01*
X69793000Y-110787000D01*
X69793000Y-112400836D01*
X70048944Y-112519975D01*
X70180477Y-112487926D01*
X70743630Y-112171236D01*
X70890939Y-111983694D01*
X75951226Y-111983694D01*
X76199538Y-112584655D01*
X76658927Y-113044846D01*
X77259453Y-113294206D01*
X77909694Y-113294774D01*
X78510655Y-113046462D01*
X78970846Y-112587073D01*
X79220206Y-111986547D01*
X79220208Y-111983694D01*
X87451226Y-111983694D01*
X87699538Y-112584655D01*
X88158927Y-113044846D01*
X88759453Y-113294206D01*
X89409694Y-113294774D01*
X90010655Y-113046462D01*
X90470846Y-112587073D01*
X90720206Y-111986547D01*
X90720774Y-111336306D01*
X90472462Y-110735345D01*
X90127719Y-110390000D01*
X99173285Y-110390000D01*
X99255844Y-110805051D01*
X99402809Y-111025000D01*
X99255844Y-111244949D01*
X99173285Y-111660000D01*
X99255844Y-112075051D01*
X99402809Y-112295000D01*
X99255844Y-112514949D01*
X99173285Y-112930000D01*
X99255844Y-113345051D01*
X99490951Y-113696914D01*
X99842814Y-113932021D01*
X100257865Y-114014580D01*
X100914135Y-114014580D01*
X101329186Y-113932021D01*
X101681049Y-113696914D01*
X101916156Y-113345051D01*
X101956208Y-113143694D01*
X164481226Y-113143694D01*
X164729538Y-113744655D01*
X165188927Y-114204846D01*
X165789453Y-114454206D01*
X166439694Y-114454774D01*
X167040655Y-114206462D01*
X167500846Y-113747073D01*
X167750206Y-113146547D01*
X167750774Y-112496306D01*
X167502462Y-111895345D01*
X167043073Y-111435154D01*
X166442547Y-111185794D01*
X165792306Y-111185226D01*
X165191345Y-111433538D01*
X164731154Y-111892927D01*
X164481794Y-112493453D01*
X164481226Y-113143694D01*
X101956208Y-113143694D01*
X101998715Y-112930000D01*
X101916156Y-112514949D01*
X101769191Y-112295000D01*
X101916156Y-112075051D01*
X101998715Y-111660000D01*
X101916156Y-111244949D01*
X101769191Y-111025000D01*
X101916156Y-110805051D01*
X101991934Y-110424086D01*
X133416269Y-110424086D01*
X133618854Y-110914380D01*
X133993647Y-111289827D01*
X134483587Y-111493268D01*
X135014086Y-111493731D01*
X135504380Y-111291146D01*
X135879827Y-110916353D01*
X136083268Y-110426413D01*
X136083731Y-109895914D01*
X135904236Y-109461500D01*
X146104060Y-109461500D01*
X146104060Y-110858500D01*
X146153343Y-111106265D01*
X146293691Y-111316309D01*
X146503735Y-111456657D01*
X146751500Y-111505940D01*
X148148500Y-111505940D01*
X148396265Y-111456657D01*
X148606309Y-111316309D01*
X148746657Y-111106265D01*
X148795940Y-110858500D01*
X148795940Y-110483694D01*
X158315226Y-110483694D01*
X158563538Y-111084655D01*
X159022927Y-111544846D01*
X159623453Y-111794206D01*
X160273694Y-111794774D01*
X160874655Y-111546462D01*
X161334846Y-111087073D01*
X161584206Y-110486547D01*
X161584774Y-109836306D01*
X161336462Y-109235345D01*
X160877073Y-108775154D01*
X160276547Y-108525794D01*
X159626306Y-108525226D01*
X159025345Y-108773538D01*
X158565154Y-109232927D01*
X158315794Y-109833453D01*
X158315226Y-110483694D01*
X148795940Y-110483694D01*
X148795940Y-109461500D01*
X148746657Y-109213735D01*
X148606309Y-109003691D01*
X148396265Y-108863343D01*
X148148500Y-108814060D01*
X146751500Y-108814060D01*
X146503735Y-108863343D01*
X146293691Y-109003691D01*
X146153343Y-109213735D01*
X146104060Y-109461500D01*
X135904236Y-109461500D01*
X135881146Y-109405620D01*
X135506353Y-109030173D01*
X135016413Y-108826732D01*
X134485914Y-108826269D01*
X133995620Y-109028854D01*
X133620173Y-109403647D01*
X133416732Y-109893587D01*
X133416269Y-110424086D01*
X101991934Y-110424086D01*
X101998715Y-110390000D01*
X101916156Y-109974949D01*
X101681049Y-109623086D01*
X101329186Y-109387979D01*
X100914135Y-109305420D01*
X100257865Y-109305420D01*
X99842814Y-109387979D01*
X99490951Y-109623086D01*
X99255844Y-109974949D01*
X99173285Y-110390000D01*
X90127719Y-110390000D01*
X90013073Y-110275154D01*
X89412547Y-110025794D01*
X88762306Y-110025226D01*
X88161345Y-110273538D01*
X87701154Y-110732927D01*
X87451794Y-111333453D01*
X87451226Y-111983694D01*
X79220208Y-111983694D01*
X79220774Y-111336306D01*
X78972462Y-110735345D01*
X78513073Y-110275154D01*
X77912547Y-110025794D01*
X77262306Y-110025226D01*
X76661345Y-110273538D01*
X76201154Y-110732927D01*
X75951794Y-111333453D01*
X75951226Y-111983694D01*
X70890939Y-111983694D01*
X71142724Y-111663143D01*
X71317000Y-111041000D01*
X71317000Y-110787000D01*
X69793000Y-110787000D01*
X69539000Y-110787000D01*
X69519000Y-110787000D01*
X69519000Y-110533000D01*
X69539000Y-110533000D01*
X69539000Y-108919164D01*
X69793000Y-108919164D01*
X69793000Y-110533000D01*
X71317000Y-110533000D01*
X71317000Y-110279000D01*
X71142724Y-109656857D01*
X70743630Y-109148764D01*
X70180477Y-108832074D01*
X70048944Y-108800025D01*
X69793000Y-108919164D01*
X69539000Y-108919164D01*
X69283056Y-108800025D01*
X69151523Y-108832074D01*
X68588370Y-109148764D01*
X68410054Y-109375781D01*
X68293433Y-109201246D01*
X67757810Y-108843354D01*
X67126000Y-108717679D01*
X66494190Y-108843354D01*
X65958567Y-109201246D01*
X65856000Y-109354748D01*
X65753433Y-109201246D01*
X65471000Y-109012530D01*
X65471000Y-107581027D01*
X65673235Y-107716157D01*
X65921000Y-107765440D01*
X67671000Y-107765440D01*
X67918765Y-107716157D01*
X67975871Y-107678000D01*
X70452995Y-107678000D01*
X70453000Y-107678001D01*
X70735484Y-107621810D01*
X70791675Y-107610633D01*
X70995472Y-107474461D01*
X71063191Y-107575809D01*
X71273235Y-107716157D01*
X71521000Y-107765440D01*
X72197120Y-107765440D01*
X72396000Y-107805000D01*
X72594880Y-107765440D01*
X73271000Y-107765440D01*
X73518765Y-107716157D01*
X73575871Y-107678000D01*
X75922560Y-107678000D01*
X75922560Y-108176000D01*
X75971843Y-108423765D01*
X76112191Y-108633809D01*
X76322235Y-108774157D01*
X76570000Y-108823440D01*
X78602000Y-108823440D01*
X78849765Y-108774157D01*
X79059809Y-108633809D01*
X79155146Y-108491128D01*
X79494190Y-108717670D01*
X80126000Y-108843345D01*
X80757810Y-108717670D01*
X81293433Y-108359778D01*
X81651325Y-107824155D01*
X81777000Y-107192345D01*
X81777000Y-107160000D01*
X83173285Y-107160000D01*
X83255844Y-107575051D01*
X83402809Y-107795000D01*
X83255844Y-108014949D01*
X83173285Y-108430000D01*
X83255844Y-108845051D01*
X83490951Y-109196914D01*
X83842814Y-109432021D01*
X84257865Y-109514580D01*
X84914135Y-109514580D01*
X85329186Y-109432021D01*
X85681049Y-109196914D01*
X85916156Y-108845051D01*
X85998715Y-108430000D01*
X85916156Y-108014949D01*
X85769191Y-107795000D01*
X85916156Y-107575051D01*
X85946184Y-107424086D01*
X86752269Y-107424086D01*
X86954854Y-107914380D01*
X87329647Y-108289827D01*
X87819587Y-108493268D01*
X88350086Y-108493731D01*
X88840380Y-108291146D01*
X89215827Y-107916353D01*
X89419268Y-107426413D01*
X89419731Y-106895914D01*
X89240236Y-106461500D01*
X99440060Y-106461500D01*
X99440060Y-107858500D01*
X99489343Y-108106265D01*
X99629691Y-108316309D01*
X99839735Y-108456657D01*
X100087500Y-108505940D01*
X101484500Y-108505940D01*
X101732265Y-108456657D01*
X101942309Y-108316309D01*
X102082657Y-108106265D01*
X102124744Y-107894677D01*
X116314794Y-107894677D01*
X116494820Y-108330372D01*
X116827875Y-108664009D01*
X117263255Y-108844794D01*
X117734677Y-108845206D01*
X118170372Y-108665180D01*
X118504009Y-108332125D01*
X118684794Y-107896745D01*
X118684795Y-107894677D01*
X121214794Y-107894677D01*
X121394820Y-108330372D01*
X121727875Y-108664009D01*
X122163255Y-108844794D01*
X122634677Y-108845206D01*
X123070372Y-108665180D01*
X123404009Y-108332125D01*
X123584794Y-107896745D01*
X123584795Y-107894677D01*
X126264794Y-107894677D01*
X126444820Y-108330372D01*
X126777875Y-108664009D01*
X127213255Y-108844794D01*
X127684677Y-108845206D01*
X128120372Y-108665180D01*
X128454009Y-108332125D01*
X128634794Y-107896745D01*
X128635206Y-107425323D01*
X128455180Y-106989628D01*
X128122125Y-106655991D01*
X127686745Y-106475206D01*
X127215323Y-106474794D01*
X126779628Y-106654820D01*
X126445991Y-106987875D01*
X126265206Y-107423255D01*
X126264794Y-107894677D01*
X123584795Y-107894677D01*
X123585206Y-107425323D01*
X123405180Y-106989628D01*
X123072125Y-106655991D01*
X122636745Y-106475206D01*
X122165323Y-106474794D01*
X121729628Y-106654820D01*
X121395991Y-106987875D01*
X121215206Y-107423255D01*
X121214794Y-107894677D01*
X118684795Y-107894677D01*
X118685206Y-107425323D01*
X118505180Y-106989628D01*
X118172125Y-106655991D01*
X117736745Y-106475206D01*
X117265323Y-106474794D01*
X116829628Y-106654820D01*
X116495991Y-106987875D01*
X116315206Y-107423255D01*
X116314794Y-107894677D01*
X102124744Y-107894677D01*
X102131940Y-107858500D01*
X102131940Y-106461500D01*
X102082657Y-106213735D01*
X101942309Y-106003691D01*
X101732265Y-105863343D01*
X101484500Y-105814060D01*
X100087500Y-105814060D01*
X99839735Y-105863343D01*
X99629691Y-106003691D01*
X99489343Y-106213735D01*
X99440060Y-106461500D01*
X89240236Y-106461500D01*
X89217146Y-106405620D01*
X88842353Y-106030173D01*
X88352413Y-105826732D01*
X87821914Y-105826269D01*
X87331620Y-106028854D01*
X86956173Y-106403647D01*
X86752732Y-106893587D01*
X86752269Y-107424086D01*
X85946184Y-107424086D01*
X85998715Y-107160000D01*
X85916156Y-106744949D01*
X85766359Y-106520762D01*
X85930981Y-106183935D01*
X85804068Y-106017000D01*
X84713000Y-106017000D01*
X84713000Y-106037000D01*
X84459000Y-106037000D01*
X84459000Y-106017000D01*
X83367932Y-106017000D01*
X83241019Y-106183935D01*
X83405641Y-106520762D01*
X83255844Y-106744949D01*
X83173285Y-107160000D01*
X81777000Y-107160000D01*
X81777000Y-107127655D01*
X81651325Y-106495845D01*
X81293433Y-105960222D01*
X80757810Y-105602330D01*
X80726314Y-105596065D01*
X83241019Y-105596065D01*
X83367932Y-105763000D01*
X84459000Y-105763000D01*
X84459000Y-104805420D01*
X84713000Y-104805420D01*
X84713000Y-105763000D01*
X85804068Y-105763000D01*
X85930981Y-105596065D01*
X85743706Y-105212889D01*
X85419373Y-104936580D01*
X85013990Y-104805420D01*
X84713000Y-104805420D01*
X84459000Y-104805420D01*
X84158010Y-104805420D01*
X83752627Y-104936580D01*
X83428294Y-105212889D01*
X83241019Y-105596065D01*
X80726314Y-105596065D01*
X80126000Y-105476655D01*
X79494190Y-105602330D01*
X79155146Y-105828872D01*
X79059809Y-105686191D01*
X78849765Y-105545843D01*
X78602000Y-105496560D01*
X76570000Y-105496560D01*
X76322235Y-105545843D01*
X76112191Y-105686191D01*
X75971843Y-105896235D01*
X75969503Y-105908000D01*
X73906505Y-105908000D01*
X73918440Y-105848000D01*
X73918440Y-105198000D01*
X73869157Y-104950235D01*
X73827573Y-104888000D01*
X73869157Y-104825765D01*
X73918440Y-104578000D01*
X73918440Y-103928000D01*
X73869157Y-103680235D01*
X73827573Y-103618000D01*
X73869157Y-103555765D01*
X73918440Y-103308000D01*
X73918440Y-102983694D01*
X164481226Y-102983694D01*
X164729538Y-103584655D01*
X165188927Y-104044846D01*
X165789453Y-104294206D01*
X166439694Y-104294774D01*
X167040655Y-104046462D01*
X167500846Y-103587073D01*
X167750206Y-102986547D01*
X167750774Y-102336306D01*
X167502462Y-101735345D01*
X167043073Y-101275154D01*
X166442547Y-101025794D01*
X165792306Y-101025226D01*
X165191345Y-101273538D01*
X164731154Y-101732927D01*
X164481794Y-102333453D01*
X164481226Y-102983694D01*
X73918440Y-102983694D01*
X73918440Y-102658000D01*
X73869157Y-102410235D01*
X73827573Y-102348000D01*
X73869157Y-102285765D01*
X73918440Y-102038000D01*
X73918440Y-101388000D01*
X73901348Y-101302073D01*
X74053484Y-101271810D01*
X74109675Y-101260633D01*
X74396790Y-101068790D01*
X74519829Y-100945750D01*
X99801000Y-100945750D01*
X99801000Y-101436309D01*
X99897673Y-101669698D01*
X100076301Y-101848327D01*
X100309690Y-101945000D01*
X100800250Y-101945000D01*
X100959000Y-101786250D01*
X100959000Y-100787000D01*
X101213000Y-100787000D01*
X101213000Y-101786250D01*
X101371750Y-101945000D01*
X101862310Y-101945000D01*
X102095699Y-101848327D01*
X102274327Y-101669698D01*
X102371000Y-101436309D01*
X102371000Y-100945750D01*
X102212250Y-100787000D01*
X101213000Y-100787000D01*
X100959000Y-100787000D01*
X99959750Y-100787000D01*
X99801000Y-100945750D01*
X74519829Y-100945750D01*
X74746788Y-100718791D01*
X74746791Y-100718789D01*
X74938634Y-100431674D01*
X75006002Y-100092999D01*
X75006001Y-100092994D01*
X75006001Y-99883691D01*
X99801000Y-99883691D01*
X99801000Y-100374250D01*
X99959750Y-100533000D01*
X100959000Y-100533000D01*
X100959000Y-99533750D01*
X101213000Y-99533750D01*
X101213000Y-100533000D01*
X102212250Y-100533000D01*
X102371000Y-100374250D01*
X102371000Y-100323694D01*
X158315226Y-100323694D01*
X158563538Y-100924655D01*
X159022927Y-101384846D01*
X159623453Y-101634206D01*
X160273694Y-101634774D01*
X160874655Y-101386462D01*
X161334846Y-100927073D01*
X161584206Y-100326547D01*
X161584774Y-99676306D01*
X161336462Y-99075345D01*
X160877073Y-98615154D01*
X160276547Y-98365794D01*
X159626306Y-98365226D01*
X159025345Y-98613538D01*
X158565154Y-99072927D01*
X158315794Y-99673453D01*
X158315226Y-100323694D01*
X102371000Y-100323694D01*
X102371000Y-99883691D01*
X102274327Y-99650302D01*
X102095699Y-99471673D01*
X101862310Y-99375000D01*
X101371750Y-99375000D01*
X101213000Y-99533750D01*
X100959000Y-99533750D01*
X100800250Y-99375000D01*
X100309690Y-99375000D01*
X100076301Y-99471673D01*
X99897673Y-99650302D01*
X99801000Y-99883691D01*
X75006001Y-99883691D01*
X75006001Y-97914481D01*
X76300777Y-97914481D01*
X76495995Y-98386943D01*
X76857155Y-98748735D01*
X77329276Y-98944777D01*
X77840481Y-98945223D01*
X78312943Y-98750005D01*
X78674735Y-98388845D01*
X78776530Y-98143694D01*
X81951226Y-98143694D01*
X82199538Y-98744655D01*
X82658927Y-99204846D01*
X83259453Y-99454206D01*
X83909694Y-99454774D01*
X84510655Y-99206462D01*
X84970846Y-98747073D01*
X85220206Y-98146547D01*
X85220365Y-97963991D01*
X88550735Y-97963991D01*
X88783932Y-98528371D01*
X89215357Y-98960551D01*
X89779330Y-99194733D01*
X90389991Y-99195265D01*
X90954371Y-98962068D01*
X91386551Y-98530643D01*
X91620733Y-97966670D01*
X91621265Y-97356009D01*
X91388068Y-96791629D01*
X90956643Y-96359449D01*
X90392670Y-96125267D01*
X89782009Y-96124735D01*
X89217629Y-96357932D01*
X88785449Y-96789357D01*
X88551267Y-97353330D01*
X88550735Y-97963991D01*
X85220365Y-97963991D01*
X85220774Y-97496306D01*
X84972462Y-96895345D01*
X84513073Y-96435154D01*
X83912547Y-96185794D01*
X83262306Y-96185226D01*
X82661345Y-96433538D01*
X82201154Y-96892927D01*
X81951794Y-97493453D01*
X81951226Y-98143694D01*
X78776530Y-98143694D01*
X78870777Y-97916724D01*
X78871223Y-97405519D01*
X78676005Y-96933057D01*
X78314845Y-96571265D01*
X77842724Y-96375223D01*
X77331519Y-96374777D01*
X76859057Y-96569995D01*
X76497265Y-96931155D01*
X76301223Y-97403276D01*
X76300777Y-97914481D01*
X75006001Y-97914481D01*
X75006001Y-95914481D01*
X99800777Y-95914481D01*
X99995995Y-96386943D01*
X100357155Y-96748735D01*
X100829276Y-96944777D01*
X101340481Y-96945223D01*
X101812943Y-96750005D01*
X102174735Y-96388845D01*
X102370777Y-95916724D01*
X102371171Y-95463991D01*
X110554735Y-95463991D01*
X110787932Y-96028371D01*
X111219357Y-96460551D01*
X111783330Y-96694733D01*
X112393991Y-96695265D01*
X112958371Y-96462068D01*
X113390551Y-96030643D01*
X113624733Y-95466670D01*
X113624735Y-95463991D01*
X156274735Y-95463991D01*
X156507932Y-96028371D01*
X156939357Y-96460551D01*
X157503330Y-96694733D01*
X158113991Y-96695265D01*
X158678371Y-96462068D01*
X159110551Y-96030643D01*
X159344733Y-95466670D01*
X159345265Y-94856009D01*
X159112068Y-94291629D01*
X158680643Y-93859449D01*
X158116670Y-93625267D01*
X157506009Y-93624735D01*
X156941629Y-93857932D01*
X156509449Y-94289357D01*
X156275267Y-94853330D01*
X156274735Y-95463991D01*
X113624735Y-95463991D01*
X113625265Y-94856009D01*
X113392068Y-94291629D01*
X112960643Y-93859449D01*
X112396670Y-93625267D01*
X111786009Y-93624735D01*
X111221629Y-93857932D01*
X110789449Y-94289357D01*
X110555267Y-94853330D01*
X110554735Y-95463991D01*
X102371171Y-95463991D01*
X102371223Y-95405519D01*
X102176005Y-94933057D01*
X101814845Y-94571265D01*
X101342724Y-94375223D01*
X100831519Y-94374777D01*
X100359057Y-94569995D01*
X99997265Y-94931155D01*
X99801223Y-95403276D01*
X99800777Y-95914481D01*
X75006001Y-95914481D01*
X75006001Y-92010000D01*
X76288560Y-92010000D01*
X76288560Y-93310000D01*
X76337843Y-93557765D01*
X76478191Y-93767809D01*
X76688235Y-93908157D01*
X76936000Y-93957440D01*
X78236000Y-93957440D01*
X78483765Y-93908157D01*
X78693809Y-93767809D01*
X78834157Y-93557765D01*
X78883440Y-93310000D01*
X78883440Y-92483694D01*
X89451226Y-92483694D01*
X89699538Y-93084655D01*
X90158927Y-93544846D01*
X90759453Y-93794206D01*
X91409694Y-93794774D01*
X92010655Y-93546462D01*
X92470846Y-93087073D01*
X92720206Y-92486547D01*
X92720208Y-92483694D01*
X99611226Y-92483694D01*
X99859538Y-93084655D01*
X100318927Y-93544846D01*
X100919453Y-93794206D01*
X101569694Y-93794774D01*
X102170655Y-93546462D01*
X102630846Y-93087073D01*
X102880206Y-92486547D01*
X102880774Y-91836306D01*
X102632462Y-91235345D01*
X102173073Y-90775154D01*
X101572547Y-90525794D01*
X100922306Y-90525226D01*
X100321345Y-90773538D01*
X99861154Y-91232927D01*
X99611794Y-91833453D01*
X99611226Y-92483694D01*
X92720208Y-92483694D01*
X92720774Y-91836306D01*
X92472462Y-91235345D01*
X92013073Y-90775154D01*
X91412547Y-90525794D01*
X90762306Y-90525226D01*
X90161345Y-90773538D01*
X89701154Y-91232927D01*
X89451794Y-91833453D01*
X89451226Y-92483694D01*
X78883440Y-92483694D01*
X78883440Y-92010000D01*
X78834157Y-91762235D01*
X78693809Y-91552191D01*
X78483765Y-91411843D01*
X78236000Y-91362560D01*
X76936000Y-91362560D01*
X76688235Y-91411843D01*
X76478191Y-91552191D01*
X76337843Y-91762235D01*
X76288560Y-92010000D01*
X75006001Y-92010000D01*
X75006001Y-90414481D01*
X156164777Y-90414481D01*
X156359995Y-90886943D01*
X156721155Y-91248735D01*
X157193276Y-91444777D01*
X157704481Y-91445223D01*
X158176943Y-91250005D01*
X158538735Y-90888845D01*
X158734777Y-90416724D01*
X158735140Y-90000000D01*
X170873000Y-90000000D01*
X170873000Y-116000000D01*
X170882667Y-116048601D01*
X170910197Y-116089803D01*
X170951399Y-116117333D01*
X171000000Y-116127000D01*
X181000000Y-116127000D01*
X181048601Y-116117333D01*
X181089803Y-116089803D01*
X181117333Y-116048601D01*
X181127000Y-116000000D01*
X181127000Y-109797694D01*
X221885226Y-109797694D01*
X222133538Y-110398655D01*
X222592927Y-110858846D01*
X223193453Y-111108206D01*
X223843694Y-111108774D01*
X224444655Y-110860462D01*
X224904846Y-110401073D01*
X225154206Y-109800547D01*
X225154774Y-109150306D01*
X224906462Y-108549345D01*
X224447073Y-108089154D01*
X223846547Y-107839794D01*
X223196306Y-107839226D01*
X222595345Y-108087538D01*
X222135154Y-108546927D01*
X221885794Y-109147453D01*
X221885226Y-109797694D01*
X181127000Y-109797694D01*
X181127000Y-91743991D01*
X198616735Y-91743991D01*
X198849932Y-92308371D01*
X199281357Y-92740551D01*
X199845330Y-92974733D01*
X200455991Y-92975265D01*
X201020371Y-92742068D01*
X201452551Y-92310643D01*
X201686733Y-91746670D01*
X201686735Y-91743991D01*
X212332735Y-91743991D01*
X212565932Y-92308371D01*
X212997357Y-92740551D01*
X213561330Y-92974733D01*
X214171991Y-92975265D01*
X214736371Y-92742068D01*
X215168551Y-92310643D01*
X215402733Y-91746670D01*
X215403265Y-91136009D01*
X215170068Y-90571629D01*
X214738643Y-90139449D01*
X214174670Y-89905267D01*
X213564009Y-89904735D01*
X212999629Y-90137932D01*
X212567449Y-90569357D01*
X212333267Y-91133330D01*
X212332735Y-91743991D01*
X201686735Y-91743991D01*
X201687265Y-91136009D01*
X201454068Y-90571629D01*
X201022643Y-90139449D01*
X200458670Y-89905267D01*
X199848009Y-89904735D01*
X199283629Y-90137932D01*
X198851449Y-90569357D01*
X198617267Y-91133330D01*
X198616735Y-91743991D01*
X181127000Y-91743991D01*
X181127000Y-90000000D01*
X181117333Y-89951399D01*
X181089803Y-89910197D01*
X181048601Y-89882667D01*
X181000000Y-89873000D01*
X171000000Y-89873000D01*
X170951399Y-89882667D01*
X170910197Y-89910197D01*
X170882667Y-89951399D01*
X170873000Y-90000000D01*
X158735140Y-90000000D01*
X158735223Y-89905519D01*
X158540005Y-89433057D01*
X158178845Y-89071265D01*
X157706724Y-88875223D01*
X157195519Y-88874777D01*
X156723057Y-89069995D01*
X156361265Y-89431155D01*
X156165223Y-89903276D01*
X156164777Y-90414481D01*
X75006001Y-90414481D01*
X75006001Y-90195006D01*
X75006002Y-90195001D01*
X74938635Y-89856327D01*
X74807454Y-89660000D01*
X74746791Y-89569211D01*
X74746788Y-89569209D01*
X74371790Y-89194210D01*
X74281393Y-89133809D01*
X74084675Y-89002367D01*
X74028484Y-88991190D01*
X73746000Y-88934999D01*
X73745995Y-88935000D01*
X68488847Y-88935000D01*
X68472462Y-88895345D01*
X68122728Y-88545000D01*
X76183153Y-88545000D01*
X76199538Y-88584655D01*
X76658927Y-89044846D01*
X77259453Y-89294206D01*
X77909694Y-89294774D01*
X78510655Y-89046462D01*
X78970846Y-88587073D01*
X79220206Y-87986547D01*
X79220208Y-87983694D01*
X81951226Y-87983694D01*
X82199538Y-88584655D01*
X82658927Y-89044846D01*
X83259453Y-89294206D01*
X83909694Y-89294774D01*
X84510655Y-89046462D01*
X84970846Y-88587073D01*
X85220206Y-87986547D01*
X85220774Y-87336306D01*
X84972462Y-86735345D01*
X84881277Y-86644000D01*
X86922560Y-86644000D01*
X86922560Y-88676000D01*
X86971843Y-88923765D01*
X87112191Y-89133809D01*
X87322235Y-89274157D01*
X87570000Y-89323440D01*
X89602000Y-89323440D01*
X89849765Y-89274157D01*
X90059809Y-89133809D01*
X90155146Y-88991128D01*
X90494190Y-89217670D01*
X91126000Y-89343345D01*
X91757810Y-89217670D01*
X92293433Y-88859778D01*
X92651325Y-88324155D01*
X92777000Y-87692345D01*
X92777000Y-87627655D01*
X92651325Y-86995845D01*
X92628377Y-86961500D01*
X94240060Y-86961500D01*
X94240060Y-88358500D01*
X94289343Y-88606265D01*
X94429691Y-88816309D01*
X94639735Y-88956657D01*
X94887500Y-89005940D01*
X96284500Y-89005940D01*
X96532265Y-88956657D01*
X96742309Y-88816309D01*
X96882657Y-88606265D01*
X96931940Y-88358500D01*
X96931940Y-87983694D01*
X98451226Y-87983694D01*
X98699538Y-88584655D01*
X99158927Y-89044846D01*
X99759453Y-89294206D01*
X100409694Y-89294774D01*
X101010655Y-89046462D01*
X101470846Y-88587073D01*
X101720206Y-87986547D01*
X101720774Y-87336306D01*
X101472462Y-86735345D01*
X101013073Y-86275154D01*
X100412547Y-86025794D01*
X99762306Y-86025226D01*
X99161345Y-86273538D01*
X98701154Y-86732927D01*
X98451794Y-87333453D01*
X98451226Y-87983694D01*
X96931940Y-87983694D01*
X96931940Y-86961500D01*
X96882657Y-86713735D01*
X96742309Y-86503691D01*
X96532265Y-86363343D01*
X96284500Y-86314060D01*
X94887500Y-86314060D01*
X94639735Y-86363343D01*
X94429691Y-86503691D01*
X94289343Y-86713735D01*
X94240060Y-86961500D01*
X92628377Y-86961500D01*
X92293433Y-86460222D01*
X91757810Y-86102330D01*
X91126000Y-85976655D01*
X90494190Y-86102330D01*
X90155146Y-86328872D01*
X90059809Y-86186191D01*
X89849765Y-86045843D01*
X89602000Y-85996560D01*
X87570000Y-85996560D01*
X87322235Y-86045843D01*
X87112191Y-86186191D01*
X86971843Y-86396235D01*
X86922560Y-86644000D01*
X84881277Y-86644000D01*
X84513073Y-86275154D01*
X83912547Y-86025794D01*
X83262306Y-86025226D01*
X82661345Y-86273538D01*
X82201154Y-86732927D01*
X81951794Y-87333453D01*
X81951226Y-87983694D01*
X79220208Y-87983694D01*
X79220774Y-87336306D01*
X78972462Y-86735345D01*
X78513073Y-86275154D01*
X77912547Y-86025794D01*
X77262306Y-86025226D01*
X76661345Y-86273538D01*
X76201154Y-86732927D01*
X76183684Y-86775000D01*
X66508757Y-86775000D01*
X66508752Y-86774999D01*
X66170078Y-86842366D01*
X66170076Y-86842367D01*
X66170077Y-86842367D01*
X65882962Y-87034210D01*
X65882960Y-87034213D01*
X63683440Y-89233732D01*
X63683440Y-87660000D01*
X63634157Y-87412235D01*
X63493809Y-87202191D01*
X63283765Y-87061843D01*
X63036000Y-87012560D01*
X61136000Y-87012560D01*
X61092956Y-87021122D01*
X62069077Y-86045000D01*
X73585995Y-86045000D01*
X73586000Y-86045001D01*
X73868484Y-85988810D01*
X73924675Y-85977633D01*
X74211790Y-85785790D01*
X74211791Y-85785789D01*
X75211787Y-84785792D01*
X75211790Y-84785790D01*
X75339975Y-84593946D01*
X75396066Y-84510000D01*
X156152560Y-84510000D01*
X156152560Y-85810000D01*
X156201843Y-86057765D01*
X156342191Y-86267809D01*
X156552235Y-86408157D01*
X156800000Y-86457440D01*
X158100000Y-86457440D01*
X158347765Y-86408157D01*
X158557809Y-86267809D01*
X158698157Y-86057765D01*
X158747440Y-85810000D01*
X158747440Y-84510000D01*
X158698157Y-84262235D01*
X158557809Y-84052191D01*
X158347765Y-83911843D01*
X158100000Y-83862560D01*
X156800000Y-83862560D01*
X156552235Y-83911843D01*
X156342191Y-84052191D01*
X156201843Y-84262235D01*
X156152560Y-84510000D01*
X75396066Y-84510000D01*
X75403634Y-84498674D01*
X75471001Y-84160000D01*
X75471000Y-84159995D01*
X75471000Y-80463991D01*
X110554735Y-80463991D01*
X110787932Y-81028371D01*
X111219357Y-81460551D01*
X111783330Y-81694733D01*
X112393991Y-81695265D01*
X112958371Y-81462068D01*
X113390551Y-81030643D01*
X113624733Y-80466670D01*
X113624735Y-80463991D01*
X156274735Y-80463991D01*
X156507932Y-81028371D01*
X156939357Y-81460551D01*
X157503330Y-81694733D01*
X158113991Y-81695265D01*
X158678371Y-81462068D01*
X159110551Y-81030643D01*
X159344733Y-80466670D01*
X159345265Y-79856009D01*
X159112068Y-79291629D01*
X158680643Y-78859449D01*
X158116670Y-78625267D01*
X157506009Y-78624735D01*
X156941629Y-78857932D01*
X156509449Y-79289357D01*
X156275267Y-79853330D01*
X156274735Y-80463991D01*
X113624735Y-80463991D01*
X113625265Y-79856009D01*
X113392068Y-79291629D01*
X112960643Y-78859449D01*
X112396670Y-78625267D01*
X111786009Y-78624735D01*
X111221629Y-78857932D01*
X110789449Y-79289357D01*
X110555267Y-79853330D01*
X110554735Y-80463991D01*
X75471000Y-80463991D01*
X75471000Y-77823694D01*
X75951226Y-77823694D01*
X76199538Y-78424655D01*
X76658927Y-78884846D01*
X77259453Y-79134206D01*
X77909694Y-79134774D01*
X78510655Y-78886462D01*
X78970846Y-78427073D01*
X79163134Y-77963991D01*
X88550735Y-77963991D01*
X88783932Y-78528371D01*
X89215357Y-78960551D01*
X89779330Y-79194733D01*
X90389991Y-79195265D01*
X90954371Y-78962068D01*
X91386551Y-78530643D01*
X91620733Y-77966670D01*
X91620909Y-77764086D01*
X94252269Y-77764086D01*
X94454854Y-78254380D01*
X94829647Y-78629827D01*
X95319587Y-78833268D01*
X95850086Y-78833731D01*
X96340380Y-78631146D01*
X96715827Y-78256353D01*
X96895482Y-77823694D01*
X98451226Y-77823694D01*
X98699538Y-78424655D01*
X99158927Y-78884846D01*
X99759453Y-79134206D01*
X100409694Y-79134774D01*
X101010655Y-78886462D01*
X101470846Y-78427073D01*
X101720206Y-77826547D01*
X101720774Y-77176306D01*
X101472462Y-76575345D01*
X101013073Y-76115154D01*
X100412547Y-75865794D01*
X99762306Y-75865226D01*
X99161345Y-76113538D01*
X98701154Y-76572927D01*
X98451794Y-77173453D01*
X98451226Y-77823694D01*
X96895482Y-77823694D01*
X96919268Y-77766413D01*
X96919731Y-77235914D01*
X96717146Y-76745620D01*
X96342353Y-76370173D01*
X95852413Y-76166732D01*
X95321914Y-76166269D01*
X94831620Y-76368854D01*
X94456173Y-76743647D01*
X94252732Y-77233587D01*
X94252269Y-77764086D01*
X91620909Y-77764086D01*
X91621265Y-77356009D01*
X91388068Y-76791629D01*
X90956643Y-76359449D01*
X90392670Y-76125267D01*
X89782009Y-76124735D01*
X89217629Y-76357932D01*
X88785449Y-76789357D01*
X88551267Y-77353330D01*
X88550735Y-77963991D01*
X79163134Y-77963991D01*
X79220206Y-77826547D01*
X79220774Y-77176306D01*
X78972462Y-76575345D01*
X78513073Y-76115154D01*
X77912547Y-75865794D01*
X77262306Y-75865226D01*
X76661345Y-76113538D01*
X76201154Y-76572927D01*
X75951794Y-77173453D01*
X75951226Y-77823694D01*
X75471000Y-77823694D01*
X75471000Y-75507694D01*
X158639226Y-75507694D01*
X158887538Y-76108655D01*
X159346927Y-76568846D01*
X159947453Y-76818206D01*
X160597694Y-76818774D01*
X161198655Y-76570462D01*
X161658846Y-76111073D01*
X161908206Y-75510547D01*
X161908774Y-74860306D01*
X161660462Y-74259345D01*
X161201073Y-73799154D01*
X160600547Y-73549794D01*
X159950306Y-73549226D01*
X159349345Y-73797538D01*
X158889154Y-74256927D01*
X158639794Y-74857453D01*
X158639226Y-75507694D01*
X75471000Y-75507694D01*
X75471000Y-72510000D01*
X76288560Y-72510000D01*
X76288560Y-73810000D01*
X76337843Y-74057765D01*
X76478191Y-74267809D01*
X76688235Y-74408157D01*
X76936000Y-74457440D01*
X78236000Y-74457440D01*
X78483765Y-74408157D01*
X78693809Y-74267809D01*
X78833321Y-74059016D01*
X81866590Y-74059016D01*
X81922271Y-74289611D01*
X82405078Y-74457622D01*
X82915428Y-74428083D01*
X83249729Y-74289611D01*
X83305410Y-74059016D01*
X82586000Y-73339605D01*
X81866590Y-74059016D01*
X78833321Y-74059016D01*
X78834157Y-74057765D01*
X78883440Y-73810000D01*
X78883440Y-72979078D01*
X81288378Y-72979078D01*
X81317917Y-73489428D01*
X81456389Y-73823729D01*
X81686984Y-73879410D01*
X82406395Y-73160000D01*
X82765605Y-73160000D01*
X83485016Y-73879410D01*
X83715611Y-73823729D01*
X83883622Y-73340922D01*
X83862020Y-72967694D01*
X164481226Y-72967694D01*
X164729538Y-73568655D01*
X165188927Y-74028846D01*
X165789453Y-74278206D01*
X166439694Y-74278774D01*
X167040655Y-74030462D01*
X167500846Y-73571073D01*
X167750206Y-72970547D01*
X167750774Y-72320306D01*
X167502462Y-71719345D01*
X167043073Y-71259154D01*
X166442547Y-71009794D01*
X165792306Y-71009226D01*
X165191345Y-71257538D01*
X164731154Y-71716927D01*
X164481794Y-72317453D01*
X164481226Y-72967694D01*
X83862020Y-72967694D01*
X83854083Y-72830572D01*
X83715611Y-72496271D01*
X83485016Y-72440590D01*
X82765605Y-73160000D01*
X82406395Y-73160000D01*
X81686984Y-72440590D01*
X81456389Y-72496271D01*
X81288378Y-72979078D01*
X78883440Y-72979078D01*
X78883440Y-72510000D01*
X78834157Y-72262235D01*
X78833322Y-72260984D01*
X81866590Y-72260984D01*
X82586000Y-72980395D01*
X83305410Y-72260984D01*
X83249729Y-72030389D01*
X82766922Y-71862378D01*
X82256572Y-71891917D01*
X81922271Y-72030389D01*
X81866590Y-72260984D01*
X78833322Y-72260984D01*
X78693809Y-72052191D01*
X78483765Y-71911843D01*
X78236000Y-71862560D01*
X76936000Y-71862560D01*
X76688235Y-71911843D01*
X76478191Y-72052191D01*
X76337843Y-72262235D01*
X76288560Y-72510000D01*
X75471000Y-72510000D01*
X75471000Y-72485003D01*
X75471001Y-72484998D01*
X75407878Y-72167663D01*
X75403633Y-72146323D01*
X75211790Y-71859208D01*
X75211787Y-71859206D01*
X74735792Y-71383210D01*
X74573843Y-71275000D01*
X74448677Y-71191367D01*
X74392486Y-71180190D01*
X74158583Y-71133663D01*
X74172440Y-71064000D01*
X74172440Y-70414000D01*
X74123157Y-70166235D01*
X74081573Y-70104000D01*
X74123157Y-70041765D01*
X74172440Y-69794000D01*
X74172440Y-69144000D01*
X74160505Y-69084000D01*
X75922560Y-69084000D01*
X75922560Y-69176000D01*
X75971843Y-69423765D01*
X76112191Y-69633809D01*
X76322235Y-69774157D01*
X76570000Y-69823440D01*
X78602000Y-69823440D01*
X78849765Y-69774157D01*
X79059809Y-69633809D01*
X79155146Y-69491128D01*
X79494190Y-69717670D01*
X80126000Y-69843345D01*
X80726313Y-69723935D01*
X83241019Y-69723935D01*
X83428294Y-70107111D01*
X83752627Y-70383420D01*
X84158010Y-70514580D01*
X84459000Y-70514580D01*
X84459000Y-69557000D01*
X84713000Y-69557000D01*
X84713000Y-70514580D01*
X85013990Y-70514580D01*
X85419373Y-70383420D01*
X85743706Y-70107111D01*
X85930981Y-69723935D01*
X85804068Y-69557000D01*
X84713000Y-69557000D01*
X84459000Y-69557000D01*
X83367932Y-69557000D01*
X83241019Y-69723935D01*
X80726313Y-69723935D01*
X80757810Y-69717670D01*
X81293433Y-69359778D01*
X81651325Y-68824155D01*
X81777000Y-68192345D01*
X81777000Y-68127655D01*
X81651325Y-67495845D01*
X81293433Y-66960222D01*
X81188339Y-66890000D01*
X83173285Y-66890000D01*
X83255844Y-67305051D01*
X83402809Y-67525000D01*
X83255844Y-67744949D01*
X83173285Y-68160000D01*
X83255844Y-68575051D01*
X83405641Y-68799238D01*
X83241019Y-69136065D01*
X83367932Y-69303000D01*
X84459000Y-69303000D01*
X84459000Y-69283000D01*
X84713000Y-69283000D01*
X84713000Y-69303000D01*
X85804068Y-69303000D01*
X85930981Y-69136065D01*
X85766359Y-68799238D01*
X85916156Y-68575051D01*
X85998715Y-68160000D01*
X85916156Y-67744949D01*
X85769191Y-67525000D01*
X85811620Y-67461500D01*
X86740060Y-67461500D01*
X86740060Y-68858500D01*
X86789343Y-69106265D01*
X86929691Y-69316309D01*
X87139735Y-69456657D01*
X87387500Y-69505940D01*
X88784500Y-69505940D01*
X89032265Y-69456657D01*
X89242309Y-69316309D01*
X89382657Y-69106265D01*
X89431940Y-68858500D01*
X89431940Y-68424086D01*
X99452269Y-68424086D01*
X99654854Y-68914380D01*
X100029647Y-69289827D01*
X100519587Y-69493268D01*
X101050086Y-69493731D01*
X101540380Y-69291146D01*
X101915827Y-68916353D01*
X102119268Y-68426413D01*
X102119731Y-67895914D01*
X102119220Y-67894677D01*
X116314794Y-67894677D01*
X116494820Y-68330372D01*
X116827875Y-68664009D01*
X117263255Y-68844794D01*
X117734677Y-68845206D01*
X118170372Y-68665180D01*
X118504009Y-68332125D01*
X118684794Y-67896745D01*
X118684795Y-67894677D01*
X121214794Y-67894677D01*
X121394820Y-68330372D01*
X121727875Y-68664009D01*
X122163255Y-68844794D01*
X122634677Y-68845206D01*
X123070372Y-68665180D01*
X123404009Y-68332125D01*
X123584794Y-67896745D01*
X123584795Y-67894677D01*
X126264794Y-67894677D01*
X126444820Y-68330372D01*
X126777875Y-68664009D01*
X127213255Y-68844794D01*
X127684677Y-68845206D01*
X128120372Y-68665180D01*
X128454009Y-68332125D01*
X128634794Y-67896745D01*
X128634843Y-67840661D01*
X132714758Y-67840661D01*
X132926990Y-68354303D01*
X133319630Y-68747629D01*
X133832900Y-68960757D01*
X134388661Y-68961242D01*
X134902303Y-68749010D01*
X135295629Y-68356370D01*
X135381949Y-68148488D01*
X135466990Y-68354303D01*
X135859630Y-68747629D01*
X136372900Y-68960757D01*
X136928661Y-68961242D01*
X137442303Y-68749010D01*
X137835629Y-68356370D01*
X137921949Y-68148488D01*
X138006990Y-68354303D01*
X138399630Y-68747629D01*
X138912900Y-68960757D01*
X139468661Y-68961242D01*
X139982303Y-68749010D01*
X140375629Y-68356370D01*
X140570239Y-67887694D01*
X142129226Y-67887694D01*
X142377538Y-68488655D01*
X142836927Y-68948846D01*
X143437453Y-69198206D01*
X144087694Y-69198774D01*
X144688655Y-68950462D01*
X145148846Y-68491073D01*
X145398206Y-67890547D01*
X145398208Y-67887694D01*
X152289226Y-67887694D01*
X152537538Y-68488655D01*
X152996927Y-68948846D01*
X153597453Y-69198206D01*
X154247694Y-69198774D01*
X154848655Y-68950462D01*
X155308846Y-68491073D01*
X155558206Y-67890547D01*
X155558774Y-67240306D01*
X155310462Y-66639345D01*
X154851073Y-66179154D01*
X154250547Y-65929794D01*
X153600306Y-65929226D01*
X152999345Y-66177538D01*
X152539154Y-66636927D01*
X152289794Y-67237453D01*
X152289226Y-67887694D01*
X145398208Y-67887694D01*
X145398774Y-67240306D01*
X145150462Y-66639345D01*
X144691073Y-66179154D01*
X144090547Y-65929794D01*
X143440306Y-65929226D01*
X142839345Y-66177538D01*
X142379154Y-66636927D01*
X142129794Y-67237453D01*
X142129226Y-67887694D01*
X140570239Y-67887694D01*
X140588757Y-67843100D01*
X140589242Y-67287339D01*
X140377010Y-66773697D01*
X139984370Y-66380371D01*
X139471100Y-66167243D01*
X138915339Y-66166758D01*
X138401697Y-66378990D01*
X138008371Y-66771630D01*
X137922051Y-66979512D01*
X137837010Y-66773697D01*
X137444370Y-66380371D01*
X136931100Y-66167243D01*
X136375339Y-66166758D01*
X135861697Y-66378990D01*
X135468371Y-66771630D01*
X135382051Y-66979512D01*
X135297010Y-66773697D01*
X134904370Y-66380371D01*
X134391100Y-66167243D01*
X133835339Y-66166758D01*
X133321697Y-66378990D01*
X132928371Y-66771630D01*
X132715243Y-67284900D01*
X132714758Y-67840661D01*
X128634843Y-67840661D01*
X128635206Y-67425323D01*
X128455180Y-66989628D01*
X128122125Y-66655991D01*
X127686745Y-66475206D01*
X127215323Y-66474794D01*
X126779628Y-66654820D01*
X126445991Y-66987875D01*
X126265206Y-67423255D01*
X126264794Y-67894677D01*
X123584795Y-67894677D01*
X123585206Y-67425323D01*
X123405180Y-66989628D01*
X123072125Y-66655991D01*
X122636745Y-66475206D01*
X122165323Y-66474794D01*
X121729628Y-66654820D01*
X121395991Y-66987875D01*
X121215206Y-67423255D01*
X121214794Y-67894677D01*
X118684795Y-67894677D01*
X118685206Y-67425323D01*
X118505180Y-66989628D01*
X118172125Y-66655991D01*
X117736745Y-66475206D01*
X117265323Y-66474794D01*
X116829628Y-66654820D01*
X116495991Y-66987875D01*
X116315206Y-67423255D01*
X116314794Y-67894677D01*
X102119220Y-67894677D01*
X101917146Y-67405620D01*
X101542353Y-67030173D01*
X101052413Y-66826732D01*
X100521914Y-66826269D01*
X100031620Y-67028854D01*
X99656173Y-67403647D01*
X99452732Y-67893587D01*
X99452269Y-68424086D01*
X89431940Y-68424086D01*
X89431940Y-67461500D01*
X89382657Y-67213735D01*
X89242309Y-67003691D01*
X89032265Y-66863343D01*
X88784500Y-66814060D01*
X87387500Y-66814060D01*
X87139735Y-66863343D01*
X86929691Y-67003691D01*
X86789343Y-67213735D01*
X86740060Y-67461500D01*
X85811620Y-67461500D01*
X85916156Y-67305051D01*
X85998715Y-66890000D01*
X85916156Y-66474949D01*
X85681049Y-66123086D01*
X85329186Y-65887979D01*
X84914135Y-65805420D01*
X84257865Y-65805420D01*
X83842814Y-65887979D01*
X83490951Y-66123086D01*
X83255844Y-66474949D01*
X83173285Y-66890000D01*
X81188339Y-66890000D01*
X80757810Y-66602330D01*
X80126000Y-66476655D01*
X79494190Y-66602330D01*
X79155146Y-66828872D01*
X79059809Y-66686191D01*
X78849765Y-66545843D01*
X78602000Y-66496560D01*
X76570000Y-66496560D01*
X76322235Y-66545843D01*
X76112191Y-66686191D01*
X75971843Y-66896235D01*
X75922560Y-67144000D01*
X75922560Y-67314000D01*
X73829871Y-67314000D01*
X73772765Y-67275843D01*
X73525000Y-67226560D01*
X71775000Y-67226560D01*
X71527235Y-67275843D01*
X71317191Y-67416191D01*
X71227701Y-67550121D01*
X71211790Y-67534210D01*
X71102971Y-67461500D01*
X70924675Y-67342367D01*
X70868484Y-67331190D01*
X70586000Y-67274999D01*
X70585995Y-67275000D01*
X68688998Y-67275000D01*
X68492933Y-67314000D01*
X68229871Y-67314000D01*
X68172765Y-67275843D01*
X67931000Y-67227753D01*
X67931000Y-63807470D01*
X68213433Y-63618754D01*
X68330054Y-63444219D01*
X68508370Y-63671236D01*
X69071523Y-63987926D01*
X69203056Y-64019975D01*
X69459000Y-63900836D01*
X69459000Y-62287000D01*
X69439000Y-62287000D01*
X69439000Y-62033000D01*
X69459000Y-62033000D01*
X69459000Y-60419164D01*
X69713000Y-60419164D01*
X69713000Y-62033000D01*
X69733000Y-62033000D01*
X69733000Y-62287000D01*
X69713000Y-62287000D01*
X69713000Y-63900836D01*
X69968944Y-64019975D01*
X70100477Y-63987926D01*
X70663630Y-63671236D01*
X70841946Y-63444219D01*
X70958567Y-63618754D01*
X71494190Y-63976646D01*
X72126000Y-64102321D01*
X72722377Y-63983694D01*
X75951226Y-63983694D01*
X76199538Y-64584655D01*
X76658927Y-65044846D01*
X77259453Y-65294206D01*
X77909694Y-65294774D01*
X78510655Y-65046462D01*
X78970846Y-64587073D01*
X79220206Y-63986547D01*
X79220208Y-63983694D01*
X87951226Y-63983694D01*
X88199538Y-64584655D01*
X88658927Y-65044846D01*
X89259453Y-65294206D01*
X89909694Y-65294774D01*
X90510655Y-65046462D01*
X90970846Y-64587073D01*
X91220206Y-63986547D01*
X91220774Y-63336306D01*
X90972462Y-62735345D01*
X90627719Y-62390000D01*
X99173285Y-62390000D01*
X99255844Y-62805051D01*
X99402809Y-63025000D01*
X99255844Y-63244949D01*
X99173285Y-63660000D01*
X99255844Y-64075051D01*
X99402809Y-64295000D01*
X99255844Y-64514949D01*
X99173285Y-64930000D01*
X99255844Y-65345051D01*
X99490951Y-65696914D01*
X99842814Y-65932021D01*
X100257865Y-66014580D01*
X100914135Y-66014580D01*
X101329186Y-65932021D01*
X101681049Y-65696914D01*
X101914390Y-65347694D01*
X158639226Y-65347694D01*
X158887538Y-65948655D01*
X159346927Y-66408846D01*
X159947453Y-66658206D01*
X160597694Y-66658774D01*
X161198655Y-66410462D01*
X161658846Y-65951073D01*
X161908206Y-65350547D01*
X161908774Y-64700306D01*
X161660462Y-64099345D01*
X161201073Y-63639154D01*
X160600547Y-63389794D01*
X159950306Y-63389226D01*
X159349345Y-63637538D01*
X158889154Y-64096927D01*
X158639794Y-64697453D01*
X158639226Y-65347694D01*
X101914390Y-65347694D01*
X101916156Y-65345051D01*
X101998715Y-64930000D01*
X101916156Y-64514949D01*
X101769191Y-64295000D01*
X101916156Y-64075051D01*
X101998715Y-63660000D01*
X101916156Y-63244949D01*
X101769191Y-63025000D01*
X101914390Y-62807694D01*
X164481226Y-62807694D01*
X164729538Y-63408655D01*
X165188927Y-63868846D01*
X165789453Y-64118206D01*
X166439694Y-64118774D01*
X167040655Y-63870462D01*
X167500846Y-63411073D01*
X167750206Y-62810547D01*
X167750774Y-62160306D01*
X167502462Y-61559345D01*
X167043073Y-61099154D01*
X166442547Y-60849794D01*
X165792306Y-60849226D01*
X165191345Y-61097538D01*
X164731154Y-61556927D01*
X164481794Y-62157453D01*
X164481226Y-62807694D01*
X101914390Y-62807694D01*
X101916156Y-62805051D01*
X101998715Y-62390000D01*
X101916156Y-61974949D01*
X101681049Y-61623086D01*
X101329186Y-61387979D01*
X100914135Y-61305420D01*
X100257865Y-61305420D01*
X99842814Y-61387979D01*
X99490951Y-61623086D01*
X99255844Y-61974949D01*
X99173285Y-62390000D01*
X90627719Y-62390000D01*
X90513073Y-62275154D01*
X89912547Y-62025794D01*
X89262306Y-62025226D01*
X88661345Y-62273538D01*
X88201154Y-62732927D01*
X87951794Y-63333453D01*
X87951226Y-63983694D01*
X79220208Y-63983694D01*
X79220774Y-63336306D01*
X78972462Y-62735345D01*
X78513073Y-62275154D01*
X77912547Y-62025794D01*
X77262306Y-62025226D01*
X76661345Y-62273538D01*
X76201154Y-62732927D01*
X75951794Y-63333453D01*
X75951226Y-63983694D01*
X72722377Y-63983694D01*
X72757810Y-63976646D01*
X73293433Y-63618754D01*
X73651325Y-63083131D01*
X73777000Y-62451321D01*
X73777000Y-61868679D01*
X73651325Y-61236869D01*
X73293433Y-60701246D01*
X72757810Y-60343354D01*
X72126000Y-60217679D01*
X71494190Y-60343354D01*
X70958567Y-60701246D01*
X70841946Y-60875781D01*
X70663630Y-60648764D01*
X70100477Y-60332074D01*
X69968944Y-60300025D01*
X69713000Y-60419164D01*
X69459000Y-60419164D01*
X69203056Y-60300025D01*
X69071523Y-60332074D01*
X68508370Y-60648764D01*
X68330054Y-60875781D01*
X68213433Y-60701246D01*
X67677810Y-60343354D01*
X67046000Y-60217679D01*
X66414190Y-60343354D01*
X65878567Y-60701246D01*
X65520675Y-61236869D01*
X65395000Y-61868679D01*
X65395000Y-62451321D01*
X65520675Y-63083131D01*
X65878567Y-63618754D01*
X66161000Y-63807470D01*
X66161000Y-67229345D01*
X65927235Y-67275843D01*
X65717191Y-67416191D01*
X65576843Y-67626235D01*
X65527560Y-67874000D01*
X65527560Y-68524000D01*
X65576843Y-68771765D01*
X65618427Y-68834000D01*
X65576843Y-68896235D01*
X65527560Y-69144000D01*
X65527560Y-69794000D01*
X65539495Y-69854000D01*
X57507000Y-69854000D01*
X57168325Y-69921367D01*
X56881210Y-70113210D01*
X56881208Y-70113213D01*
X55460210Y-71534210D01*
X55268367Y-71821325D01*
X55268367Y-71821326D01*
X55215875Y-72085215D01*
X55193809Y-72052191D01*
X54983765Y-71911843D01*
X54736000Y-71862560D01*
X53436000Y-71862560D01*
X53188235Y-71911843D01*
X52978191Y-72052191D01*
X52837843Y-72262235D01*
X52788560Y-72510000D01*
X52788560Y-73810000D01*
X52837843Y-74057765D01*
X52978191Y-74267809D01*
X53188235Y-74408157D01*
X53201000Y-74410696D01*
X53201000Y-93232838D01*
X53078163Y-93187443D01*
X52105605Y-94160000D01*
X53078163Y-95132557D01*
X53201000Y-95087162D01*
X53201000Y-98123688D01*
X52853073Y-97775154D01*
X52252547Y-97525794D01*
X51602306Y-97525226D01*
X51001345Y-97773538D01*
X50541154Y-98232927D01*
X50291794Y-98833453D01*
X50291226Y-99483694D01*
X45127000Y-99483694D01*
X45127000Y-95312163D01*
X50953443Y-95312163D01*
X51052042Y-95578965D01*
X51661582Y-95805401D01*
X52311377Y-95781341D01*
X52799958Y-95578965D01*
X52898557Y-95312163D01*
X51926000Y-94339605D01*
X50953443Y-95312163D01*
X45127000Y-95312163D01*
X45127000Y-93895582D01*
X50280599Y-93895582D01*
X50304659Y-94545377D01*
X50507035Y-95033958D01*
X50773837Y-95132557D01*
X51746395Y-94160000D01*
X50773837Y-93187443D01*
X50507035Y-93286042D01*
X50280599Y-93895582D01*
X45127000Y-93895582D01*
X45127000Y-93007837D01*
X50953443Y-93007837D01*
X51926000Y-93980395D01*
X52898557Y-93007837D01*
X52799958Y-92741035D01*
X52190418Y-92514599D01*
X51540623Y-92538659D01*
X51052042Y-92741035D01*
X50953443Y-93007837D01*
X45127000Y-93007837D01*
X45127000Y-88825750D01*
X47349000Y-88825750D01*
X47349000Y-89682310D01*
X47445673Y-89915699D01*
X47624302Y-90094327D01*
X47857691Y-90191000D01*
X48714250Y-90191000D01*
X48873000Y-90032250D01*
X48873000Y-88667000D01*
X49127000Y-88667000D01*
X49127000Y-90032250D01*
X49285750Y-90191000D01*
X50142309Y-90191000D01*
X50375698Y-90094327D01*
X50554327Y-89915699D01*
X50651000Y-89682310D01*
X50651000Y-88825750D01*
X50492250Y-88667000D01*
X49127000Y-88667000D01*
X48873000Y-88667000D01*
X47507750Y-88667000D01*
X47349000Y-88825750D01*
X45127000Y-88825750D01*
X45127000Y-86000000D01*
X47316655Y-86000000D01*
X47442330Y-86631810D01*
X47666966Y-86968001D01*
X47624302Y-86985673D01*
X47445673Y-87164301D01*
X47349000Y-87397690D01*
X47349000Y-88254250D01*
X47507750Y-88413000D01*
X48873000Y-88413000D01*
X48873000Y-88393000D01*
X49127000Y-88393000D01*
X49127000Y-88413000D01*
X50492250Y-88413000D01*
X50651000Y-88254250D01*
X50651000Y-87397690D01*
X50554327Y-87164301D01*
X50375698Y-86985673D01*
X50333034Y-86968001D01*
X50557670Y-86631810D01*
X50683345Y-86000000D01*
X50557670Y-85368190D01*
X50199778Y-84832567D01*
X49664155Y-84474675D01*
X49032345Y-84349000D01*
X48967655Y-84349000D01*
X48335845Y-84474675D01*
X47800222Y-84832567D01*
X47442330Y-85368190D01*
X47316655Y-86000000D01*
X45127000Y-86000000D01*
X45127000Y-73414481D01*
X47800777Y-73414481D01*
X47995995Y-73886943D01*
X48357155Y-74248735D01*
X48829276Y-74444777D01*
X49340481Y-74445223D01*
X49812943Y-74250005D01*
X50174735Y-73888845D01*
X50370777Y-73416724D01*
X50371223Y-72905519D01*
X50176005Y-72433057D01*
X49814845Y-72071265D01*
X49342724Y-71875223D01*
X48831519Y-71874777D01*
X48359057Y-72069995D01*
X47997265Y-72431155D01*
X47801223Y-72903276D01*
X47800777Y-73414481D01*
X45127000Y-73414481D01*
X45127000Y-66812163D01*
X61113443Y-66812163D01*
X61212042Y-67078965D01*
X61821582Y-67305401D01*
X62471377Y-67281341D01*
X62959958Y-67078965D01*
X63058557Y-66812163D01*
X62086000Y-65839605D01*
X61113443Y-66812163D01*
X45127000Y-66812163D01*
X45127000Y-65395582D01*
X60440599Y-65395582D01*
X60464659Y-66045377D01*
X60667035Y-66533958D01*
X60933837Y-66632557D01*
X61906395Y-65660000D01*
X62265605Y-65660000D01*
X63238163Y-66632557D01*
X63504965Y-66533958D01*
X63731401Y-65924418D01*
X63707341Y-65274623D01*
X63504965Y-64786042D01*
X63238163Y-64687443D01*
X62265605Y-65660000D01*
X61906395Y-65660000D01*
X60933837Y-64687443D01*
X60667035Y-64786042D01*
X60440599Y-65395582D01*
X45127000Y-65395582D01*
X45127000Y-64312163D01*
X57113443Y-64312163D01*
X57212042Y-64578965D01*
X57821582Y-64805401D01*
X58471377Y-64781341D01*
X58959958Y-64578965D01*
X58986243Y-64507837D01*
X61113443Y-64507837D01*
X62086000Y-65480395D01*
X63058557Y-64507837D01*
X62959958Y-64241035D01*
X62350418Y-64014599D01*
X61700623Y-64038659D01*
X61212042Y-64241035D01*
X61113443Y-64507837D01*
X58986243Y-64507837D01*
X59058557Y-64312163D01*
X58086000Y-63339605D01*
X57113443Y-64312163D01*
X45127000Y-64312163D01*
X45127000Y-62895582D01*
X56440599Y-62895582D01*
X56464659Y-63545377D01*
X56667035Y-64033958D01*
X56933837Y-64132557D01*
X57906395Y-63160000D01*
X58265605Y-63160000D01*
X59238163Y-64132557D01*
X59504965Y-64033958D01*
X59731401Y-63424418D01*
X59707341Y-62774623D01*
X59504965Y-62286042D01*
X59238163Y-62187443D01*
X58265605Y-63160000D01*
X57906395Y-63160000D01*
X56933837Y-62187443D01*
X56667035Y-62286042D01*
X56440599Y-62895582D01*
X45127000Y-62895582D01*
X45127000Y-62007837D01*
X57113443Y-62007837D01*
X58086000Y-62980395D01*
X59058557Y-62007837D01*
X58959958Y-61741035D01*
X58350418Y-61514599D01*
X57700623Y-61538659D01*
X57212042Y-61741035D01*
X57113443Y-62007837D01*
X45127000Y-62007837D01*
X45127000Y-59094188D01*
X58631417Y-59094188D01*
X58693071Y-59329800D01*
X59193480Y-59505927D01*
X59723199Y-59477148D01*
X60078929Y-59329800D01*
X60140583Y-59094188D01*
X59386000Y-58339605D01*
X58631417Y-59094188D01*
X45127000Y-59094188D01*
X45127000Y-57967480D01*
X58040073Y-57967480D01*
X58068852Y-58497199D01*
X58216200Y-58852929D01*
X58451812Y-58914583D01*
X59206395Y-58160000D01*
X59565605Y-58160000D01*
X60320188Y-58914583D01*
X60555800Y-58852929D01*
X60731927Y-58352520D01*
X60703148Y-57822801D01*
X60555800Y-57467071D01*
X60534511Y-57461500D01*
X70740060Y-57461500D01*
X70740060Y-58858500D01*
X70789343Y-59106265D01*
X70929691Y-59316309D01*
X71139735Y-59456657D01*
X71387500Y-59505940D01*
X72784500Y-59505940D01*
X73032265Y-59456657D01*
X73242309Y-59316309D01*
X73382657Y-59106265D01*
X73407037Y-58983694D01*
X98951226Y-58983694D01*
X99199538Y-59584655D01*
X99658927Y-60044846D01*
X100259453Y-60294206D01*
X100909694Y-60294774D01*
X101032537Y-60244016D01*
X133179112Y-60244016D01*
X133404658Y-60789877D01*
X133821926Y-61207874D01*
X134367393Y-61434372D01*
X134958016Y-61434888D01*
X135503877Y-61209342D01*
X135921874Y-60792074D01*
X136148372Y-60246607D01*
X136148461Y-60143694D01*
X138087226Y-60143694D01*
X138335538Y-60744655D01*
X138794927Y-61204846D01*
X139395453Y-61454206D01*
X140045694Y-61454774D01*
X140646655Y-61206462D01*
X141106846Y-60747073D01*
X141356206Y-60146547D01*
X141356208Y-60143694D01*
X145707226Y-60143694D01*
X145955538Y-60744655D01*
X146414927Y-61204846D01*
X147015453Y-61454206D01*
X147665694Y-61454774D01*
X148266655Y-61206462D01*
X148726846Y-60747073D01*
X148976206Y-60146547D01*
X148976208Y-60143694D01*
X155867226Y-60143694D01*
X156115538Y-60744655D01*
X156574927Y-61204846D01*
X157175453Y-61454206D01*
X157825694Y-61454774D01*
X158426655Y-61206462D01*
X158886846Y-60747073D01*
X159136206Y-60146547D01*
X159136334Y-60000000D01*
X170873000Y-60000000D01*
X170873000Y-85000000D01*
X170882667Y-85048601D01*
X170910197Y-85089803D01*
X170951399Y-85117333D01*
X171000000Y-85127000D01*
X181000000Y-85127000D01*
X181048601Y-85117333D01*
X181089803Y-85089803D01*
X181117333Y-85048601D01*
X181127000Y-85000000D01*
X181127000Y-84123991D01*
X198616735Y-84123991D01*
X198849932Y-84688371D01*
X199281357Y-85120551D01*
X199845330Y-85354733D01*
X200455991Y-85355265D01*
X201020371Y-85122068D01*
X201452551Y-84690643D01*
X201686733Y-84126670D01*
X201686735Y-84123991D01*
X212332735Y-84123991D01*
X212565932Y-84688371D01*
X212997357Y-85120551D01*
X213561330Y-85354733D01*
X214171991Y-85355265D01*
X214736371Y-85122068D01*
X215168551Y-84690643D01*
X215402733Y-84126670D01*
X215403265Y-83516009D01*
X215170068Y-82951629D01*
X214738643Y-82519449D01*
X214174670Y-82285267D01*
X213564009Y-82284735D01*
X212999629Y-82517932D01*
X212567449Y-82949357D01*
X212333267Y-83513330D01*
X212332735Y-84123991D01*
X201686735Y-84123991D01*
X201687265Y-83516009D01*
X201454068Y-82951629D01*
X201022643Y-82519449D01*
X200458670Y-82285267D01*
X199848009Y-82284735D01*
X199283629Y-82517932D01*
X198851449Y-82949357D01*
X198617267Y-83513330D01*
X198616735Y-84123991D01*
X181127000Y-84123991D01*
X181127000Y-65040510D01*
X222127070Y-65040510D01*
X222127070Y-67039490D01*
X222176353Y-67287255D01*
X222316701Y-67497299D01*
X222526745Y-67637647D01*
X222774510Y-67686930D01*
X224773490Y-67686930D01*
X225021255Y-67637647D01*
X225231299Y-67497299D01*
X225371647Y-67287255D01*
X225420930Y-67039490D01*
X225420930Y-65040510D01*
X225371647Y-64792745D01*
X225231299Y-64582701D01*
X225021255Y-64442353D01*
X224773490Y-64393070D01*
X222774510Y-64393070D01*
X222526745Y-64442353D01*
X222316701Y-64582701D01*
X222176353Y-64792745D01*
X222127070Y-65040510D01*
X181127000Y-65040510D01*
X181127000Y-60000000D01*
X181117333Y-59951399D01*
X181089803Y-59910197D01*
X181048601Y-59882667D01*
X181000000Y-59873000D01*
X171000000Y-59873000D01*
X170951399Y-59882667D01*
X170910197Y-59910197D01*
X170882667Y-59951399D01*
X170873000Y-60000000D01*
X159136334Y-60000000D01*
X159136774Y-59496306D01*
X158888462Y-58895345D01*
X158429073Y-58435154D01*
X157828547Y-58185794D01*
X157178306Y-58185226D01*
X156577345Y-58433538D01*
X156117154Y-58892927D01*
X155867794Y-59493453D01*
X155867226Y-60143694D01*
X148976208Y-60143694D01*
X148976774Y-59496306D01*
X148728462Y-58895345D01*
X148269073Y-58435154D01*
X147668547Y-58185794D01*
X147018306Y-58185226D01*
X146417345Y-58433538D01*
X145957154Y-58892927D01*
X145707794Y-59493453D01*
X145707226Y-60143694D01*
X141356208Y-60143694D01*
X141356774Y-59496306D01*
X141108462Y-58895345D01*
X140649073Y-58435154D01*
X140048547Y-58185794D01*
X139398306Y-58185226D01*
X138797345Y-58433538D01*
X138337154Y-58892927D01*
X138087794Y-59493453D01*
X138087226Y-60143694D01*
X136148461Y-60143694D01*
X136148888Y-59655984D01*
X135923342Y-59110123D01*
X135506074Y-58692126D01*
X134960607Y-58465628D01*
X134369984Y-58465112D01*
X133824123Y-58690658D01*
X133406126Y-59107926D01*
X133179628Y-59653393D01*
X133179112Y-60244016D01*
X101032537Y-60244016D01*
X101510655Y-60046462D01*
X101970846Y-59587073D01*
X102220206Y-58986547D01*
X102220774Y-58336306D01*
X101972462Y-57735345D01*
X101513073Y-57275154D01*
X100912547Y-57025794D01*
X100262306Y-57025226D01*
X99661345Y-57273538D01*
X99201154Y-57732927D01*
X98951794Y-58333453D01*
X98951226Y-58983694D01*
X73407037Y-58983694D01*
X73431940Y-58858500D01*
X73431940Y-57461500D01*
X73382657Y-57213735D01*
X73242309Y-57003691D01*
X73032265Y-56863343D01*
X72784500Y-56814060D01*
X71387500Y-56814060D01*
X71139735Y-56863343D01*
X70929691Y-57003691D01*
X70789343Y-57213735D01*
X70740060Y-57461500D01*
X60534511Y-57461500D01*
X60320188Y-57405417D01*
X59565605Y-58160000D01*
X59206395Y-58160000D01*
X58451812Y-57405417D01*
X58216200Y-57467071D01*
X58040073Y-57967480D01*
X45127000Y-57967480D01*
X45127000Y-57225812D01*
X58631417Y-57225812D01*
X59386000Y-57980395D01*
X60140583Y-57225812D01*
X60078929Y-56990200D01*
X59578520Y-56814073D01*
X59048801Y-56842852D01*
X58693071Y-56990200D01*
X58631417Y-57225812D01*
X45127000Y-57225812D01*
X45127000Y-56079694D01*
X145707226Y-56079694D01*
X145955538Y-56680655D01*
X146414927Y-57140846D01*
X147015453Y-57390206D01*
X147665694Y-57390774D01*
X148266655Y-57142462D01*
X148726846Y-56683073D01*
X148976206Y-56082547D01*
X148976208Y-56079694D01*
X155867226Y-56079694D01*
X156115538Y-56680655D01*
X156574927Y-57140846D01*
X157175453Y-57390206D01*
X157825694Y-57390774D01*
X158426655Y-57142462D01*
X158886846Y-56683073D01*
X159085901Y-56203694D01*
X222139226Y-56203694D01*
X222387538Y-56804655D01*
X222846927Y-57264846D01*
X223447453Y-57514206D01*
X224097694Y-57514774D01*
X224698655Y-57266462D01*
X225158846Y-56807073D01*
X225408206Y-56206547D01*
X225408774Y-55556306D01*
X225160462Y-54955345D01*
X224701073Y-54495154D01*
X224100547Y-54245794D01*
X223450306Y-54245226D01*
X222849345Y-54493538D01*
X222389154Y-54952927D01*
X222139794Y-55553453D01*
X222139226Y-56203694D01*
X159085901Y-56203694D01*
X159136206Y-56082547D01*
X159136774Y-55432306D01*
X158888462Y-54831345D01*
X158429073Y-54371154D01*
X157828547Y-54121794D01*
X157178306Y-54121226D01*
X156577345Y-54369538D01*
X156117154Y-54828927D01*
X155867794Y-55429453D01*
X155867226Y-56079694D01*
X148976208Y-56079694D01*
X148976774Y-55432306D01*
X148728462Y-54831345D01*
X148269073Y-54371154D01*
X147668547Y-54121794D01*
X147018306Y-54121226D01*
X146417345Y-54369538D01*
X145957154Y-54828927D01*
X145707794Y-55429453D01*
X145707226Y-56079694D01*
X45127000Y-56079694D01*
X45127000Y-53823694D01*
X75951226Y-53823694D01*
X76199538Y-54424655D01*
X76658927Y-54884846D01*
X77259453Y-55134206D01*
X77909694Y-55134774D01*
X78510655Y-54886462D01*
X78970846Y-54427073D01*
X79220206Y-53826547D01*
X79220774Y-53176306D01*
X79000830Y-52644000D01*
X79922560Y-52644000D01*
X79922560Y-54676000D01*
X79971843Y-54923765D01*
X80112191Y-55133809D01*
X80322235Y-55274157D01*
X80570000Y-55323440D01*
X82602000Y-55323440D01*
X82849765Y-55274157D01*
X83059809Y-55133809D01*
X83155146Y-54991128D01*
X83494190Y-55217670D01*
X84126000Y-55343345D01*
X84757810Y-55217670D01*
X85293433Y-54859778D01*
X85651325Y-54324155D01*
X85750873Y-53823694D01*
X87951226Y-53823694D01*
X88199538Y-54424655D01*
X88658927Y-54884846D01*
X89259453Y-55134206D01*
X89909694Y-55134774D01*
X90510655Y-54886462D01*
X90970846Y-54427073D01*
X91220206Y-53826547D01*
X91220774Y-53176306D01*
X90972462Y-52575345D01*
X90513073Y-52115154D01*
X90273547Y-52015694D01*
X145707226Y-52015694D01*
X145955538Y-52616655D01*
X146414927Y-53076846D01*
X147015453Y-53326206D01*
X147665694Y-53326774D01*
X148266655Y-53078462D01*
X148726846Y-52619073D01*
X148976206Y-52018547D01*
X148976208Y-52015694D01*
X155867226Y-52015694D01*
X156115538Y-52616655D01*
X156574927Y-53076846D01*
X157175453Y-53326206D01*
X157825694Y-53326774D01*
X158426655Y-53078462D01*
X158886846Y-52619073D01*
X159136206Y-52018547D01*
X159136774Y-51368306D01*
X158888462Y-50767345D01*
X158429073Y-50307154D01*
X157828547Y-50057794D01*
X157178306Y-50057226D01*
X156577345Y-50305538D01*
X156117154Y-50764927D01*
X155867794Y-51365453D01*
X155867226Y-52015694D01*
X148976208Y-52015694D01*
X148976774Y-51368306D01*
X148728462Y-50767345D01*
X148269073Y-50307154D01*
X147668547Y-50057794D01*
X147018306Y-50057226D01*
X146417345Y-50305538D01*
X145957154Y-50764927D01*
X145707794Y-51365453D01*
X145707226Y-52015694D01*
X90273547Y-52015694D01*
X89912547Y-51865794D01*
X89262306Y-51865226D01*
X88661345Y-52113538D01*
X88201154Y-52572927D01*
X87951794Y-53173453D01*
X87951226Y-53823694D01*
X85750873Y-53823694D01*
X85777000Y-53692345D01*
X85777000Y-53627655D01*
X85651325Y-52995845D01*
X85293433Y-52460222D01*
X84757810Y-52102330D01*
X84126000Y-51976655D01*
X83494190Y-52102330D01*
X83155146Y-52328872D01*
X83059809Y-52186191D01*
X82849765Y-52045843D01*
X82602000Y-51996560D01*
X80570000Y-51996560D01*
X80322235Y-52045843D01*
X80112191Y-52186191D01*
X79971843Y-52396235D01*
X79922560Y-52644000D01*
X79000830Y-52644000D01*
X78972462Y-52575345D01*
X78513073Y-52115154D01*
X77912547Y-51865794D01*
X77262306Y-51865226D01*
X76661345Y-52113538D01*
X76201154Y-52572927D01*
X75951794Y-53173453D01*
X75951226Y-53823694D01*
X45127000Y-53823694D01*
X45127000Y-48823694D01*
X98951226Y-48823694D01*
X99199538Y-49424655D01*
X99658927Y-49884846D01*
X100259453Y-50134206D01*
X100909694Y-50134774D01*
X101510655Y-49886462D01*
X101970846Y-49427073D01*
X102172942Y-48940370D01*
X133166930Y-48940370D01*
X133166930Y-50639630D01*
X133216213Y-50887395D01*
X133356561Y-51097439D01*
X133566605Y-51237787D01*
X133814370Y-51287070D01*
X135513630Y-51287070D01*
X135761395Y-51237787D01*
X135971439Y-51097439D01*
X136111787Y-50887395D01*
X136161070Y-50639630D01*
X136161070Y-49983694D01*
X138087226Y-49983694D01*
X138335538Y-50584655D01*
X138794927Y-51044846D01*
X139395453Y-51294206D01*
X140045694Y-51294774D01*
X140646655Y-51046462D01*
X141106846Y-50587073D01*
X141356206Y-49986547D01*
X141356774Y-49336306D01*
X141108462Y-48735345D01*
X140649073Y-48275154D01*
X140048547Y-48025794D01*
X139398306Y-48025226D01*
X138797345Y-48273538D01*
X138337154Y-48732927D01*
X138087794Y-49333453D01*
X138087226Y-49983694D01*
X136161070Y-49983694D01*
X136161070Y-48940370D01*
X136111787Y-48692605D01*
X135971439Y-48482561D01*
X135761395Y-48342213D01*
X135513630Y-48292930D01*
X133814370Y-48292930D01*
X133566605Y-48342213D01*
X133356561Y-48482561D01*
X133216213Y-48692605D01*
X133166930Y-48940370D01*
X102172942Y-48940370D01*
X102220206Y-48826547D01*
X102220774Y-48176306D01*
X101972462Y-47575345D01*
X101513073Y-47115154D01*
X101438085Y-47084016D01*
X133179112Y-47084016D01*
X133404658Y-47629877D01*
X133821926Y-48047874D01*
X134367393Y-48274372D01*
X134958016Y-48274888D01*
X135503877Y-48049342D01*
X135921874Y-47632074D01*
X136148372Y-47086607D01*
X136148888Y-46495984D01*
X135923342Y-45950123D01*
X135863340Y-45890016D01*
X145852032Y-45890016D01*
X146077578Y-46435877D01*
X146494846Y-46853874D01*
X147040313Y-47080372D01*
X147630936Y-47080888D01*
X148176797Y-46855342D01*
X148482627Y-46550045D01*
X148785926Y-46853874D01*
X149331393Y-47080372D01*
X149922016Y-47080888D01*
X150467877Y-46855342D01*
X150773707Y-46550045D01*
X151077006Y-46853874D01*
X151622473Y-47080372D01*
X152213096Y-47080888D01*
X152758957Y-46855342D01*
X153176954Y-46438074D01*
X153403452Y-45892607D01*
X153403968Y-45301984D01*
X153178422Y-44756123D01*
X152761154Y-44338126D01*
X152215687Y-44111628D01*
X151625064Y-44111112D01*
X151079203Y-44336658D01*
X150773373Y-44641955D01*
X150470074Y-44338126D01*
X149924607Y-44111628D01*
X149333984Y-44111112D01*
X148788123Y-44336658D01*
X148482293Y-44641955D01*
X148178994Y-44338126D01*
X147633527Y-44111628D01*
X147042904Y-44111112D01*
X146497043Y-44336658D01*
X146079046Y-44753926D01*
X145852548Y-45299393D01*
X145852032Y-45890016D01*
X135863340Y-45890016D01*
X135506074Y-45532126D01*
X134960607Y-45305628D01*
X134369984Y-45305112D01*
X133824123Y-45530658D01*
X133406126Y-45947926D01*
X133179628Y-46493393D01*
X133179112Y-47084016D01*
X101438085Y-47084016D01*
X100912547Y-46865794D01*
X100262306Y-46865226D01*
X99661345Y-47113538D01*
X99201154Y-47572927D01*
X98951794Y-48173453D01*
X98951226Y-48823694D01*
X45127000Y-48823694D01*
X45127000Y-41318016D01*
X138237112Y-41318016D01*
X138462658Y-41863877D01*
X138879926Y-42281874D01*
X139425393Y-42508372D01*
X140016016Y-42508888D01*
X140561877Y-42283342D01*
X140979874Y-41866074D01*
X141206372Y-41320607D01*
X141206888Y-40729984D01*
X140981342Y-40184123D01*
X140971607Y-40174370D01*
X148384930Y-40174370D01*
X148384930Y-41873630D01*
X148434213Y-42121395D01*
X148574561Y-42331439D01*
X148784605Y-42471787D01*
X149032370Y-42521070D01*
X150731630Y-42521070D01*
X150979395Y-42471787D01*
X151189439Y-42331439D01*
X151329787Y-42121395D01*
X151379070Y-41873630D01*
X151379070Y-40174370D01*
X151329787Y-39926605D01*
X151189439Y-39716561D01*
X150979395Y-39576213D01*
X150731630Y-39526930D01*
X149032370Y-39526930D01*
X148784605Y-39576213D01*
X148574561Y-39716561D01*
X148434213Y-39926605D01*
X148384930Y-40174370D01*
X140971607Y-40174370D01*
X140564074Y-39766126D01*
X140018607Y-39539628D01*
X139427984Y-39539112D01*
X138882123Y-39764658D01*
X138464126Y-40181926D01*
X138237628Y-40727393D01*
X138237112Y-41318016D01*
X45127000Y-41318016D01*
X45127000Y-35780370D01*
X133166930Y-35780370D01*
X133166930Y-37479630D01*
X133216213Y-37727395D01*
X133356561Y-37937439D01*
X133566605Y-38077787D01*
X133814370Y-38127070D01*
X135513630Y-38127070D01*
X135761395Y-38077787D01*
X135971439Y-37937439D01*
X136111787Y-37727395D01*
X136155423Y-37508016D01*
X145857112Y-37508016D01*
X146082658Y-38053877D01*
X146499926Y-38471874D01*
X147045393Y-38698372D01*
X147636016Y-38698888D01*
X148181877Y-38473342D01*
X148487707Y-38168045D01*
X148791006Y-38471874D01*
X149336473Y-38698372D01*
X149927096Y-38698888D01*
X150472957Y-38473342D01*
X150778787Y-38168045D01*
X151082086Y-38471874D01*
X151627553Y-38698372D01*
X152218176Y-38698888D01*
X152764037Y-38473342D01*
X153182034Y-38056074D01*
X153408532Y-37510607D01*
X153409048Y-36919984D01*
X153183502Y-36374123D01*
X152766234Y-35956126D01*
X152220767Y-35729628D01*
X151630144Y-35729112D01*
X151084283Y-35954658D01*
X150778453Y-36259955D01*
X150475154Y-35956126D01*
X149929687Y-35729628D01*
X149339064Y-35729112D01*
X148793203Y-35954658D01*
X148487373Y-36259955D01*
X148184074Y-35956126D01*
X147638607Y-35729628D01*
X147047984Y-35729112D01*
X146502123Y-35954658D01*
X146084126Y-36371926D01*
X145857628Y-36917393D01*
X145857112Y-37508016D01*
X136155423Y-37508016D01*
X136161070Y-37479630D01*
X136161070Y-35780370D01*
X136111787Y-35532605D01*
X135971439Y-35322561D01*
X135761395Y-35182213D01*
X135513630Y-35132930D01*
X133814370Y-35132930D01*
X133566605Y-35182213D01*
X133356561Y-35322561D01*
X133216213Y-35532605D01*
X133166930Y-35780370D01*
X45127000Y-35780370D01*
X45127000Y-33584016D01*
X145852032Y-33584016D01*
X146077578Y-34129877D01*
X146494846Y-34547874D01*
X147040313Y-34774372D01*
X147630936Y-34774888D01*
X148176797Y-34549342D01*
X148482627Y-34244045D01*
X148785926Y-34547874D01*
X149331393Y-34774372D01*
X149922016Y-34774888D01*
X150467877Y-34549342D01*
X150773707Y-34244045D01*
X151077006Y-34547874D01*
X151622473Y-34774372D01*
X152213096Y-34774888D01*
X152758957Y-34549342D01*
X153176954Y-34132074D01*
X153403452Y-33586607D01*
X153403968Y-32995984D01*
X153178422Y-32450123D01*
X152761154Y-32032126D01*
X152215687Y-31805628D01*
X151625064Y-31805112D01*
X151079203Y-32030658D01*
X150773373Y-32335955D01*
X150470074Y-32032126D01*
X149924607Y-31805628D01*
X149333984Y-31805112D01*
X148788123Y-32030658D01*
X148482293Y-32335955D01*
X148178994Y-32032126D01*
X147633527Y-31805628D01*
X147042904Y-31805112D01*
X146497043Y-32030658D01*
X146079046Y-32447926D01*
X145852548Y-32993393D01*
X145852032Y-33584016D01*
X45127000Y-33584016D01*
X45127000Y-28874188D01*
X121165417Y-28874188D01*
X121227071Y-29109800D01*
X121727480Y-29285927D01*
X122257199Y-29257148D01*
X122612929Y-29109800D01*
X122674583Y-28874188D01*
X121920000Y-28119605D01*
X121165417Y-28874188D01*
X45127000Y-28874188D01*
X45127000Y-27747480D01*
X120574073Y-27747480D01*
X120602852Y-28277199D01*
X120750200Y-28632929D01*
X120985812Y-28694583D01*
X121740395Y-27940000D01*
X122099605Y-27940000D01*
X122854188Y-28694583D01*
X123089800Y-28632929D01*
X123265927Y-28132520D01*
X123237148Y-27602801D01*
X123089800Y-27247071D01*
X123068511Y-27241500D01*
X133274060Y-27241500D01*
X133274060Y-28638500D01*
X133323343Y-28886265D01*
X133463691Y-29096309D01*
X133673735Y-29236657D01*
X133921500Y-29285940D01*
X135318500Y-29285940D01*
X135566265Y-29236657D01*
X135776309Y-29096309D01*
X135916657Y-28886265D01*
X135965940Y-28638500D01*
X135965940Y-28000000D01*
X160873000Y-28000000D01*
X160873000Y-50000000D01*
X160882667Y-50048601D01*
X160910197Y-50089803D01*
X160951399Y-50117333D01*
X161000000Y-50127000D01*
X187000000Y-50127000D01*
X187048601Y-50117333D01*
X187089803Y-50089803D01*
X187117333Y-50048601D01*
X187127000Y-50000000D01*
X187127000Y-38403991D01*
X198616735Y-38403991D01*
X198849932Y-38968371D01*
X199281357Y-39400551D01*
X199845330Y-39634733D01*
X200455991Y-39635265D01*
X201020371Y-39402068D01*
X201452551Y-38970643D01*
X201686733Y-38406670D01*
X201686735Y-38403991D01*
X212332735Y-38403991D01*
X212565932Y-38968371D01*
X212997357Y-39400551D01*
X213561330Y-39634733D01*
X214171991Y-39635265D01*
X214736371Y-39402068D01*
X215168551Y-38970643D01*
X215402733Y-38406670D01*
X215403265Y-37796009D01*
X215170068Y-37231629D01*
X214738643Y-36799449D01*
X214174670Y-36565267D01*
X213564009Y-36564735D01*
X212999629Y-36797932D01*
X212567449Y-37229357D01*
X212333267Y-37793330D01*
X212332735Y-38403991D01*
X201686735Y-38403991D01*
X201687265Y-37796009D01*
X201454068Y-37231629D01*
X201022643Y-36799449D01*
X200458670Y-36565267D01*
X199848009Y-36564735D01*
X199283629Y-36797932D01*
X198851449Y-37229357D01*
X198617267Y-37793330D01*
X198616735Y-38403991D01*
X187127000Y-38403991D01*
X187127000Y-28000000D01*
X187117333Y-27951399D01*
X187089803Y-27910197D01*
X187048601Y-27882667D01*
X187000000Y-27873000D01*
X161000000Y-27873000D01*
X160951399Y-27882667D01*
X160910197Y-27910197D01*
X160882667Y-27951399D01*
X160873000Y-28000000D01*
X135965940Y-28000000D01*
X135965940Y-27241500D01*
X135916657Y-26993735D01*
X135776309Y-26783691D01*
X135566265Y-26643343D01*
X135318500Y-26594060D01*
X133921500Y-26594060D01*
X133673735Y-26643343D01*
X133463691Y-26783691D01*
X133323343Y-26993735D01*
X133274060Y-27241500D01*
X123068511Y-27241500D01*
X122854188Y-27185417D01*
X122099605Y-27940000D01*
X121740395Y-27940000D01*
X120985812Y-27185417D01*
X120750200Y-27247071D01*
X120574073Y-27747480D01*
X45127000Y-27747480D01*
X45127000Y-27005812D01*
X121165417Y-27005812D01*
X121920000Y-27760395D01*
X122674583Y-27005812D01*
X122612929Y-26770200D01*
X122112520Y-26594073D01*
X121582801Y-26622852D01*
X121227071Y-26770200D01*
X121165417Y-27005812D01*
X45127000Y-27005812D01*
X45127000Y-24433991D01*
X143244735Y-24433991D01*
X143477932Y-24998371D01*
X143909357Y-25430551D01*
X144473330Y-25664733D01*
X145083991Y-25665265D01*
X145648371Y-25432068D01*
X146080551Y-25000643D01*
X146314733Y-24436670D01*
X146314735Y-24433991D01*
X155944735Y-24433991D01*
X156177932Y-24998371D01*
X156609357Y-25430551D01*
X157173330Y-25664733D01*
X157783991Y-25665265D01*
X158348371Y-25432068D01*
X158780551Y-25000643D01*
X159014733Y-24436670D01*
X159015265Y-23826009D01*
X158782068Y-23261629D01*
X158350643Y-22829449D01*
X157786670Y-22595267D01*
X157176009Y-22594735D01*
X156611629Y-22827932D01*
X156179449Y-23259357D01*
X155945267Y-23823330D01*
X155944735Y-24433991D01*
X146314735Y-24433991D01*
X146315265Y-23826009D01*
X146082068Y-23261629D01*
X145650643Y-22829449D01*
X145086670Y-22595267D01*
X144476009Y-22594735D01*
X143911629Y-22827932D01*
X143479449Y-23259357D01*
X143245267Y-23823330D01*
X143244735Y-24433991D01*
X45127000Y-24433991D01*
X45127000Y-16127000D01*
X225873000Y-16127000D01*
X225873000Y-156873000D01*
M02*
