M48
;DRILL file {KiCad (2016-09-05 BZR 7119, Git caafcde)-product} date Tue Sep 20 16:16:02 2016
;FORMAT={-:-/ absolute / metric / decimal}
FMAT,2
METRIC,TZ
T1C0.600
T2C0.701
T3C0.800
T4C0.813
T5C0.900
T6C1.001
T7C1.016
T8C1.100
T9C1.143
T10C1.199
T11C1.270
T12C1.800
%
G90
G05
M71
T1
X84.586Y-66.89
X84.586Y-68.16
X84.586Y-69.43
X84.586Y-105.89
X84.586Y-107.16
X84.586Y-108.43
X100.586Y-62.39
X100.586Y-63.66
X100.586Y-64.93
X100.586Y-110.39
X100.586Y-111.66
X100.586Y-112.93
T2
X134.664Y-36.63
X134.664Y-46.79
X134.664Y-49.79
X134.664Y-59.95
X134.896Y-115.16
X134.896Y-125.32
X134.899Y-128.661
X134.899Y-138.821
X139.722Y-41.024
X139.736Y-132.16
X149.882Y-41.024
X149.896Y-132.16
T3
X49.086Y-73.16
X54.086Y-73.16
X77.586Y-73.16
X77.586Y-92.66
X77.586Y-97.66
X82.586Y-73.16
X101.086Y-95.66
X101.086Y-100.66
X157.45Y-85.16
X157.45Y-90.16
T4
X54.386Y-116.66
X59.386Y-58.16
X67.086Y-116.66
X72.086Y-58.16
X88.086Y-68.16
X88.086Y-107.16
X95.586Y-77.5
X95.586Y-87.66
X100.786Y-68.16
X100.786Y-107.16
X121.92Y-27.94
X122.428Y-144.78
X134.112Y-67.564
X134.62Y-27.94
X134.75Y-110.16
X135.128Y-144.78
X136.652Y-67.564
X139.192Y-67.564
X147.45Y-110.16
T5
X112.09Y-80.16
X112.09Y-95.16
X157.81Y-80.16
X157.81Y-95.16
X200.152Y-38.1
X200.152Y-83.82
X200.152Y-91.44
X200.152Y-137.16
X213.868Y-38.1
X213.868Y-83.82
X213.868Y-91.44
X213.868Y-137.16
T6
X51.926Y-94.16
X51.926Y-99.16
X58.086Y-63.16
X58.086Y-73.32
X59.546Y-88.66
X60.586Y-79.66
X60.586Y-82.2
X62.086Y-65.66
X62.086Y-75.82
X62.086Y-88.66
X62.086Y-94.16
X62.086Y-99.16
X67.086Y-79.66
X67.086Y-89.82
X77.586Y-53.5
X77.586Y-63.66
X77.586Y-77.5
X77.586Y-87.66
X77.586Y-111.66
X77.586Y-121.82
X83.586Y-87.66
X83.586Y-97.82
X89.086Y-111.66
X89.086Y-121.82
X89.586Y-53.5
X89.586Y-63.66
X91.086Y-92.16
X100.086Y-77.5
X100.086Y-87.66
X100.586Y-48.5
X100.586Y-58.66
X100.586Y-116.66
X100.586Y-126.82
X101.246Y-92.16
X139.722Y-49.66
X139.722Y-59.82
X139.896Y-115.16
X139.896Y-125.32
X143.764Y-67.564
X147.342Y-51.692
X147.342Y-55.756
X147.342Y-59.82
X147.396Y-115.16
X147.396Y-119.16
X147.396Y-123.66
X153.924Y-67.564
X157.502Y-51.692
X157.502Y-55.756
X157.502Y-59.82
X157.556Y-115.16
X157.556Y-119.16
X157.556Y-123.66
X159.95Y-100.
X159.95Y-110.16
X160.274Y-65.024
X160.274Y-75.184
X166.116Y-62.484
X166.116Y-72.644
X166.116Y-102.66
X166.116Y-112.82
X223.52Y-119.634
X223.774Y-66.04
T7
X49.Y-86.
X49.Y-88.54
X77.586Y-68.16
X77.586Y-107.16
X80.126Y-68.16
X80.126Y-107.16
X81.586Y-53.66
X82.586Y-121.66
X84.126Y-53.66
X85.126Y-121.66
X88.586Y-87.66
X91.126Y-87.66
T8
X117.5Y-67.66
X117.5Y-107.66
X122.4Y-67.66
X122.4Y-107.66
X127.45Y-67.66
X127.45Y-107.66
T9
X64.586Y-110.66
X67.046Y-62.16
X67.126Y-110.66
X69.586Y-62.16
X69.666Y-110.66
X72.126Y-62.16
T10
X147.337Y-33.29
X147.337Y-45.596
X147.342Y-37.214
X147.396Y-128.16
X147.574Y-135.89
X147.574Y-140.97
X149.628Y-33.29
X149.628Y-45.596
X149.633Y-37.214
X149.687Y-128.16
X149.865Y-135.89
X149.865Y-140.97
X151.919Y-33.29
X151.919Y-45.596
X151.924Y-37.214
X151.978Y-128.16
X152.156Y-135.89
X152.156Y-140.97
T11
X223.52Y-109.474
X223.774Y-55.88
T12
X90.086Y-77.66
X90.086Y-97.66
X142.24Y-148.59
X144.78Y-24.13
X157.48Y-24.13
X157.48Y-148.59
X166.116Y-33.274
X166.116Y-44.958
X166.116Y-130.556
X166.116Y-140.97
X173.736Y-33.274
X173.736Y-44.958
X173.736Y-130.556
X173.736Y-140.97
X175.98Y-64.92
X175.98Y-72.54
X175.98Y-80.16
X175.98Y-95.16
X175.98Y-102.78
X175.98Y-110.4
X181.356Y-33.274
X181.356Y-44.958
X181.356Y-130.556
X181.356Y-140.97
T0
M30
