M48
;DRILL file {kicad 0.201504261001+5623~23~ubuntu15.04.1-product} date Mon 22 Jun 2015 07:57:49 PM ART
;FORMAT={-:-/ absolute / inch / decimal}
FMAT,2
INCH,TZ
T1C0.016
T2C0.028
T3C0.028
T4C0.032
T5C0.039
T6C0.039
T7C0.040
T8C0.043
T9C0.051
%
G90
G05
M72
T1
X2.6311Y-3.7201
X2.6335Y-3.3461
X4.2217Y-2.2803
X4.4902Y-3.8701
X7.288Y-2.792
X7.288Y-4.232
T2
X2.483Y-2.9946
X2.5688Y-2.5258
X2.5688Y-2.6439
X2.5688Y-2.762
X2.6011Y-2.9946
X2.6606Y-1.8661
X2.6606Y-1.9842
X2.6606Y-2.1023
X2.7112Y-2.5266
X2.7112Y-2.6447
X2.7112Y-2.7628
X2.7192Y-2.9946
X2.86Y-2.5265
X2.86Y-2.6446
X2.86Y-2.7627
X2.9032Y-2.9966
X2.9582Y-1.8732
X2.9582Y-1.9913
X2.9582Y-2.1094
X2.9986Y-2.5256
X2.9986Y-2.6437
X2.9986Y-2.7618
X3.0213Y-2.9966
X3.1394Y-2.9966
X3.9062Y-2.6414
X3.9062Y-2.7595
X3.9062Y-2.8776
X3.9275Y-1.7122
X3.9275Y-1.8303
X3.9275Y-1.9484
X4.12Y-1.7224
X4.12Y-1.8405
X4.12Y-1.9586
X4.1342Y-2.6394
X4.1342Y-2.7575
X4.1342Y-2.8756
X4.3826Y-1.6653
X4.3826Y-1.7834
X4.3826Y-1.9015
X4.4917Y-3.0587
X4.6098Y-3.0587
X4.7192Y-3.3866
X4.7279Y-3.0587
X4.7362Y-1.7556
X4.7362Y-1.8737
X4.7362Y-1.9918
X4.8373Y-3.3866
X4.9554Y-3.3866
T3
X4.5303Y-2.1867
X4.5363Y-1.9926
X4.5363Y-2.3926
X4.9303Y-2.1867
X5.1214Y-3.2386
X5.1217Y-3.2362
X5.1217Y-3.6362
X5.5214Y-3.2386
X6.6668Y-3.3486
X6.6668Y-3.7486
X6.83Y-2.0749
X7.23Y-2.0749
T4
X1.7482Y-3.3226
X1.8982Y-3.3226
X2.1642Y-2.5286
X2.1642Y-2.6286
X2.2142Y-3.5926
X2.3642Y-3.5926
X3.1482Y-3.4706
X3.1482Y-3.5706
X3.3222Y-1.9526
X3.3222Y-2.1026
X3.4002Y-2.8426
X3.4002Y-2.9926
X3.4922Y-3.4446
X3.4922Y-3.5946
X3.9682Y-3.5606
X3.9682Y-3.6606
X4.5365Y-2.563
X4.5365Y-2.713
X6.6062Y-2.2386
X6.6062Y-2.3886
X8.1795Y-2.8945
X8.2215Y-3.297
X8.2215Y-3.447
X8.2285Y-3.651
X8.2285Y-3.801
X8.283Y-1.7442
X8.283Y-1.8942
X8.2865Y-1.3975
X8.2865Y-1.5475
X8.3295Y-2.8945
T5
X7.0453Y-1.9469
X7.0453Y-3.4626
X7.5075Y-1.8678
X7.5075Y-3.3836
T6
X1.6374Y-2.7406
X1.7142Y-3.0421
X1.8802Y-2.8786
X2.0374Y-2.7406
X2.0842Y-3.3466
X2.0902Y-3.1926
X2.1142Y-3.0421
X2.2802Y-2.8786
X2.3484Y-2.3504
X2.4842Y-3.3466
X2.4902Y-3.1926
X2.5024Y-1.7039
X2.5024Y-2.1039
X2.6248Y-3.8874
X2.7202Y-3.1546
X2.7202Y-3.5546
X2.7484Y-2.3504
X2.8224Y-1.5732
X2.8224Y-1.9732
X2.8811Y-2.3504
X2.9022Y-3.1546
X2.9022Y-3.5546
X3.0248Y-3.8874
X3.1482Y-3.2446
X3.2811Y-2.3504
X3.5482Y-3.2446
X3.7362Y-3.1386
X3.7362Y-3.5386
X3.9181Y-2.0791
X3.9181Y-2.4791
X3.922Y-1.5106
X3.9642Y-3.4026
X4.322Y-1.5106
X4.3642Y-3.4026
X4.4134Y-2.8488
X4.4822Y-3.2226
X4.4822Y-3.6226
X4.5342Y-1.4726
X4.5342Y-1.8726
X4.7422Y-3.6586
X4.8134Y-2.8488
X4.8422Y-3.6586
X4.9413Y-1.8551
X4.9422Y-3.6586
X5.1982Y-1.6446
X5.2982Y-1.6446
X5.3413Y-1.8551
X5.3982Y-1.6446
X5.5442Y-3.1146
X5.6822Y-1.9866
X5.6822Y-2.3866
X5.698Y-3.2325
X5.8402Y-2.4466
X5.8852Y-1.8238
X5.9442Y-2.5826
X5.9442Y-2.9826
X5.9442Y-3.1146
X5.974Y-3.9375
X6.0182Y-2.0226
X6.0182Y-2.1226
X6.0182Y-2.2226
X6.098Y-3.2325
X6.2402Y-2.4466
X6.2482Y-3.1346
X6.2482Y-3.2346
X6.2482Y-3.3346
X6.2852Y-1.8238
X6.374Y-3.9375
X6.4002Y-2.4526
X6.4002Y-2.8526
X6.5482Y-2.6106
X6.5482Y-3.0106
X7.798Y-2.565
X7.798Y-2.965
X8.0669Y-2.5654
X8.074Y-2.3555
X8.4669Y-2.5654
X8.474Y-2.3555
T7
X2.1093Y-3.8219
X3.3039Y-1.4598
X3.5782Y-2.6406
X4.0355Y-1.134
X4.1342Y-3.0406
X4.1342Y-3.1406
X4.1342Y-3.2406
X4.525Y-1.134
X5.6782Y-2.6326
X5.6782Y-2.7326
X5.6782Y-2.8326
X8.57Y-1.695
X8.9401Y-1.162
X8.9481Y-2.002
X8.9547Y-2.5851
X8.9547Y-2.6851
X8.96Y-4.116
X8.9635Y-3.605
X8.967Y-3.1675
T8
X1.6535Y-2.1683
X1.8504Y-1.9715
X1.8504Y-2.0699
X1.8504Y-2.2667
X1.8504Y-2.3652
X5.0762Y-2.0817
X5.0762Y-2.2806
X5.0762Y-2.4735
X5.0762Y-2.7417
X5.0762Y-2.9346
X5.0762Y-3.1334
T9
X5.8417Y-3.6721
X6.1409Y-3.6721
X6.1942Y-1.6346
X6.4401Y-3.6721
X6.4934Y-1.6346
X6.7926Y-1.6346
X6.9003Y-3.6756
X7.1178Y-1.6346
X7.1995Y-3.6756
X7.417Y-1.6346
X7.4987Y-3.6756
X7.7162Y-1.6346
T0
M30
