G04 #@! TF.FileFunction,Copper,L2,Bot,Signal*
%FSLAX46Y46*%
G04 Gerber Fmt 4.6, Leading zero omitted, Abs format (unit mm)*
G04 Created by KiCad (PCBNEW 0.201504261001+5623~23~ubuntu15.04.1-product) date Fri 05 Jun 2015 07:24:17 PM ART*
%MOMM*%
G01*
G04 APERTURE LIST*
%ADD10C,0.100000*%
%ADD11C,1.699260*%
%ADD12R,1.699260X1.699260*%
%ADD13R,2.032000X1.727200*%
%ADD14O,2.032000X1.727200*%
%ADD15R,1.727200X2.032000*%
%ADD16O,1.727200X2.032000*%
%ADD17O,2.499360X1.501140*%
%ADD18O,1.501140X2.499360*%
%ADD19C,1.501140*%
%ADD20R,3.500120X3.500120*%
%ADD21C,1.998980*%
%ADD22R,2.032000X2.032000*%
%ADD23O,2.032000X2.032000*%
%ADD24C,4.064000*%
%ADD25C,0.600000*%
%ADD26C,0.381000*%
%ADD27C,0.508000*%
%ADD28C,0.254000*%
G04 APERTURE END LIST*
D10*
X26670000Y-127000000D02*
X26670000Y-63500000D01*
X190500000Y-127000000D02*
X26670000Y-127000000D01*
X190500000Y-63500000D02*
X190500000Y-127000000D01*
X26670000Y-63500000D02*
X190500000Y-63500000D01*
D11*
X107127040Y-94425020D03*
D12*
X107127040Y-84265020D03*
D11*
X135752840Y-118618520D03*
D12*
X135752840Y-108458520D03*
D11*
X110789480Y-85752540D03*
D12*
X120949480Y-85752540D03*
D11*
X148222220Y-114322860D03*
D12*
X138062220Y-114322860D03*
D11*
X165552540Y-112610520D03*
D12*
X165552540Y-102450520D03*
D11*
X137060520Y-84497460D03*
D12*
X126900520Y-84497460D03*
D13*
X115392200Y-102539800D03*
D14*
X115392200Y-105079800D03*
X115392200Y-107619800D03*
D15*
X171704000Y-103505000D03*
D16*
X174244000Y-103505000D03*
X176784000Y-103505000D03*
D15*
X165862000Y-79248000D03*
D16*
X168402000Y-79248000D03*
X170942000Y-79248000D03*
D15*
X164642800Y-72986900D03*
D16*
X167182800Y-72986900D03*
X169722800Y-72986900D03*
D13*
X176250600Y-114439700D03*
D14*
X176250600Y-111899700D03*
X176250600Y-109359700D03*
D17*
X55880000Y-96520000D03*
X55880000Y-93980000D03*
X55880000Y-99060000D03*
X60960000Y-96520000D03*
X60960000Y-93980000D03*
X60960000Y-99060000D03*
X60960000Y-107950000D03*
X60960000Y-110490000D03*
X60960000Y-105410000D03*
D18*
X52463700Y-82194400D03*
X55003700Y-82194400D03*
X49923700Y-82194400D03*
D17*
X71120000Y-107950000D03*
X71120000Y-110490000D03*
X71120000Y-105410000D03*
D18*
X52463700Y-77114400D03*
X55003700Y-77114400D03*
X49923700Y-77114400D03*
D17*
X71120000Y-96520000D03*
X71120000Y-93980000D03*
X71120000Y-99060000D03*
X76200000Y-96520000D03*
X76200000Y-93980000D03*
X76200000Y-99060000D03*
D18*
X67703700Y-86004400D03*
X65163700Y-86004400D03*
X70243700Y-86004400D03*
D17*
X88900000Y-102870000D03*
X88900000Y-105410000D03*
X88900000Y-100330000D03*
D18*
X74053700Y-78384400D03*
X71513700Y-78384400D03*
X76593700Y-78384400D03*
D17*
X96520000Y-102870000D03*
X96520000Y-105410000D03*
X96520000Y-100330000D03*
D18*
X89877900Y-75742800D03*
X87337900Y-75742800D03*
X92417900Y-75742800D03*
D17*
X121539000Y-114325400D03*
X121539000Y-116865400D03*
X121539000Y-111785400D03*
D18*
X89611200Y-81178400D03*
X87071200Y-81178400D03*
X92151200Y-81178400D03*
D17*
X127914400Y-114274600D03*
X127914400Y-116814600D03*
X127914400Y-111734600D03*
X125971300Y-76631800D03*
X125971300Y-74091800D03*
X125971300Y-79171800D03*
X146050000Y-108204000D03*
X146050000Y-105664000D03*
X146050000Y-110744000D03*
X116547900Y-76631800D03*
X116547900Y-74091800D03*
X116547900Y-79171800D03*
X155194000Y-114554000D03*
X155194000Y-117094000D03*
X155194000Y-112014000D03*
D19*
X45720000Y-96520000D03*
X48260000Y-96520000D03*
X46990000Y-110490000D03*
X50800000Y-110490000D03*
X81280000Y-111760000D03*
X81280000Y-107950000D03*
X83820000Y-119380000D03*
X81280000Y-119380000D03*
X95250000Y-121920000D03*
X95250000Y-119380000D03*
X61353700Y-77076300D03*
X65163700Y-77076300D03*
X36830000Y-116840000D03*
X33020000Y-116840000D03*
X87630000Y-92710000D03*
X91440000Y-92710000D03*
X107480100Y-102133400D03*
X107480100Y-98323400D03*
X143637000Y-92710000D03*
X139827000Y-92710000D03*
X168922700Y-120548400D03*
X168922700Y-116738400D03*
X139573000Y-76962000D03*
X139573000Y-73152000D03*
X148450000Y-73140000D03*
X148450000Y-76950000D03*
X185810000Y-103000000D03*
X182000000Y-103000000D03*
X157480000Y-85344000D03*
X161290000Y-85344000D03*
D20*
X41760140Y-96520000D03*
X35760660Y-96520000D03*
X38760400Y-101219000D03*
D21*
X180213000Y-88011000D03*
X180213000Y-98171000D03*
D22*
X184658000Y-88519000D03*
D23*
X184658000Y-91059000D03*
D13*
X115557300Y-94157800D03*
D14*
X115557300Y-91617800D03*
X115557300Y-89077800D03*
D21*
X41910000Y-106680000D03*
X31750000Y-106680000D03*
X55880000Y-104140000D03*
X45720000Y-104140000D03*
X41910000Y-110490000D03*
X31750000Y-110490000D03*
X49923700Y-87274400D03*
X39763700Y-87274400D03*
X57150000Y-115570000D03*
X67310000Y-115570000D03*
X54610000Y-118110000D03*
X54610000Y-107950000D03*
X49923700Y-87274400D03*
X60083700Y-87274400D03*
X77470000Y-115570000D03*
X67310000Y-115570000D03*
X44843700Y-77114400D03*
X44843700Y-87274400D03*
X76830000Y-119500000D03*
X66670000Y-119500000D03*
X40640000Y-118110000D03*
X50800000Y-118110000D03*
X151130000Y-118110000D03*
X151130000Y-107950000D03*
X82550000Y-90170000D03*
X82550000Y-100330000D03*
X88900000Y-109220000D03*
X88900000Y-119380000D03*
X101600000Y-115570000D03*
X91440000Y-115570000D03*
X78778100Y-73431400D03*
X68618100Y-73431400D03*
X115049300Y-120815100D03*
X104889300Y-120815100D03*
X134073900Y-94056200D03*
X123913900Y-94056200D03*
X140843000Y-98552000D03*
X140843000Y-108712000D03*
X134073900Y-99479100D03*
X123913900Y-99479100D03*
X124091700Y-105435400D03*
X134251700Y-105435400D03*
X107835700Y-106400600D03*
X107835700Y-116560600D03*
X132334000Y-82042000D03*
X132334000Y-71882000D03*
X155575000Y-99314000D03*
X145415000Y-99314000D03*
X122050000Y-82980000D03*
X122050000Y-72820000D03*
X162687000Y-109347000D03*
X162687000Y-119507000D03*
X150530000Y-86050000D03*
X140370000Y-86050000D03*
X154330400Y-84797900D03*
X154330400Y-94957900D03*
X164287200Y-98069400D03*
X164287200Y-87909400D03*
X169164000Y-97917000D03*
X169164000Y-87757000D03*
X174625000Y-87757000D03*
X174625000Y-97917000D03*
D15*
X96520000Y-111760000D03*
D16*
X99060000Y-111760000D03*
X101600000Y-111760000D03*
D15*
X125793500Y-88633300D03*
D16*
X128333500Y-88633300D03*
X130873500Y-88633300D03*
D22*
X77470000Y-104140000D03*
D23*
X80010000Y-104140000D03*
D22*
X180721000Y-73406000D03*
D23*
X183261000Y-73406000D03*
D22*
X181102000Y-80391000D03*
D23*
X183642000Y-80391000D03*
D22*
X182372000Y-118491000D03*
D23*
X184912000Y-118491000D03*
D22*
X182550000Y-111750000D03*
D23*
X185090000Y-111750000D03*
D24*
X186690000Y-67310000D03*
X186690000Y-123190000D03*
X30480000Y-67310000D03*
X30480000Y-123190000D03*
D25*
X171000000Y-76300000D03*
X164850000Y-76100000D03*
X66560700Y-106451400D03*
X66497200Y-111429800D03*
X156900000Y-73800000D03*
X157000000Y-79500000D03*
X67284600Y-103403400D03*
X74320400Y-103428800D03*
X129600000Y-80300000D03*
X127300000Y-82550000D03*
D26*
X48260000Y-96520000D02*
X55880000Y-96520000D01*
X52070000Y-100330000D02*
X48260000Y-96520000D01*
X55880000Y-104140000D02*
X52070000Y-100330000D01*
X55880000Y-96520000D02*
X60960000Y-96520000D01*
X41760140Y-96520000D02*
X45720000Y-96520000D01*
X41760140Y-106530140D02*
X41910000Y-106680000D01*
X41760140Y-96520000D02*
X41760140Y-106530140D01*
X53340000Y-107950000D02*
X50800000Y-110490000D01*
X54610000Y-107950000D02*
X53340000Y-107950000D01*
X46990000Y-110490000D02*
X41910000Y-110490000D01*
X46990000Y-105410000D02*
X45720000Y-104140000D01*
X46990000Y-110490000D02*
X46990000Y-105410000D01*
X35760660Y-98219260D02*
X38760400Y-101219000D01*
X35760660Y-96520000D02*
X35760660Y-98219260D01*
X185090000Y-103720000D02*
X185810000Y-103000000D01*
X185090000Y-111750000D02*
X185090000Y-103720000D01*
X81280000Y-119380000D02*
X81280000Y-111760000D01*
X79400000Y-117650000D02*
X69390000Y-117650000D01*
X69145000Y-117405000D02*
X67310000Y-115570000D01*
X69390000Y-117650000D02*
X69145000Y-117405000D01*
X81130000Y-119380000D02*
X79400000Y-117650000D01*
X81280000Y-119380000D02*
X81130000Y-119380000D01*
X67050000Y-119500000D02*
X69145000Y-117405000D01*
X66670000Y-119500000D02*
X67050000Y-119500000D01*
X91440000Y-95250000D02*
X96520000Y-100330000D01*
X91440000Y-92710000D02*
X91440000Y-95250000D01*
X86563200Y-87833200D02*
X91440000Y-92710000D01*
X84810600Y-87833200D02*
X86563200Y-87833200D01*
X76593700Y-79616300D02*
X84810600Y-87833200D01*
X76593700Y-78384400D02*
X76593700Y-79616300D01*
X111810800Y-102539800D02*
X109601000Y-100330000D01*
X109601000Y-100330000D02*
X96520000Y-100330000D01*
X115392200Y-102539800D02*
X111810800Y-102539800D01*
X115392200Y-94322900D02*
X115557300Y-94157800D01*
X115392200Y-102539800D02*
X115392200Y-94322900D01*
X107141760Y-84279740D02*
X107127040Y-84265020D01*
X104040420Y-81178400D02*
X107127040Y-84265020D01*
X92151200Y-81178400D02*
X104040420Y-81178400D01*
X108614560Y-85752540D02*
X107127040Y-84265020D01*
X110789480Y-85752540D02*
X108614560Y-85752540D01*
X136344660Y-114322860D02*
X133756400Y-111734600D01*
X133756400Y-111734600D02*
X127914400Y-111734600D01*
X138062220Y-114322860D02*
X136344660Y-114322860D01*
X138062220Y-116598180D02*
X138062220Y-114322860D01*
X136041880Y-118618520D02*
X138062220Y-116598180D01*
X135752840Y-118618520D02*
X136041880Y-118618520D01*
X137060520Y-83389480D02*
X138900000Y-81550000D01*
X138900000Y-81550000D02*
X141800000Y-81550000D01*
X141800000Y-81550000D02*
X144650000Y-78700000D01*
X144650000Y-78700000D02*
X146700000Y-78700000D01*
X146700000Y-78700000D02*
X148450000Y-76950000D01*
X137060520Y-84497460D02*
X137060520Y-83389480D01*
X176041000Y-80391000D02*
X171950000Y-76300000D01*
X171950000Y-76300000D02*
X171000000Y-76300000D01*
X164850000Y-76100000D02*
X164000000Y-76950000D01*
X164000000Y-76950000D02*
X148450000Y-76950000D01*
X181102000Y-80391000D02*
X176041000Y-80391000D01*
X179700000Y-103000000D02*
X176550000Y-99850000D01*
X176550000Y-99850000D02*
X168153060Y-99850000D01*
X168153060Y-99850000D02*
X165552540Y-102450520D01*
X182000000Y-103000000D02*
X179700000Y-103000000D01*
X182550000Y-108850000D02*
X182000000Y-108300000D01*
X182000000Y-108300000D02*
X182000000Y-103000000D01*
X182550000Y-111750000D02*
X182550000Y-108850000D01*
D27*
X168922700Y-116738400D02*
X169316400Y-116738400D01*
X169316400Y-116738400D02*
X173964800Y-112090000D01*
X182372000Y-118491000D02*
X182372000Y-116422000D01*
X182372000Y-116422000D02*
X177849700Y-111899700D01*
X177849700Y-111899700D02*
X174155100Y-111899700D01*
X174155100Y-111899700D02*
X173964800Y-112090000D01*
X173964800Y-112090000D02*
X173900000Y-112090000D01*
X173900000Y-112090000D02*
X173900000Y-112154800D01*
D26*
X91440000Y-115570000D02*
X95250000Y-119380000D01*
X88900000Y-119380000D02*
X95250000Y-119380000D01*
X127863600Y-116865400D02*
X127914400Y-116814600D01*
X121539000Y-116865400D02*
X127863600Y-116865400D01*
X102349300Y-119380000D02*
X102933500Y-118795800D01*
X102933500Y-118795800D02*
X109245400Y-118795800D01*
X109245400Y-118795800D02*
X113106200Y-122656600D01*
X113106200Y-122656600D02*
X118859300Y-122656600D01*
X118859300Y-122656600D02*
X121539000Y-119976900D01*
X121539000Y-119976900D02*
X121539000Y-116865400D01*
X95250000Y-119380000D02*
X102349300Y-119380000D01*
X129667000Y-116814600D02*
X133667500Y-120815100D01*
X133667500Y-120815100D02*
X136067800Y-120815100D01*
X136067800Y-120815100D02*
X140601700Y-116281200D01*
X140601700Y-116281200D02*
X140601700Y-116192300D01*
X140601700Y-116192300D02*
X146050000Y-110744000D01*
X127914400Y-116814600D02*
X129667000Y-116814600D01*
X150685500Y-112014000D02*
X149415500Y-110744000D01*
X155194000Y-112014000D02*
X150685500Y-112014000D01*
X149415500Y-110744000D02*
X146050000Y-110744000D01*
X160680400Y-112014000D02*
X165404800Y-116738400D01*
X155194000Y-112014000D02*
X160680400Y-112014000D01*
X165404800Y-116738400D02*
X168922700Y-116738400D01*
X174155100Y-111899700D02*
X176250600Y-111899700D01*
X169316400Y-116738400D02*
X173900000Y-112154800D01*
X173900000Y-112154800D02*
X174155100Y-111899700D01*
X177849700Y-111899700D02*
X182372000Y-116422000D01*
X176250600Y-111899700D02*
X177849700Y-111899700D01*
X87180000Y-121100000D02*
X88900000Y-119380000D01*
X79350000Y-121100000D02*
X87180000Y-121100000D01*
X77750000Y-119500000D02*
X79350000Y-121100000D01*
X76830000Y-119500000D02*
X77750000Y-119500000D01*
X179959000Y-87757000D02*
X180213000Y-88011000D01*
X174625000Y-87757000D02*
X179959000Y-87757000D01*
X182959000Y-91059000D02*
X184658000Y-91059000D01*
X180213000Y-88313000D02*
X182959000Y-91059000D01*
X180213000Y-88011000D02*
X180213000Y-88313000D01*
X49923700Y-87274400D02*
X49923700Y-82194400D01*
X76200000Y-96520000D02*
X71120000Y-96520000D01*
X68770500Y-98107500D02*
X68770500Y-105232200D01*
X68770500Y-105232200D02*
X67779900Y-106222800D01*
X67779900Y-106222800D02*
X66789300Y-106222800D01*
X66789300Y-106222800D02*
X66560700Y-106451400D01*
X66497200Y-111429800D02*
X61518800Y-116408200D01*
X61518800Y-116408200D02*
X61518800Y-116459000D01*
X61518800Y-116459000D02*
X59867800Y-118110000D01*
X59626500Y-118110000D02*
X54610000Y-118110000D01*
X59867800Y-118110000D02*
X59626500Y-118110000D01*
X70358000Y-96520000D02*
X68770500Y-98107500D01*
X71120000Y-96520000D02*
X70358000Y-96520000D01*
X50800000Y-118110000D02*
X54610000Y-118110000D01*
X141643100Y-118110000D02*
X139915900Y-119837200D01*
X60553600Y-118110000D02*
X59626500Y-118110000D01*
X136359900Y-123393200D02*
X139915900Y-119837200D01*
X65836800Y-123393200D02*
X136359900Y-123393200D01*
X60553600Y-118110000D02*
X65836800Y-123393200D01*
X151130000Y-118110000D02*
X141643100Y-118110000D01*
X125971300Y-79527400D02*
X125971300Y-79171800D01*
X134073900Y-87630000D02*
X125971300Y-79527400D01*
X134073900Y-94056200D02*
X134073900Y-87630000D01*
X144551400Y-108204000D02*
X143027400Y-106680000D01*
X143027400Y-106680000D02*
X143027400Y-104470200D01*
X143027400Y-104470200D02*
X140843000Y-102285800D01*
X140843000Y-102285800D02*
X140843000Y-98552000D01*
X146050000Y-108204000D02*
X144551400Y-108204000D01*
X116547900Y-82097900D02*
X116547900Y-79171800D01*
X120202540Y-85752540D02*
X116547900Y-82097900D01*
X120949480Y-85752540D02*
X120202540Y-85752540D01*
X154962860Y-114322860D02*
X155194000Y-114554000D01*
X148222220Y-114322860D02*
X154962860Y-114322860D01*
X55003700Y-82194400D02*
X55003700Y-77114400D01*
X55003700Y-77114400D02*
X61353700Y-77114400D01*
X61353700Y-82194400D02*
X65163700Y-86004400D01*
X61353700Y-77114400D02*
X61353700Y-82194400D01*
X67259200Y-83616800D02*
X68211700Y-83616800D01*
X68211700Y-83616800D02*
X71513700Y-80314800D01*
X71513700Y-80314800D02*
X71513700Y-78384400D01*
X65163700Y-85712300D02*
X67259200Y-83616800D01*
X65163700Y-86004400D02*
X65163700Y-85712300D01*
X81026000Y-75742800D02*
X87337900Y-75742800D01*
X73520300Y-75742800D02*
X81026000Y-75742800D01*
X71513700Y-77749400D02*
X73520300Y-75742800D01*
X71513700Y-78384400D02*
X71513700Y-77749400D01*
X87071200Y-76009500D02*
X87337900Y-75742800D01*
X87071200Y-81178400D02*
X87071200Y-76009500D01*
X81026000Y-79908400D02*
X89738200Y-88620600D01*
X89738200Y-88620600D02*
X111048800Y-88620600D01*
X111048800Y-88620600D02*
X114998500Y-84670900D01*
X114998500Y-84670900D02*
X114998500Y-82918300D01*
X114998500Y-82918300D02*
X112039400Y-79959200D01*
X112039400Y-79959200D02*
X112039400Y-77952600D01*
X112096550Y-77895450D02*
X113360200Y-76631800D01*
X112039400Y-77952600D02*
X112096550Y-77895450D01*
X113360200Y-76631800D02*
X116547900Y-76631800D01*
X81026000Y-75742800D02*
X81026000Y-79908400D01*
X116547900Y-76631800D02*
X125971300Y-76631800D01*
X134518200Y-76631800D02*
X134536400Y-76650000D01*
X134536400Y-76650000D02*
X136075000Y-76650000D01*
X136075000Y-76650000D02*
X139573000Y-73152000D01*
X125971300Y-76631800D02*
X134518200Y-76631800D01*
X172200000Y-70450000D02*
X169719700Y-70450000D01*
X169719700Y-70450000D02*
X167182800Y-72986900D01*
X173600000Y-71850000D02*
X172200000Y-70450000D01*
X175156000Y-73406000D02*
X173600000Y-71850000D01*
X180721000Y-73406000D02*
X175156000Y-73406000D01*
X112096550Y-71803450D02*
X115200000Y-68700000D01*
X115200000Y-68700000D02*
X170500000Y-68700000D01*
X170500000Y-68700000D02*
X173600000Y-71800000D01*
X173600000Y-71800000D02*
X173600000Y-71850000D01*
X112096550Y-77895450D02*
X112096550Y-71803450D01*
X110401100Y-106400600D02*
X111620300Y-107619800D01*
X111620300Y-107619800D02*
X115392200Y-107619800D01*
X107835700Y-106400600D02*
X110401100Y-106400600D01*
X129413000Y-107619800D02*
X131597400Y-105435400D01*
X131597400Y-105435400D02*
X134251700Y-105435400D01*
X115392200Y-107619800D02*
X129413000Y-107619800D01*
X176784000Y-103505000D02*
X176784000Y-103084000D01*
X174600000Y-101400000D02*
X170350000Y-101400000D01*
X170350000Y-101400000D02*
X166800000Y-104950000D01*
X166800000Y-104950000D02*
X162350000Y-104950000D01*
X162350000Y-104950000D02*
X157700000Y-109600000D01*
X157700000Y-109600000D02*
X153950000Y-109600000D01*
X153950000Y-109600000D02*
X152950000Y-110600000D01*
X152950000Y-110600000D02*
X151250000Y-110600000D01*
X151250000Y-110600000D02*
X149050000Y-108400000D01*
X149050000Y-108400000D02*
X149050000Y-106800000D01*
X149050000Y-106800000D02*
X152400000Y-103450000D01*
X152400000Y-103450000D02*
X156650000Y-103450000D01*
X156650000Y-103450000D02*
X159850000Y-100250000D01*
X159850000Y-100250000D02*
X159850000Y-98600000D01*
X159850000Y-98600000D02*
X156207900Y-94957900D01*
X156207900Y-94957900D02*
X154330400Y-94957900D01*
X176705000Y-103505000D02*
X174600000Y-101400000D01*
X176784000Y-103505000D02*
X176705000Y-103505000D01*
X128468000Y-71882000D02*
X132334000Y-71882000D01*
X126258200Y-74091800D02*
X128468000Y-71882000D01*
X125971300Y-74091800D02*
X126258200Y-74091800D01*
X135518000Y-71882000D02*
X136100000Y-71300000D01*
X136100000Y-71300000D02*
X154950000Y-71300000D01*
X154950000Y-71300000D02*
X156900000Y-73250000D01*
X156900000Y-73250000D02*
X156900000Y-73800000D01*
X157000000Y-79500000D02*
X157252000Y-79248000D01*
X157252000Y-79248000D02*
X165862000Y-79248000D01*
X132334000Y-71882000D02*
X135518000Y-71882000D01*
X168140000Y-82050000D02*
X170942000Y-79248000D01*
X145350000Y-82050000D02*
X168140000Y-82050000D01*
X141350000Y-86050000D02*
X145350000Y-82050000D01*
X140370000Y-86050000D02*
X141350000Y-86050000D01*
X117819700Y-72820000D02*
X116547900Y-74091800D01*
X122050000Y-72820000D02*
X117819700Y-72820000D01*
X124570000Y-70300000D02*
X122050000Y-72820000D01*
X161150000Y-70300000D02*
X124570000Y-70300000D01*
X163836900Y-72986900D02*
X161150000Y-70300000D01*
X164642800Y-72986900D02*
X163836900Y-72986900D01*
X157607000Y-119507000D02*
X155194000Y-117094000D01*
X162687000Y-119507000D02*
X157607000Y-119507000D01*
X165893000Y-119507000D02*
X166800000Y-118600000D01*
X166800000Y-118600000D02*
X172090300Y-118600000D01*
X172090300Y-118600000D02*
X176250600Y-114439700D01*
X162687000Y-119507000D02*
X165893000Y-119507000D01*
X55880000Y-93980000D02*
X60960000Y-93980000D01*
X53289200Y-91389200D02*
X55880000Y-93980000D01*
X44183300Y-91389200D02*
X53289200Y-91389200D01*
X40068500Y-87274400D02*
X44183300Y-91389200D01*
X39763700Y-87274400D02*
X40068500Y-87274400D01*
X59690000Y-115570000D02*
X60960000Y-114300000D01*
X60960000Y-114300000D02*
X60960000Y-110490000D01*
X57150000Y-115570000D02*
X59690000Y-115570000D01*
X76200000Y-93980000D02*
X71120000Y-93980000D01*
X67221100Y-93980000D02*
X71120000Y-93980000D01*
X60515500Y-87274400D02*
X67221100Y-93980000D01*
X60083700Y-87274400D02*
X60515500Y-87274400D01*
X76200000Y-115570000D02*
X71120000Y-110490000D01*
X77470000Y-115570000D02*
X76200000Y-115570000D01*
X44843700Y-77114400D02*
X49923700Y-77114400D01*
X49923700Y-77114400D02*
X52463700Y-77114400D01*
X52463700Y-77114400D02*
X52463700Y-82194400D01*
X70243700Y-86004400D02*
X67703700Y-86004400D01*
X70243700Y-84099400D02*
X74053700Y-80289400D01*
X74053700Y-80289400D02*
X74053700Y-78384400D01*
X70243700Y-86004400D02*
X70243700Y-84099400D01*
X71081900Y-86004400D02*
X75247500Y-90170000D01*
X75247500Y-90170000D02*
X82550000Y-90170000D01*
X70243700Y-86004400D02*
X71081900Y-86004400D01*
X91440000Y-105410000D02*
X93980000Y-102870000D01*
X93980000Y-102870000D02*
X96520000Y-102870000D01*
X88900000Y-105410000D02*
X91440000Y-105410000D01*
X88900000Y-105410000D02*
X88900000Y-109220000D01*
X96520000Y-111760000D02*
X96520000Y-105410000D01*
X87960200Y-73431400D02*
X88011000Y-73482200D01*
X88011000Y-73482200D02*
X90157300Y-73482200D01*
X90157300Y-73482200D02*
X92417900Y-75742800D01*
X78778100Y-73431400D02*
X87960200Y-73431400D01*
X92417900Y-75742800D02*
X89877900Y-75742800D01*
X89611200Y-76009500D02*
X89877900Y-75742800D01*
X89611200Y-81178400D02*
X89611200Y-76009500D01*
X127863600Y-114325400D02*
X127914400Y-114274600D01*
X121539000Y-114325400D02*
X127863600Y-114325400D01*
X121539000Y-114325400D02*
X121539000Y-111785400D01*
X117589300Y-114325400D02*
X115049300Y-116865400D01*
X115049300Y-116865400D02*
X115049300Y-120815100D01*
X121539000Y-114325400D02*
X117589300Y-114325400D01*
X55880000Y-99060000D02*
X60960000Y-99060000D01*
X60960000Y-105410000D02*
X60960000Y-99060000D01*
X65278000Y-105410000D02*
X67284600Y-103403400D01*
X74320400Y-103428800D02*
X75031600Y-104140000D01*
X75031600Y-104140000D02*
X77470000Y-104140000D01*
X60960000Y-105410000D02*
X65278000Y-105410000D01*
X60960000Y-107950000D02*
X71120000Y-107950000D01*
X71120000Y-99060000D02*
X76200000Y-99060000D01*
X71120000Y-99060000D02*
X71120000Y-105410000D01*
X71120000Y-107950000D02*
X71120000Y-105410000D01*
X39370000Y-116840000D02*
X40640000Y-118110000D01*
X36830000Y-116840000D02*
X39370000Y-116840000D01*
X82550000Y-104140000D02*
X83820000Y-102870000D01*
X83820000Y-102870000D02*
X88900000Y-102870000D01*
X80010000Y-104140000D02*
X82550000Y-104140000D01*
X91440000Y-100330000D02*
X91440000Y-96520000D01*
X91440000Y-96520000D02*
X87630000Y-92710000D01*
X88900000Y-102870000D02*
X91440000Y-100330000D01*
X107835700Y-112102900D02*
X103746300Y-108013500D01*
X103746300Y-108013500D02*
X103746300Y-105867200D01*
X103746300Y-105867200D02*
X107480100Y-102133400D01*
X107835700Y-116560600D02*
X107835700Y-112102900D01*
X110426500Y-105079800D02*
X107480100Y-102133400D01*
X115392200Y-105079800D02*
X110426500Y-105079800D01*
X120561100Y-105079800D02*
X122466098Y-106984798D01*
X122466098Y-106984798D02*
X127279402Y-106984798D01*
X127279402Y-106984798D02*
X130695700Y-103568500D01*
X130695700Y-103568500D02*
X137401300Y-103568500D01*
X137401300Y-103568500D02*
X137858500Y-104025700D01*
X137858500Y-104025700D02*
X137858500Y-106352860D01*
X137858500Y-106352860D02*
X135752840Y-108458520D01*
X115392200Y-105079800D02*
X120561100Y-105079800D01*
X140589520Y-108458520D02*
X140843000Y-108712000D01*
X135752840Y-108458520D02*
X140589520Y-108458520D01*
X107127040Y-97970340D02*
X107480100Y-98323400D01*
X107127040Y-94425020D02*
X107127040Y-97970340D01*
X109934260Y-91617800D02*
X107127040Y-94425020D01*
X115557300Y-91617800D02*
X109934260Y-91617800D01*
X121475500Y-91617800D02*
X123913900Y-94056200D01*
X115557300Y-91617800D02*
X121475500Y-91617800D01*
X123913900Y-94056200D02*
X123913900Y-99479100D01*
X150314000Y-99314000D02*
X155575000Y-99314000D01*
X143710000Y-92710000D02*
X150314000Y-99314000D01*
X143637000Y-92710000D02*
X143710000Y-92710000D01*
X132300000Y-82076000D02*
X132334000Y-82042000D01*
X139827000Y-91877000D02*
X132300000Y-84350000D01*
X132300000Y-84350000D02*
X132300000Y-82076000D01*
X139827000Y-92710000D02*
X139827000Y-91877000D01*
X169164000Y-87564000D02*
X169164000Y-87757000D01*
X166944000Y-85344000D02*
X169164000Y-87564000D01*
X161290000Y-85344000D02*
X166944000Y-85344000D01*
X174244000Y-107353100D02*
X176250600Y-109359700D01*
X162699700Y-109359700D02*
X162687000Y-109347000D01*
X176250600Y-109359700D02*
X162699700Y-109359700D01*
X174244000Y-103505000D02*
X174244000Y-107353100D01*
X162687000Y-109744980D02*
X165552540Y-112610520D01*
X162687000Y-109347000D02*
X162687000Y-109744980D01*
X123567460Y-84497460D02*
X122050000Y-82980000D01*
X126900520Y-84497460D02*
X123567460Y-84497460D01*
X168402000Y-76748000D02*
X169722800Y-75427200D01*
X169722800Y-75427200D02*
X169722800Y-72986900D01*
X168402000Y-79248000D02*
X168402000Y-76748000D01*
X168402000Y-76852000D02*
X166600000Y-75050000D01*
X166600000Y-75050000D02*
X154650000Y-75050000D01*
X154650000Y-75050000D02*
X154550000Y-75150000D01*
X154550000Y-75150000D02*
X145400000Y-75150000D01*
X145400000Y-75150000D02*
X141100000Y-79450000D01*
X141100000Y-79450000D02*
X130450000Y-79450000D01*
X130450000Y-79450000D02*
X129600000Y-80300000D01*
X127300000Y-82550000D02*
X126900520Y-82949480D01*
X126900520Y-82949480D02*
X126900520Y-84497460D01*
X168402000Y-79248000D02*
X168402000Y-76852000D01*
X155900000Y-107950000D02*
X160450000Y-103400000D01*
X160450000Y-103400000D02*
X160450000Y-101906600D01*
X160450000Y-101906600D02*
X164287200Y-98069400D01*
X151130000Y-107950000D02*
X155900000Y-107950000D01*
X169011600Y-98069400D02*
X169164000Y-97917000D01*
X164287200Y-98069400D02*
X169011600Y-98069400D01*
X169164000Y-97917000D02*
X174625000Y-97917000D01*
X179959000Y-97917000D02*
X180213000Y-98171000D01*
X174625000Y-97917000D02*
X179959000Y-97917000D01*
X162169400Y-98069400D02*
X154165300Y-90065300D01*
X154165300Y-90065300D02*
X154165300Y-84721700D01*
X164287200Y-98069400D02*
X162169400Y-98069400D01*
X153982500Y-84450000D02*
X154330400Y-84797900D01*
X153078300Y-86050000D02*
X154330400Y-84797900D01*
X150530000Y-86050000D02*
X153078300Y-86050000D01*
X125793500Y-90639900D02*
X125793500Y-88633300D01*
X134073900Y-98920300D02*
X125793500Y-90639900D01*
X134073900Y-99479100D02*
X134073900Y-98920300D01*
X116001800Y-88633300D02*
X115557300Y-89077800D01*
X125793500Y-88633300D02*
X116001800Y-88633300D01*
X146050000Y-99949000D02*
X145415000Y-99314000D01*
X146050000Y-105664000D02*
X146050000Y-99949000D01*
X148000000Y-107000000D02*
X148000000Y-109800000D01*
X148000000Y-109800000D02*
X148200000Y-110000000D01*
X148200000Y-110000000D02*
X149621002Y-110000000D01*
X149621002Y-110000000D02*
X150921002Y-111300000D01*
X150921002Y-111300000D02*
X153550000Y-111300000D01*
X153550000Y-111300000D02*
X154150000Y-110700000D01*
X154150000Y-110700000D02*
X156650000Y-110700000D01*
X156650000Y-110700000D02*
X156750000Y-110600000D01*
X156750000Y-110600000D02*
X158400000Y-110600000D01*
X158400000Y-110600000D02*
X162550000Y-106450000D01*
X162550000Y-106450000D02*
X168759000Y-106450000D01*
X168759000Y-106450000D02*
X171704000Y-103505000D01*
X146664000Y-105664000D02*
X148000000Y-107000000D01*
X146050000Y-105664000D02*
X146664000Y-105664000D01*
X99060000Y-111760000D02*
X101600000Y-111760000D01*
X101600000Y-111760000D02*
X101600000Y-115570000D01*
X128333500Y-88633300D02*
X130873500Y-88633300D01*
X126580900Y-105435400D02*
X130086100Y-101930200D01*
X130086100Y-101930200D02*
X135166100Y-101930200D01*
X135166100Y-101930200D02*
X136626600Y-100469700D01*
X136626600Y-100469700D02*
X136626600Y-98183700D01*
X136626600Y-98183700D02*
X134950200Y-96507300D01*
X134950200Y-96507300D02*
X133667500Y-96507300D01*
X133667500Y-96507300D02*
X130873500Y-93713300D01*
X130873500Y-93713300D02*
X130873500Y-88633300D01*
X124091700Y-105435400D02*
X126580900Y-105435400D01*
D28*
G36*
X190373000Y-126873000D02*
X189357462Y-126873000D01*
X189357462Y-122661828D01*
X189357462Y-66781828D01*
X188952291Y-65801239D01*
X188202707Y-65050345D01*
X187222827Y-64643464D01*
X186161828Y-64642538D01*
X185181239Y-65047709D01*
X184430345Y-65797293D01*
X184023464Y-66777173D01*
X184022538Y-67838172D01*
X184427709Y-68818761D01*
X185177293Y-69569655D01*
X186157173Y-69976536D01*
X187218172Y-69977462D01*
X188198761Y-69572291D01*
X188949655Y-68822707D01*
X189356536Y-67842827D01*
X189357462Y-66781828D01*
X189357462Y-122661828D01*
X188952291Y-121681239D01*
X188202707Y-120930345D01*
X187222827Y-120523464D01*
X187207767Y-120523450D01*
X187207767Y-103204966D01*
X187179805Y-102654462D01*
X187022931Y-102275735D01*
X186781930Y-102207675D01*
X186602325Y-102387280D01*
X186602325Y-102028070D01*
X186534265Y-101787069D01*
X186341345Y-101718402D01*
X186341345Y-91059000D01*
X186215670Y-90427190D01*
X185991034Y-90090998D01*
X186033698Y-90073327D01*
X186212327Y-89894699D01*
X186309000Y-89661310D01*
X186309000Y-89408691D01*
X186309000Y-88804750D01*
X186309000Y-88233250D01*
X186309000Y-87629309D01*
X186309000Y-87376690D01*
X186212327Y-87143301D01*
X186033698Y-86964673D01*
X185800309Y-86868000D01*
X185247975Y-86868000D01*
X185247975Y-80773944D01*
X185247975Y-80008056D01*
X185048385Y-79526182D01*
X184866975Y-79330539D01*
X184866975Y-73788944D01*
X184866975Y-73023056D01*
X184667385Y-72541182D01*
X184229379Y-72068812D01*
X183643946Y-71800017D01*
X183388000Y-71918633D01*
X183388000Y-73279000D01*
X184747836Y-73279000D01*
X184866975Y-73023056D01*
X184866975Y-73788944D01*
X184747836Y-73533000D01*
X183388000Y-73533000D01*
X183388000Y-74893367D01*
X183643946Y-75011983D01*
X184229379Y-74743188D01*
X184667385Y-74270818D01*
X184866975Y-73788944D01*
X184866975Y-79330539D01*
X184610379Y-79053812D01*
X184024946Y-78785017D01*
X183769000Y-78903633D01*
X183769000Y-80264000D01*
X185128836Y-80264000D01*
X185247975Y-80008056D01*
X185247975Y-80773944D01*
X185128836Y-80518000D01*
X183769000Y-80518000D01*
X183769000Y-81878367D01*
X184024946Y-81996983D01*
X184610379Y-81728188D01*
X185048385Y-81255818D01*
X185247975Y-80773944D01*
X185247975Y-86868000D01*
X184943750Y-86868000D01*
X184785000Y-87026750D01*
X184785000Y-88392000D01*
X186150250Y-88392000D01*
X186309000Y-88233250D01*
X186309000Y-88804750D01*
X186150250Y-88646000D01*
X184785000Y-88646000D01*
X184785000Y-88666000D01*
X184531000Y-88666000D01*
X184531000Y-88646000D01*
X184531000Y-88392000D01*
X184531000Y-87026750D01*
X184372250Y-86868000D01*
X183515691Y-86868000D01*
X183282302Y-86964673D01*
X183103673Y-87143301D01*
X183007000Y-87376690D01*
X183007000Y-87629309D01*
X183007000Y-88233250D01*
X183165750Y-88392000D01*
X184531000Y-88392000D01*
X184531000Y-88646000D01*
X183165750Y-88646000D01*
X183007000Y-88804750D01*
X183007000Y-89408691D01*
X183007000Y-89661310D01*
X183103673Y-89894699D01*
X183282302Y-90073327D01*
X183324965Y-90090998D01*
X183258261Y-90190828D01*
X181717455Y-88650021D01*
X181847206Y-88337547D01*
X181847774Y-87687306D01*
X181599462Y-87086345D01*
X181140073Y-86626154D01*
X180539547Y-86376794D01*
X179889306Y-86376226D01*
X179288345Y-86624538D01*
X178980847Y-86931500D01*
X176052432Y-86931500D01*
X176011462Y-86832345D01*
X175552073Y-86372154D01*
X174951547Y-86122794D01*
X174301306Y-86122226D01*
X173700345Y-86370538D01*
X173240154Y-86829927D01*
X172990794Y-87430453D01*
X172990226Y-88080694D01*
X173238538Y-88681655D01*
X173697927Y-89141846D01*
X174298453Y-89391206D01*
X174948694Y-89391774D01*
X175549655Y-89143462D01*
X176009846Y-88684073D01*
X176052022Y-88582500D01*
X178680617Y-88582500D01*
X178826538Y-88935655D01*
X179285927Y-89395846D01*
X179886453Y-89645206D01*
X180378201Y-89645635D01*
X182375280Y-91642713D01*
X182375283Y-91642717D01*
X182643094Y-91821662D01*
X182643095Y-91821663D01*
X182959000Y-91884500D01*
X183229749Y-91884500D01*
X183458222Y-92226433D01*
X183993845Y-92584325D01*
X184625655Y-92710000D01*
X184690345Y-92710000D01*
X185322155Y-92584325D01*
X185857778Y-92226433D01*
X186215670Y-91690810D01*
X186341345Y-91059000D01*
X186341345Y-101718402D01*
X186014966Y-101602233D01*
X185464462Y-101630195D01*
X185085735Y-101787069D01*
X185017675Y-102028070D01*
X185810000Y-102820395D01*
X186602325Y-102028070D01*
X186602325Y-102387280D01*
X185989605Y-103000000D01*
X186781930Y-103792325D01*
X187022931Y-103724265D01*
X187207767Y-103204966D01*
X187207767Y-120523450D01*
X186695975Y-120523004D01*
X186695975Y-112132944D01*
X186695975Y-111367056D01*
X186602325Y-111140954D01*
X186602325Y-103971930D01*
X185810000Y-103179605D01*
X185630395Y-103359210D01*
X185630395Y-103000000D01*
X184838070Y-102207675D01*
X184597069Y-102275735D01*
X184412233Y-102795034D01*
X184440195Y-103345538D01*
X184597069Y-103724265D01*
X184838070Y-103792325D01*
X185630395Y-103000000D01*
X185630395Y-103359210D01*
X185017675Y-103971930D01*
X185085735Y-104212931D01*
X185605034Y-104397767D01*
X186155538Y-104369805D01*
X186534265Y-104212931D01*
X186602325Y-103971930D01*
X186602325Y-111140954D01*
X186496385Y-110885182D01*
X186058379Y-110412812D01*
X185472946Y-110144017D01*
X185217000Y-110262633D01*
X185217000Y-111623000D01*
X186576836Y-111623000D01*
X186695975Y-111367056D01*
X186695975Y-112132944D01*
X186576836Y-111877000D01*
X185217000Y-111877000D01*
X185217000Y-113237367D01*
X185472946Y-113355983D01*
X186058379Y-113087188D01*
X186496385Y-112614818D01*
X186695975Y-112132944D01*
X186695975Y-120523004D01*
X186517975Y-120522848D01*
X186517975Y-118873944D01*
X186517975Y-118108056D01*
X186318385Y-117626182D01*
X185880379Y-117153812D01*
X185294946Y-116885017D01*
X185039000Y-117003633D01*
X185039000Y-118364000D01*
X186398836Y-118364000D01*
X186517975Y-118108056D01*
X186517975Y-118873944D01*
X186398836Y-118618000D01*
X185039000Y-118618000D01*
X185039000Y-119978367D01*
X185294946Y-120096983D01*
X185880379Y-119828188D01*
X186318385Y-119355818D01*
X186517975Y-118873944D01*
X186517975Y-120522848D01*
X186161828Y-120522538D01*
X185181239Y-120927709D01*
X184430345Y-121677293D01*
X184023464Y-122657173D01*
X184022538Y-123718172D01*
X184427709Y-124698761D01*
X185177293Y-125449655D01*
X186157173Y-125856536D01*
X187218172Y-125857462D01*
X188198761Y-125452291D01*
X188949655Y-124702707D01*
X189356536Y-123722827D01*
X189357462Y-122661828D01*
X189357462Y-126873000D01*
X170320467Y-126873000D01*
X170320467Y-120753366D01*
X170292505Y-120202862D01*
X170135631Y-119824135D01*
X169894630Y-119756075D01*
X169102305Y-120548400D01*
X169894630Y-121340725D01*
X170135631Y-121272665D01*
X170320467Y-120753366D01*
X170320467Y-126873000D01*
X169715025Y-126873000D01*
X169715025Y-121520330D01*
X168922700Y-120728005D01*
X168743095Y-120907610D01*
X168743095Y-120548400D01*
X167950770Y-119756075D01*
X167709769Y-119824135D01*
X167524933Y-120343434D01*
X167552895Y-120893938D01*
X167709769Y-121272665D01*
X167950770Y-121340725D01*
X168743095Y-120548400D01*
X168743095Y-120907610D01*
X168130375Y-121520330D01*
X168198435Y-121761331D01*
X168717734Y-121946167D01*
X169268238Y-121918205D01*
X169646965Y-121761331D01*
X169715025Y-121520330D01*
X169715025Y-126873000D01*
X48375810Y-126873000D01*
X48375810Y-110215602D01*
X48165314Y-109706163D01*
X47815500Y-109355738D01*
X47815500Y-105410000D01*
X47752663Y-105094095D01*
X47752663Y-105094094D01*
X47680986Y-104986824D01*
X47573717Y-104826283D01*
X47573713Y-104826280D01*
X47313063Y-104565629D01*
X47354206Y-104466547D01*
X47354774Y-103816306D01*
X47106462Y-103215345D01*
X46647073Y-102755154D01*
X46046547Y-102505794D01*
X45396306Y-102505226D01*
X44795345Y-102753538D01*
X44335154Y-103212927D01*
X44085794Y-103813453D01*
X44085226Y-104463694D01*
X44333538Y-105064655D01*
X44792927Y-105524846D01*
X45393453Y-105774206D01*
X46043694Y-105774774D01*
X46145341Y-105732774D01*
X46164500Y-105751933D01*
X46164500Y-109356276D01*
X45855738Y-109664500D01*
X43337432Y-109664500D01*
X43296462Y-109565345D01*
X42837073Y-109105154D01*
X42236547Y-108855794D01*
X41586306Y-108855226D01*
X40985345Y-109103538D01*
X40525154Y-109562927D01*
X40275794Y-110163453D01*
X40275226Y-110813694D01*
X40523538Y-111414655D01*
X40982927Y-111874846D01*
X41583453Y-112124206D01*
X42233694Y-112124774D01*
X42834655Y-111876462D01*
X43294846Y-111417073D01*
X43337022Y-111315500D01*
X45856276Y-111315500D01*
X46204113Y-111663944D01*
X46713184Y-111875329D01*
X47264398Y-111875810D01*
X47773837Y-111665314D01*
X48163944Y-111275887D01*
X48375329Y-110766816D01*
X48375810Y-110215602D01*
X48375810Y-126873000D01*
X42274774Y-126873000D01*
X42274774Y-117786306D01*
X42026462Y-117185345D01*
X41567073Y-116725154D01*
X40966547Y-116475794D01*
X40316306Y-116475226D01*
X40214659Y-116517225D01*
X39953717Y-116256283D01*
X39685906Y-116077337D01*
X39370000Y-116014500D01*
X38633400Y-116014500D01*
X38633400Y-103445310D01*
X38633400Y-101346000D01*
X38633400Y-101092000D01*
X38633400Y-98992690D01*
X38474650Y-98833940D01*
X37808727Y-98833940D01*
X37870418Y-98808387D01*
X38049047Y-98629759D01*
X38145720Y-98396370D01*
X38145720Y-98143751D01*
X38145720Y-96805750D01*
X38145720Y-96234250D01*
X38145720Y-94896249D01*
X38145720Y-94643630D01*
X38049047Y-94410241D01*
X37870418Y-94231613D01*
X37637029Y-94134940D01*
X36046410Y-94134940D01*
X35887660Y-94293690D01*
X35887660Y-96393000D01*
X37986970Y-96393000D01*
X38145720Y-96234250D01*
X38145720Y-96805750D01*
X37986970Y-96647000D01*
X35887660Y-96647000D01*
X35887660Y-98746310D01*
X36046410Y-98905060D01*
X36712332Y-98905060D01*
X36650642Y-98930613D01*
X36472013Y-99109241D01*
X36375340Y-99342630D01*
X36375340Y-99595249D01*
X36375340Y-100933250D01*
X36534090Y-101092000D01*
X38633400Y-101092000D01*
X38633400Y-101346000D01*
X36534090Y-101346000D01*
X36375340Y-101504750D01*
X36375340Y-102842751D01*
X36375340Y-103095370D01*
X36472013Y-103328759D01*
X36650642Y-103507387D01*
X36884031Y-103604060D01*
X38474650Y-103604060D01*
X38633400Y-103445310D01*
X38633400Y-116014500D01*
X37963723Y-116014500D01*
X37615887Y-115666056D01*
X37106816Y-115454671D01*
X36555602Y-115454190D01*
X36046163Y-115664686D01*
X35656056Y-116054113D01*
X35633660Y-116108048D01*
X35633660Y-98746310D01*
X35633660Y-96647000D01*
X35633660Y-96393000D01*
X35633660Y-94293690D01*
X35474910Y-94134940D01*
X33884291Y-94134940D01*
X33650902Y-94231613D01*
X33472273Y-94410241D01*
X33375600Y-94643630D01*
X33375600Y-94896249D01*
X33375600Y-96234250D01*
X33534350Y-96393000D01*
X35633660Y-96393000D01*
X35633660Y-96647000D01*
X33534350Y-96647000D01*
X33375600Y-96805750D01*
X33375600Y-98143751D01*
X33375600Y-98396370D01*
X33472273Y-98629759D01*
X33650902Y-98808387D01*
X33884291Y-98905060D01*
X35474910Y-98905060D01*
X35633660Y-98746310D01*
X35633660Y-116108048D01*
X35444671Y-116563184D01*
X35444190Y-117114398D01*
X35654686Y-117623837D01*
X36044113Y-118013944D01*
X36553184Y-118225329D01*
X37104398Y-118225810D01*
X37613837Y-118015314D01*
X37964261Y-117665500D01*
X39028066Y-117665500D01*
X39046936Y-117684370D01*
X39005794Y-117783453D01*
X39005226Y-118433694D01*
X39253538Y-119034655D01*
X39712927Y-119494846D01*
X40313453Y-119744206D01*
X40963694Y-119744774D01*
X41564655Y-119496462D01*
X42024846Y-119037073D01*
X42274206Y-118436547D01*
X42274774Y-117786306D01*
X42274774Y-126873000D01*
X34417767Y-126873000D01*
X34417767Y-117044966D01*
X34389805Y-116494462D01*
X34232931Y-116115735D01*
X33991930Y-116047675D01*
X33812325Y-116227280D01*
X33812325Y-115868070D01*
X33744265Y-115627069D01*
X33395401Y-115502896D01*
X33395401Y-110754418D01*
X33395401Y-106944418D01*
X33371341Y-106294623D01*
X33168965Y-105806042D01*
X33147462Y-105798095D01*
X33147462Y-66781828D01*
X32742291Y-65801239D01*
X31992707Y-65050345D01*
X31012827Y-64643464D01*
X29951828Y-64642538D01*
X28971239Y-65047709D01*
X28220345Y-65797293D01*
X27813464Y-66777173D01*
X27812538Y-67838172D01*
X28217709Y-68818761D01*
X28967293Y-69569655D01*
X29947173Y-69976536D01*
X31008172Y-69977462D01*
X31988761Y-69572291D01*
X32739655Y-68822707D01*
X33146536Y-67842827D01*
X33147462Y-66781828D01*
X33147462Y-105798095D01*
X32902163Y-105707443D01*
X32722557Y-105887048D01*
X32722557Y-105527837D01*
X32623958Y-105261035D01*
X32014418Y-105034599D01*
X31364623Y-105058659D01*
X30876042Y-105261035D01*
X30777443Y-105527837D01*
X31750000Y-106500395D01*
X32722557Y-105527837D01*
X32722557Y-105887048D01*
X31929605Y-106680000D01*
X32902163Y-107652557D01*
X33168965Y-107553958D01*
X33395401Y-106944418D01*
X33395401Y-110754418D01*
X33371341Y-110104623D01*
X33168965Y-109616042D01*
X32902163Y-109517443D01*
X32722557Y-109697048D01*
X32722557Y-109337837D01*
X32722557Y-107832163D01*
X31750000Y-106859605D01*
X31570395Y-107039210D01*
X31570395Y-106680000D01*
X30597837Y-105707443D01*
X30331035Y-105806042D01*
X30104599Y-106415582D01*
X30128659Y-107065377D01*
X30331035Y-107553958D01*
X30597837Y-107652557D01*
X31570395Y-106680000D01*
X31570395Y-107039210D01*
X30777443Y-107832163D01*
X30876042Y-108098965D01*
X31485582Y-108325401D01*
X32135377Y-108301341D01*
X32623958Y-108098965D01*
X32722557Y-107832163D01*
X32722557Y-109337837D01*
X32623958Y-109071035D01*
X32014418Y-108844599D01*
X31364623Y-108868659D01*
X30876042Y-109071035D01*
X30777443Y-109337837D01*
X31750000Y-110310395D01*
X32722557Y-109337837D01*
X32722557Y-109697048D01*
X31929605Y-110490000D01*
X32902163Y-111462557D01*
X33168965Y-111363958D01*
X33395401Y-110754418D01*
X33395401Y-115502896D01*
X33224966Y-115442233D01*
X32722557Y-115467752D01*
X32722557Y-111642163D01*
X31750000Y-110669605D01*
X31570395Y-110849210D01*
X31570395Y-110490000D01*
X30597837Y-109517443D01*
X30331035Y-109616042D01*
X30104599Y-110225582D01*
X30128659Y-110875377D01*
X30331035Y-111363958D01*
X30597837Y-111462557D01*
X31570395Y-110490000D01*
X31570395Y-110849210D01*
X30777443Y-111642163D01*
X30876042Y-111908965D01*
X31485582Y-112135401D01*
X32135377Y-112111341D01*
X32623958Y-111908965D01*
X32722557Y-111642163D01*
X32722557Y-115467752D01*
X32674462Y-115470195D01*
X32295735Y-115627069D01*
X32227675Y-115868070D01*
X33020000Y-116660395D01*
X33812325Y-115868070D01*
X33812325Y-116227280D01*
X33199605Y-116840000D01*
X33991930Y-117632325D01*
X34232931Y-117564265D01*
X34417767Y-117044966D01*
X34417767Y-126873000D01*
X33812325Y-126873000D01*
X33812325Y-117811930D01*
X33020000Y-117019605D01*
X32840395Y-117199210D01*
X32840395Y-116840000D01*
X32048070Y-116047675D01*
X31807069Y-116115735D01*
X31622233Y-116635034D01*
X31650195Y-117185538D01*
X31807069Y-117564265D01*
X32048070Y-117632325D01*
X32840395Y-116840000D01*
X32840395Y-117199210D01*
X32227675Y-117811930D01*
X32295735Y-118052931D01*
X32815034Y-118237767D01*
X33365538Y-118209805D01*
X33744265Y-118052931D01*
X33812325Y-117811930D01*
X33812325Y-126873000D01*
X33147462Y-126873000D01*
X33147462Y-122661828D01*
X32742291Y-121681239D01*
X31992707Y-120930345D01*
X31012827Y-120523464D01*
X29951828Y-120522538D01*
X28971239Y-120927709D01*
X28220345Y-121677293D01*
X27813464Y-122657173D01*
X27812538Y-123718172D01*
X28217709Y-124698761D01*
X28967293Y-125449655D01*
X29947173Y-125856536D01*
X31008172Y-125857462D01*
X31988761Y-125452291D01*
X32739655Y-124702707D01*
X33146536Y-123722827D01*
X33147462Y-122661828D01*
X33147462Y-126873000D01*
X26797000Y-126873000D01*
X26797000Y-63627000D01*
X102743000Y-63627000D01*
X102743000Y-80352900D01*
X93479191Y-80352900D01*
X93431300Y-80112132D01*
X93130946Y-79662621D01*
X92681435Y-79362267D01*
X92151200Y-79256797D01*
X91620965Y-79362267D01*
X91171454Y-79662621D01*
X90881200Y-80097016D01*
X90590946Y-79662621D01*
X90436700Y-79559556D01*
X90436700Y-77539846D01*
X90857646Y-77258579D01*
X91147900Y-76824183D01*
X91438154Y-77258579D01*
X91887665Y-77558933D01*
X92417900Y-77664403D01*
X92948135Y-77558933D01*
X93397646Y-77258579D01*
X93698000Y-76809068D01*
X93803470Y-76278833D01*
X93803470Y-75206767D01*
X93698000Y-74676532D01*
X93397646Y-74227021D01*
X92948135Y-73926667D01*
X92417900Y-73821197D01*
X91887665Y-73926667D01*
X91816651Y-73974117D01*
X90741017Y-72898483D01*
X90473206Y-72719537D01*
X90157300Y-72656700D01*
X88215591Y-72656700D01*
X87960200Y-72605900D01*
X80205532Y-72605900D01*
X80164562Y-72506745D01*
X79705173Y-72046554D01*
X79104647Y-71797194D01*
X78454406Y-71796626D01*
X77853445Y-72044938D01*
X77393254Y-72504327D01*
X77143894Y-73104853D01*
X77143326Y-73755094D01*
X77391638Y-74356055D01*
X77851027Y-74816246D01*
X78094392Y-74917300D01*
X73520305Y-74917300D01*
X73520300Y-74917299D01*
X73204394Y-74980137D01*
X72936583Y-75159083D01*
X71613097Y-76482568D01*
X71513700Y-76462797D01*
X70983465Y-76568267D01*
X70533954Y-76868621D01*
X70263501Y-77273382D01*
X70263501Y-73695818D01*
X70239441Y-73046023D01*
X70037065Y-72557442D01*
X69770263Y-72458843D01*
X69590657Y-72638448D01*
X69590657Y-72279237D01*
X69492058Y-72012435D01*
X68882518Y-71785999D01*
X68232723Y-71810059D01*
X67744142Y-72012435D01*
X67645543Y-72279237D01*
X68618100Y-73251795D01*
X69590657Y-72279237D01*
X69590657Y-72638448D01*
X68797705Y-73431400D01*
X69770263Y-74403957D01*
X70037065Y-74305358D01*
X70263501Y-73695818D01*
X70263501Y-77273382D01*
X70233600Y-77318132D01*
X70128130Y-77848367D01*
X70128130Y-78920433D01*
X70233600Y-79450668D01*
X70533954Y-79900179D01*
X70669990Y-79991075D01*
X69590657Y-81070408D01*
X69590657Y-74583563D01*
X68618100Y-73611005D01*
X68438495Y-73790610D01*
X68438495Y-73431400D01*
X67465937Y-72458843D01*
X67199135Y-72557442D01*
X66972699Y-73166982D01*
X66996759Y-73816777D01*
X67199135Y-74305358D01*
X67465937Y-74403957D01*
X68438495Y-73431400D01*
X68438495Y-73790610D01*
X67645543Y-74583563D01*
X67744142Y-74850365D01*
X68353682Y-75076801D01*
X69003477Y-75052741D01*
X69492058Y-74850365D01*
X69590657Y-74583563D01*
X69590657Y-81070408D01*
X67869766Y-82791300D01*
X67259205Y-82791300D01*
X67259200Y-82791299D01*
X66943295Y-82854137D01*
X66675483Y-83033083D01*
X66675480Y-83033086D01*
X66561467Y-83147099D01*
X66561467Y-77281266D01*
X66533505Y-76730762D01*
X66376631Y-76352035D01*
X66135630Y-76283975D01*
X65956025Y-76463580D01*
X65956025Y-76104370D01*
X65887965Y-75863369D01*
X65368666Y-75678533D01*
X64818162Y-75706495D01*
X64439435Y-75863369D01*
X64371375Y-76104370D01*
X65163700Y-76896695D01*
X65956025Y-76104370D01*
X65956025Y-76463580D01*
X65343305Y-77076300D01*
X66135630Y-77868625D01*
X66376631Y-77800565D01*
X66561467Y-77281266D01*
X66561467Y-83147099D01*
X65956025Y-83752541D01*
X65956025Y-78048230D01*
X65163700Y-77255905D01*
X64984095Y-77435510D01*
X64984095Y-77076300D01*
X64191770Y-76283975D01*
X63950769Y-76352035D01*
X63765933Y-76871334D01*
X63793895Y-77421838D01*
X63950769Y-77800565D01*
X64191770Y-77868625D01*
X64984095Y-77076300D01*
X64984095Y-77435510D01*
X64371375Y-78048230D01*
X64439435Y-78289231D01*
X64958734Y-78474067D01*
X65509238Y-78446105D01*
X65887965Y-78289231D01*
X65956025Y-78048230D01*
X65956025Y-83752541D01*
X65549107Y-84159459D01*
X65163700Y-84082797D01*
X64633465Y-84188267D01*
X64562450Y-84235717D01*
X62179200Y-81852466D01*
X62179200Y-78210023D01*
X62527644Y-77862187D01*
X62739029Y-77353116D01*
X62739510Y-76801902D01*
X62529014Y-76292463D01*
X62139587Y-75902356D01*
X61630516Y-75690971D01*
X61079302Y-75690490D01*
X60569863Y-75900986D01*
X60181271Y-76288900D01*
X56331691Y-76288900D01*
X56283800Y-76048132D01*
X55983446Y-75598621D01*
X55533935Y-75298267D01*
X55003700Y-75192797D01*
X54473465Y-75298267D01*
X54023954Y-75598621D01*
X53733700Y-76033016D01*
X53443446Y-75598621D01*
X52993935Y-75298267D01*
X52463700Y-75192797D01*
X51933465Y-75298267D01*
X51483954Y-75598621D01*
X51193700Y-76033016D01*
X50903446Y-75598621D01*
X50453935Y-75298267D01*
X49923700Y-75192797D01*
X49393465Y-75298267D01*
X48943954Y-75598621D01*
X48643600Y-76048132D01*
X48595708Y-76288900D01*
X46271132Y-76288900D01*
X46230162Y-76189745D01*
X45770773Y-75729554D01*
X45170247Y-75480194D01*
X44520006Y-75479626D01*
X43919045Y-75727938D01*
X43458854Y-76187327D01*
X43209494Y-76787853D01*
X43208926Y-77438094D01*
X43457238Y-78039055D01*
X43916627Y-78499246D01*
X44517153Y-78748606D01*
X45167394Y-78749174D01*
X45768355Y-78500862D01*
X46228546Y-78041473D01*
X46270722Y-77939900D01*
X48595708Y-77939900D01*
X48643600Y-78180668D01*
X48943954Y-78630179D01*
X49393465Y-78930533D01*
X49923700Y-79036003D01*
X50453935Y-78930533D01*
X50903446Y-78630179D01*
X51193700Y-78195783D01*
X51483954Y-78630179D01*
X51638200Y-78733243D01*
X51638200Y-80575556D01*
X51483954Y-80678621D01*
X51193700Y-81113016D01*
X50903446Y-80678621D01*
X50453935Y-80378267D01*
X49923700Y-80272797D01*
X49393465Y-80378267D01*
X48943954Y-80678621D01*
X48643600Y-81128132D01*
X48538130Y-81658367D01*
X48538130Y-82730433D01*
X48643600Y-83260668D01*
X48943954Y-83710179D01*
X49098200Y-83813243D01*
X49098200Y-85846967D01*
X48999045Y-85887938D01*
X48538854Y-86347327D01*
X48289494Y-86947853D01*
X48288926Y-87598094D01*
X48537238Y-88199055D01*
X48996627Y-88659246D01*
X49597153Y-88908606D01*
X50247394Y-88909174D01*
X50848355Y-88660862D01*
X51308546Y-88201473D01*
X51557906Y-87600947D01*
X51558474Y-86950706D01*
X51310162Y-86349745D01*
X50850773Y-85889554D01*
X50749200Y-85847377D01*
X50749200Y-83813243D01*
X50903446Y-83710179D01*
X51193700Y-83275783D01*
X51483954Y-83710179D01*
X51933465Y-84010533D01*
X52463700Y-84116003D01*
X52993935Y-84010533D01*
X53443446Y-83710179D01*
X53733700Y-83275783D01*
X54023954Y-83710179D01*
X54473465Y-84010533D01*
X55003700Y-84116003D01*
X55533935Y-84010533D01*
X55983446Y-83710179D01*
X56283800Y-83260668D01*
X56389270Y-82730433D01*
X56389270Y-81658367D01*
X56283800Y-81128132D01*
X55983446Y-80678621D01*
X55829200Y-80575556D01*
X55829200Y-78733243D01*
X55983446Y-78630179D01*
X56283800Y-78180668D01*
X56331691Y-77939900D01*
X60258009Y-77939900D01*
X60528200Y-78210561D01*
X60528200Y-82194400D01*
X60591037Y-82510306D01*
X60769983Y-82778117D01*
X63778130Y-85786263D01*
X63778130Y-86540433D01*
X63883600Y-87070668D01*
X64183954Y-87520179D01*
X64633465Y-87820533D01*
X65163700Y-87926003D01*
X65693935Y-87820533D01*
X66143446Y-87520179D01*
X66433700Y-87085783D01*
X66723954Y-87520179D01*
X67173465Y-87820533D01*
X67703700Y-87926003D01*
X68233935Y-87820533D01*
X68683446Y-87520179D01*
X68973700Y-87085783D01*
X69263954Y-87520179D01*
X69713465Y-87820533D01*
X70243700Y-87926003D01*
X70773935Y-87820533D01*
X71223446Y-87520179D01*
X71306278Y-87396212D01*
X74663783Y-90753717D01*
X74931594Y-90932663D01*
X74931595Y-90932663D01*
X75247500Y-90995500D01*
X81122567Y-90995500D01*
X81163538Y-91094655D01*
X81622927Y-91554846D01*
X82223453Y-91804206D01*
X82873694Y-91804774D01*
X83474655Y-91556462D01*
X83934846Y-91097073D01*
X84184206Y-90496547D01*
X84184774Y-89846306D01*
X83936462Y-89245345D01*
X83477073Y-88785154D01*
X82876547Y-88535794D01*
X82226306Y-88535226D01*
X81625345Y-88783538D01*
X81165154Y-89242927D01*
X81122977Y-89344500D01*
X75589434Y-89344500D01*
X71665617Y-85420683D01*
X71612759Y-85385365D01*
X71612759Y-85385364D01*
X71523800Y-84938132D01*
X71223446Y-84488621D01*
X71102635Y-84407898D01*
X74637413Y-80873119D01*
X74637417Y-80873117D01*
X74637417Y-80873116D01*
X74816363Y-80605305D01*
X74879200Y-80289400D01*
X74879201Y-80289400D01*
X74879200Y-80289394D01*
X74879200Y-80003243D01*
X75033446Y-79900179D01*
X75323700Y-79465783D01*
X75613954Y-79900179D01*
X75967468Y-80136390D01*
X75967469Y-80136390D01*
X76009983Y-80200017D01*
X84226880Y-88416913D01*
X84226883Y-88416917D01*
X84494694Y-88595862D01*
X84494695Y-88595863D01*
X84810600Y-88658700D01*
X86221266Y-88658700D01*
X90054619Y-92492052D01*
X90054190Y-92984398D01*
X90264686Y-93493837D01*
X90614500Y-93844261D01*
X90614500Y-94527066D01*
X89015380Y-92927946D01*
X89015810Y-92435602D01*
X88805314Y-91926163D01*
X88415887Y-91536056D01*
X87906816Y-91324671D01*
X87355602Y-91324190D01*
X86846163Y-91534686D01*
X86456056Y-91924113D01*
X86244671Y-92433184D01*
X86244190Y-92984398D01*
X86454686Y-93493837D01*
X86844113Y-93883944D01*
X87353184Y-94095329D01*
X87848327Y-94095761D01*
X90614500Y-96861933D01*
X90614500Y-99708518D01*
X90468658Y-99440056D01*
X90046677Y-99098501D01*
X89526110Y-98944430D01*
X89027000Y-98944430D01*
X89027000Y-100203000D01*
X89047000Y-100203000D01*
X89047000Y-100457000D01*
X89027000Y-100457000D01*
X89027000Y-100477000D01*
X88773000Y-100477000D01*
X88773000Y-100457000D01*
X88773000Y-100203000D01*
X88773000Y-98944430D01*
X88273890Y-98944430D01*
X87753323Y-99098501D01*
X87331342Y-99440056D01*
X87072190Y-99917097D01*
X87058007Y-99988725D01*
X87180661Y-100203000D01*
X88773000Y-100203000D01*
X88773000Y-100457000D01*
X87180661Y-100457000D01*
X87058007Y-100671275D01*
X87072190Y-100742903D01*
X87331342Y-101219944D01*
X87753323Y-101561499D01*
X87843032Y-101588050D01*
X87833732Y-101589900D01*
X87384221Y-101890254D01*
X87281156Y-102044500D01*
X84195401Y-102044500D01*
X84195401Y-100594418D01*
X84171341Y-99944623D01*
X83968965Y-99456042D01*
X83702163Y-99357443D01*
X83522557Y-99537048D01*
X83522557Y-99177837D01*
X83423958Y-98911035D01*
X82814418Y-98684599D01*
X82164623Y-98708659D01*
X81676042Y-98911035D01*
X81577443Y-99177837D01*
X82550000Y-100150395D01*
X83522557Y-99177837D01*
X83522557Y-99537048D01*
X82729605Y-100330000D01*
X83702163Y-101302557D01*
X83968965Y-101203958D01*
X84195401Y-100594418D01*
X84195401Y-102044500D01*
X83820000Y-102044500D01*
X83522557Y-102103664D01*
X83522557Y-101482163D01*
X82550000Y-100509605D01*
X82370395Y-100689210D01*
X82370395Y-100330000D01*
X81397837Y-99357443D01*
X81131035Y-99456042D01*
X80904599Y-100065582D01*
X80928659Y-100715377D01*
X81131035Y-101203958D01*
X81397837Y-101302557D01*
X82370395Y-100330000D01*
X82370395Y-100689210D01*
X81577443Y-101482163D01*
X81676042Y-101748965D01*
X82285582Y-101975401D01*
X82935377Y-101951341D01*
X83423958Y-101748965D01*
X83522557Y-101482163D01*
X83522557Y-102103664D01*
X83504094Y-102107337D01*
X83396824Y-102179013D01*
X83236283Y-102286283D01*
X83236280Y-102286286D01*
X82208066Y-103314500D01*
X81438250Y-103314500D01*
X81209778Y-102972567D01*
X80674155Y-102614675D01*
X80042345Y-102489000D01*
X79977655Y-102489000D01*
X79345845Y-102614675D01*
X79043601Y-102816627D01*
X78946673Y-102669073D01*
X78735640Y-102526623D01*
X78486000Y-102476560D01*
X76454000Y-102476560D01*
X76211877Y-102523537D01*
X75999073Y-102663327D01*
X75856623Y-102874360D01*
X75806560Y-103124000D01*
X75806560Y-103314500D01*
X75373533Y-103314500D01*
X75222394Y-103163360D01*
X75113517Y-102899857D01*
X74850727Y-102636608D01*
X74507199Y-102493962D01*
X74135233Y-102493638D01*
X73791457Y-102635683D01*
X73528208Y-102898473D01*
X73385562Y-103242001D01*
X73385238Y-103613967D01*
X73527283Y-103957743D01*
X73790073Y-104220992D01*
X74055284Y-104331117D01*
X74447880Y-104723713D01*
X74447883Y-104723717D01*
X74447884Y-104723717D01*
X74715695Y-104902663D01*
X75031600Y-104965501D01*
X75031600Y-104965500D01*
X75031605Y-104965500D01*
X75806560Y-104965500D01*
X75806560Y-105156000D01*
X75853537Y-105398123D01*
X75993327Y-105610927D01*
X76204360Y-105753377D01*
X76454000Y-105803440D01*
X78486000Y-105803440D01*
X78728123Y-105756463D01*
X78940927Y-105616673D01*
X79044156Y-105463743D01*
X79345845Y-105665325D01*
X79977655Y-105791000D01*
X80042345Y-105791000D01*
X80674155Y-105665325D01*
X81209778Y-105307433D01*
X81438250Y-104965500D01*
X82550000Y-104965500D01*
X82865905Y-104902663D01*
X82865906Y-104902663D01*
X83133717Y-104723717D01*
X84161933Y-103695500D01*
X87281156Y-103695500D01*
X87384221Y-103849746D01*
X87818616Y-104140000D01*
X87384221Y-104430254D01*
X87083867Y-104879765D01*
X86978397Y-105410000D01*
X87083867Y-105940235D01*
X87384221Y-106389746D01*
X87833732Y-106690100D01*
X88074500Y-106737991D01*
X88074500Y-107792567D01*
X87975345Y-107833538D01*
X87515154Y-108292927D01*
X87265794Y-108893453D01*
X87265226Y-109543694D01*
X87513538Y-110144655D01*
X87972927Y-110604846D01*
X88573453Y-110854206D01*
X89223694Y-110854774D01*
X89824655Y-110606462D01*
X90284846Y-110147073D01*
X90534206Y-109546547D01*
X90534774Y-108896306D01*
X90286462Y-108295345D01*
X89827073Y-107835154D01*
X89725500Y-107792977D01*
X89725500Y-106737991D01*
X89966268Y-106690100D01*
X90415779Y-106389746D01*
X90518843Y-106235500D01*
X91440000Y-106235500D01*
X91755905Y-106172663D01*
X91755906Y-106172663D01*
X92023717Y-105993717D01*
X94321933Y-103695500D01*
X94901156Y-103695500D01*
X95004221Y-103849746D01*
X95438616Y-104140000D01*
X95004221Y-104430254D01*
X94703867Y-104879765D01*
X94598397Y-105410000D01*
X94703867Y-105940235D01*
X95004221Y-106389746D01*
X95453732Y-106690100D01*
X95694500Y-106737991D01*
X95694500Y-110096560D01*
X95656400Y-110096560D01*
X95414277Y-110143537D01*
X95201473Y-110283327D01*
X95059023Y-110494360D01*
X95008960Y-110744000D01*
X95008960Y-112776000D01*
X95055937Y-113018123D01*
X95195727Y-113230927D01*
X95406760Y-113373377D01*
X95656400Y-113423440D01*
X97383600Y-113423440D01*
X97625723Y-113376463D01*
X97838527Y-113236673D01*
X97980977Y-113025640D01*
X97988718Y-112987037D01*
X98000330Y-113004415D01*
X98486511Y-113329271D01*
X99060000Y-113443345D01*
X99633489Y-113329271D01*
X100119670Y-113004415D01*
X100330000Y-112689634D01*
X100540330Y-113004415D01*
X100774500Y-113160882D01*
X100774500Y-114142567D01*
X100675345Y-114183538D01*
X100215154Y-114642927D01*
X99965794Y-115243453D01*
X99965226Y-115893694D01*
X100213538Y-116494655D01*
X100672927Y-116954846D01*
X101273453Y-117204206D01*
X101923694Y-117204774D01*
X102524655Y-116956462D01*
X102743000Y-116738497D01*
X102743000Y-118008192D01*
X102617595Y-118033137D01*
X102349783Y-118212083D01*
X102349780Y-118212086D01*
X102007366Y-118554500D01*
X96383723Y-118554500D01*
X96035887Y-118206056D01*
X95526816Y-117994671D01*
X95031672Y-117994238D01*
X93033063Y-115995629D01*
X93074206Y-115896547D01*
X93074774Y-115246306D01*
X92826462Y-114645345D01*
X92367073Y-114185154D01*
X91766547Y-113935794D01*
X91116306Y-113935226D01*
X90515345Y-114183538D01*
X90055154Y-114642927D01*
X89805794Y-115243453D01*
X89805226Y-115893694D01*
X90053538Y-116494655D01*
X90512927Y-116954846D01*
X91113453Y-117204206D01*
X91763694Y-117204774D01*
X91865340Y-117162774D01*
X93257066Y-118554500D01*
X90327432Y-118554500D01*
X90286462Y-118455345D01*
X89827073Y-117995154D01*
X89226547Y-117745794D01*
X88576306Y-117745226D01*
X87975345Y-117993538D01*
X87515154Y-118452927D01*
X87265794Y-119053453D01*
X87265226Y-119703694D01*
X87307225Y-119805340D01*
X86838066Y-120274500D01*
X85217767Y-120274500D01*
X84894108Y-120274500D01*
X84791932Y-120172324D01*
X85032931Y-120104265D01*
X85217767Y-119584966D01*
X85189805Y-119034462D01*
X85032931Y-118655735D01*
X84791930Y-118587675D01*
X84612325Y-118767280D01*
X84612325Y-118408070D01*
X84544265Y-118167069D01*
X84024966Y-117982233D01*
X83474462Y-118010195D01*
X83095735Y-118167069D01*
X83027675Y-118408070D01*
X83820000Y-119200395D01*
X84612325Y-118408070D01*
X84612325Y-118767280D01*
X83999605Y-119380000D01*
X84013747Y-119394142D01*
X83834142Y-119573747D01*
X83820000Y-119559605D01*
X83805857Y-119573747D01*
X83626252Y-119394142D01*
X83640395Y-119380000D01*
X82848070Y-118587675D01*
X82607069Y-118655735D01*
X82548231Y-118821040D01*
X82455314Y-118596163D01*
X82105500Y-118245738D01*
X82105500Y-112893723D01*
X82453944Y-112545887D01*
X82665329Y-112036816D01*
X82665810Y-111485602D01*
X82665810Y-107675602D01*
X82455314Y-107166163D01*
X82065887Y-106776056D01*
X81556816Y-106564671D01*
X81005602Y-106564190D01*
X80496163Y-106774686D01*
X80106056Y-107164113D01*
X79894671Y-107673184D01*
X79894190Y-108224398D01*
X80104686Y-108733837D01*
X80494113Y-109123944D01*
X81003184Y-109335329D01*
X81554398Y-109335810D01*
X82063837Y-109125314D01*
X82453944Y-108735887D01*
X82665329Y-108226816D01*
X82665810Y-107675602D01*
X82665810Y-111485602D01*
X82455314Y-110976163D01*
X82065887Y-110586056D01*
X81556816Y-110374671D01*
X81005602Y-110374190D01*
X80496163Y-110584686D01*
X80106056Y-110974113D01*
X79894671Y-111483184D01*
X79894190Y-112034398D01*
X80104686Y-112543837D01*
X80454500Y-112894261D01*
X80454500Y-117537066D01*
X79983717Y-117066283D01*
X79715906Y-116887337D01*
X79400000Y-116824500D01*
X78526847Y-116824500D01*
X78854846Y-116497073D01*
X79104206Y-115896547D01*
X79104774Y-115246306D01*
X78856462Y-114645345D01*
X78397073Y-114185154D01*
X77796547Y-113935794D01*
X77146306Y-113935226D01*
X76545345Y-114183538D01*
X76262912Y-114465478D01*
X72888682Y-111091248D01*
X72936133Y-111020235D01*
X73041603Y-110490000D01*
X72936133Y-109959765D01*
X72635779Y-109510254D01*
X72201383Y-109220000D01*
X72635779Y-108929746D01*
X72936133Y-108480235D01*
X73041603Y-107950000D01*
X72936133Y-107419765D01*
X72635779Y-106970254D01*
X72201383Y-106680000D01*
X72635779Y-106389746D01*
X72936133Y-105940235D01*
X73041603Y-105410000D01*
X72936133Y-104879765D01*
X72635779Y-104430254D01*
X72186268Y-104129900D01*
X71945500Y-104082008D01*
X71945500Y-100387991D01*
X72186268Y-100340100D01*
X72635779Y-100039746D01*
X72738843Y-99885500D01*
X74581156Y-99885500D01*
X74684221Y-100039746D01*
X75133732Y-100340100D01*
X75663967Y-100445570D01*
X76736033Y-100445570D01*
X77266268Y-100340100D01*
X77715779Y-100039746D01*
X78016133Y-99590235D01*
X78121603Y-99060000D01*
X78016133Y-98529765D01*
X77715779Y-98080254D01*
X77281383Y-97790000D01*
X77715779Y-97499746D01*
X78016133Y-97050235D01*
X78121603Y-96520000D01*
X78016133Y-95989765D01*
X77715779Y-95540254D01*
X77281383Y-95250000D01*
X77715779Y-94959746D01*
X78016133Y-94510235D01*
X78121603Y-93980000D01*
X78016133Y-93449765D01*
X77715779Y-93000254D01*
X77266268Y-92699900D01*
X76736033Y-92594430D01*
X75663967Y-92594430D01*
X75133732Y-92699900D01*
X74684221Y-93000254D01*
X74581156Y-93154500D01*
X72738843Y-93154500D01*
X72635779Y-93000254D01*
X72186268Y-92699900D01*
X71656033Y-92594430D01*
X70583967Y-92594430D01*
X70053732Y-92699900D01*
X69604221Y-93000254D01*
X69501156Y-93154500D01*
X67563033Y-93154500D01*
X61718160Y-87309626D01*
X61718474Y-86950706D01*
X61470162Y-86349745D01*
X61010773Y-85889554D01*
X60410247Y-85640194D01*
X59760006Y-85639626D01*
X59159045Y-85887938D01*
X58698854Y-86347327D01*
X58449494Y-86947853D01*
X58448926Y-87598094D01*
X58697238Y-88199055D01*
X59156627Y-88659246D01*
X59757153Y-88908606D01*
X60407394Y-88909174D01*
X60814590Y-88740924D01*
X66637380Y-94563713D01*
X66637383Y-94563717D01*
X66905194Y-94742662D01*
X66905195Y-94742663D01*
X67221100Y-94805500D01*
X69501156Y-94805500D01*
X69604221Y-94959746D01*
X70038616Y-95250000D01*
X69604221Y-95540254D01*
X69303867Y-95989765D01*
X69200341Y-96510224D01*
X68186783Y-97523783D01*
X68007837Y-97791594D01*
X67945000Y-98107500D01*
X67945000Y-102741508D01*
X67814927Y-102611208D01*
X67471399Y-102468562D01*
X67099433Y-102468238D01*
X66755657Y-102610283D01*
X66492408Y-102873073D01*
X66382282Y-103138283D01*
X64936066Y-104584500D01*
X62578843Y-104584500D01*
X62475779Y-104430254D01*
X62026268Y-104129900D01*
X61785500Y-104082008D01*
X61785500Y-100387991D01*
X62026268Y-100340100D01*
X62475779Y-100039746D01*
X62776133Y-99590235D01*
X62881603Y-99060000D01*
X62776133Y-98529765D01*
X62475779Y-98080254D01*
X62041383Y-97790000D01*
X62475779Y-97499746D01*
X62776133Y-97050235D01*
X62881603Y-96520000D01*
X62776133Y-95989765D01*
X62475779Y-95540254D01*
X62041383Y-95250000D01*
X62475779Y-94959746D01*
X62776133Y-94510235D01*
X62881603Y-93980000D01*
X62776133Y-93449765D01*
X62475779Y-93000254D01*
X62026268Y-92699900D01*
X61496033Y-92594430D01*
X60423967Y-92594430D01*
X59893732Y-92699900D01*
X59444221Y-93000254D01*
X59341156Y-93154500D01*
X57498843Y-93154500D01*
X57395779Y-93000254D01*
X56946268Y-92699900D01*
X56416033Y-92594430D01*
X55661863Y-92594430D01*
X53872917Y-90805483D01*
X53605106Y-90626537D01*
X53289200Y-90563700D01*
X46489101Y-90563700D01*
X46489101Y-87538818D01*
X46465041Y-86889023D01*
X46262665Y-86400442D01*
X45995863Y-86301843D01*
X45816257Y-86481448D01*
X45816257Y-86122237D01*
X45717658Y-85855435D01*
X45108118Y-85628999D01*
X44458323Y-85653059D01*
X43969742Y-85855435D01*
X43871143Y-86122237D01*
X44843700Y-87094795D01*
X45816257Y-86122237D01*
X45816257Y-86481448D01*
X45023305Y-87274400D01*
X45995863Y-88246957D01*
X46262665Y-88148358D01*
X46489101Y-87538818D01*
X46489101Y-90563700D01*
X45816257Y-90563700D01*
X45816257Y-88426563D01*
X44843700Y-87454005D01*
X44664095Y-87633610D01*
X44664095Y-87274400D01*
X43691537Y-86301843D01*
X43424735Y-86400442D01*
X43198299Y-87009982D01*
X43222359Y-87659777D01*
X43424735Y-88148358D01*
X43691537Y-88246957D01*
X44664095Y-87274400D01*
X44664095Y-87633610D01*
X43871143Y-88426563D01*
X43969742Y-88693365D01*
X44579282Y-88919801D01*
X45229077Y-88895741D01*
X45717658Y-88693365D01*
X45816257Y-88426563D01*
X45816257Y-90563700D01*
X44525233Y-90563700D01*
X41398049Y-87436515D01*
X41398474Y-86950706D01*
X41150162Y-86349745D01*
X40690773Y-85889554D01*
X40090247Y-85640194D01*
X39440006Y-85639626D01*
X38839045Y-85887938D01*
X38378854Y-86347327D01*
X38129494Y-86947853D01*
X38128926Y-87598094D01*
X38377238Y-88199055D01*
X38836627Y-88659246D01*
X39437153Y-88908606D01*
X40087394Y-88909174D01*
X40404722Y-88778056D01*
X43599583Y-91972917D01*
X43867394Y-92151863D01*
X43867395Y-92151863D01*
X44183300Y-92214701D01*
X44183300Y-92214700D01*
X44183305Y-92214700D01*
X52947266Y-92214700D01*
X54111317Y-93378750D01*
X54063867Y-93449765D01*
X53958397Y-93980000D01*
X54063867Y-94510235D01*
X54364221Y-94959746D01*
X54798616Y-95250000D01*
X54364221Y-95540254D01*
X54261156Y-95694500D01*
X49393723Y-95694500D01*
X49045887Y-95346056D01*
X48536816Y-95134671D01*
X47985602Y-95134190D01*
X47476163Y-95344686D01*
X47086056Y-95734113D01*
X46990025Y-95965381D01*
X46895314Y-95736163D01*
X46505887Y-95346056D01*
X45996816Y-95134671D01*
X45445602Y-95134190D01*
X44936163Y-95344686D01*
X44585738Y-95694500D01*
X44157640Y-95694500D01*
X44157640Y-94769940D01*
X44110663Y-94527817D01*
X43970873Y-94315013D01*
X43759840Y-94172563D01*
X43510200Y-94122500D01*
X40010080Y-94122500D01*
X39767957Y-94169477D01*
X39555153Y-94309267D01*
X39412703Y-94520300D01*
X39362640Y-94769940D01*
X39362640Y-98270060D01*
X39409617Y-98512183D01*
X39549407Y-98724987D01*
X39710815Y-98833940D01*
X39046150Y-98833940D01*
X38887400Y-98992690D01*
X38887400Y-101092000D01*
X38907400Y-101092000D01*
X38907400Y-101346000D01*
X38887400Y-101346000D01*
X38887400Y-103445310D01*
X39046150Y-103604060D01*
X40636769Y-103604060D01*
X40870158Y-103507387D01*
X40934640Y-103442905D01*
X40934640Y-105344154D01*
X40525154Y-105752927D01*
X40275794Y-106353453D01*
X40275226Y-107003694D01*
X40523538Y-107604655D01*
X40982927Y-108064846D01*
X41583453Y-108314206D01*
X42233694Y-108314774D01*
X42834655Y-108066462D01*
X43294846Y-107607073D01*
X43544206Y-107006547D01*
X43544774Y-106356306D01*
X43296462Y-105755345D01*
X42837073Y-105295154D01*
X42585640Y-105190749D01*
X42585640Y-98917500D01*
X43510200Y-98917500D01*
X43752323Y-98870523D01*
X43965127Y-98730733D01*
X44107577Y-98519700D01*
X44157640Y-98270060D01*
X44157640Y-97345500D01*
X44586276Y-97345500D01*
X44934113Y-97693944D01*
X45443184Y-97905329D01*
X45994398Y-97905810D01*
X46503837Y-97695314D01*
X46893944Y-97305887D01*
X46989974Y-97074618D01*
X47084686Y-97303837D01*
X47474113Y-97693944D01*
X47983184Y-97905329D01*
X48478327Y-97905761D01*
X51486280Y-100913713D01*
X51486283Y-100913717D01*
X51486284Y-100913717D01*
X54286936Y-103714370D01*
X54245794Y-103813453D01*
X54245226Y-104463694D01*
X54493538Y-105064655D01*
X54952927Y-105524846D01*
X55553453Y-105774206D01*
X56203694Y-105774774D01*
X56804655Y-105526462D01*
X57264846Y-105067073D01*
X57514206Y-104466547D01*
X57514774Y-103816306D01*
X57266462Y-103215345D01*
X56807073Y-102755154D01*
X56206547Y-102505794D01*
X55556306Y-102505226D01*
X55454658Y-102547225D01*
X52653717Y-99746284D01*
X52653717Y-99746283D01*
X52653713Y-99746280D01*
X50252933Y-97345500D01*
X54261156Y-97345500D01*
X54364221Y-97499746D01*
X54798616Y-97790000D01*
X54364221Y-98080254D01*
X54063867Y-98529765D01*
X53958397Y-99060000D01*
X54063867Y-99590235D01*
X54364221Y-100039746D01*
X54813732Y-100340100D01*
X55343967Y-100445570D01*
X56416033Y-100445570D01*
X56946268Y-100340100D01*
X57395779Y-100039746D01*
X57498843Y-99885500D01*
X59341156Y-99885500D01*
X59444221Y-100039746D01*
X59893732Y-100340100D01*
X60134500Y-100387991D01*
X60134500Y-104082008D01*
X59893732Y-104129900D01*
X59444221Y-104430254D01*
X59143867Y-104879765D01*
X59038397Y-105410000D01*
X59143867Y-105940235D01*
X59444221Y-106389746D01*
X59878616Y-106680000D01*
X59444221Y-106970254D01*
X59143867Y-107419765D01*
X59038397Y-107950000D01*
X59143867Y-108480235D01*
X59444221Y-108929746D01*
X59878616Y-109220000D01*
X59444221Y-109510254D01*
X59143867Y-109959765D01*
X59038397Y-110490000D01*
X59143867Y-111020235D01*
X59444221Y-111469746D01*
X59893732Y-111770100D01*
X60134500Y-111817991D01*
X60134500Y-113958066D01*
X59348066Y-114744500D01*
X58577432Y-114744500D01*
X58536462Y-114645345D01*
X58077073Y-114185154D01*
X57476547Y-113935794D01*
X56826306Y-113935226D01*
X56244774Y-114175510D01*
X56244774Y-107626306D01*
X55996462Y-107025345D01*
X55537073Y-106565154D01*
X54936547Y-106315794D01*
X54286306Y-106315226D01*
X53685345Y-106563538D01*
X53225154Y-107022927D01*
X53168840Y-107158545D01*
X53024095Y-107187337D01*
X52756283Y-107366283D01*
X52756280Y-107366286D01*
X51017946Y-109104619D01*
X50525602Y-109104190D01*
X50016163Y-109314686D01*
X49626056Y-109704113D01*
X49414671Y-110213184D01*
X49414190Y-110764398D01*
X49624686Y-111273837D01*
X50014113Y-111663944D01*
X50523184Y-111875329D01*
X51074398Y-111875810D01*
X51583837Y-111665314D01*
X51973944Y-111275887D01*
X52185329Y-110766816D01*
X52185761Y-110271672D01*
X53403001Y-109054431D01*
X53682927Y-109334846D01*
X54283453Y-109584206D01*
X54933694Y-109584774D01*
X55534655Y-109336462D01*
X55994846Y-108877073D01*
X56244206Y-108276547D01*
X56244774Y-107626306D01*
X56244774Y-114175510D01*
X56225345Y-114183538D01*
X55765154Y-114642927D01*
X55515794Y-115243453D01*
X55515226Y-115893694D01*
X55763538Y-116494655D01*
X56222927Y-116954846D01*
X56823453Y-117204206D01*
X57473694Y-117204774D01*
X58074655Y-116956462D01*
X58534846Y-116497073D01*
X58577022Y-116395500D01*
X59690000Y-116395500D01*
X60005905Y-116332663D01*
X60005906Y-116332663D01*
X60273717Y-116153717D01*
X61543713Y-114883719D01*
X61543716Y-114883717D01*
X61543717Y-114883717D01*
X61650986Y-114723175D01*
X61722663Y-114615906D01*
X61722663Y-114615905D01*
X61785500Y-114300000D01*
X61785500Y-111817991D01*
X62026268Y-111770100D01*
X62475779Y-111469746D01*
X62776133Y-111020235D01*
X62881603Y-110490000D01*
X62776133Y-109959765D01*
X62475779Y-109510254D01*
X62041383Y-109220000D01*
X62475779Y-108929746D01*
X62578843Y-108775500D01*
X69501156Y-108775500D01*
X69604221Y-108929746D01*
X70038616Y-109220000D01*
X69604221Y-109510254D01*
X69303867Y-109959765D01*
X69198397Y-110490000D01*
X69303867Y-111020235D01*
X69604221Y-111469746D01*
X70053732Y-111770100D01*
X70583967Y-111875570D01*
X71338136Y-111875570D01*
X75616283Y-116153717D01*
X75884094Y-116332663D01*
X75884095Y-116332663D01*
X76028470Y-116361381D01*
X76083538Y-116494655D01*
X76412808Y-116824500D01*
X69731933Y-116824500D01*
X69728717Y-116821283D01*
X68903063Y-115995629D01*
X68944206Y-115896547D01*
X68944774Y-115246306D01*
X68696462Y-114645345D01*
X68237073Y-114185154D01*
X67636547Y-113935794D01*
X66986306Y-113935226D01*
X66385345Y-114183538D01*
X65925154Y-114642927D01*
X65675794Y-115243453D01*
X65675226Y-115893694D01*
X65923538Y-116494655D01*
X66382927Y-116954846D01*
X66983453Y-117204206D01*
X67633694Y-117204774D01*
X67735340Y-117162774D01*
X67977566Y-117405000D01*
X67364136Y-118018430D01*
X66996547Y-117865794D01*
X66346306Y-117865226D01*
X65745345Y-118113538D01*
X65285154Y-118572927D01*
X65035794Y-119173453D01*
X65035226Y-119823694D01*
X65283538Y-120424655D01*
X65742927Y-120884846D01*
X66343453Y-121134206D01*
X66993694Y-121134774D01*
X67594655Y-120886462D01*
X68054846Y-120427073D01*
X68304206Y-119826547D01*
X68304567Y-119412866D01*
X69266498Y-118450934D01*
X69390000Y-118475500D01*
X75542751Y-118475500D01*
X75445154Y-118572927D01*
X75195794Y-119173453D01*
X75195226Y-119823694D01*
X75443538Y-120424655D01*
X75902927Y-120884846D01*
X76503453Y-121134206D01*
X77153694Y-121134774D01*
X77754655Y-120886462D01*
X77861935Y-120779368D01*
X78766280Y-121683713D01*
X78766283Y-121683717D01*
X78766284Y-121683717D01*
X79034095Y-121862663D01*
X79350000Y-121925501D01*
X79350000Y-121925500D01*
X79350005Y-121925500D01*
X87180000Y-121925500D01*
X87495905Y-121862663D01*
X87495906Y-121862663D01*
X87763717Y-121683717D01*
X88474370Y-120973063D01*
X88573453Y-121014206D01*
X89223694Y-121014774D01*
X89824655Y-120766462D01*
X90284846Y-120307073D01*
X90327022Y-120205500D01*
X94116276Y-120205500D01*
X94464113Y-120553944D01*
X94679496Y-120643378D01*
X94525735Y-120707069D01*
X94457675Y-120948070D01*
X95250000Y-121740395D01*
X96042325Y-120948070D01*
X95974265Y-120707069D01*
X95808959Y-120648231D01*
X96033837Y-120555314D01*
X96384261Y-120205500D01*
X102349300Y-120205500D01*
X102665205Y-120142663D01*
X102665206Y-120142663D01*
X102933017Y-119963717D01*
X103275433Y-119621300D01*
X103932130Y-119621300D01*
X103916743Y-119662937D01*
X104889300Y-120635495D01*
X105861857Y-119662937D01*
X105846469Y-119621300D01*
X108903466Y-119621300D01*
X111849866Y-122567700D01*
X106534701Y-122567700D01*
X106534701Y-121079518D01*
X106510641Y-120429723D01*
X106308265Y-119941142D01*
X106041463Y-119842543D01*
X105068905Y-120815100D01*
X106041463Y-121787657D01*
X106308265Y-121689058D01*
X106534701Y-121079518D01*
X106534701Y-122567700D01*
X105861857Y-122567700D01*
X105861857Y-121967263D01*
X104889300Y-120994705D01*
X104709695Y-121174310D01*
X104709695Y-120815100D01*
X103737137Y-119842543D01*
X103470335Y-119941142D01*
X103243899Y-120550682D01*
X103267959Y-121200477D01*
X103470335Y-121689058D01*
X103737137Y-121787657D01*
X104709695Y-120815100D01*
X104709695Y-121174310D01*
X103916743Y-121967263D01*
X104015342Y-122234065D01*
X104624882Y-122460501D01*
X105274677Y-122436441D01*
X105763258Y-122234065D01*
X105861857Y-121967263D01*
X105861857Y-122567700D01*
X96490183Y-122567700D01*
X96647767Y-122124966D01*
X96619805Y-121574462D01*
X96462931Y-121195735D01*
X96221930Y-121127675D01*
X95429605Y-121920000D01*
X95443747Y-121934142D01*
X95264142Y-122113747D01*
X95250000Y-122099605D01*
X95235857Y-122113747D01*
X95056252Y-121934142D01*
X95070395Y-121920000D01*
X94278070Y-121127675D01*
X94037069Y-121195735D01*
X93852233Y-121715034D01*
X93880195Y-122265538D01*
X94005354Y-122567700D01*
X66178733Y-122567700D01*
X61378133Y-117767099D01*
X62102513Y-117042719D01*
X62102517Y-117042717D01*
X62102517Y-117042716D01*
X62204810Y-116889623D01*
X66762640Y-112331793D01*
X67026143Y-112222917D01*
X67289392Y-111960127D01*
X67432038Y-111616599D01*
X67432362Y-111244633D01*
X67290317Y-110900857D01*
X67027527Y-110637608D01*
X66683999Y-110494962D01*
X66312033Y-110494638D01*
X65968257Y-110636683D01*
X65705008Y-110899473D01*
X65594882Y-111164683D01*
X60935083Y-115824483D01*
X60832787Y-115977579D01*
X60832785Y-115977580D01*
X59525866Y-117284500D01*
X56037432Y-117284500D01*
X55996462Y-117185345D01*
X55537073Y-116725154D01*
X54936547Y-116475794D01*
X54286306Y-116475226D01*
X53685345Y-116723538D01*
X53225154Y-117182927D01*
X53182977Y-117284500D01*
X52227432Y-117284500D01*
X52186462Y-117185345D01*
X51727073Y-116725154D01*
X51126547Y-116475794D01*
X50476306Y-116475226D01*
X49875345Y-116723538D01*
X49415154Y-117182927D01*
X49165794Y-117783453D01*
X49165226Y-118433694D01*
X49413538Y-119034655D01*
X49872927Y-119494846D01*
X50473453Y-119744206D01*
X51123694Y-119744774D01*
X51724655Y-119496462D01*
X52184846Y-119037073D01*
X52227022Y-118935500D01*
X53182567Y-118935500D01*
X53223538Y-119034655D01*
X53682927Y-119494846D01*
X54283453Y-119744206D01*
X54933694Y-119744774D01*
X55534655Y-119496462D01*
X55994846Y-119037073D01*
X56037022Y-118935500D01*
X59626500Y-118935500D01*
X59867800Y-118935500D01*
X60211666Y-118935500D01*
X65253083Y-123976917D01*
X65520894Y-124155863D01*
X65520895Y-124155863D01*
X65836800Y-124218700D01*
X136359900Y-124218700D01*
X136675805Y-124155863D01*
X136675806Y-124155863D01*
X136943617Y-123976917D01*
X140499613Y-120420919D01*
X140499616Y-120420917D01*
X140499617Y-120420917D01*
X141985033Y-118935500D01*
X149702567Y-118935500D01*
X149743538Y-119034655D01*
X150202927Y-119494846D01*
X150803453Y-119744206D01*
X151453694Y-119744774D01*
X152054655Y-119496462D01*
X152514846Y-119037073D01*
X152764206Y-118436547D01*
X152764774Y-117786306D01*
X152516462Y-117185345D01*
X152057073Y-116725154D01*
X151456547Y-116475794D01*
X150806306Y-116475226D01*
X150205345Y-116723538D01*
X149745154Y-117182927D01*
X149702977Y-117284500D01*
X141643105Y-117284500D01*
X141643100Y-117284499D01*
X141327195Y-117347337D01*
X141059383Y-117526283D01*
X141059380Y-117526286D01*
X139332183Y-119253483D01*
X139332180Y-119253486D01*
X136017966Y-122567700D01*
X120115633Y-122567700D01*
X122122717Y-120560617D01*
X122301663Y-120292806D01*
X122301663Y-120292805D01*
X122364500Y-119976900D01*
X122364500Y-118193391D01*
X122605268Y-118145500D01*
X123054779Y-117845146D01*
X123157843Y-117690900D01*
X126329500Y-117690900D01*
X126398621Y-117794346D01*
X126848132Y-118094700D01*
X127378367Y-118200170D01*
X128450433Y-118200170D01*
X128980668Y-118094700D01*
X129430179Y-117794346D01*
X129449858Y-117764892D01*
X133083780Y-121398813D01*
X133083783Y-121398817D01*
X133351594Y-121577762D01*
X133351595Y-121577763D01*
X133667500Y-121640600D01*
X136067800Y-121640600D01*
X136383705Y-121577763D01*
X136383706Y-121577763D01*
X136651517Y-121398817D01*
X141185417Y-116864917D01*
X141364363Y-116597106D01*
X141364363Y-116597105D01*
X141364371Y-116597062D01*
X145831863Y-112129570D01*
X146586033Y-112129570D01*
X147116268Y-112024100D01*
X147565779Y-111723746D01*
X147668843Y-111569500D01*
X149073566Y-111569500D01*
X150101780Y-112597713D01*
X150101783Y-112597717D01*
X150262324Y-112704986D01*
X150369594Y-112776663D01*
X150369595Y-112776663D01*
X150685500Y-112839500D01*
X153575156Y-112839500D01*
X153678221Y-112993746D01*
X154112616Y-113284000D01*
X153793300Y-113497360D01*
X149487502Y-113497360D01*
X149481562Y-113482983D01*
X149064294Y-113064986D01*
X148518827Y-112838488D01*
X147928204Y-112837972D01*
X147382343Y-113063518D01*
X146964346Y-113480786D01*
X146737848Y-114026253D01*
X146737332Y-114616876D01*
X146962878Y-115162737D01*
X147380146Y-115580734D01*
X147925613Y-115807232D01*
X148516236Y-115807748D01*
X149062097Y-115582202D01*
X149480094Y-115164934D01*
X149486976Y-115148360D01*
X153420714Y-115148360D01*
X153678221Y-115533746D01*
X154112616Y-115824000D01*
X153678221Y-116114254D01*
X153377867Y-116563765D01*
X153272397Y-117094000D01*
X153377867Y-117624235D01*
X153678221Y-118073746D01*
X154127732Y-118374100D01*
X154657967Y-118479570D01*
X155412136Y-118479570D01*
X157023280Y-120090713D01*
X157023283Y-120090717D01*
X157183824Y-120197986D01*
X157291094Y-120269663D01*
X157291095Y-120269663D01*
X157607000Y-120332500D01*
X161259567Y-120332500D01*
X161300538Y-120431655D01*
X161759927Y-120891846D01*
X162360453Y-121141206D01*
X163010694Y-121141774D01*
X163611655Y-120893462D01*
X164071846Y-120434073D01*
X164114022Y-120332500D01*
X165893000Y-120332500D01*
X166208905Y-120269663D01*
X166208906Y-120269663D01*
X166476717Y-120090717D01*
X167141933Y-119425500D01*
X168173009Y-119425500D01*
X168130375Y-119576470D01*
X168922700Y-120368795D01*
X169715025Y-119576470D01*
X169672390Y-119425500D01*
X172090300Y-119425500D01*
X172406205Y-119362663D01*
X172406206Y-119362663D01*
X172674017Y-119183717D01*
X175906993Y-115950740D01*
X177266600Y-115950740D01*
X177508723Y-115903763D01*
X177721527Y-115763973D01*
X177863977Y-115552940D01*
X177914040Y-115303300D01*
X177914040Y-113576100D01*
X177867063Y-113333977D01*
X177727273Y-113121173D01*
X177516240Y-112978723D01*
X177477637Y-112970981D01*
X177495015Y-112959370D01*
X177557948Y-112865184D01*
X181483000Y-116790236D01*
X181483000Y-116827560D01*
X181356000Y-116827560D01*
X181113877Y-116874537D01*
X180901073Y-117014327D01*
X180758623Y-117225360D01*
X180708560Y-117475000D01*
X180708560Y-119507000D01*
X180755537Y-119749123D01*
X180895327Y-119961927D01*
X181106360Y-120104377D01*
X181356000Y-120154440D01*
X183388000Y-120154440D01*
X183630123Y-120107463D01*
X183842927Y-119967673D01*
X183939836Y-119824106D01*
X183943621Y-119828188D01*
X184529054Y-120096983D01*
X184785000Y-119978367D01*
X184785000Y-118618000D01*
X184765000Y-118618000D01*
X184765000Y-118364000D01*
X184785000Y-118364000D01*
X184785000Y-117003633D01*
X184529054Y-116885017D01*
X183943621Y-117153812D01*
X183939467Y-117158291D01*
X183848673Y-117020073D01*
X183637640Y-116877623D01*
X183388000Y-116827560D01*
X183261000Y-116827560D01*
X183261000Y-116422000D01*
X183193329Y-116081795D01*
X183193329Y-116081794D01*
X183000618Y-115793382D01*
X178478318Y-111271082D01*
X178189906Y-111078371D01*
X177849700Y-111010700D01*
X177609053Y-111010700D01*
X177495015Y-110840030D01*
X177180234Y-110629700D01*
X177495015Y-110419370D01*
X177819871Y-109933189D01*
X177933945Y-109359700D01*
X177819871Y-108786211D01*
X177495015Y-108300030D01*
X177008834Y-107975174D01*
X176435345Y-107861100D01*
X176065855Y-107861100D01*
X175943726Y-107885392D01*
X175069500Y-107011166D01*
X175069500Y-104905882D01*
X175303670Y-104749415D01*
X175514000Y-104434634D01*
X175724330Y-104749415D01*
X176210511Y-105074271D01*
X176784000Y-105188345D01*
X177357489Y-105074271D01*
X177843670Y-104749415D01*
X178168526Y-104263234D01*
X178282600Y-103689745D01*
X178282600Y-103320255D01*
X178168526Y-102746766D01*
X177945397Y-102412830D01*
X179116280Y-103583713D01*
X179116283Y-103583717D01*
X179116284Y-103583717D01*
X179384095Y-103762663D01*
X179700000Y-103825501D01*
X179700000Y-103825500D01*
X179700005Y-103825500D01*
X180866276Y-103825500D01*
X181174500Y-104134261D01*
X181174500Y-108300000D01*
X181237337Y-108615906D01*
X181416283Y-108883717D01*
X181724500Y-109191933D01*
X181724500Y-110086560D01*
X181534000Y-110086560D01*
X181291877Y-110133537D01*
X181079073Y-110273327D01*
X180936623Y-110484360D01*
X180886560Y-110734000D01*
X180886560Y-112766000D01*
X180933537Y-113008123D01*
X181073327Y-113220927D01*
X181284360Y-113363377D01*
X181534000Y-113413440D01*
X183566000Y-113413440D01*
X183808123Y-113366463D01*
X184020927Y-113226673D01*
X184117836Y-113083106D01*
X184121621Y-113087188D01*
X184707054Y-113355983D01*
X184963000Y-113237367D01*
X184963000Y-111877000D01*
X184943000Y-111877000D01*
X184943000Y-111623000D01*
X184963000Y-111623000D01*
X184963000Y-110262633D01*
X184707054Y-110144017D01*
X184121621Y-110412812D01*
X184117467Y-110417291D01*
X184026673Y-110279073D01*
X183815640Y-110136623D01*
X183566000Y-110086560D01*
X183375500Y-110086560D01*
X183375500Y-108850000D01*
X183312663Y-108534095D01*
X183312662Y-108534094D01*
X183133717Y-108266283D01*
X183133713Y-108266280D01*
X182825500Y-107958066D01*
X182825500Y-104133723D01*
X183173944Y-103785887D01*
X183385329Y-103276816D01*
X183385810Y-102725602D01*
X183175314Y-102216163D01*
X182785887Y-101826056D01*
X182276816Y-101614671D01*
X181725602Y-101614190D01*
X181216163Y-101824686D01*
X180865738Y-102174500D01*
X180041933Y-102174500D01*
X177133717Y-99266283D01*
X176865906Y-99087337D01*
X176550000Y-99024500D01*
X175829104Y-99024500D01*
X176009846Y-98844073D01*
X176052022Y-98742500D01*
X178680617Y-98742500D01*
X178826538Y-99095655D01*
X179285927Y-99555846D01*
X179886453Y-99805206D01*
X180536694Y-99805774D01*
X181137655Y-99557462D01*
X181597846Y-99098073D01*
X181847206Y-98497547D01*
X181847774Y-97847306D01*
X181599462Y-97246345D01*
X181140073Y-96786154D01*
X180539547Y-96536794D01*
X179889306Y-96536226D01*
X179288345Y-96784538D01*
X178980847Y-97091500D01*
X176052432Y-97091500D01*
X176011462Y-96992345D01*
X175552073Y-96532154D01*
X174951547Y-96282794D01*
X174301306Y-96282226D01*
X173700345Y-96530538D01*
X173240154Y-96989927D01*
X173197977Y-97091500D01*
X170798774Y-97091500D01*
X170798774Y-87433306D01*
X170550462Y-86832345D01*
X170091073Y-86372154D01*
X169490547Y-86122794D01*
X168889703Y-86122269D01*
X167527717Y-84760283D01*
X167259906Y-84581337D01*
X166944000Y-84518500D01*
X162423723Y-84518500D01*
X162075887Y-84170056D01*
X161566816Y-83958671D01*
X161015602Y-83958190D01*
X160506163Y-84168686D01*
X160116056Y-84558113D01*
X159904671Y-85067184D01*
X159904190Y-85618398D01*
X160114686Y-86127837D01*
X160504113Y-86517944D01*
X161013184Y-86729329D01*
X161564398Y-86729810D01*
X162073837Y-86519314D01*
X162424261Y-86169500D01*
X166602066Y-86169500D01*
X167627563Y-87194997D01*
X167529794Y-87430453D01*
X167529226Y-88080694D01*
X167777538Y-88681655D01*
X168236927Y-89141846D01*
X168837453Y-89391206D01*
X169487694Y-89391774D01*
X170088655Y-89143462D01*
X170548846Y-88684073D01*
X170798206Y-88083547D01*
X170798774Y-87433306D01*
X170798774Y-97091500D01*
X170591432Y-97091500D01*
X170550462Y-96992345D01*
X170091073Y-96532154D01*
X169490547Y-96282794D01*
X168840306Y-96282226D01*
X168239345Y-96530538D01*
X167779154Y-96989927D01*
X167673695Y-97243900D01*
X165932601Y-97243900D01*
X165932601Y-88173818D01*
X165908541Y-87524023D01*
X165706165Y-87035442D01*
X165439363Y-86936843D01*
X165259757Y-87116448D01*
X165259757Y-86757237D01*
X165161158Y-86490435D01*
X164551618Y-86263999D01*
X163901823Y-86288059D01*
X163413242Y-86490435D01*
X163314643Y-86757237D01*
X164287200Y-87729795D01*
X165259757Y-86757237D01*
X165259757Y-87116448D01*
X164466805Y-87909400D01*
X165439363Y-88881957D01*
X165706165Y-88783358D01*
X165932601Y-88173818D01*
X165932601Y-97243900D01*
X165714632Y-97243900D01*
X165673662Y-97144745D01*
X165259757Y-96730117D01*
X165259757Y-89061563D01*
X164287200Y-88089005D01*
X164107595Y-88268610D01*
X164107595Y-87909400D01*
X163135037Y-86936843D01*
X162868235Y-87035442D01*
X162641799Y-87644982D01*
X162665859Y-88294777D01*
X162868235Y-88783358D01*
X163135037Y-88881957D01*
X164107595Y-87909400D01*
X164107595Y-88268610D01*
X163314643Y-89061563D01*
X163413242Y-89328365D01*
X164022782Y-89554801D01*
X164672577Y-89530741D01*
X165161158Y-89328365D01*
X165259757Y-89061563D01*
X165259757Y-96730117D01*
X165214273Y-96684554D01*
X164613747Y-96435194D01*
X163963506Y-96434626D01*
X163362545Y-96682938D01*
X162902354Y-97142327D01*
X162860177Y-97243900D01*
X162511333Y-97243900D01*
X158865810Y-93598376D01*
X158865810Y-85069602D01*
X158655314Y-84560163D01*
X158265887Y-84170056D01*
X157756816Y-83958671D01*
X157205602Y-83958190D01*
X156696163Y-84168686D01*
X156306056Y-84558113D01*
X156094671Y-85067184D01*
X156094190Y-85618398D01*
X156304686Y-86127837D01*
X156694113Y-86517944D01*
X157203184Y-86729329D01*
X157754398Y-86729810D01*
X158263837Y-86519314D01*
X158653944Y-86129887D01*
X158865329Y-85620816D01*
X158865810Y-85069602D01*
X158865810Y-93598376D01*
X154990800Y-89723366D01*
X154990800Y-86293549D01*
X155255055Y-86184362D01*
X155715246Y-85724973D01*
X155964606Y-85124447D01*
X155965174Y-84474206D01*
X155716862Y-83873245D01*
X155257473Y-83413054D01*
X154656947Y-83163694D01*
X154006706Y-83163126D01*
X153405745Y-83411438D01*
X152945554Y-83870827D01*
X152696194Y-84471353D01*
X152695626Y-85121594D01*
X152737625Y-85223240D01*
X152736365Y-85224500D01*
X151957432Y-85224500D01*
X151916462Y-85125345D01*
X151457073Y-84665154D01*
X150856547Y-84415794D01*
X150206306Y-84415226D01*
X149605345Y-84663538D01*
X149145154Y-85122927D01*
X148895794Y-85723453D01*
X148895226Y-86373694D01*
X149143538Y-86974655D01*
X149602927Y-87434846D01*
X150203453Y-87684206D01*
X150853694Y-87684774D01*
X151454655Y-87436462D01*
X151914846Y-86977073D01*
X151957022Y-86875500D01*
X153078300Y-86875500D01*
X153339800Y-86823484D01*
X153339800Y-90065300D01*
X153402637Y-90381206D01*
X153581583Y-90649017D01*
X161585680Y-98653113D01*
X161585683Y-98653117D01*
X161585684Y-98653117D01*
X161853495Y-98832063D01*
X162169400Y-98894901D01*
X162169400Y-98894900D01*
X162169405Y-98894900D01*
X162294266Y-98894900D01*
X160591321Y-100597844D01*
X160612662Y-100565906D01*
X160612663Y-100565905D01*
X160675500Y-100250000D01*
X160675500Y-98600000D01*
X160612663Y-98284095D01*
X160612663Y-98284094D01*
X160540986Y-98176824D01*
X160433717Y-98016283D01*
X160433713Y-98016280D01*
X156791617Y-94374183D01*
X156523806Y-94195237D01*
X156207900Y-94132400D01*
X155757832Y-94132400D01*
X155716862Y-94033245D01*
X155257473Y-93573054D01*
X154656947Y-93323694D01*
X154006706Y-93323126D01*
X153405745Y-93571438D01*
X152945554Y-94030827D01*
X152696194Y-94631353D01*
X152695626Y-95281594D01*
X152943938Y-95882555D01*
X153403327Y-96342746D01*
X154003853Y-96592106D01*
X154654094Y-96592674D01*
X155255055Y-96344362D01*
X155715246Y-95884973D01*
X155757422Y-95783400D01*
X155865966Y-95783400D01*
X159024500Y-98941933D01*
X159024500Y-99908066D01*
X157209774Y-101722792D01*
X157209774Y-98990306D01*
X156961462Y-98389345D01*
X156502073Y-97929154D01*
X155901547Y-97679794D01*
X155251306Y-97679226D01*
X154650345Y-97927538D01*
X154190154Y-98386927D01*
X154147977Y-98488500D01*
X150655933Y-98488500D01*
X145022444Y-92855010D01*
X145022810Y-92435602D01*
X144812314Y-91926163D01*
X144422887Y-91536056D01*
X143913816Y-91324671D01*
X143362602Y-91324190D01*
X142853163Y-91534686D01*
X142463056Y-91924113D01*
X142251671Y-92433184D01*
X142251190Y-92984398D01*
X142461686Y-93493837D01*
X142851113Y-93883944D01*
X143360184Y-94095329D01*
X143911398Y-94095810D01*
X143923412Y-94090845D01*
X149730280Y-99897713D01*
X149730283Y-99897717D01*
X149998094Y-100076662D01*
X149998095Y-100076663D01*
X150314000Y-100139500D01*
X154147567Y-100139500D01*
X154188538Y-100238655D01*
X154647927Y-100698846D01*
X155248453Y-100948206D01*
X155898694Y-100948774D01*
X156499655Y-100700462D01*
X156959846Y-100241073D01*
X157209206Y-99640547D01*
X157209774Y-98990306D01*
X157209774Y-101722792D01*
X156308066Y-102624500D01*
X152400000Y-102624500D01*
X152084095Y-102687337D01*
X151816283Y-102866283D01*
X151816280Y-102866286D01*
X148466283Y-106216283D01*
X148433211Y-106265778D01*
X147948347Y-105780913D01*
X147971603Y-105664000D01*
X147866133Y-105133765D01*
X147565779Y-104684254D01*
X147116268Y-104383900D01*
X146875500Y-104336008D01*
X146875500Y-100058877D01*
X147049206Y-99640547D01*
X147049774Y-98990306D01*
X146801462Y-98389345D01*
X146342073Y-97929154D01*
X145741547Y-97679794D01*
X145091306Y-97679226D01*
X144490345Y-97927538D01*
X144030154Y-98386927D01*
X143780794Y-98987453D01*
X143780226Y-99637694D01*
X144028538Y-100238655D01*
X144487927Y-100698846D01*
X145088453Y-100948206D01*
X145224500Y-100948324D01*
X145224500Y-104336008D01*
X144983732Y-104383900D01*
X144534221Y-104684254D01*
X144233867Y-105133765D01*
X144128397Y-105664000D01*
X144233867Y-106194235D01*
X144534221Y-106643746D01*
X144968616Y-106934000D01*
X144657029Y-107142196D01*
X143852900Y-106338066D01*
X143852900Y-104470200D01*
X143790063Y-104154295D01*
X143790063Y-104154294D01*
X143611117Y-103886483D01*
X141668500Y-101943866D01*
X141668500Y-99979432D01*
X141767655Y-99938462D01*
X142227846Y-99479073D01*
X142477206Y-98878547D01*
X142477774Y-98228306D01*
X142229462Y-97627345D01*
X141770073Y-97167154D01*
X141169547Y-96917794D01*
X140519306Y-96917226D01*
X139918345Y-97165538D01*
X139458154Y-97624927D01*
X139208794Y-98225453D01*
X139208226Y-98875694D01*
X139456538Y-99476655D01*
X139915927Y-99936846D01*
X140017500Y-99979022D01*
X140017500Y-102285800D01*
X140080337Y-102601706D01*
X140259283Y-102869517D01*
X142201900Y-104812134D01*
X142201900Y-106680000D01*
X142264737Y-106995906D01*
X142443683Y-107263717D01*
X143967680Y-108787713D01*
X143967683Y-108787717D01*
X144235494Y-108966662D01*
X144235495Y-108966663D01*
X144412726Y-109001916D01*
X144534221Y-109183746D01*
X144968616Y-109474000D01*
X144534221Y-109764254D01*
X144233867Y-110213765D01*
X144128397Y-110744000D01*
X144233867Y-111274235D01*
X144281317Y-111345249D01*
X140017983Y-115608583D01*
X139839037Y-115876394D01*
X139839028Y-115876437D01*
X138830718Y-116884747D01*
X138887720Y-116598180D01*
X138887720Y-115819930D01*
X138911850Y-115819930D01*
X139153973Y-115772953D01*
X139366777Y-115633163D01*
X139509227Y-115422130D01*
X139559290Y-115172490D01*
X139559290Y-113473230D01*
X139512313Y-113231107D01*
X139372523Y-113018303D01*
X139161490Y-112875853D01*
X138911850Y-112825790D01*
X137212590Y-112825790D01*
X136970467Y-112872767D01*
X136757663Y-113012557D01*
X136615213Y-113223590D01*
X136581405Y-113392172D01*
X134340117Y-111150883D01*
X134072306Y-110971937D01*
X133756400Y-110909100D01*
X129533243Y-110909100D01*
X129430179Y-110754854D01*
X128980668Y-110454500D01*
X128450433Y-110349030D01*
X127378367Y-110349030D01*
X126848132Y-110454500D01*
X126398621Y-110754854D01*
X126098267Y-111204365D01*
X125992797Y-111734600D01*
X126098267Y-112264835D01*
X126398621Y-112714346D01*
X126833016Y-113004600D01*
X126398621Y-113294854D01*
X126261613Y-113499900D01*
X123157843Y-113499900D01*
X123054779Y-113345654D01*
X122620383Y-113055400D01*
X123054779Y-112765146D01*
X123355133Y-112315635D01*
X123460603Y-111785400D01*
X123355133Y-111255165D01*
X123054779Y-110805654D01*
X122605268Y-110505300D01*
X122075033Y-110399830D01*
X121002967Y-110399830D01*
X120472732Y-110505300D01*
X120023221Y-110805654D01*
X119722867Y-111255165D01*
X119617397Y-111785400D01*
X119722867Y-112315635D01*
X120023221Y-112765146D01*
X120457616Y-113055400D01*
X120023221Y-113345654D01*
X119920156Y-113499900D01*
X117589300Y-113499900D01*
X117273395Y-113562737D01*
X117005583Y-113741683D01*
X117005580Y-113741686D01*
X114465583Y-116281683D01*
X114286637Y-116549494D01*
X114223800Y-116865400D01*
X114223800Y-119387667D01*
X114124645Y-119428638D01*
X113664454Y-119888027D01*
X113415094Y-120488553D01*
X113414526Y-121138794D01*
X113662838Y-121739755D01*
X113754023Y-121831100D01*
X113448133Y-121831100D01*
X109829117Y-118212083D01*
X109561306Y-118033137D01*
X109245400Y-117970300D01*
X108704114Y-117970300D01*
X108760355Y-117947062D01*
X109220546Y-117487673D01*
X109469906Y-116887147D01*
X109470474Y-116236906D01*
X109222162Y-115635945D01*
X108762773Y-115175754D01*
X108661200Y-115133577D01*
X108661200Y-112102905D01*
X108661200Y-112102900D01*
X108661201Y-112102900D01*
X108598363Y-111786995D01*
X108598363Y-111786994D01*
X108419417Y-111519183D01*
X105537000Y-108636766D01*
X105537000Y-105243933D01*
X107262152Y-103518780D01*
X107698427Y-103519161D01*
X109754366Y-105575100D01*
X109263132Y-105575100D01*
X109222162Y-105475945D01*
X108762773Y-105015754D01*
X108162247Y-104766394D01*
X107512006Y-104765826D01*
X106911045Y-105014138D01*
X106450854Y-105473527D01*
X106201494Y-106074053D01*
X106200926Y-106724294D01*
X106449238Y-107325255D01*
X106908627Y-107785446D01*
X107509153Y-108034806D01*
X108159394Y-108035374D01*
X108760355Y-107787062D01*
X109220546Y-107327673D01*
X109262722Y-107226100D01*
X110059166Y-107226100D01*
X111036583Y-108203517D01*
X111304394Y-108382463D01*
X111304395Y-108382463D01*
X111620300Y-108445300D01*
X113991317Y-108445300D01*
X114147785Y-108679470D01*
X114633966Y-109004326D01*
X115207455Y-109118400D01*
X115576945Y-109118400D01*
X116150434Y-109004326D01*
X116636615Y-108679470D01*
X116793082Y-108445300D01*
X129413000Y-108445300D01*
X129728905Y-108382463D01*
X129728906Y-108382463D01*
X129996717Y-108203517D01*
X131939334Y-106260900D01*
X132824267Y-106260900D01*
X132865238Y-106360055D01*
X133324627Y-106820246D01*
X133925153Y-107069606D01*
X134567099Y-107070166D01*
X134448283Y-107148217D01*
X134305833Y-107359250D01*
X134255770Y-107608890D01*
X134255770Y-109308150D01*
X134302747Y-109550273D01*
X134442537Y-109763077D01*
X134653570Y-109905527D01*
X134903210Y-109955590D01*
X136602470Y-109955590D01*
X136844593Y-109908613D01*
X137057397Y-109768823D01*
X137199847Y-109557790D01*
X137249910Y-109308150D01*
X137249910Y-109284020D01*
X139310832Y-109284020D01*
X139456538Y-109636655D01*
X139915927Y-110096846D01*
X140516453Y-110346206D01*
X141166694Y-110346774D01*
X141767655Y-110098462D01*
X142227846Y-109639073D01*
X142477206Y-109038547D01*
X142477774Y-108388306D01*
X142229462Y-107787345D01*
X141770073Y-107327154D01*
X141169547Y-107077794D01*
X140519306Y-107077226D01*
X139918345Y-107325538D01*
X139610326Y-107633020D01*
X137745774Y-107633020D01*
X138442217Y-106936577D01*
X138621163Y-106668766D01*
X138621163Y-106668765D01*
X138684000Y-106352860D01*
X138684001Y-106352860D01*
X138684000Y-106352854D01*
X138684000Y-104025700D01*
X138621163Y-103709795D01*
X138621162Y-103709794D01*
X138442217Y-103441983D01*
X138442213Y-103441980D01*
X137985017Y-102984783D01*
X137717206Y-102805837D01*
X137401300Y-102743000D01*
X135229947Y-102743000D01*
X135482005Y-102692863D01*
X135482006Y-102692863D01*
X135749817Y-102513917D01*
X137210317Y-101053417D01*
X137389263Y-100785606D01*
X137389263Y-100785605D01*
X137452100Y-100469700D01*
X137452101Y-100469700D01*
X137452100Y-100469694D01*
X137452100Y-98183705D01*
X137452100Y-98183700D01*
X137452101Y-98183700D01*
X137389263Y-97867795D01*
X137210317Y-97599984D01*
X137210317Y-97599983D01*
X137210313Y-97599980D01*
X135533917Y-95923583D01*
X135266106Y-95744637D01*
X134950200Y-95681800D01*
X134419796Y-95681800D01*
X134998555Y-95442662D01*
X135458746Y-94983273D01*
X135708106Y-94382747D01*
X135708674Y-93732506D01*
X135460362Y-93131545D01*
X135000973Y-92671354D01*
X134899400Y-92629177D01*
X134899400Y-88116833D01*
X138679891Y-91897324D01*
X138653056Y-91924113D01*
X138441671Y-92433184D01*
X138441190Y-92984398D01*
X138651686Y-93493837D01*
X139041113Y-93883944D01*
X139550184Y-94095329D01*
X140101398Y-94095810D01*
X140610837Y-93885314D01*
X141000944Y-93495887D01*
X141212329Y-92986816D01*
X141212810Y-92435602D01*
X141002314Y-91926163D01*
X140612887Y-91536056D01*
X140557590Y-91513094D01*
X140557589Y-91513094D01*
X140410717Y-91293283D01*
X140410713Y-91293280D01*
X133125500Y-84008066D01*
X133125500Y-83483480D01*
X133258655Y-83428462D01*
X133718846Y-82969073D01*
X133968206Y-82368547D01*
X133968774Y-81718306D01*
X133720462Y-81117345D01*
X133261073Y-80657154D01*
X132660547Y-80407794D01*
X132010306Y-80407226D01*
X131409345Y-80655538D01*
X130949154Y-81114927D01*
X130699794Y-81715453D01*
X130699226Y-82365694D01*
X130947538Y-82966655D01*
X131406927Y-83426846D01*
X131474500Y-83454904D01*
X131474500Y-83863166D01*
X127597549Y-79986215D01*
X127787433Y-79702035D01*
X127892903Y-79171800D01*
X127787433Y-78641565D01*
X127487079Y-78192054D01*
X127052683Y-77901800D01*
X127487079Y-77611546D01*
X127590143Y-77457300D01*
X134444898Y-77457300D01*
X134444901Y-77457300D01*
X134536400Y-77475501D01*
X134536400Y-77475500D01*
X134536405Y-77475500D01*
X136075000Y-77475500D01*
X136390905Y-77412663D01*
X136390906Y-77412663D01*
X136658717Y-77233717D01*
X139355053Y-74537380D01*
X139847398Y-74537810D01*
X140356837Y-74327314D01*
X140746944Y-73937887D01*
X140958329Y-73428816D01*
X140958810Y-72877602D01*
X140748314Y-72368163D01*
X140506073Y-72125500D01*
X147669697Y-72125500D01*
X147657675Y-72168070D01*
X148450000Y-72960395D01*
X149242325Y-72168070D01*
X149230302Y-72125500D01*
X154608066Y-72125500D01*
X156003482Y-73520915D01*
X155965162Y-73613201D01*
X155964838Y-73985167D01*
X156063728Y-74224500D01*
X154650000Y-74224500D01*
X154334095Y-74287337D01*
X154278476Y-74324500D01*
X149847767Y-74324500D01*
X149847767Y-73344966D01*
X149819805Y-72794462D01*
X149662931Y-72415735D01*
X149421930Y-72347675D01*
X148629605Y-73140000D01*
X149421930Y-73932325D01*
X149662931Y-73864265D01*
X149847767Y-73344966D01*
X149847767Y-74324500D01*
X149182294Y-74324500D01*
X149242325Y-74111930D01*
X148450000Y-73319605D01*
X148270395Y-73499210D01*
X148270395Y-73140000D01*
X147478070Y-72347675D01*
X147237069Y-72415735D01*
X147052233Y-72935034D01*
X147080195Y-73485538D01*
X147237069Y-73864265D01*
X147478070Y-73932325D01*
X148270395Y-73140000D01*
X148270395Y-73499210D01*
X147657675Y-74111930D01*
X147717705Y-74324500D01*
X145400000Y-74324500D01*
X145084094Y-74387337D01*
X144976824Y-74459013D01*
X144816283Y-74566283D01*
X144816280Y-74566286D01*
X140970767Y-78411799D01*
X140970767Y-77166966D01*
X140942805Y-76616462D01*
X140785931Y-76237735D01*
X140544930Y-76169675D01*
X140365325Y-76349280D01*
X140365325Y-75990070D01*
X140297265Y-75749069D01*
X139777966Y-75564233D01*
X139227462Y-75592195D01*
X138848735Y-75749069D01*
X138780675Y-75990070D01*
X139573000Y-76782395D01*
X140365325Y-75990070D01*
X140365325Y-76349280D01*
X139752605Y-76962000D01*
X140544930Y-77754325D01*
X140785931Y-77686265D01*
X140970767Y-77166966D01*
X140970767Y-78411799D01*
X140758066Y-78624500D01*
X140365325Y-78624500D01*
X140365325Y-77933930D01*
X139573000Y-77141605D01*
X139393395Y-77321210D01*
X139393395Y-76962000D01*
X138601070Y-76169675D01*
X138360069Y-76237735D01*
X138175233Y-76757034D01*
X138203195Y-77307538D01*
X138360069Y-77686265D01*
X138601070Y-77754325D01*
X139393395Y-76962000D01*
X139393395Y-77321210D01*
X138780675Y-77933930D01*
X138848735Y-78174931D01*
X139368034Y-78359767D01*
X139918538Y-78331805D01*
X140297265Y-78174931D01*
X140365325Y-77933930D01*
X140365325Y-78624500D01*
X130450005Y-78624500D01*
X130450000Y-78624499D01*
X130134095Y-78687337D01*
X129866283Y-78866283D01*
X129866280Y-78866286D01*
X129334560Y-79398005D01*
X129071057Y-79506883D01*
X128807808Y-79769673D01*
X128665162Y-80113201D01*
X128664838Y-80485167D01*
X128806883Y-80828943D01*
X129069673Y-81092192D01*
X129413201Y-81234838D01*
X129785167Y-81235162D01*
X130128943Y-81093117D01*
X130392192Y-80830327D01*
X130502317Y-80565115D01*
X130791933Y-80275500D01*
X141100000Y-80275500D01*
X141415905Y-80212663D01*
X141415906Y-80212663D01*
X141683717Y-80033717D01*
X145741933Y-75975500D01*
X147464998Y-75975500D01*
X147276056Y-76164113D01*
X147064671Y-76673184D01*
X147064238Y-77168327D01*
X146358066Y-77874500D01*
X144650005Y-77874500D01*
X144650000Y-77874499D01*
X144334095Y-77937337D01*
X144066283Y-78116283D01*
X144066280Y-78116286D01*
X141458066Y-80724500D01*
X138900005Y-80724500D01*
X138900000Y-80724499D01*
X138584095Y-80787337D01*
X138316283Y-80966283D01*
X138316280Y-80966286D01*
X136476803Y-82805763D01*
X136297857Y-83073574D01*
X136269111Y-83218091D01*
X136269110Y-83218091D01*
X136220643Y-83238118D01*
X135802646Y-83655386D01*
X135576148Y-84200853D01*
X135575632Y-84791476D01*
X135801178Y-85337337D01*
X136218446Y-85755334D01*
X136763913Y-85981832D01*
X137354536Y-85982348D01*
X137900397Y-85756802D01*
X138318394Y-85339534D01*
X138544892Y-84794067D01*
X138545408Y-84203444D01*
X138319862Y-83657583D01*
X138140013Y-83477420D01*
X139241933Y-82375500D01*
X141800000Y-82375500D01*
X142115905Y-82312663D01*
X142115906Y-82312663D01*
X142383717Y-82133717D01*
X144991933Y-79525500D01*
X146700000Y-79525500D01*
X147015905Y-79462663D01*
X147015906Y-79462663D01*
X147283717Y-79283717D01*
X148232053Y-78335380D01*
X148724398Y-78335810D01*
X149233837Y-78125314D01*
X149584261Y-77775500D01*
X164000000Y-77775500D01*
X164315905Y-77712663D01*
X164315906Y-77712663D01*
X164583717Y-77533717D01*
X165115439Y-77001994D01*
X165378943Y-76893117D01*
X165642192Y-76630327D01*
X165784838Y-76286799D01*
X165785162Y-75914833D01*
X165768909Y-75875500D01*
X166258066Y-75875500D01*
X167576500Y-77193934D01*
X167576500Y-77847117D01*
X167342330Y-78003585D01*
X167331784Y-78019367D01*
X167326063Y-77989877D01*
X167186273Y-77777073D01*
X166975240Y-77634623D01*
X166725600Y-77584560D01*
X164998400Y-77584560D01*
X164756277Y-77631537D01*
X164543473Y-77771327D01*
X164401023Y-77982360D01*
X164350960Y-78232000D01*
X164350960Y-78422500D01*
X157252005Y-78422500D01*
X157252000Y-78422499D01*
X156936095Y-78485337D01*
X156817110Y-78564839D01*
X156814833Y-78564838D01*
X156471057Y-78706883D01*
X156207808Y-78969673D01*
X156065162Y-79313201D01*
X156064838Y-79685167D01*
X156206883Y-80028943D01*
X156469673Y-80292192D01*
X156813201Y-80434838D01*
X157185167Y-80435162D01*
X157528943Y-80293117D01*
X157748943Y-80073500D01*
X164350960Y-80073500D01*
X164350960Y-80264000D01*
X164397937Y-80506123D01*
X164537727Y-80718927D01*
X164748760Y-80861377D01*
X164998400Y-80911440D01*
X166725600Y-80911440D01*
X166967723Y-80864463D01*
X167180527Y-80724673D01*
X167322977Y-80513640D01*
X167330718Y-80475037D01*
X167342330Y-80492415D01*
X167828511Y-80817271D01*
X168142782Y-80879783D01*
X167798066Y-81224500D01*
X145350000Y-81224500D01*
X145034094Y-81287337D01*
X144926824Y-81359013D01*
X144766283Y-81466283D01*
X144766280Y-81466286D01*
X141432124Y-84800441D01*
X141297073Y-84665154D01*
X140696547Y-84415794D01*
X140046306Y-84415226D01*
X139445345Y-84663538D01*
X138985154Y-85122927D01*
X138735794Y-85723453D01*
X138735226Y-86373694D01*
X138983538Y-86974655D01*
X139442927Y-87434846D01*
X140043453Y-87684206D01*
X140693694Y-87684774D01*
X141294655Y-87436462D01*
X141754846Y-86977073D01*
X141883481Y-86667283D01*
X141933717Y-86633717D01*
X145691933Y-82875500D01*
X168140000Y-82875500D01*
X168455905Y-82812663D01*
X168455906Y-82812663D01*
X168723717Y-82633717D01*
X170511683Y-80845749D01*
X170942000Y-80931345D01*
X171515489Y-80817271D01*
X172001670Y-80492415D01*
X172326526Y-80006234D01*
X172440600Y-79432745D01*
X172440600Y-79063255D01*
X172326526Y-78489766D01*
X172001670Y-78003585D01*
X171515489Y-77678729D01*
X170942000Y-77564655D01*
X170368511Y-77678729D01*
X169882330Y-78003585D01*
X169672000Y-78318365D01*
X169461670Y-78003585D01*
X169227500Y-77847117D01*
X169227500Y-77089933D01*
X170065040Y-76252392D01*
X170064838Y-76485167D01*
X170206883Y-76828943D01*
X170469673Y-77092192D01*
X170813201Y-77234838D01*
X171185167Y-77235162D01*
X171450569Y-77125500D01*
X171608066Y-77125500D01*
X175457280Y-80974713D01*
X175457283Y-80974717D01*
X175457284Y-80974717D01*
X175725095Y-81153663D01*
X176041000Y-81216501D01*
X176041000Y-81216500D01*
X176041005Y-81216500D01*
X179438560Y-81216500D01*
X179438560Y-81407000D01*
X179485537Y-81649123D01*
X179625327Y-81861927D01*
X179836360Y-82004377D01*
X180086000Y-82054440D01*
X182118000Y-82054440D01*
X182360123Y-82007463D01*
X182572927Y-81867673D01*
X182669836Y-81724106D01*
X182673621Y-81728188D01*
X183259054Y-81996983D01*
X183515000Y-81878367D01*
X183515000Y-80518000D01*
X183495000Y-80518000D01*
X183495000Y-80264000D01*
X183515000Y-80264000D01*
X183515000Y-78903633D01*
X183259054Y-78785017D01*
X182673621Y-79053812D01*
X182669467Y-79058291D01*
X182578673Y-78920073D01*
X182367640Y-78777623D01*
X182118000Y-78727560D01*
X180086000Y-78727560D01*
X179843877Y-78774537D01*
X179631073Y-78914327D01*
X179488623Y-79125360D01*
X179438560Y-79375000D01*
X179438560Y-79565500D01*
X176382933Y-79565500D01*
X172533717Y-75716283D01*
X172265906Y-75537337D01*
X171950000Y-75474500D01*
X171450112Y-75474500D01*
X171186799Y-75365162D01*
X170814833Y-75364838D01*
X170537947Y-75479244D01*
X170548300Y-75427200D01*
X170548300Y-74387782D01*
X170782470Y-74231315D01*
X171107326Y-73745134D01*
X171221400Y-73171645D01*
X171221400Y-72802155D01*
X171107326Y-72228666D01*
X170782470Y-71742485D01*
X170296289Y-71417629D01*
X169982016Y-71355116D01*
X170061633Y-71275500D01*
X171858066Y-71275500D01*
X173016283Y-72433717D01*
X174572280Y-73989713D01*
X174572283Y-73989717D01*
X174732824Y-74096986D01*
X174840094Y-74168663D01*
X174840095Y-74168663D01*
X175156000Y-74231500D01*
X179057560Y-74231500D01*
X179057560Y-74422000D01*
X179104537Y-74664123D01*
X179244327Y-74876927D01*
X179455360Y-75019377D01*
X179705000Y-75069440D01*
X181737000Y-75069440D01*
X181979123Y-75022463D01*
X182191927Y-74882673D01*
X182288836Y-74739106D01*
X182292621Y-74743188D01*
X182878054Y-75011983D01*
X183134000Y-74893367D01*
X183134000Y-73533000D01*
X183114000Y-73533000D01*
X183114000Y-73279000D01*
X183134000Y-73279000D01*
X183134000Y-71918633D01*
X182878054Y-71800017D01*
X182292621Y-72068812D01*
X182288467Y-72073291D01*
X182197673Y-71935073D01*
X181986640Y-71792623D01*
X181737000Y-71742560D01*
X179705000Y-71742560D01*
X179462877Y-71789537D01*
X179250073Y-71929327D01*
X179107623Y-72140360D01*
X179057560Y-72390000D01*
X179057560Y-72580500D01*
X175497933Y-72580500D01*
X174284401Y-71366967D01*
X174284400Y-71366966D01*
X174183717Y-71216283D01*
X171083717Y-68116283D01*
X170815906Y-67937337D01*
X170500000Y-67874500D01*
X115200000Y-67874500D01*
X114884094Y-67937337D01*
X114616283Y-68116283D01*
X111512833Y-71219733D01*
X111333887Y-71487544D01*
X111271050Y-71803450D01*
X111271050Y-77665284D01*
X111213900Y-77952600D01*
X111213900Y-79959200D01*
X111276737Y-80275106D01*
X111455683Y-80542917D01*
X114173000Y-83260233D01*
X114173000Y-84328966D01*
X112146768Y-86355198D01*
X112273852Y-86049147D01*
X112274368Y-85458524D01*
X112048822Y-84912663D01*
X111631554Y-84494666D01*
X111086087Y-84268168D01*
X110495464Y-84267652D01*
X109949603Y-84493198D01*
X109531606Y-84910466D01*
X109524723Y-84927040D01*
X108956494Y-84927040D01*
X108624110Y-84594656D01*
X108624110Y-83415390D01*
X108577133Y-83173267D01*
X108437343Y-82960463D01*
X108226310Y-82818013D01*
X107976670Y-82767950D01*
X106797404Y-82767950D01*
X105537000Y-81507546D01*
X105537000Y-63627000D01*
X190373000Y-63627000D01*
X190373000Y-126873000D01*
X190373000Y-126873000D01*
G37*
X190373000Y-126873000D02*
X189357462Y-126873000D01*
X189357462Y-122661828D01*
X189357462Y-66781828D01*
X188952291Y-65801239D01*
X188202707Y-65050345D01*
X187222827Y-64643464D01*
X186161828Y-64642538D01*
X185181239Y-65047709D01*
X184430345Y-65797293D01*
X184023464Y-66777173D01*
X184022538Y-67838172D01*
X184427709Y-68818761D01*
X185177293Y-69569655D01*
X186157173Y-69976536D01*
X187218172Y-69977462D01*
X188198761Y-69572291D01*
X188949655Y-68822707D01*
X189356536Y-67842827D01*
X189357462Y-66781828D01*
X189357462Y-122661828D01*
X188952291Y-121681239D01*
X188202707Y-120930345D01*
X187222827Y-120523464D01*
X187207767Y-120523450D01*
X187207767Y-103204966D01*
X187179805Y-102654462D01*
X187022931Y-102275735D01*
X186781930Y-102207675D01*
X186602325Y-102387280D01*
X186602325Y-102028070D01*
X186534265Y-101787069D01*
X186341345Y-101718402D01*
X186341345Y-91059000D01*
X186215670Y-90427190D01*
X185991034Y-90090998D01*
X186033698Y-90073327D01*
X186212327Y-89894699D01*
X186309000Y-89661310D01*
X186309000Y-89408691D01*
X186309000Y-88804750D01*
X186309000Y-88233250D01*
X186309000Y-87629309D01*
X186309000Y-87376690D01*
X186212327Y-87143301D01*
X186033698Y-86964673D01*
X185800309Y-86868000D01*
X185247975Y-86868000D01*
X185247975Y-80773944D01*
X185247975Y-80008056D01*
X185048385Y-79526182D01*
X184866975Y-79330539D01*
X184866975Y-73788944D01*
X184866975Y-73023056D01*
X184667385Y-72541182D01*
X184229379Y-72068812D01*
X183643946Y-71800017D01*
X183388000Y-71918633D01*
X183388000Y-73279000D01*
X184747836Y-73279000D01*
X184866975Y-73023056D01*
X184866975Y-73788944D01*
X184747836Y-73533000D01*
X183388000Y-73533000D01*
X183388000Y-74893367D01*
X183643946Y-75011983D01*
X184229379Y-74743188D01*
X184667385Y-74270818D01*
X184866975Y-73788944D01*
X184866975Y-79330539D01*
X184610379Y-79053812D01*
X184024946Y-78785017D01*
X183769000Y-78903633D01*
X183769000Y-80264000D01*
X185128836Y-80264000D01*
X185247975Y-80008056D01*
X185247975Y-80773944D01*
X185128836Y-80518000D01*
X183769000Y-80518000D01*
X183769000Y-81878367D01*
X184024946Y-81996983D01*
X184610379Y-81728188D01*
X185048385Y-81255818D01*
X185247975Y-80773944D01*
X185247975Y-86868000D01*
X184943750Y-86868000D01*
X184785000Y-87026750D01*
X184785000Y-88392000D01*
X186150250Y-88392000D01*
X186309000Y-88233250D01*
X186309000Y-88804750D01*
X186150250Y-88646000D01*
X184785000Y-88646000D01*
X184785000Y-88666000D01*
X184531000Y-88666000D01*
X184531000Y-88646000D01*
X184531000Y-88392000D01*
X184531000Y-87026750D01*
X184372250Y-86868000D01*
X183515691Y-86868000D01*
X183282302Y-86964673D01*
X183103673Y-87143301D01*
X183007000Y-87376690D01*
X183007000Y-87629309D01*
X183007000Y-88233250D01*
X183165750Y-88392000D01*
X184531000Y-88392000D01*
X184531000Y-88646000D01*
X183165750Y-88646000D01*
X183007000Y-88804750D01*
X183007000Y-89408691D01*
X183007000Y-89661310D01*
X183103673Y-89894699D01*
X183282302Y-90073327D01*
X183324965Y-90090998D01*
X183258261Y-90190828D01*
X181717455Y-88650021D01*
X181847206Y-88337547D01*
X181847774Y-87687306D01*
X181599462Y-87086345D01*
X181140073Y-86626154D01*
X180539547Y-86376794D01*
X179889306Y-86376226D01*
X179288345Y-86624538D01*
X178980847Y-86931500D01*
X176052432Y-86931500D01*
X176011462Y-86832345D01*
X175552073Y-86372154D01*
X174951547Y-86122794D01*
X174301306Y-86122226D01*
X173700345Y-86370538D01*
X173240154Y-86829927D01*
X172990794Y-87430453D01*
X172990226Y-88080694D01*
X173238538Y-88681655D01*
X173697927Y-89141846D01*
X174298453Y-89391206D01*
X174948694Y-89391774D01*
X175549655Y-89143462D01*
X176009846Y-88684073D01*
X176052022Y-88582500D01*
X178680617Y-88582500D01*
X178826538Y-88935655D01*
X179285927Y-89395846D01*
X179886453Y-89645206D01*
X180378201Y-89645635D01*
X182375280Y-91642713D01*
X182375283Y-91642717D01*
X182643094Y-91821662D01*
X182643095Y-91821663D01*
X182959000Y-91884500D01*
X183229749Y-91884500D01*
X183458222Y-92226433D01*
X183993845Y-92584325D01*
X184625655Y-92710000D01*
X184690345Y-92710000D01*
X185322155Y-92584325D01*
X185857778Y-92226433D01*
X186215670Y-91690810D01*
X186341345Y-91059000D01*
X186341345Y-101718402D01*
X186014966Y-101602233D01*
X185464462Y-101630195D01*
X185085735Y-101787069D01*
X185017675Y-102028070D01*
X185810000Y-102820395D01*
X186602325Y-102028070D01*
X186602325Y-102387280D01*
X185989605Y-103000000D01*
X186781930Y-103792325D01*
X187022931Y-103724265D01*
X187207767Y-103204966D01*
X187207767Y-120523450D01*
X186695975Y-120523004D01*
X186695975Y-112132944D01*
X186695975Y-111367056D01*
X186602325Y-111140954D01*
X186602325Y-103971930D01*
X185810000Y-103179605D01*
X185630395Y-103359210D01*
X185630395Y-103000000D01*
X184838070Y-102207675D01*
X184597069Y-102275735D01*
X184412233Y-102795034D01*
X184440195Y-103345538D01*
X184597069Y-103724265D01*
X184838070Y-103792325D01*
X185630395Y-103000000D01*
X185630395Y-103359210D01*
X185017675Y-103971930D01*
X185085735Y-104212931D01*
X185605034Y-104397767D01*
X186155538Y-104369805D01*
X186534265Y-104212931D01*
X186602325Y-103971930D01*
X186602325Y-111140954D01*
X186496385Y-110885182D01*
X186058379Y-110412812D01*
X185472946Y-110144017D01*
X185217000Y-110262633D01*
X185217000Y-111623000D01*
X186576836Y-111623000D01*
X186695975Y-111367056D01*
X186695975Y-112132944D01*
X186576836Y-111877000D01*
X185217000Y-111877000D01*
X185217000Y-113237367D01*
X185472946Y-113355983D01*
X186058379Y-113087188D01*
X186496385Y-112614818D01*
X186695975Y-112132944D01*
X186695975Y-120523004D01*
X186517975Y-120522848D01*
X186517975Y-118873944D01*
X186517975Y-118108056D01*
X186318385Y-117626182D01*
X185880379Y-117153812D01*
X185294946Y-116885017D01*
X185039000Y-117003633D01*
X185039000Y-118364000D01*
X186398836Y-118364000D01*
X186517975Y-118108056D01*
X186517975Y-118873944D01*
X186398836Y-118618000D01*
X185039000Y-118618000D01*
X185039000Y-119978367D01*
X185294946Y-120096983D01*
X185880379Y-119828188D01*
X186318385Y-119355818D01*
X186517975Y-118873944D01*
X186517975Y-120522848D01*
X186161828Y-120522538D01*
X185181239Y-120927709D01*
X184430345Y-121677293D01*
X184023464Y-122657173D01*
X184022538Y-123718172D01*
X184427709Y-124698761D01*
X185177293Y-125449655D01*
X186157173Y-125856536D01*
X187218172Y-125857462D01*
X188198761Y-125452291D01*
X188949655Y-124702707D01*
X189356536Y-123722827D01*
X189357462Y-122661828D01*
X189357462Y-126873000D01*
X170320467Y-126873000D01*
X170320467Y-120753366D01*
X170292505Y-120202862D01*
X170135631Y-119824135D01*
X169894630Y-119756075D01*
X169102305Y-120548400D01*
X169894630Y-121340725D01*
X170135631Y-121272665D01*
X170320467Y-120753366D01*
X170320467Y-126873000D01*
X169715025Y-126873000D01*
X169715025Y-121520330D01*
X168922700Y-120728005D01*
X168743095Y-120907610D01*
X168743095Y-120548400D01*
X167950770Y-119756075D01*
X167709769Y-119824135D01*
X167524933Y-120343434D01*
X167552895Y-120893938D01*
X167709769Y-121272665D01*
X167950770Y-121340725D01*
X168743095Y-120548400D01*
X168743095Y-120907610D01*
X168130375Y-121520330D01*
X168198435Y-121761331D01*
X168717734Y-121946167D01*
X169268238Y-121918205D01*
X169646965Y-121761331D01*
X169715025Y-121520330D01*
X169715025Y-126873000D01*
X48375810Y-126873000D01*
X48375810Y-110215602D01*
X48165314Y-109706163D01*
X47815500Y-109355738D01*
X47815500Y-105410000D01*
X47752663Y-105094095D01*
X47752663Y-105094094D01*
X47680986Y-104986824D01*
X47573717Y-104826283D01*
X47573713Y-104826280D01*
X47313063Y-104565629D01*
X47354206Y-104466547D01*
X47354774Y-103816306D01*
X47106462Y-103215345D01*
X46647073Y-102755154D01*
X46046547Y-102505794D01*
X45396306Y-102505226D01*
X44795345Y-102753538D01*
X44335154Y-103212927D01*
X44085794Y-103813453D01*
X44085226Y-104463694D01*
X44333538Y-105064655D01*
X44792927Y-105524846D01*
X45393453Y-105774206D01*
X46043694Y-105774774D01*
X46145341Y-105732774D01*
X46164500Y-105751933D01*
X46164500Y-109356276D01*
X45855738Y-109664500D01*
X43337432Y-109664500D01*
X43296462Y-109565345D01*
X42837073Y-109105154D01*
X42236547Y-108855794D01*
X41586306Y-108855226D01*
X40985345Y-109103538D01*
X40525154Y-109562927D01*
X40275794Y-110163453D01*
X40275226Y-110813694D01*
X40523538Y-111414655D01*
X40982927Y-111874846D01*
X41583453Y-112124206D01*
X42233694Y-112124774D01*
X42834655Y-111876462D01*
X43294846Y-111417073D01*
X43337022Y-111315500D01*
X45856276Y-111315500D01*
X46204113Y-111663944D01*
X46713184Y-111875329D01*
X47264398Y-111875810D01*
X47773837Y-111665314D01*
X48163944Y-111275887D01*
X48375329Y-110766816D01*
X48375810Y-110215602D01*
X48375810Y-126873000D01*
X42274774Y-126873000D01*
X42274774Y-117786306D01*
X42026462Y-117185345D01*
X41567073Y-116725154D01*
X40966547Y-116475794D01*
X40316306Y-116475226D01*
X40214659Y-116517225D01*
X39953717Y-116256283D01*
X39685906Y-116077337D01*
X39370000Y-116014500D01*
X38633400Y-116014500D01*
X38633400Y-103445310D01*
X38633400Y-101346000D01*
X38633400Y-101092000D01*
X38633400Y-98992690D01*
X38474650Y-98833940D01*
X37808727Y-98833940D01*
X37870418Y-98808387D01*
X38049047Y-98629759D01*
X38145720Y-98396370D01*
X38145720Y-98143751D01*
X38145720Y-96805750D01*
X38145720Y-96234250D01*
X38145720Y-94896249D01*
X38145720Y-94643630D01*
X38049047Y-94410241D01*
X37870418Y-94231613D01*
X37637029Y-94134940D01*
X36046410Y-94134940D01*
X35887660Y-94293690D01*
X35887660Y-96393000D01*
X37986970Y-96393000D01*
X38145720Y-96234250D01*
X38145720Y-96805750D01*
X37986970Y-96647000D01*
X35887660Y-96647000D01*
X35887660Y-98746310D01*
X36046410Y-98905060D01*
X36712332Y-98905060D01*
X36650642Y-98930613D01*
X36472013Y-99109241D01*
X36375340Y-99342630D01*
X36375340Y-99595249D01*
X36375340Y-100933250D01*
X36534090Y-101092000D01*
X38633400Y-101092000D01*
X38633400Y-101346000D01*
X36534090Y-101346000D01*
X36375340Y-101504750D01*
X36375340Y-102842751D01*
X36375340Y-103095370D01*
X36472013Y-103328759D01*
X36650642Y-103507387D01*
X36884031Y-103604060D01*
X38474650Y-103604060D01*
X38633400Y-103445310D01*
X38633400Y-116014500D01*
X37963723Y-116014500D01*
X37615887Y-115666056D01*
X37106816Y-115454671D01*
X36555602Y-115454190D01*
X36046163Y-115664686D01*
X35656056Y-116054113D01*
X35633660Y-116108048D01*
X35633660Y-98746310D01*
X35633660Y-96647000D01*
X35633660Y-96393000D01*
X35633660Y-94293690D01*
X35474910Y-94134940D01*
X33884291Y-94134940D01*
X33650902Y-94231613D01*
X33472273Y-94410241D01*
X33375600Y-94643630D01*
X33375600Y-94896249D01*
X33375600Y-96234250D01*
X33534350Y-96393000D01*
X35633660Y-96393000D01*
X35633660Y-96647000D01*
X33534350Y-96647000D01*
X33375600Y-96805750D01*
X33375600Y-98143751D01*
X33375600Y-98396370D01*
X33472273Y-98629759D01*
X33650902Y-98808387D01*
X33884291Y-98905060D01*
X35474910Y-98905060D01*
X35633660Y-98746310D01*
X35633660Y-116108048D01*
X35444671Y-116563184D01*
X35444190Y-117114398D01*
X35654686Y-117623837D01*
X36044113Y-118013944D01*
X36553184Y-118225329D01*
X37104398Y-118225810D01*
X37613837Y-118015314D01*
X37964261Y-117665500D01*
X39028066Y-117665500D01*
X39046936Y-117684370D01*
X39005794Y-117783453D01*
X39005226Y-118433694D01*
X39253538Y-119034655D01*
X39712927Y-119494846D01*
X40313453Y-119744206D01*
X40963694Y-119744774D01*
X41564655Y-119496462D01*
X42024846Y-119037073D01*
X42274206Y-118436547D01*
X42274774Y-117786306D01*
X42274774Y-126873000D01*
X34417767Y-126873000D01*
X34417767Y-117044966D01*
X34389805Y-116494462D01*
X34232931Y-116115735D01*
X33991930Y-116047675D01*
X33812325Y-116227280D01*
X33812325Y-115868070D01*
X33744265Y-115627069D01*
X33395401Y-115502896D01*
X33395401Y-110754418D01*
X33395401Y-106944418D01*
X33371341Y-106294623D01*
X33168965Y-105806042D01*
X33147462Y-105798095D01*
X33147462Y-66781828D01*
X32742291Y-65801239D01*
X31992707Y-65050345D01*
X31012827Y-64643464D01*
X29951828Y-64642538D01*
X28971239Y-65047709D01*
X28220345Y-65797293D01*
X27813464Y-66777173D01*
X27812538Y-67838172D01*
X28217709Y-68818761D01*
X28967293Y-69569655D01*
X29947173Y-69976536D01*
X31008172Y-69977462D01*
X31988761Y-69572291D01*
X32739655Y-68822707D01*
X33146536Y-67842827D01*
X33147462Y-66781828D01*
X33147462Y-105798095D01*
X32902163Y-105707443D01*
X32722557Y-105887048D01*
X32722557Y-105527837D01*
X32623958Y-105261035D01*
X32014418Y-105034599D01*
X31364623Y-105058659D01*
X30876042Y-105261035D01*
X30777443Y-105527837D01*
X31750000Y-106500395D01*
X32722557Y-105527837D01*
X32722557Y-105887048D01*
X31929605Y-106680000D01*
X32902163Y-107652557D01*
X33168965Y-107553958D01*
X33395401Y-106944418D01*
X33395401Y-110754418D01*
X33371341Y-110104623D01*
X33168965Y-109616042D01*
X32902163Y-109517443D01*
X32722557Y-109697048D01*
X32722557Y-109337837D01*
X32722557Y-107832163D01*
X31750000Y-106859605D01*
X31570395Y-107039210D01*
X31570395Y-106680000D01*
X30597837Y-105707443D01*
X30331035Y-105806042D01*
X30104599Y-106415582D01*
X30128659Y-107065377D01*
X30331035Y-107553958D01*
X30597837Y-107652557D01*
X31570395Y-106680000D01*
X31570395Y-107039210D01*
X30777443Y-107832163D01*
X30876042Y-108098965D01*
X31485582Y-108325401D01*
X32135377Y-108301341D01*
X32623958Y-108098965D01*
X32722557Y-107832163D01*
X32722557Y-109337837D01*
X32623958Y-109071035D01*
X32014418Y-108844599D01*
X31364623Y-108868659D01*
X30876042Y-109071035D01*
X30777443Y-109337837D01*
X31750000Y-110310395D01*
X32722557Y-109337837D01*
X32722557Y-109697048D01*
X31929605Y-110490000D01*
X32902163Y-111462557D01*
X33168965Y-111363958D01*
X33395401Y-110754418D01*
X33395401Y-115502896D01*
X33224966Y-115442233D01*
X32722557Y-115467752D01*
X32722557Y-111642163D01*
X31750000Y-110669605D01*
X31570395Y-110849210D01*
X31570395Y-110490000D01*
X30597837Y-109517443D01*
X30331035Y-109616042D01*
X30104599Y-110225582D01*
X30128659Y-110875377D01*
X30331035Y-111363958D01*
X30597837Y-111462557D01*
X31570395Y-110490000D01*
X31570395Y-110849210D01*
X30777443Y-111642163D01*
X30876042Y-111908965D01*
X31485582Y-112135401D01*
X32135377Y-112111341D01*
X32623958Y-111908965D01*
X32722557Y-111642163D01*
X32722557Y-115467752D01*
X32674462Y-115470195D01*
X32295735Y-115627069D01*
X32227675Y-115868070D01*
X33020000Y-116660395D01*
X33812325Y-115868070D01*
X33812325Y-116227280D01*
X33199605Y-116840000D01*
X33991930Y-117632325D01*
X34232931Y-117564265D01*
X34417767Y-117044966D01*
X34417767Y-126873000D01*
X33812325Y-126873000D01*
X33812325Y-117811930D01*
X33020000Y-117019605D01*
X32840395Y-117199210D01*
X32840395Y-116840000D01*
X32048070Y-116047675D01*
X31807069Y-116115735D01*
X31622233Y-116635034D01*
X31650195Y-117185538D01*
X31807069Y-117564265D01*
X32048070Y-117632325D01*
X32840395Y-116840000D01*
X32840395Y-117199210D01*
X32227675Y-117811930D01*
X32295735Y-118052931D01*
X32815034Y-118237767D01*
X33365538Y-118209805D01*
X33744265Y-118052931D01*
X33812325Y-117811930D01*
X33812325Y-126873000D01*
X33147462Y-126873000D01*
X33147462Y-122661828D01*
X32742291Y-121681239D01*
X31992707Y-120930345D01*
X31012827Y-120523464D01*
X29951828Y-120522538D01*
X28971239Y-120927709D01*
X28220345Y-121677293D01*
X27813464Y-122657173D01*
X27812538Y-123718172D01*
X28217709Y-124698761D01*
X28967293Y-125449655D01*
X29947173Y-125856536D01*
X31008172Y-125857462D01*
X31988761Y-125452291D01*
X32739655Y-124702707D01*
X33146536Y-123722827D01*
X33147462Y-122661828D01*
X33147462Y-126873000D01*
X26797000Y-126873000D01*
X26797000Y-63627000D01*
X102743000Y-63627000D01*
X102743000Y-80352900D01*
X93479191Y-80352900D01*
X93431300Y-80112132D01*
X93130946Y-79662621D01*
X92681435Y-79362267D01*
X92151200Y-79256797D01*
X91620965Y-79362267D01*
X91171454Y-79662621D01*
X90881200Y-80097016D01*
X90590946Y-79662621D01*
X90436700Y-79559556D01*
X90436700Y-77539846D01*
X90857646Y-77258579D01*
X91147900Y-76824183D01*
X91438154Y-77258579D01*
X91887665Y-77558933D01*
X92417900Y-77664403D01*
X92948135Y-77558933D01*
X93397646Y-77258579D01*
X93698000Y-76809068D01*
X93803470Y-76278833D01*
X93803470Y-75206767D01*
X93698000Y-74676532D01*
X93397646Y-74227021D01*
X92948135Y-73926667D01*
X92417900Y-73821197D01*
X91887665Y-73926667D01*
X91816651Y-73974117D01*
X90741017Y-72898483D01*
X90473206Y-72719537D01*
X90157300Y-72656700D01*
X88215591Y-72656700D01*
X87960200Y-72605900D01*
X80205532Y-72605900D01*
X80164562Y-72506745D01*
X79705173Y-72046554D01*
X79104647Y-71797194D01*
X78454406Y-71796626D01*
X77853445Y-72044938D01*
X77393254Y-72504327D01*
X77143894Y-73104853D01*
X77143326Y-73755094D01*
X77391638Y-74356055D01*
X77851027Y-74816246D01*
X78094392Y-74917300D01*
X73520305Y-74917300D01*
X73520300Y-74917299D01*
X73204394Y-74980137D01*
X72936583Y-75159083D01*
X71613097Y-76482568D01*
X71513700Y-76462797D01*
X70983465Y-76568267D01*
X70533954Y-76868621D01*
X70263501Y-77273382D01*
X70263501Y-73695818D01*
X70239441Y-73046023D01*
X70037065Y-72557442D01*
X69770263Y-72458843D01*
X69590657Y-72638448D01*
X69590657Y-72279237D01*
X69492058Y-72012435D01*
X68882518Y-71785999D01*
X68232723Y-71810059D01*
X67744142Y-72012435D01*
X67645543Y-72279237D01*
X68618100Y-73251795D01*
X69590657Y-72279237D01*
X69590657Y-72638448D01*
X68797705Y-73431400D01*
X69770263Y-74403957D01*
X70037065Y-74305358D01*
X70263501Y-73695818D01*
X70263501Y-77273382D01*
X70233600Y-77318132D01*
X70128130Y-77848367D01*
X70128130Y-78920433D01*
X70233600Y-79450668D01*
X70533954Y-79900179D01*
X70669990Y-79991075D01*
X69590657Y-81070408D01*
X69590657Y-74583563D01*
X68618100Y-73611005D01*
X68438495Y-73790610D01*
X68438495Y-73431400D01*
X67465937Y-72458843D01*
X67199135Y-72557442D01*
X66972699Y-73166982D01*
X66996759Y-73816777D01*
X67199135Y-74305358D01*
X67465937Y-74403957D01*
X68438495Y-73431400D01*
X68438495Y-73790610D01*
X67645543Y-74583563D01*
X67744142Y-74850365D01*
X68353682Y-75076801D01*
X69003477Y-75052741D01*
X69492058Y-74850365D01*
X69590657Y-74583563D01*
X69590657Y-81070408D01*
X67869766Y-82791300D01*
X67259205Y-82791300D01*
X67259200Y-82791299D01*
X66943295Y-82854137D01*
X66675483Y-83033083D01*
X66675480Y-83033086D01*
X66561467Y-83147099D01*
X66561467Y-77281266D01*
X66533505Y-76730762D01*
X66376631Y-76352035D01*
X66135630Y-76283975D01*
X65956025Y-76463580D01*
X65956025Y-76104370D01*
X65887965Y-75863369D01*
X65368666Y-75678533D01*
X64818162Y-75706495D01*
X64439435Y-75863369D01*
X64371375Y-76104370D01*
X65163700Y-76896695D01*
X65956025Y-76104370D01*
X65956025Y-76463580D01*
X65343305Y-77076300D01*
X66135630Y-77868625D01*
X66376631Y-77800565D01*
X66561467Y-77281266D01*
X66561467Y-83147099D01*
X65956025Y-83752541D01*
X65956025Y-78048230D01*
X65163700Y-77255905D01*
X64984095Y-77435510D01*
X64984095Y-77076300D01*
X64191770Y-76283975D01*
X63950769Y-76352035D01*
X63765933Y-76871334D01*
X63793895Y-77421838D01*
X63950769Y-77800565D01*
X64191770Y-77868625D01*
X64984095Y-77076300D01*
X64984095Y-77435510D01*
X64371375Y-78048230D01*
X64439435Y-78289231D01*
X64958734Y-78474067D01*
X65509238Y-78446105D01*
X65887965Y-78289231D01*
X65956025Y-78048230D01*
X65956025Y-83752541D01*
X65549107Y-84159459D01*
X65163700Y-84082797D01*
X64633465Y-84188267D01*
X64562450Y-84235717D01*
X62179200Y-81852466D01*
X62179200Y-78210023D01*
X62527644Y-77862187D01*
X62739029Y-77353116D01*
X62739510Y-76801902D01*
X62529014Y-76292463D01*
X62139587Y-75902356D01*
X61630516Y-75690971D01*
X61079302Y-75690490D01*
X60569863Y-75900986D01*
X60181271Y-76288900D01*
X56331691Y-76288900D01*
X56283800Y-76048132D01*
X55983446Y-75598621D01*
X55533935Y-75298267D01*
X55003700Y-75192797D01*
X54473465Y-75298267D01*
X54023954Y-75598621D01*
X53733700Y-76033016D01*
X53443446Y-75598621D01*
X52993935Y-75298267D01*
X52463700Y-75192797D01*
X51933465Y-75298267D01*
X51483954Y-75598621D01*
X51193700Y-76033016D01*
X50903446Y-75598621D01*
X50453935Y-75298267D01*
X49923700Y-75192797D01*
X49393465Y-75298267D01*
X48943954Y-75598621D01*
X48643600Y-76048132D01*
X48595708Y-76288900D01*
X46271132Y-76288900D01*
X46230162Y-76189745D01*
X45770773Y-75729554D01*
X45170247Y-75480194D01*
X44520006Y-75479626D01*
X43919045Y-75727938D01*
X43458854Y-76187327D01*
X43209494Y-76787853D01*
X43208926Y-77438094D01*
X43457238Y-78039055D01*
X43916627Y-78499246D01*
X44517153Y-78748606D01*
X45167394Y-78749174D01*
X45768355Y-78500862D01*
X46228546Y-78041473D01*
X46270722Y-77939900D01*
X48595708Y-77939900D01*
X48643600Y-78180668D01*
X48943954Y-78630179D01*
X49393465Y-78930533D01*
X49923700Y-79036003D01*
X50453935Y-78930533D01*
X50903446Y-78630179D01*
X51193700Y-78195783D01*
X51483954Y-78630179D01*
X51638200Y-78733243D01*
X51638200Y-80575556D01*
X51483954Y-80678621D01*
X51193700Y-81113016D01*
X50903446Y-80678621D01*
X50453935Y-80378267D01*
X49923700Y-80272797D01*
X49393465Y-80378267D01*
X48943954Y-80678621D01*
X48643600Y-81128132D01*
X48538130Y-81658367D01*
X48538130Y-82730433D01*
X48643600Y-83260668D01*
X48943954Y-83710179D01*
X49098200Y-83813243D01*
X49098200Y-85846967D01*
X48999045Y-85887938D01*
X48538854Y-86347327D01*
X48289494Y-86947853D01*
X48288926Y-87598094D01*
X48537238Y-88199055D01*
X48996627Y-88659246D01*
X49597153Y-88908606D01*
X50247394Y-88909174D01*
X50848355Y-88660862D01*
X51308546Y-88201473D01*
X51557906Y-87600947D01*
X51558474Y-86950706D01*
X51310162Y-86349745D01*
X50850773Y-85889554D01*
X50749200Y-85847377D01*
X50749200Y-83813243D01*
X50903446Y-83710179D01*
X51193700Y-83275783D01*
X51483954Y-83710179D01*
X51933465Y-84010533D01*
X52463700Y-84116003D01*
X52993935Y-84010533D01*
X53443446Y-83710179D01*
X53733700Y-83275783D01*
X54023954Y-83710179D01*
X54473465Y-84010533D01*
X55003700Y-84116003D01*
X55533935Y-84010533D01*
X55983446Y-83710179D01*
X56283800Y-83260668D01*
X56389270Y-82730433D01*
X56389270Y-81658367D01*
X56283800Y-81128132D01*
X55983446Y-80678621D01*
X55829200Y-80575556D01*
X55829200Y-78733243D01*
X55983446Y-78630179D01*
X56283800Y-78180668D01*
X56331691Y-77939900D01*
X60258009Y-77939900D01*
X60528200Y-78210561D01*
X60528200Y-82194400D01*
X60591037Y-82510306D01*
X60769983Y-82778117D01*
X63778130Y-85786263D01*
X63778130Y-86540433D01*
X63883600Y-87070668D01*
X64183954Y-87520179D01*
X64633465Y-87820533D01*
X65163700Y-87926003D01*
X65693935Y-87820533D01*
X66143446Y-87520179D01*
X66433700Y-87085783D01*
X66723954Y-87520179D01*
X67173465Y-87820533D01*
X67703700Y-87926003D01*
X68233935Y-87820533D01*
X68683446Y-87520179D01*
X68973700Y-87085783D01*
X69263954Y-87520179D01*
X69713465Y-87820533D01*
X70243700Y-87926003D01*
X70773935Y-87820533D01*
X71223446Y-87520179D01*
X71306278Y-87396212D01*
X74663783Y-90753717D01*
X74931594Y-90932663D01*
X74931595Y-90932663D01*
X75247500Y-90995500D01*
X81122567Y-90995500D01*
X81163538Y-91094655D01*
X81622927Y-91554846D01*
X82223453Y-91804206D01*
X82873694Y-91804774D01*
X83474655Y-91556462D01*
X83934846Y-91097073D01*
X84184206Y-90496547D01*
X84184774Y-89846306D01*
X83936462Y-89245345D01*
X83477073Y-88785154D01*
X82876547Y-88535794D01*
X82226306Y-88535226D01*
X81625345Y-88783538D01*
X81165154Y-89242927D01*
X81122977Y-89344500D01*
X75589434Y-89344500D01*
X71665617Y-85420683D01*
X71612759Y-85385365D01*
X71612759Y-85385364D01*
X71523800Y-84938132D01*
X71223446Y-84488621D01*
X71102635Y-84407898D01*
X74637413Y-80873119D01*
X74637417Y-80873117D01*
X74637417Y-80873116D01*
X74816363Y-80605305D01*
X74879200Y-80289400D01*
X74879201Y-80289400D01*
X74879200Y-80289394D01*
X74879200Y-80003243D01*
X75033446Y-79900179D01*
X75323700Y-79465783D01*
X75613954Y-79900179D01*
X75967468Y-80136390D01*
X75967469Y-80136390D01*
X76009983Y-80200017D01*
X84226880Y-88416913D01*
X84226883Y-88416917D01*
X84494694Y-88595862D01*
X84494695Y-88595863D01*
X84810600Y-88658700D01*
X86221266Y-88658700D01*
X90054619Y-92492052D01*
X90054190Y-92984398D01*
X90264686Y-93493837D01*
X90614500Y-93844261D01*
X90614500Y-94527066D01*
X89015380Y-92927946D01*
X89015810Y-92435602D01*
X88805314Y-91926163D01*
X88415887Y-91536056D01*
X87906816Y-91324671D01*
X87355602Y-91324190D01*
X86846163Y-91534686D01*
X86456056Y-91924113D01*
X86244671Y-92433184D01*
X86244190Y-92984398D01*
X86454686Y-93493837D01*
X86844113Y-93883944D01*
X87353184Y-94095329D01*
X87848327Y-94095761D01*
X90614500Y-96861933D01*
X90614500Y-99708518D01*
X90468658Y-99440056D01*
X90046677Y-99098501D01*
X89526110Y-98944430D01*
X89027000Y-98944430D01*
X89027000Y-100203000D01*
X89047000Y-100203000D01*
X89047000Y-100457000D01*
X89027000Y-100457000D01*
X89027000Y-100477000D01*
X88773000Y-100477000D01*
X88773000Y-100457000D01*
X88773000Y-100203000D01*
X88773000Y-98944430D01*
X88273890Y-98944430D01*
X87753323Y-99098501D01*
X87331342Y-99440056D01*
X87072190Y-99917097D01*
X87058007Y-99988725D01*
X87180661Y-100203000D01*
X88773000Y-100203000D01*
X88773000Y-100457000D01*
X87180661Y-100457000D01*
X87058007Y-100671275D01*
X87072190Y-100742903D01*
X87331342Y-101219944D01*
X87753323Y-101561499D01*
X87843032Y-101588050D01*
X87833732Y-101589900D01*
X87384221Y-101890254D01*
X87281156Y-102044500D01*
X84195401Y-102044500D01*
X84195401Y-100594418D01*
X84171341Y-99944623D01*
X83968965Y-99456042D01*
X83702163Y-99357443D01*
X83522557Y-99537048D01*
X83522557Y-99177837D01*
X83423958Y-98911035D01*
X82814418Y-98684599D01*
X82164623Y-98708659D01*
X81676042Y-98911035D01*
X81577443Y-99177837D01*
X82550000Y-100150395D01*
X83522557Y-99177837D01*
X83522557Y-99537048D01*
X82729605Y-100330000D01*
X83702163Y-101302557D01*
X83968965Y-101203958D01*
X84195401Y-100594418D01*
X84195401Y-102044500D01*
X83820000Y-102044500D01*
X83522557Y-102103664D01*
X83522557Y-101482163D01*
X82550000Y-100509605D01*
X82370395Y-100689210D01*
X82370395Y-100330000D01*
X81397837Y-99357443D01*
X81131035Y-99456042D01*
X80904599Y-100065582D01*
X80928659Y-100715377D01*
X81131035Y-101203958D01*
X81397837Y-101302557D01*
X82370395Y-100330000D01*
X82370395Y-100689210D01*
X81577443Y-101482163D01*
X81676042Y-101748965D01*
X82285582Y-101975401D01*
X82935377Y-101951341D01*
X83423958Y-101748965D01*
X83522557Y-101482163D01*
X83522557Y-102103664D01*
X83504094Y-102107337D01*
X83396824Y-102179013D01*
X83236283Y-102286283D01*
X83236280Y-102286286D01*
X82208066Y-103314500D01*
X81438250Y-103314500D01*
X81209778Y-102972567D01*
X80674155Y-102614675D01*
X80042345Y-102489000D01*
X79977655Y-102489000D01*
X79345845Y-102614675D01*
X79043601Y-102816627D01*
X78946673Y-102669073D01*
X78735640Y-102526623D01*
X78486000Y-102476560D01*
X76454000Y-102476560D01*
X76211877Y-102523537D01*
X75999073Y-102663327D01*
X75856623Y-102874360D01*
X75806560Y-103124000D01*
X75806560Y-103314500D01*
X75373533Y-103314500D01*
X75222394Y-103163360D01*
X75113517Y-102899857D01*
X74850727Y-102636608D01*
X74507199Y-102493962D01*
X74135233Y-102493638D01*
X73791457Y-102635683D01*
X73528208Y-102898473D01*
X73385562Y-103242001D01*
X73385238Y-103613967D01*
X73527283Y-103957743D01*
X73790073Y-104220992D01*
X74055284Y-104331117D01*
X74447880Y-104723713D01*
X74447883Y-104723717D01*
X74447884Y-104723717D01*
X74715695Y-104902663D01*
X75031600Y-104965501D01*
X75031600Y-104965500D01*
X75031605Y-104965500D01*
X75806560Y-104965500D01*
X75806560Y-105156000D01*
X75853537Y-105398123D01*
X75993327Y-105610927D01*
X76204360Y-105753377D01*
X76454000Y-105803440D01*
X78486000Y-105803440D01*
X78728123Y-105756463D01*
X78940927Y-105616673D01*
X79044156Y-105463743D01*
X79345845Y-105665325D01*
X79977655Y-105791000D01*
X80042345Y-105791000D01*
X80674155Y-105665325D01*
X81209778Y-105307433D01*
X81438250Y-104965500D01*
X82550000Y-104965500D01*
X82865905Y-104902663D01*
X82865906Y-104902663D01*
X83133717Y-104723717D01*
X84161933Y-103695500D01*
X87281156Y-103695500D01*
X87384221Y-103849746D01*
X87818616Y-104140000D01*
X87384221Y-104430254D01*
X87083867Y-104879765D01*
X86978397Y-105410000D01*
X87083867Y-105940235D01*
X87384221Y-106389746D01*
X87833732Y-106690100D01*
X88074500Y-106737991D01*
X88074500Y-107792567D01*
X87975345Y-107833538D01*
X87515154Y-108292927D01*
X87265794Y-108893453D01*
X87265226Y-109543694D01*
X87513538Y-110144655D01*
X87972927Y-110604846D01*
X88573453Y-110854206D01*
X89223694Y-110854774D01*
X89824655Y-110606462D01*
X90284846Y-110147073D01*
X90534206Y-109546547D01*
X90534774Y-108896306D01*
X90286462Y-108295345D01*
X89827073Y-107835154D01*
X89725500Y-107792977D01*
X89725500Y-106737991D01*
X89966268Y-106690100D01*
X90415779Y-106389746D01*
X90518843Y-106235500D01*
X91440000Y-106235500D01*
X91755905Y-106172663D01*
X91755906Y-106172663D01*
X92023717Y-105993717D01*
X94321933Y-103695500D01*
X94901156Y-103695500D01*
X95004221Y-103849746D01*
X95438616Y-104140000D01*
X95004221Y-104430254D01*
X94703867Y-104879765D01*
X94598397Y-105410000D01*
X94703867Y-105940235D01*
X95004221Y-106389746D01*
X95453732Y-106690100D01*
X95694500Y-106737991D01*
X95694500Y-110096560D01*
X95656400Y-110096560D01*
X95414277Y-110143537D01*
X95201473Y-110283327D01*
X95059023Y-110494360D01*
X95008960Y-110744000D01*
X95008960Y-112776000D01*
X95055937Y-113018123D01*
X95195727Y-113230927D01*
X95406760Y-113373377D01*
X95656400Y-113423440D01*
X97383600Y-113423440D01*
X97625723Y-113376463D01*
X97838527Y-113236673D01*
X97980977Y-113025640D01*
X97988718Y-112987037D01*
X98000330Y-113004415D01*
X98486511Y-113329271D01*
X99060000Y-113443345D01*
X99633489Y-113329271D01*
X100119670Y-113004415D01*
X100330000Y-112689634D01*
X100540330Y-113004415D01*
X100774500Y-113160882D01*
X100774500Y-114142567D01*
X100675345Y-114183538D01*
X100215154Y-114642927D01*
X99965794Y-115243453D01*
X99965226Y-115893694D01*
X100213538Y-116494655D01*
X100672927Y-116954846D01*
X101273453Y-117204206D01*
X101923694Y-117204774D01*
X102524655Y-116956462D01*
X102743000Y-116738497D01*
X102743000Y-118008192D01*
X102617595Y-118033137D01*
X102349783Y-118212083D01*
X102349780Y-118212086D01*
X102007366Y-118554500D01*
X96383723Y-118554500D01*
X96035887Y-118206056D01*
X95526816Y-117994671D01*
X95031672Y-117994238D01*
X93033063Y-115995629D01*
X93074206Y-115896547D01*
X93074774Y-115246306D01*
X92826462Y-114645345D01*
X92367073Y-114185154D01*
X91766547Y-113935794D01*
X91116306Y-113935226D01*
X90515345Y-114183538D01*
X90055154Y-114642927D01*
X89805794Y-115243453D01*
X89805226Y-115893694D01*
X90053538Y-116494655D01*
X90512927Y-116954846D01*
X91113453Y-117204206D01*
X91763694Y-117204774D01*
X91865340Y-117162774D01*
X93257066Y-118554500D01*
X90327432Y-118554500D01*
X90286462Y-118455345D01*
X89827073Y-117995154D01*
X89226547Y-117745794D01*
X88576306Y-117745226D01*
X87975345Y-117993538D01*
X87515154Y-118452927D01*
X87265794Y-119053453D01*
X87265226Y-119703694D01*
X87307225Y-119805340D01*
X86838066Y-120274500D01*
X85217767Y-120274500D01*
X84894108Y-120274500D01*
X84791932Y-120172324D01*
X85032931Y-120104265D01*
X85217767Y-119584966D01*
X85189805Y-119034462D01*
X85032931Y-118655735D01*
X84791930Y-118587675D01*
X84612325Y-118767280D01*
X84612325Y-118408070D01*
X84544265Y-118167069D01*
X84024966Y-117982233D01*
X83474462Y-118010195D01*
X83095735Y-118167069D01*
X83027675Y-118408070D01*
X83820000Y-119200395D01*
X84612325Y-118408070D01*
X84612325Y-118767280D01*
X83999605Y-119380000D01*
X84013747Y-119394142D01*
X83834142Y-119573747D01*
X83820000Y-119559605D01*
X83805857Y-119573747D01*
X83626252Y-119394142D01*
X83640395Y-119380000D01*
X82848070Y-118587675D01*
X82607069Y-118655735D01*
X82548231Y-118821040D01*
X82455314Y-118596163D01*
X82105500Y-118245738D01*
X82105500Y-112893723D01*
X82453944Y-112545887D01*
X82665329Y-112036816D01*
X82665810Y-111485602D01*
X82665810Y-107675602D01*
X82455314Y-107166163D01*
X82065887Y-106776056D01*
X81556816Y-106564671D01*
X81005602Y-106564190D01*
X80496163Y-106774686D01*
X80106056Y-107164113D01*
X79894671Y-107673184D01*
X79894190Y-108224398D01*
X80104686Y-108733837D01*
X80494113Y-109123944D01*
X81003184Y-109335329D01*
X81554398Y-109335810D01*
X82063837Y-109125314D01*
X82453944Y-108735887D01*
X82665329Y-108226816D01*
X82665810Y-107675602D01*
X82665810Y-111485602D01*
X82455314Y-110976163D01*
X82065887Y-110586056D01*
X81556816Y-110374671D01*
X81005602Y-110374190D01*
X80496163Y-110584686D01*
X80106056Y-110974113D01*
X79894671Y-111483184D01*
X79894190Y-112034398D01*
X80104686Y-112543837D01*
X80454500Y-112894261D01*
X80454500Y-117537066D01*
X79983717Y-117066283D01*
X79715906Y-116887337D01*
X79400000Y-116824500D01*
X78526847Y-116824500D01*
X78854846Y-116497073D01*
X79104206Y-115896547D01*
X79104774Y-115246306D01*
X78856462Y-114645345D01*
X78397073Y-114185154D01*
X77796547Y-113935794D01*
X77146306Y-113935226D01*
X76545345Y-114183538D01*
X76262912Y-114465478D01*
X72888682Y-111091248D01*
X72936133Y-111020235D01*
X73041603Y-110490000D01*
X72936133Y-109959765D01*
X72635779Y-109510254D01*
X72201383Y-109220000D01*
X72635779Y-108929746D01*
X72936133Y-108480235D01*
X73041603Y-107950000D01*
X72936133Y-107419765D01*
X72635779Y-106970254D01*
X72201383Y-106680000D01*
X72635779Y-106389746D01*
X72936133Y-105940235D01*
X73041603Y-105410000D01*
X72936133Y-104879765D01*
X72635779Y-104430254D01*
X72186268Y-104129900D01*
X71945500Y-104082008D01*
X71945500Y-100387991D01*
X72186268Y-100340100D01*
X72635779Y-100039746D01*
X72738843Y-99885500D01*
X74581156Y-99885500D01*
X74684221Y-100039746D01*
X75133732Y-100340100D01*
X75663967Y-100445570D01*
X76736033Y-100445570D01*
X77266268Y-100340100D01*
X77715779Y-100039746D01*
X78016133Y-99590235D01*
X78121603Y-99060000D01*
X78016133Y-98529765D01*
X77715779Y-98080254D01*
X77281383Y-97790000D01*
X77715779Y-97499746D01*
X78016133Y-97050235D01*
X78121603Y-96520000D01*
X78016133Y-95989765D01*
X77715779Y-95540254D01*
X77281383Y-95250000D01*
X77715779Y-94959746D01*
X78016133Y-94510235D01*
X78121603Y-93980000D01*
X78016133Y-93449765D01*
X77715779Y-93000254D01*
X77266268Y-92699900D01*
X76736033Y-92594430D01*
X75663967Y-92594430D01*
X75133732Y-92699900D01*
X74684221Y-93000254D01*
X74581156Y-93154500D01*
X72738843Y-93154500D01*
X72635779Y-93000254D01*
X72186268Y-92699900D01*
X71656033Y-92594430D01*
X70583967Y-92594430D01*
X70053732Y-92699900D01*
X69604221Y-93000254D01*
X69501156Y-93154500D01*
X67563033Y-93154500D01*
X61718160Y-87309626D01*
X61718474Y-86950706D01*
X61470162Y-86349745D01*
X61010773Y-85889554D01*
X60410247Y-85640194D01*
X59760006Y-85639626D01*
X59159045Y-85887938D01*
X58698854Y-86347327D01*
X58449494Y-86947853D01*
X58448926Y-87598094D01*
X58697238Y-88199055D01*
X59156627Y-88659246D01*
X59757153Y-88908606D01*
X60407394Y-88909174D01*
X60814590Y-88740924D01*
X66637380Y-94563713D01*
X66637383Y-94563717D01*
X66905194Y-94742662D01*
X66905195Y-94742663D01*
X67221100Y-94805500D01*
X69501156Y-94805500D01*
X69604221Y-94959746D01*
X70038616Y-95250000D01*
X69604221Y-95540254D01*
X69303867Y-95989765D01*
X69200341Y-96510224D01*
X68186783Y-97523783D01*
X68007837Y-97791594D01*
X67945000Y-98107500D01*
X67945000Y-102741508D01*
X67814927Y-102611208D01*
X67471399Y-102468562D01*
X67099433Y-102468238D01*
X66755657Y-102610283D01*
X66492408Y-102873073D01*
X66382282Y-103138283D01*
X64936066Y-104584500D01*
X62578843Y-104584500D01*
X62475779Y-104430254D01*
X62026268Y-104129900D01*
X61785500Y-104082008D01*
X61785500Y-100387991D01*
X62026268Y-100340100D01*
X62475779Y-100039746D01*
X62776133Y-99590235D01*
X62881603Y-99060000D01*
X62776133Y-98529765D01*
X62475779Y-98080254D01*
X62041383Y-97790000D01*
X62475779Y-97499746D01*
X62776133Y-97050235D01*
X62881603Y-96520000D01*
X62776133Y-95989765D01*
X62475779Y-95540254D01*
X62041383Y-95250000D01*
X62475779Y-94959746D01*
X62776133Y-94510235D01*
X62881603Y-93980000D01*
X62776133Y-93449765D01*
X62475779Y-93000254D01*
X62026268Y-92699900D01*
X61496033Y-92594430D01*
X60423967Y-92594430D01*
X59893732Y-92699900D01*
X59444221Y-93000254D01*
X59341156Y-93154500D01*
X57498843Y-93154500D01*
X57395779Y-93000254D01*
X56946268Y-92699900D01*
X56416033Y-92594430D01*
X55661863Y-92594430D01*
X53872917Y-90805483D01*
X53605106Y-90626537D01*
X53289200Y-90563700D01*
X46489101Y-90563700D01*
X46489101Y-87538818D01*
X46465041Y-86889023D01*
X46262665Y-86400442D01*
X45995863Y-86301843D01*
X45816257Y-86481448D01*
X45816257Y-86122237D01*
X45717658Y-85855435D01*
X45108118Y-85628999D01*
X44458323Y-85653059D01*
X43969742Y-85855435D01*
X43871143Y-86122237D01*
X44843700Y-87094795D01*
X45816257Y-86122237D01*
X45816257Y-86481448D01*
X45023305Y-87274400D01*
X45995863Y-88246957D01*
X46262665Y-88148358D01*
X46489101Y-87538818D01*
X46489101Y-90563700D01*
X45816257Y-90563700D01*
X45816257Y-88426563D01*
X44843700Y-87454005D01*
X44664095Y-87633610D01*
X44664095Y-87274400D01*
X43691537Y-86301843D01*
X43424735Y-86400442D01*
X43198299Y-87009982D01*
X43222359Y-87659777D01*
X43424735Y-88148358D01*
X43691537Y-88246957D01*
X44664095Y-87274400D01*
X44664095Y-87633610D01*
X43871143Y-88426563D01*
X43969742Y-88693365D01*
X44579282Y-88919801D01*
X45229077Y-88895741D01*
X45717658Y-88693365D01*
X45816257Y-88426563D01*
X45816257Y-90563700D01*
X44525233Y-90563700D01*
X41398049Y-87436515D01*
X41398474Y-86950706D01*
X41150162Y-86349745D01*
X40690773Y-85889554D01*
X40090247Y-85640194D01*
X39440006Y-85639626D01*
X38839045Y-85887938D01*
X38378854Y-86347327D01*
X38129494Y-86947853D01*
X38128926Y-87598094D01*
X38377238Y-88199055D01*
X38836627Y-88659246D01*
X39437153Y-88908606D01*
X40087394Y-88909174D01*
X40404722Y-88778056D01*
X43599583Y-91972917D01*
X43867394Y-92151863D01*
X43867395Y-92151863D01*
X44183300Y-92214701D01*
X44183300Y-92214700D01*
X44183305Y-92214700D01*
X52947266Y-92214700D01*
X54111317Y-93378750D01*
X54063867Y-93449765D01*
X53958397Y-93980000D01*
X54063867Y-94510235D01*
X54364221Y-94959746D01*
X54798616Y-95250000D01*
X54364221Y-95540254D01*
X54261156Y-95694500D01*
X49393723Y-95694500D01*
X49045887Y-95346056D01*
X48536816Y-95134671D01*
X47985602Y-95134190D01*
X47476163Y-95344686D01*
X47086056Y-95734113D01*
X46990025Y-95965381D01*
X46895314Y-95736163D01*
X46505887Y-95346056D01*
X45996816Y-95134671D01*
X45445602Y-95134190D01*
X44936163Y-95344686D01*
X44585738Y-95694500D01*
X44157640Y-95694500D01*
X44157640Y-94769940D01*
X44110663Y-94527817D01*
X43970873Y-94315013D01*
X43759840Y-94172563D01*
X43510200Y-94122500D01*
X40010080Y-94122500D01*
X39767957Y-94169477D01*
X39555153Y-94309267D01*
X39412703Y-94520300D01*
X39362640Y-94769940D01*
X39362640Y-98270060D01*
X39409617Y-98512183D01*
X39549407Y-98724987D01*
X39710815Y-98833940D01*
X39046150Y-98833940D01*
X38887400Y-98992690D01*
X38887400Y-101092000D01*
X38907400Y-101092000D01*
X38907400Y-101346000D01*
X38887400Y-101346000D01*
X38887400Y-103445310D01*
X39046150Y-103604060D01*
X40636769Y-103604060D01*
X40870158Y-103507387D01*
X40934640Y-103442905D01*
X40934640Y-105344154D01*
X40525154Y-105752927D01*
X40275794Y-106353453D01*
X40275226Y-107003694D01*
X40523538Y-107604655D01*
X40982927Y-108064846D01*
X41583453Y-108314206D01*
X42233694Y-108314774D01*
X42834655Y-108066462D01*
X43294846Y-107607073D01*
X43544206Y-107006547D01*
X43544774Y-106356306D01*
X43296462Y-105755345D01*
X42837073Y-105295154D01*
X42585640Y-105190749D01*
X42585640Y-98917500D01*
X43510200Y-98917500D01*
X43752323Y-98870523D01*
X43965127Y-98730733D01*
X44107577Y-98519700D01*
X44157640Y-98270060D01*
X44157640Y-97345500D01*
X44586276Y-97345500D01*
X44934113Y-97693944D01*
X45443184Y-97905329D01*
X45994398Y-97905810D01*
X46503837Y-97695314D01*
X46893944Y-97305887D01*
X46989974Y-97074618D01*
X47084686Y-97303837D01*
X47474113Y-97693944D01*
X47983184Y-97905329D01*
X48478327Y-97905761D01*
X51486280Y-100913713D01*
X51486283Y-100913717D01*
X51486284Y-100913717D01*
X54286936Y-103714370D01*
X54245794Y-103813453D01*
X54245226Y-104463694D01*
X54493538Y-105064655D01*
X54952927Y-105524846D01*
X55553453Y-105774206D01*
X56203694Y-105774774D01*
X56804655Y-105526462D01*
X57264846Y-105067073D01*
X57514206Y-104466547D01*
X57514774Y-103816306D01*
X57266462Y-103215345D01*
X56807073Y-102755154D01*
X56206547Y-102505794D01*
X55556306Y-102505226D01*
X55454658Y-102547225D01*
X52653717Y-99746284D01*
X52653717Y-99746283D01*
X52653713Y-99746280D01*
X50252933Y-97345500D01*
X54261156Y-97345500D01*
X54364221Y-97499746D01*
X54798616Y-97790000D01*
X54364221Y-98080254D01*
X54063867Y-98529765D01*
X53958397Y-99060000D01*
X54063867Y-99590235D01*
X54364221Y-100039746D01*
X54813732Y-100340100D01*
X55343967Y-100445570D01*
X56416033Y-100445570D01*
X56946268Y-100340100D01*
X57395779Y-100039746D01*
X57498843Y-99885500D01*
X59341156Y-99885500D01*
X59444221Y-100039746D01*
X59893732Y-100340100D01*
X60134500Y-100387991D01*
X60134500Y-104082008D01*
X59893732Y-104129900D01*
X59444221Y-104430254D01*
X59143867Y-104879765D01*
X59038397Y-105410000D01*
X59143867Y-105940235D01*
X59444221Y-106389746D01*
X59878616Y-106680000D01*
X59444221Y-106970254D01*
X59143867Y-107419765D01*
X59038397Y-107950000D01*
X59143867Y-108480235D01*
X59444221Y-108929746D01*
X59878616Y-109220000D01*
X59444221Y-109510254D01*
X59143867Y-109959765D01*
X59038397Y-110490000D01*
X59143867Y-111020235D01*
X59444221Y-111469746D01*
X59893732Y-111770100D01*
X60134500Y-111817991D01*
X60134500Y-113958066D01*
X59348066Y-114744500D01*
X58577432Y-114744500D01*
X58536462Y-114645345D01*
X58077073Y-114185154D01*
X57476547Y-113935794D01*
X56826306Y-113935226D01*
X56244774Y-114175510D01*
X56244774Y-107626306D01*
X55996462Y-107025345D01*
X55537073Y-106565154D01*
X54936547Y-106315794D01*
X54286306Y-106315226D01*
X53685345Y-106563538D01*
X53225154Y-107022927D01*
X53168840Y-107158545D01*
X53024095Y-107187337D01*
X52756283Y-107366283D01*
X52756280Y-107366286D01*
X51017946Y-109104619D01*
X50525602Y-109104190D01*
X50016163Y-109314686D01*
X49626056Y-109704113D01*
X49414671Y-110213184D01*
X49414190Y-110764398D01*
X49624686Y-111273837D01*
X50014113Y-111663944D01*
X50523184Y-111875329D01*
X51074398Y-111875810D01*
X51583837Y-111665314D01*
X51973944Y-111275887D01*
X52185329Y-110766816D01*
X52185761Y-110271672D01*
X53403001Y-109054431D01*
X53682927Y-109334846D01*
X54283453Y-109584206D01*
X54933694Y-109584774D01*
X55534655Y-109336462D01*
X55994846Y-108877073D01*
X56244206Y-108276547D01*
X56244774Y-107626306D01*
X56244774Y-114175510D01*
X56225345Y-114183538D01*
X55765154Y-114642927D01*
X55515794Y-115243453D01*
X55515226Y-115893694D01*
X55763538Y-116494655D01*
X56222927Y-116954846D01*
X56823453Y-117204206D01*
X57473694Y-117204774D01*
X58074655Y-116956462D01*
X58534846Y-116497073D01*
X58577022Y-116395500D01*
X59690000Y-116395500D01*
X60005905Y-116332663D01*
X60005906Y-116332663D01*
X60273717Y-116153717D01*
X61543713Y-114883719D01*
X61543716Y-114883717D01*
X61543717Y-114883717D01*
X61650986Y-114723175D01*
X61722663Y-114615906D01*
X61722663Y-114615905D01*
X61785500Y-114300000D01*
X61785500Y-111817991D01*
X62026268Y-111770100D01*
X62475779Y-111469746D01*
X62776133Y-111020235D01*
X62881603Y-110490000D01*
X62776133Y-109959765D01*
X62475779Y-109510254D01*
X62041383Y-109220000D01*
X62475779Y-108929746D01*
X62578843Y-108775500D01*
X69501156Y-108775500D01*
X69604221Y-108929746D01*
X70038616Y-109220000D01*
X69604221Y-109510254D01*
X69303867Y-109959765D01*
X69198397Y-110490000D01*
X69303867Y-111020235D01*
X69604221Y-111469746D01*
X70053732Y-111770100D01*
X70583967Y-111875570D01*
X71338136Y-111875570D01*
X75616283Y-116153717D01*
X75884094Y-116332663D01*
X75884095Y-116332663D01*
X76028470Y-116361381D01*
X76083538Y-116494655D01*
X76412808Y-116824500D01*
X69731933Y-116824500D01*
X69728717Y-116821283D01*
X68903063Y-115995629D01*
X68944206Y-115896547D01*
X68944774Y-115246306D01*
X68696462Y-114645345D01*
X68237073Y-114185154D01*
X67636547Y-113935794D01*
X66986306Y-113935226D01*
X66385345Y-114183538D01*
X65925154Y-114642927D01*
X65675794Y-115243453D01*
X65675226Y-115893694D01*
X65923538Y-116494655D01*
X66382927Y-116954846D01*
X66983453Y-117204206D01*
X67633694Y-117204774D01*
X67735340Y-117162774D01*
X67977566Y-117405000D01*
X67364136Y-118018430D01*
X66996547Y-117865794D01*
X66346306Y-117865226D01*
X65745345Y-118113538D01*
X65285154Y-118572927D01*
X65035794Y-119173453D01*
X65035226Y-119823694D01*
X65283538Y-120424655D01*
X65742927Y-120884846D01*
X66343453Y-121134206D01*
X66993694Y-121134774D01*
X67594655Y-120886462D01*
X68054846Y-120427073D01*
X68304206Y-119826547D01*
X68304567Y-119412866D01*
X69266498Y-118450934D01*
X69390000Y-118475500D01*
X75542751Y-118475500D01*
X75445154Y-118572927D01*
X75195794Y-119173453D01*
X75195226Y-119823694D01*
X75443538Y-120424655D01*
X75902927Y-120884846D01*
X76503453Y-121134206D01*
X77153694Y-121134774D01*
X77754655Y-120886462D01*
X77861935Y-120779368D01*
X78766280Y-121683713D01*
X78766283Y-121683717D01*
X78766284Y-121683717D01*
X79034095Y-121862663D01*
X79350000Y-121925501D01*
X79350000Y-121925500D01*
X79350005Y-121925500D01*
X87180000Y-121925500D01*
X87495905Y-121862663D01*
X87495906Y-121862663D01*
X87763717Y-121683717D01*
X88474370Y-120973063D01*
X88573453Y-121014206D01*
X89223694Y-121014774D01*
X89824655Y-120766462D01*
X90284846Y-120307073D01*
X90327022Y-120205500D01*
X94116276Y-120205500D01*
X94464113Y-120553944D01*
X94679496Y-120643378D01*
X94525735Y-120707069D01*
X94457675Y-120948070D01*
X95250000Y-121740395D01*
X96042325Y-120948070D01*
X95974265Y-120707069D01*
X95808959Y-120648231D01*
X96033837Y-120555314D01*
X96384261Y-120205500D01*
X102349300Y-120205500D01*
X102665205Y-120142663D01*
X102665206Y-120142663D01*
X102933017Y-119963717D01*
X103275433Y-119621300D01*
X103932130Y-119621300D01*
X103916743Y-119662937D01*
X104889300Y-120635495D01*
X105861857Y-119662937D01*
X105846469Y-119621300D01*
X108903466Y-119621300D01*
X111849866Y-122567700D01*
X106534701Y-122567700D01*
X106534701Y-121079518D01*
X106510641Y-120429723D01*
X106308265Y-119941142D01*
X106041463Y-119842543D01*
X105068905Y-120815100D01*
X106041463Y-121787657D01*
X106308265Y-121689058D01*
X106534701Y-121079518D01*
X106534701Y-122567700D01*
X105861857Y-122567700D01*
X105861857Y-121967263D01*
X104889300Y-120994705D01*
X104709695Y-121174310D01*
X104709695Y-120815100D01*
X103737137Y-119842543D01*
X103470335Y-119941142D01*
X103243899Y-120550682D01*
X103267959Y-121200477D01*
X103470335Y-121689058D01*
X103737137Y-121787657D01*
X104709695Y-120815100D01*
X104709695Y-121174310D01*
X103916743Y-121967263D01*
X104015342Y-122234065D01*
X104624882Y-122460501D01*
X105274677Y-122436441D01*
X105763258Y-122234065D01*
X105861857Y-121967263D01*
X105861857Y-122567700D01*
X96490183Y-122567700D01*
X96647767Y-122124966D01*
X96619805Y-121574462D01*
X96462931Y-121195735D01*
X96221930Y-121127675D01*
X95429605Y-121920000D01*
X95443747Y-121934142D01*
X95264142Y-122113747D01*
X95250000Y-122099605D01*
X95235857Y-122113747D01*
X95056252Y-121934142D01*
X95070395Y-121920000D01*
X94278070Y-121127675D01*
X94037069Y-121195735D01*
X93852233Y-121715034D01*
X93880195Y-122265538D01*
X94005354Y-122567700D01*
X66178733Y-122567700D01*
X61378133Y-117767099D01*
X62102513Y-117042719D01*
X62102517Y-117042717D01*
X62102517Y-117042716D01*
X62204810Y-116889623D01*
X66762640Y-112331793D01*
X67026143Y-112222917D01*
X67289392Y-111960127D01*
X67432038Y-111616599D01*
X67432362Y-111244633D01*
X67290317Y-110900857D01*
X67027527Y-110637608D01*
X66683999Y-110494962D01*
X66312033Y-110494638D01*
X65968257Y-110636683D01*
X65705008Y-110899473D01*
X65594882Y-111164683D01*
X60935083Y-115824483D01*
X60832787Y-115977579D01*
X60832785Y-115977580D01*
X59525866Y-117284500D01*
X56037432Y-117284500D01*
X55996462Y-117185345D01*
X55537073Y-116725154D01*
X54936547Y-116475794D01*
X54286306Y-116475226D01*
X53685345Y-116723538D01*
X53225154Y-117182927D01*
X53182977Y-117284500D01*
X52227432Y-117284500D01*
X52186462Y-117185345D01*
X51727073Y-116725154D01*
X51126547Y-116475794D01*
X50476306Y-116475226D01*
X49875345Y-116723538D01*
X49415154Y-117182927D01*
X49165794Y-117783453D01*
X49165226Y-118433694D01*
X49413538Y-119034655D01*
X49872927Y-119494846D01*
X50473453Y-119744206D01*
X51123694Y-119744774D01*
X51724655Y-119496462D01*
X52184846Y-119037073D01*
X52227022Y-118935500D01*
X53182567Y-118935500D01*
X53223538Y-119034655D01*
X53682927Y-119494846D01*
X54283453Y-119744206D01*
X54933694Y-119744774D01*
X55534655Y-119496462D01*
X55994846Y-119037073D01*
X56037022Y-118935500D01*
X59626500Y-118935500D01*
X59867800Y-118935500D01*
X60211666Y-118935500D01*
X65253083Y-123976917D01*
X65520894Y-124155863D01*
X65520895Y-124155863D01*
X65836800Y-124218700D01*
X136359900Y-124218700D01*
X136675805Y-124155863D01*
X136675806Y-124155863D01*
X136943617Y-123976917D01*
X140499613Y-120420919D01*
X140499616Y-120420917D01*
X140499617Y-120420917D01*
X141985033Y-118935500D01*
X149702567Y-118935500D01*
X149743538Y-119034655D01*
X150202927Y-119494846D01*
X150803453Y-119744206D01*
X151453694Y-119744774D01*
X152054655Y-119496462D01*
X152514846Y-119037073D01*
X152764206Y-118436547D01*
X152764774Y-117786306D01*
X152516462Y-117185345D01*
X152057073Y-116725154D01*
X151456547Y-116475794D01*
X150806306Y-116475226D01*
X150205345Y-116723538D01*
X149745154Y-117182927D01*
X149702977Y-117284500D01*
X141643105Y-117284500D01*
X141643100Y-117284499D01*
X141327195Y-117347337D01*
X141059383Y-117526283D01*
X141059380Y-117526286D01*
X139332183Y-119253483D01*
X139332180Y-119253486D01*
X136017966Y-122567700D01*
X120115633Y-122567700D01*
X122122717Y-120560617D01*
X122301663Y-120292806D01*
X122301663Y-120292805D01*
X122364500Y-119976900D01*
X122364500Y-118193391D01*
X122605268Y-118145500D01*
X123054779Y-117845146D01*
X123157843Y-117690900D01*
X126329500Y-117690900D01*
X126398621Y-117794346D01*
X126848132Y-118094700D01*
X127378367Y-118200170D01*
X128450433Y-118200170D01*
X128980668Y-118094700D01*
X129430179Y-117794346D01*
X129449858Y-117764892D01*
X133083780Y-121398813D01*
X133083783Y-121398817D01*
X133351594Y-121577762D01*
X133351595Y-121577763D01*
X133667500Y-121640600D01*
X136067800Y-121640600D01*
X136383705Y-121577763D01*
X136383706Y-121577763D01*
X136651517Y-121398817D01*
X141185417Y-116864917D01*
X141364363Y-116597106D01*
X141364363Y-116597105D01*
X141364371Y-116597062D01*
X145831863Y-112129570D01*
X146586033Y-112129570D01*
X147116268Y-112024100D01*
X147565779Y-111723746D01*
X147668843Y-111569500D01*
X149073566Y-111569500D01*
X150101780Y-112597713D01*
X150101783Y-112597717D01*
X150262324Y-112704986D01*
X150369594Y-112776663D01*
X150369595Y-112776663D01*
X150685500Y-112839500D01*
X153575156Y-112839500D01*
X153678221Y-112993746D01*
X154112616Y-113284000D01*
X153793300Y-113497360D01*
X149487502Y-113497360D01*
X149481562Y-113482983D01*
X149064294Y-113064986D01*
X148518827Y-112838488D01*
X147928204Y-112837972D01*
X147382343Y-113063518D01*
X146964346Y-113480786D01*
X146737848Y-114026253D01*
X146737332Y-114616876D01*
X146962878Y-115162737D01*
X147380146Y-115580734D01*
X147925613Y-115807232D01*
X148516236Y-115807748D01*
X149062097Y-115582202D01*
X149480094Y-115164934D01*
X149486976Y-115148360D01*
X153420714Y-115148360D01*
X153678221Y-115533746D01*
X154112616Y-115824000D01*
X153678221Y-116114254D01*
X153377867Y-116563765D01*
X153272397Y-117094000D01*
X153377867Y-117624235D01*
X153678221Y-118073746D01*
X154127732Y-118374100D01*
X154657967Y-118479570D01*
X155412136Y-118479570D01*
X157023280Y-120090713D01*
X157023283Y-120090717D01*
X157183824Y-120197986D01*
X157291094Y-120269663D01*
X157291095Y-120269663D01*
X157607000Y-120332500D01*
X161259567Y-120332500D01*
X161300538Y-120431655D01*
X161759927Y-120891846D01*
X162360453Y-121141206D01*
X163010694Y-121141774D01*
X163611655Y-120893462D01*
X164071846Y-120434073D01*
X164114022Y-120332500D01*
X165893000Y-120332500D01*
X166208905Y-120269663D01*
X166208906Y-120269663D01*
X166476717Y-120090717D01*
X167141933Y-119425500D01*
X168173009Y-119425500D01*
X168130375Y-119576470D01*
X168922700Y-120368795D01*
X169715025Y-119576470D01*
X169672390Y-119425500D01*
X172090300Y-119425500D01*
X172406205Y-119362663D01*
X172406206Y-119362663D01*
X172674017Y-119183717D01*
X175906993Y-115950740D01*
X177266600Y-115950740D01*
X177508723Y-115903763D01*
X177721527Y-115763973D01*
X177863977Y-115552940D01*
X177914040Y-115303300D01*
X177914040Y-113576100D01*
X177867063Y-113333977D01*
X177727273Y-113121173D01*
X177516240Y-112978723D01*
X177477637Y-112970981D01*
X177495015Y-112959370D01*
X177557948Y-112865184D01*
X181483000Y-116790236D01*
X181483000Y-116827560D01*
X181356000Y-116827560D01*
X181113877Y-116874537D01*
X180901073Y-117014327D01*
X180758623Y-117225360D01*
X180708560Y-117475000D01*
X180708560Y-119507000D01*
X180755537Y-119749123D01*
X180895327Y-119961927D01*
X181106360Y-120104377D01*
X181356000Y-120154440D01*
X183388000Y-120154440D01*
X183630123Y-120107463D01*
X183842927Y-119967673D01*
X183939836Y-119824106D01*
X183943621Y-119828188D01*
X184529054Y-120096983D01*
X184785000Y-119978367D01*
X184785000Y-118618000D01*
X184765000Y-118618000D01*
X184765000Y-118364000D01*
X184785000Y-118364000D01*
X184785000Y-117003633D01*
X184529054Y-116885017D01*
X183943621Y-117153812D01*
X183939467Y-117158291D01*
X183848673Y-117020073D01*
X183637640Y-116877623D01*
X183388000Y-116827560D01*
X183261000Y-116827560D01*
X183261000Y-116422000D01*
X183193329Y-116081795D01*
X183193329Y-116081794D01*
X183000618Y-115793382D01*
X178478318Y-111271082D01*
X178189906Y-111078371D01*
X177849700Y-111010700D01*
X177609053Y-111010700D01*
X177495015Y-110840030D01*
X177180234Y-110629700D01*
X177495015Y-110419370D01*
X177819871Y-109933189D01*
X177933945Y-109359700D01*
X177819871Y-108786211D01*
X177495015Y-108300030D01*
X177008834Y-107975174D01*
X176435345Y-107861100D01*
X176065855Y-107861100D01*
X175943726Y-107885392D01*
X175069500Y-107011166D01*
X175069500Y-104905882D01*
X175303670Y-104749415D01*
X175514000Y-104434634D01*
X175724330Y-104749415D01*
X176210511Y-105074271D01*
X176784000Y-105188345D01*
X177357489Y-105074271D01*
X177843670Y-104749415D01*
X178168526Y-104263234D01*
X178282600Y-103689745D01*
X178282600Y-103320255D01*
X178168526Y-102746766D01*
X177945397Y-102412830D01*
X179116280Y-103583713D01*
X179116283Y-103583717D01*
X179116284Y-103583717D01*
X179384095Y-103762663D01*
X179700000Y-103825501D01*
X179700000Y-103825500D01*
X179700005Y-103825500D01*
X180866276Y-103825500D01*
X181174500Y-104134261D01*
X181174500Y-108300000D01*
X181237337Y-108615906D01*
X181416283Y-108883717D01*
X181724500Y-109191933D01*
X181724500Y-110086560D01*
X181534000Y-110086560D01*
X181291877Y-110133537D01*
X181079073Y-110273327D01*
X180936623Y-110484360D01*
X180886560Y-110734000D01*
X180886560Y-112766000D01*
X180933537Y-113008123D01*
X181073327Y-113220927D01*
X181284360Y-113363377D01*
X181534000Y-113413440D01*
X183566000Y-113413440D01*
X183808123Y-113366463D01*
X184020927Y-113226673D01*
X184117836Y-113083106D01*
X184121621Y-113087188D01*
X184707054Y-113355983D01*
X184963000Y-113237367D01*
X184963000Y-111877000D01*
X184943000Y-111877000D01*
X184943000Y-111623000D01*
X184963000Y-111623000D01*
X184963000Y-110262633D01*
X184707054Y-110144017D01*
X184121621Y-110412812D01*
X184117467Y-110417291D01*
X184026673Y-110279073D01*
X183815640Y-110136623D01*
X183566000Y-110086560D01*
X183375500Y-110086560D01*
X183375500Y-108850000D01*
X183312663Y-108534095D01*
X183312662Y-108534094D01*
X183133717Y-108266283D01*
X183133713Y-108266280D01*
X182825500Y-107958066D01*
X182825500Y-104133723D01*
X183173944Y-103785887D01*
X183385329Y-103276816D01*
X183385810Y-102725602D01*
X183175314Y-102216163D01*
X182785887Y-101826056D01*
X182276816Y-101614671D01*
X181725602Y-101614190D01*
X181216163Y-101824686D01*
X180865738Y-102174500D01*
X180041933Y-102174500D01*
X177133717Y-99266283D01*
X176865906Y-99087337D01*
X176550000Y-99024500D01*
X175829104Y-99024500D01*
X176009846Y-98844073D01*
X176052022Y-98742500D01*
X178680617Y-98742500D01*
X178826538Y-99095655D01*
X179285927Y-99555846D01*
X179886453Y-99805206D01*
X180536694Y-99805774D01*
X181137655Y-99557462D01*
X181597846Y-99098073D01*
X181847206Y-98497547D01*
X181847774Y-97847306D01*
X181599462Y-97246345D01*
X181140073Y-96786154D01*
X180539547Y-96536794D01*
X179889306Y-96536226D01*
X179288345Y-96784538D01*
X178980847Y-97091500D01*
X176052432Y-97091500D01*
X176011462Y-96992345D01*
X175552073Y-96532154D01*
X174951547Y-96282794D01*
X174301306Y-96282226D01*
X173700345Y-96530538D01*
X173240154Y-96989927D01*
X173197977Y-97091500D01*
X170798774Y-97091500D01*
X170798774Y-87433306D01*
X170550462Y-86832345D01*
X170091073Y-86372154D01*
X169490547Y-86122794D01*
X168889703Y-86122269D01*
X167527717Y-84760283D01*
X167259906Y-84581337D01*
X166944000Y-84518500D01*
X162423723Y-84518500D01*
X162075887Y-84170056D01*
X161566816Y-83958671D01*
X161015602Y-83958190D01*
X160506163Y-84168686D01*
X160116056Y-84558113D01*
X159904671Y-85067184D01*
X159904190Y-85618398D01*
X160114686Y-86127837D01*
X160504113Y-86517944D01*
X161013184Y-86729329D01*
X161564398Y-86729810D01*
X162073837Y-86519314D01*
X162424261Y-86169500D01*
X166602066Y-86169500D01*
X167627563Y-87194997D01*
X167529794Y-87430453D01*
X167529226Y-88080694D01*
X167777538Y-88681655D01*
X168236927Y-89141846D01*
X168837453Y-89391206D01*
X169487694Y-89391774D01*
X170088655Y-89143462D01*
X170548846Y-88684073D01*
X170798206Y-88083547D01*
X170798774Y-87433306D01*
X170798774Y-97091500D01*
X170591432Y-97091500D01*
X170550462Y-96992345D01*
X170091073Y-96532154D01*
X169490547Y-96282794D01*
X168840306Y-96282226D01*
X168239345Y-96530538D01*
X167779154Y-96989927D01*
X167673695Y-97243900D01*
X165932601Y-97243900D01*
X165932601Y-88173818D01*
X165908541Y-87524023D01*
X165706165Y-87035442D01*
X165439363Y-86936843D01*
X165259757Y-87116448D01*
X165259757Y-86757237D01*
X165161158Y-86490435D01*
X164551618Y-86263999D01*
X163901823Y-86288059D01*
X163413242Y-86490435D01*
X163314643Y-86757237D01*
X164287200Y-87729795D01*
X165259757Y-86757237D01*
X165259757Y-87116448D01*
X164466805Y-87909400D01*
X165439363Y-88881957D01*
X165706165Y-88783358D01*
X165932601Y-88173818D01*
X165932601Y-97243900D01*
X165714632Y-97243900D01*
X165673662Y-97144745D01*
X165259757Y-96730117D01*
X165259757Y-89061563D01*
X164287200Y-88089005D01*
X164107595Y-88268610D01*
X164107595Y-87909400D01*
X163135037Y-86936843D01*
X162868235Y-87035442D01*
X162641799Y-87644982D01*
X162665859Y-88294777D01*
X162868235Y-88783358D01*
X163135037Y-88881957D01*
X164107595Y-87909400D01*
X164107595Y-88268610D01*
X163314643Y-89061563D01*
X163413242Y-89328365D01*
X164022782Y-89554801D01*
X164672577Y-89530741D01*
X165161158Y-89328365D01*
X165259757Y-89061563D01*
X165259757Y-96730117D01*
X165214273Y-96684554D01*
X164613747Y-96435194D01*
X163963506Y-96434626D01*
X163362545Y-96682938D01*
X162902354Y-97142327D01*
X162860177Y-97243900D01*
X162511333Y-97243900D01*
X158865810Y-93598376D01*
X158865810Y-85069602D01*
X158655314Y-84560163D01*
X158265887Y-84170056D01*
X157756816Y-83958671D01*
X157205602Y-83958190D01*
X156696163Y-84168686D01*
X156306056Y-84558113D01*
X156094671Y-85067184D01*
X156094190Y-85618398D01*
X156304686Y-86127837D01*
X156694113Y-86517944D01*
X157203184Y-86729329D01*
X157754398Y-86729810D01*
X158263837Y-86519314D01*
X158653944Y-86129887D01*
X158865329Y-85620816D01*
X158865810Y-85069602D01*
X158865810Y-93598376D01*
X154990800Y-89723366D01*
X154990800Y-86293549D01*
X155255055Y-86184362D01*
X155715246Y-85724973D01*
X155964606Y-85124447D01*
X155965174Y-84474206D01*
X155716862Y-83873245D01*
X155257473Y-83413054D01*
X154656947Y-83163694D01*
X154006706Y-83163126D01*
X153405745Y-83411438D01*
X152945554Y-83870827D01*
X152696194Y-84471353D01*
X152695626Y-85121594D01*
X152737625Y-85223240D01*
X152736365Y-85224500D01*
X151957432Y-85224500D01*
X151916462Y-85125345D01*
X151457073Y-84665154D01*
X150856547Y-84415794D01*
X150206306Y-84415226D01*
X149605345Y-84663538D01*
X149145154Y-85122927D01*
X148895794Y-85723453D01*
X148895226Y-86373694D01*
X149143538Y-86974655D01*
X149602927Y-87434846D01*
X150203453Y-87684206D01*
X150853694Y-87684774D01*
X151454655Y-87436462D01*
X151914846Y-86977073D01*
X151957022Y-86875500D01*
X153078300Y-86875500D01*
X153339800Y-86823484D01*
X153339800Y-90065300D01*
X153402637Y-90381206D01*
X153581583Y-90649017D01*
X161585680Y-98653113D01*
X161585683Y-98653117D01*
X161585684Y-98653117D01*
X161853495Y-98832063D01*
X162169400Y-98894901D01*
X162169400Y-98894900D01*
X162169405Y-98894900D01*
X162294266Y-98894900D01*
X160591321Y-100597844D01*
X160612662Y-100565906D01*
X160612663Y-100565905D01*
X160675500Y-100250000D01*
X160675500Y-98600000D01*
X160612663Y-98284095D01*
X160612663Y-98284094D01*
X160540986Y-98176824D01*
X160433717Y-98016283D01*
X160433713Y-98016280D01*
X156791617Y-94374183D01*
X156523806Y-94195237D01*
X156207900Y-94132400D01*
X155757832Y-94132400D01*
X155716862Y-94033245D01*
X155257473Y-93573054D01*
X154656947Y-93323694D01*
X154006706Y-93323126D01*
X153405745Y-93571438D01*
X152945554Y-94030827D01*
X152696194Y-94631353D01*
X152695626Y-95281594D01*
X152943938Y-95882555D01*
X153403327Y-96342746D01*
X154003853Y-96592106D01*
X154654094Y-96592674D01*
X155255055Y-96344362D01*
X155715246Y-95884973D01*
X155757422Y-95783400D01*
X155865966Y-95783400D01*
X159024500Y-98941933D01*
X159024500Y-99908066D01*
X157209774Y-101722792D01*
X157209774Y-98990306D01*
X156961462Y-98389345D01*
X156502073Y-97929154D01*
X155901547Y-97679794D01*
X155251306Y-97679226D01*
X154650345Y-97927538D01*
X154190154Y-98386927D01*
X154147977Y-98488500D01*
X150655933Y-98488500D01*
X145022444Y-92855010D01*
X145022810Y-92435602D01*
X144812314Y-91926163D01*
X144422887Y-91536056D01*
X143913816Y-91324671D01*
X143362602Y-91324190D01*
X142853163Y-91534686D01*
X142463056Y-91924113D01*
X142251671Y-92433184D01*
X142251190Y-92984398D01*
X142461686Y-93493837D01*
X142851113Y-93883944D01*
X143360184Y-94095329D01*
X143911398Y-94095810D01*
X143923412Y-94090845D01*
X149730280Y-99897713D01*
X149730283Y-99897717D01*
X149998094Y-100076662D01*
X149998095Y-100076663D01*
X150314000Y-100139500D01*
X154147567Y-100139500D01*
X154188538Y-100238655D01*
X154647927Y-100698846D01*
X155248453Y-100948206D01*
X155898694Y-100948774D01*
X156499655Y-100700462D01*
X156959846Y-100241073D01*
X157209206Y-99640547D01*
X157209774Y-98990306D01*
X157209774Y-101722792D01*
X156308066Y-102624500D01*
X152400000Y-102624500D01*
X152084095Y-102687337D01*
X151816283Y-102866283D01*
X151816280Y-102866286D01*
X148466283Y-106216283D01*
X148433211Y-106265778D01*
X147948347Y-105780913D01*
X147971603Y-105664000D01*
X147866133Y-105133765D01*
X147565779Y-104684254D01*
X147116268Y-104383900D01*
X146875500Y-104336008D01*
X146875500Y-100058877D01*
X147049206Y-99640547D01*
X147049774Y-98990306D01*
X146801462Y-98389345D01*
X146342073Y-97929154D01*
X145741547Y-97679794D01*
X145091306Y-97679226D01*
X144490345Y-97927538D01*
X144030154Y-98386927D01*
X143780794Y-98987453D01*
X143780226Y-99637694D01*
X144028538Y-100238655D01*
X144487927Y-100698846D01*
X145088453Y-100948206D01*
X145224500Y-100948324D01*
X145224500Y-104336008D01*
X144983732Y-104383900D01*
X144534221Y-104684254D01*
X144233867Y-105133765D01*
X144128397Y-105664000D01*
X144233867Y-106194235D01*
X144534221Y-106643746D01*
X144968616Y-106934000D01*
X144657029Y-107142196D01*
X143852900Y-106338066D01*
X143852900Y-104470200D01*
X143790063Y-104154295D01*
X143790063Y-104154294D01*
X143611117Y-103886483D01*
X141668500Y-101943866D01*
X141668500Y-99979432D01*
X141767655Y-99938462D01*
X142227846Y-99479073D01*
X142477206Y-98878547D01*
X142477774Y-98228306D01*
X142229462Y-97627345D01*
X141770073Y-97167154D01*
X141169547Y-96917794D01*
X140519306Y-96917226D01*
X139918345Y-97165538D01*
X139458154Y-97624927D01*
X139208794Y-98225453D01*
X139208226Y-98875694D01*
X139456538Y-99476655D01*
X139915927Y-99936846D01*
X140017500Y-99979022D01*
X140017500Y-102285800D01*
X140080337Y-102601706D01*
X140259283Y-102869517D01*
X142201900Y-104812134D01*
X142201900Y-106680000D01*
X142264737Y-106995906D01*
X142443683Y-107263717D01*
X143967680Y-108787713D01*
X143967683Y-108787717D01*
X144235494Y-108966662D01*
X144235495Y-108966663D01*
X144412726Y-109001916D01*
X144534221Y-109183746D01*
X144968616Y-109474000D01*
X144534221Y-109764254D01*
X144233867Y-110213765D01*
X144128397Y-110744000D01*
X144233867Y-111274235D01*
X144281317Y-111345249D01*
X140017983Y-115608583D01*
X139839037Y-115876394D01*
X139839028Y-115876437D01*
X138830718Y-116884747D01*
X138887720Y-116598180D01*
X138887720Y-115819930D01*
X138911850Y-115819930D01*
X139153973Y-115772953D01*
X139366777Y-115633163D01*
X139509227Y-115422130D01*
X139559290Y-115172490D01*
X139559290Y-113473230D01*
X139512313Y-113231107D01*
X139372523Y-113018303D01*
X139161490Y-112875853D01*
X138911850Y-112825790D01*
X137212590Y-112825790D01*
X136970467Y-112872767D01*
X136757663Y-113012557D01*
X136615213Y-113223590D01*
X136581405Y-113392172D01*
X134340117Y-111150883D01*
X134072306Y-110971937D01*
X133756400Y-110909100D01*
X129533243Y-110909100D01*
X129430179Y-110754854D01*
X128980668Y-110454500D01*
X128450433Y-110349030D01*
X127378367Y-110349030D01*
X126848132Y-110454500D01*
X126398621Y-110754854D01*
X126098267Y-111204365D01*
X125992797Y-111734600D01*
X126098267Y-112264835D01*
X126398621Y-112714346D01*
X126833016Y-113004600D01*
X126398621Y-113294854D01*
X126261613Y-113499900D01*
X123157843Y-113499900D01*
X123054779Y-113345654D01*
X122620383Y-113055400D01*
X123054779Y-112765146D01*
X123355133Y-112315635D01*
X123460603Y-111785400D01*
X123355133Y-111255165D01*
X123054779Y-110805654D01*
X122605268Y-110505300D01*
X122075033Y-110399830D01*
X121002967Y-110399830D01*
X120472732Y-110505300D01*
X120023221Y-110805654D01*
X119722867Y-111255165D01*
X119617397Y-111785400D01*
X119722867Y-112315635D01*
X120023221Y-112765146D01*
X120457616Y-113055400D01*
X120023221Y-113345654D01*
X119920156Y-113499900D01*
X117589300Y-113499900D01*
X117273395Y-113562737D01*
X117005583Y-113741683D01*
X117005580Y-113741686D01*
X114465583Y-116281683D01*
X114286637Y-116549494D01*
X114223800Y-116865400D01*
X114223800Y-119387667D01*
X114124645Y-119428638D01*
X113664454Y-119888027D01*
X113415094Y-120488553D01*
X113414526Y-121138794D01*
X113662838Y-121739755D01*
X113754023Y-121831100D01*
X113448133Y-121831100D01*
X109829117Y-118212083D01*
X109561306Y-118033137D01*
X109245400Y-117970300D01*
X108704114Y-117970300D01*
X108760355Y-117947062D01*
X109220546Y-117487673D01*
X109469906Y-116887147D01*
X109470474Y-116236906D01*
X109222162Y-115635945D01*
X108762773Y-115175754D01*
X108661200Y-115133577D01*
X108661200Y-112102905D01*
X108661200Y-112102900D01*
X108661201Y-112102900D01*
X108598363Y-111786995D01*
X108598363Y-111786994D01*
X108419417Y-111519183D01*
X105537000Y-108636766D01*
X105537000Y-105243933D01*
X107262152Y-103518780D01*
X107698427Y-103519161D01*
X109754366Y-105575100D01*
X109263132Y-105575100D01*
X109222162Y-105475945D01*
X108762773Y-105015754D01*
X108162247Y-104766394D01*
X107512006Y-104765826D01*
X106911045Y-105014138D01*
X106450854Y-105473527D01*
X106201494Y-106074053D01*
X106200926Y-106724294D01*
X106449238Y-107325255D01*
X106908627Y-107785446D01*
X107509153Y-108034806D01*
X108159394Y-108035374D01*
X108760355Y-107787062D01*
X109220546Y-107327673D01*
X109262722Y-107226100D01*
X110059166Y-107226100D01*
X111036583Y-108203517D01*
X111304394Y-108382463D01*
X111304395Y-108382463D01*
X111620300Y-108445300D01*
X113991317Y-108445300D01*
X114147785Y-108679470D01*
X114633966Y-109004326D01*
X115207455Y-109118400D01*
X115576945Y-109118400D01*
X116150434Y-109004326D01*
X116636615Y-108679470D01*
X116793082Y-108445300D01*
X129413000Y-108445300D01*
X129728905Y-108382463D01*
X129728906Y-108382463D01*
X129996717Y-108203517D01*
X131939334Y-106260900D01*
X132824267Y-106260900D01*
X132865238Y-106360055D01*
X133324627Y-106820246D01*
X133925153Y-107069606D01*
X134567099Y-107070166D01*
X134448283Y-107148217D01*
X134305833Y-107359250D01*
X134255770Y-107608890D01*
X134255770Y-109308150D01*
X134302747Y-109550273D01*
X134442537Y-109763077D01*
X134653570Y-109905527D01*
X134903210Y-109955590D01*
X136602470Y-109955590D01*
X136844593Y-109908613D01*
X137057397Y-109768823D01*
X137199847Y-109557790D01*
X137249910Y-109308150D01*
X137249910Y-109284020D01*
X139310832Y-109284020D01*
X139456538Y-109636655D01*
X139915927Y-110096846D01*
X140516453Y-110346206D01*
X141166694Y-110346774D01*
X141767655Y-110098462D01*
X142227846Y-109639073D01*
X142477206Y-109038547D01*
X142477774Y-108388306D01*
X142229462Y-107787345D01*
X141770073Y-107327154D01*
X141169547Y-107077794D01*
X140519306Y-107077226D01*
X139918345Y-107325538D01*
X139610326Y-107633020D01*
X137745774Y-107633020D01*
X138442217Y-106936577D01*
X138621163Y-106668766D01*
X138621163Y-106668765D01*
X138684000Y-106352860D01*
X138684001Y-106352860D01*
X138684000Y-106352854D01*
X138684000Y-104025700D01*
X138621163Y-103709795D01*
X138621162Y-103709794D01*
X138442217Y-103441983D01*
X138442213Y-103441980D01*
X137985017Y-102984783D01*
X137717206Y-102805837D01*
X137401300Y-102743000D01*
X135229947Y-102743000D01*
X135482005Y-102692863D01*
X135482006Y-102692863D01*
X135749817Y-102513917D01*
X137210317Y-101053417D01*
X137389263Y-100785606D01*
X137389263Y-100785605D01*
X137452100Y-100469700D01*
X137452101Y-100469700D01*
X137452100Y-100469694D01*
X137452100Y-98183705D01*
X137452100Y-98183700D01*
X137452101Y-98183700D01*
X137389263Y-97867795D01*
X137210317Y-97599984D01*
X137210317Y-97599983D01*
X137210313Y-97599980D01*
X135533917Y-95923583D01*
X135266106Y-95744637D01*
X134950200Y-95681800D01*
X134419796Y-95681800D01*
X134998555Y-95442662D01*
X135458746Y-94983273D01*
X135708106Y-94382747D01*
X135708674Y-93732506D01*
X135460362Y-93131545D01*
X135000973Y-92671354D01*
X134899400Y-92629177D01*
X134899400Y-88116833D01*
X138679891Y-91897324D01*
X138653056Y-91924113D01*
X138441671Y-92433184D01*
X138441190Y-92984398D01*
X138651686Y-93493837D01*
X139041113Y-93883944D01*
X139550184Y-94095329D01*
X140101398Y-94095810D01*
X140610837Y-93885314D01*
X141000944Y-93495887D01*
X141212329Y-92986816D01*
X141212810Y-92435602D01*
X141002314Y-91926163D01*
X140612887Y-91536056D01*
X140557590Y-91513094D01*
X140557589Y-91513094D01*
X140410717Y-91293283D01*
X140410713Y-91293280D01*
X133125500Y-84008066D01*
X133125500Y-83483480D01*
X133258655Y-83428462D01*
X133718846Y-82969073D01*
X133968206Y-82368547D01*
X133968774Y-81718306D01*
X133720462Y-81117345D01*
X133261073Y-80657154D01*
X132660547Y-80407794D01*
X132010306Y-80407226D01*
X131409345Y-80655538D01*
X130949154Y-81114927D01*
X130699794Y-81715453D01*
X130699226Y-82365694D01*
X130947538Y-82966655D01*
X131406927Y-83426846D01*
X131474500Y-83454904D01*
X131474500Y-83863166D01*
X127597549Y-79986215D01*
X127787433Y-79702035D01*
X127892903Y-79171800D01*
X127787433Y-78641565D01*
X127487079Y-78192054D01*
X127052683Y-77901800D01*
X127487079Y-77611546D01*
X127590143Y-77457300D01*
X134444898Y-77457300D01*
X134444901Y-77457300D01*
X134536400Y-77475501D01*
X134536400Y-77475500D01*
X134536405Y-77475500D01*
X136075000Y-77475500D01*
X136390905Y-77412663D01*
X136390906Y-77412663D01*
X136658717Y-77233717D01*
X139355053Y-74537380D01*
X139847398Y-74537810D01*
X140356837Y-74327314D01*
X140746944Y-73937887D01*
X140958329Y-73428816D01*
X140958810Y-72877602D01*
X140748314Y-72368163D01*
X140506073Y-72125500D01*
X147669697Y-72125500D01*
X147657675Y-72168070D01*
X148450000Y-72960395D01*
X149242325Y-72168070D01*
X149230302Y-72125500D01*
X154608066Y-72125500D01*
X156003482Y-73520915D01*
X155965162Y-73613201D01*
X155964838Y-73985167D01*
X156063728Y-74224500D01*
X154650000Y-74224500D01*
X154334095Y-74287337D01*
X154278476Y-74324500D01*
X149847767Y-74324500D01*
X149847767Y-73344966D01*
X149819805Y-72794462D01*
X149662931Y-72415735D01*
X149421930Y-72347675D01*
X148629605Y-73140000D01*
X149421930Y-73932325D01*
X149662931Y-73864265D01*
X149847767Y-73344966D01*
X149847767Y-74324500D01*
X149182294Y-74324500D01*
X149242325Y-74111930D01*
X148450000Y-73319605D01*
X148270395Y-73499210D01*
X148270395Y-73140000D01*
X147478070Y-72347675D01*
X147237069Y-72415735D01*
X147052233Y-72935034D01*
X147080195Y-73485538D01*
X147237069Y-73864265D01*
X147478070Y-73932325D01*
X148270395Y-73140000D01*
X148270395Y-73499210D01*
X147657675Y-74111930D01*
X147717705Y-74324500D01*
X145400000Y-74324500D01*
X145084094Y-74387337D01*
X144976824Y-74459013D01*
X144816283Y-74566283D01*
X144816280Y-74566286D01*
X140970767Y-78411799D01*
X140970767Y-77166966D01*
X140942805Y-76616462D01*
X140785931Y-76237735D01*
X140544930Y-76169675D01*
X140365325Y-76349280D01*
X140365325Y-75990070D01*
X140297265Y-75749069D01*
X139777966Y-75564233D01*
X139227462Y-75592195D01*
X138848735Y-75749069D01*
X138780675Y-75990070D01*
X139573000Y-76782395D01*
X140365325Y-75990070D01*
X140365325Y-76349280D01*
X139752605Y-76962000D01*
X140544930Y-77754325D01*
X140785931Y-77686265D01*
X140970767Y-77166966D01*
X140970767Y-78411799D01*
X140758066Y-78624500D01*
X140365325Y-78624500D01*
X140365325Y-77933930D01*
X139573000Y-77141605D01*
X139393395Y-77321210D01*
X139393395Y-76962000D01*
X138601070Y-76169675D01*
X138360069Y-76237735D01*
X138175233Y-76757034D01*
X138203195Y-77307538D01*
X138360069Y-77686265D01*
X138601070Y-77754325D01*
X139393395Y-76962000D01*
X139393395Y-77321210D01*
X138780675Y-77933930D01*
X138848735Y-78174931D01*
X139368034Y-78359767D01*
X139918538Y-78331805D01*
X140297265Y-78174931D01*
X140365325Y-77933930D01*
X140365325Y-78624500D01*
X130450005Y-78624500D01*
X130450000Y-78624499D01*
X130134095Y-78687337D01*
X129866283Y-78866283D01*
X129866280Y-78866286D01*
X129334560Y-79398005D01*
X129071057Y-79506883D01*
X128807808Y-79769673D01*
X128665162Y-80113201D01*
X128664838Y-80485167D01*
X128806883Y-80828943D01*
X129069673Y-81092192D01*
X129413201Y-81234838D01*
X129785167Y-81235162D01*
X130128943Y-81093117D01*
X130392192Y-80830327D01*
X130502317Y-80565115D01*
X130791933Y-80275500D01*
X141100000Y-80275500D01*
X141415905Y-80212663D01*
X141415906Y-80212663D01*
X141683717Y-80033717D01*
X145741933Y-75975500D01*
X147464998Y-75975500D01*
X147276056Y-76164113D01*
X147064671Y-76673184D01*
X147064238Y-77168327D01*
X146358066Y-77874500D01*
X144650005Y-77874500D01*
X144650000Y-77874499D01*
X144334095Y-77937337D01*
X144066283Y-78116283D01*
X144066280Y-78116286D01*
X141458066Y-80724500D01*
X138900005Y-80724500D01*
X138900000Y-80724499D01*
X138584095Y-80787337D01*
X138316283Y-80966283D01*
X138316280Y-80966286D01*
X136476803Y-82805763D01*
X136297857Y-83073574D01*
X136269111Y-83218091D01*
X136269110Y-83218091D01*
X136220643Y-83238118D01*
X135802646Y-83655386D01*
X135576148Y-84200853D01*
X135575632Y-84791476D01*
X135801178Y-85337337D01*
X136218446Y-85755334D01*
X136763913Y-85981832D01*
X137354536Y-85982348D01*
X137900397Y-85756802D01*
X138318394Y-85339534D01*
X138544892Y-84794067D01*
X138545408Y-84203444D01*
X138319862Y-83657583D01*
X138140013Y-83477420D01*
X139241933Y-82375500D01*
X141800000Y-82375500D01*
X142115905Y-82312663D01*
X142115906Y-82312663D01*
X142383717Y-82133717D01*
X144991933Y-79525500D01*
X146700000Y-79525500D01*
X147015905Y-79462663D01*
X147015906Y-79462663D01*
X147283717Y-79283717D01*
X148232053Y-78335380D01*
X148724398Y-78335810D01*
X149233837Y-78125314D01*
X149584261Y-77775500D01*
X164000000Y-77775500D01*
X164315905Y-77712663D01*
X164315906Y-77712663D01*
X164583717Y-77533717D01*
X165115439Y-77001994D01*
X165378943Y-76893117D01*
X165642192Y-76630327D01*
X165784838Y-76286799D01*
X165785162Y-75914833D01*
X165768909Y-75875500D01*
X166258066Y-75875500D01*
X167576500Y-77193934D01*
X167576500Y-77847117D01*
X167342330Y-78003585D01*
X167331784Y-78019367D01*
X167326063Y-77989877D01*
X167186273Y-77777073D01*
X166975240Y-77634623D01*
X166725600Y-77584560D01*
X164998400Y-77584560D01*
X164756277Y-77631537D01*
X164543473Y-77771327D01*
X164401023Y-77982360D01*
X164350960Y-78232000D01*
X164350960Y-78422500D01*
X157252005Y-78422500D01*
X157252000Y-78422499D01*
X156936095Y-78485337D01*
X156817110Y-78564839D01*
X156814833Y-78564838D01*
X156471057Y-78706883D01*
X156207808Y-78969673D01*
X156065162Y-79313201D01*
X156064838Y-79685167D01*
X156206883Y-80028943D01*
X156469673Y-80292192D01*
X156813201Y-80434838D01*
X157185167Y-80435162D01*
X157528943Y-80293117D01*
X157748943Y-80073500D01*
X164350960Y-80073500D01*
X164350960Y-80264000D01*
X164397937Y-80506123D01*
X164537727Y-80718927D01*
X164748760Y-80861377D01*
X164998400Y-80911440D01*
X166725600Y-80911440D01*
X166967723Y-80864463D01*
X167180527Y-80724673D01*
X167322977Y-80513640D01*
X167330718Y-80475037D01*
X167342330Y-80492415D01*
X167828511Y-80817271D01*
X168142782Y-80879783D01*
X167798066Y-81224500D01*
X145350000Y-81224500D01*
X145034094Y-81287337D01*
X144926824Y-81359013D01*
X144766283Y-81466283D01*
X144766280Y-81466286D01*
X141432124Y-84800441D01*
X141297073Y-84665154D01*
X140696547Y-84415794D01*
X140046306Y-84415226D01*
X139445345Y-84663538D01*
X138985154Y-85122927D01*
X138735794Y-85723453D01*
X138735226Y-86373694D01*
X138983538Y-86974655D01*
X139442927Y-87434846D01*
X140043453Y-87684206D01*
X140693694Y-87684774D01*
X141294655Y-87436462D01*
X141754846Y-86977073D01*
X141883481Y-86667283D01*
X141933717Y-86633717D01*
X145691933Y-82875500D01*
X168140000Y-82875500D01*
X168455905Y-82812663D01*
X168455906Y-82812663D01*
X168723717Y-82633717D01*
X170511683Y-80845749D01*
X170942000Y-80931345D01*
X171515489Y-80817271D01*
X172001670Y-80492415D01*
X172326526Y-80006234D01*
X172440600Y-79432745D01*
X172440600Y-79063255D01*
X172326526Y-78489766D01*
X172001670Y-78003585D01*
X171515489Y-77678729D01*
X170942000Y-77564655D01*
X170368511Y-77678729D01*
X169882330Y-78003585D01*
X169672000Y-78318365D01*
X169461670Y-78003585D01*
X169227500Y-77847117D01*
X169227500Y-77089933D01*
X170065040Y-76252392D01*
X170064838Y-76485167D01*
X170206883Y-76828943D01*
X170469673Y-77092192D01*
X170813201Y-77234838D01*
X171185167Y-77235162D01*
X171450569Y-77125500D01*
X171608066Y-77125500D01*
X175457280Y-80974713D01*
X175457283Y-80974717D01*
X175457284Y-80974717D01*
X175725095Y-81153663D01*
X176041000Y-81216501D01*
X176041000Y-81216500D01*
X176041005Y-81216500D01*
X179438560Y-81216500D01*
X179438560Y-81407000D01*
X179485537Y-81649123D01*
X179625327Y-81861927D01*
X179836360Y-82004377D01*
X180086000Y-82054440D01*
X182118000Y-82054440D01*
X182360123Y-82007463D01*
X182572927Y-81867673D01*
X182669836Y-81724106D01*
X182673621Y-81728188D01*
X183259054Y-81996983D01*
X183515000Y-81878367D01*
X183515000Y-80518000D01*
X183495000Y-80518000D01*
X183495000Y-80264000D01*
X183515000Y-80264000D01*
X183515000Y-78903633D01*
X183259054Y-78785017D01*
X182673621Y-79053812D01*
X182669467Y-79058291D01*
X182578673Y-78920073D01*
X182367640Y-78777623D01*
X182118000Y-78727560D01*
X180086000Y-78727560D01*
X179843877Y-78774537D01*
X179631073Y-78914327D01*
X179488623Y-79125360D01*
X179438560Y-79375000D01*
X179438560Y-79565500D01*
X176382933Y-79565500D01*
X172533717Y-75716283D01*
X172265906Y-75537337D01*
X171950000Y-75474500D01*
X171450112Y-75474500D01*
X171186799Y-75365162D01*
X170814833Y-75364838D01*
X170537947Y-75479244D01*
X170548300Y-75427200D01*
X170548300Y-74387782D01*
X170782470Y-74231315D01*
X171107326Y-73745134D01*
X171221400Y-73171645D01*
X171221400Y-72802155D01*
X171107326Y-72228666D01*
X170782470Y-71742485D01*
X170296289Y-71417629D01*
X169982016Y-71355116D01*
X170061633Y-71275500D01*
X171858066Y-71275500D01*
X173016283Y-72433717D01*
X174572280Y-73989713D01*
X174572283Y-73989717D01*
X174732824Y-74096986D01*
X174840094Y-74168663D01*
X174840095Y-74168663D01*
X175156000Y-74231500D01*
X179057560Y-74231500D01*
X179057560Y-74422000D01*
X179104537Y-74664123D01*
X179244327Y-74876927D01*
X179455360Y-75019377D01*
X179705000Y-75069440D01*
X181737000Y-75069440D01*
X181979123Y-75022463D01*
X182191927Y-74882673D01*
X182288836Y-74739106D01*
X182292621Y-74743188D01*
X182878054Y-75011983D01*
X183134000Y-74893367D01*
X183134000Y-73533000D01*
X183114000Y-73533000D01*
X183114000Y-73279000D01*
X183134000Y-73279000D01*
X183134000Y-71918633D01*
X182878054Y-71800017D01*
X182292621Y-72068812D01*
X182288467Y-72073291D01*
X182197673Y-71935073D01*
X181986640Y-71792623D01*
X181737000Y-71742560D01*
X179705000Y-71742560D01*
X179462877Y-71789537D01*
X179250073Y-71929327D01*
X179107623Y-72140360D01*
X179057560Y-72390000D01*
X179057560Y-72580500D01*
X175497933Y-72580500D01*
X174284401Y-71366967D01*
X174284400Y-71366966D01*
X174183717Y-71216283D01*
X171083717Y-68116283D01*
X170815906Y-67937337D01*
X170500000Y-67874500D01*
X115200000Y-67874500D01*
X114884094Y-67937337D01*
X114616283Y-68116283D01*
X111512833Y-71219733D01*
X111333887Y-71487544D01*
X111271050Y-71803450D01*
X111271050Y-77665284D01*
X111213900Y-77952600D01*
X111213900Y-79959200D01*
X111276737Y-80275106D01*
X111455683Y-80542917D01*
X114173000Y-83260233D01*
X114173000Y-84328966D01*
X112146768Y-86355198D01*
X112273852Y-86049147D01*
X112274368Y-85458524D01*
X112048822Y-84912663D01*
X111631554Y-84494666D01*
X111086087Y-84268168D01*
X110495464Y-84267652D01*
X109949603Y-84493198D01*
X109531606Y-84910466D01*
X109524723Y-84927040D01*
X108956494Y-84927040D01*
X108624110Y-84594656D01*
X108624110Y-83415390D01*
X108577133Y-83173267D01*
X108437343Y-82960463D01*
X108226310Y-82818013D01*
X107976670Y-82767950D01*
X106797404Y-82767950D01*
X105537000Y-81507546D01*
X105537000Y-63627000D01*
X190373000Y-63627000D01*
X190373000Y-126873000D01*
M02*
