G04 #@! TF.FileFunction,Copper,L1,Top,Signal*
%FSLAX46Y46*%
G04 Gerber Fmt 4.6, Leading zero omitted, Abs format (unit mm)*
G04 Created by KiCad (PCBNEW 0.201504261001+5623~23~ubuntu15.04.1-product) date Fri 05 Jun 2015 12:02:43 AM ART*
%MOMM*%
G01*
G04 APERTURE LIST*
%ADD10C,0.100000*%
%ADD11C,0.150000*%
%ADD12C,0.300000*%
%ADD13C,0.400000*%
%ADD14C,1.699260*%
%ADD15R,1.699260X1.699260*%
%ADD16R,2.032000X1.727200*%
%ADD17O,2.032000X1.727200*%
%ADD18R,1.727200X2.032000*%
%ADD19O,1.727200X2.032000*%
%ADD20O,2.499360X1.501140*%
%ADD21O,1.501140X2.499360*%
%ADD22C,1.501140*%
%ADD23R,3.500120X3.500120*%
%ADD24C,1.998980*%
%ADD25R,2.032000X2.032000*%
%ADD26O,2.032000X2.032000*%
%ADD27C,4.064000*%
%ADD28C,0.600000*%
%ADD29C,0.381000*%
%ADD30C,0.254000*%
G04 APERTURE END LIST*
D10*
D11*
X177002200Y-166007200D02*
X177002200Y-198007200D01*
X285002200Y-198007200D01*
X285002200Y-166007200D01*
X177002200Y-166007200D01*
D10*
D11*
X10000000Y-10000000D02*
X10000000Y-200007200D01*
X287002200Y-200007200D01*
X287002200Y-10000000D01*
X10000000Y-10000000D01*
D10*
D11*
X12000000Y-12000000D02*
X12000000Y-198007200D01*
X285002200Y-198007200D01*
X285002200Y-12000000D01*
X12000000Y-12000000D01*
D10*
D11*
X60000000Y-12000000D02*
X60000000Y-10000000D01*
D10*
D11*
X110000000Y-12000000D02*
X110000000Y-10000000D01*
D10*
D11*
X160000000Y-12000000D02*
X160000000Y-10000000D01*
D10*
D11*
X210000000Y-12000000D02*
X210000000Y-10000000D01*
D10*
D11*
X260000000Y-12000000D02*
X260000000Y-10000000D01*
D10*
D11*
X35990476Y-11588095D02*
X35247619Y-11588095D01*
X35619048Y-11588095D02*
X35619048Y-10288095D01*
X35495238Y-10473810D01*
X35371429Y-10597619D01*
X35247619Y-10659524D01*
D10*
D11*
X85247619Y-10411905D02*
X85309524Y-10350000D01*
X85433333Y-10288095D01*
X85742857Y-10288095D01*
X85866667Y-10350000D01*
X85928571Y-10411905D01*
X85990476Y-10535714D01*
X85990476Y-10659524D01*
X85928571Y-10845238D01*
X85185714Y-11588095D01*
X85990476Y-11588095D01*
D10*
D11*
X135185714Y-10288095D02*
X135990476Y-10288095D01*
X135557143Y-10783333D01*
X135742857Y-10783333D01*
X135866667Y-10845238D01*
X135928571Y-10907143D01*
X135990476Y-11030952D01*
X135990476Y-11340476D01*
X135928571Y-11464286D01*
X135866667Y-11526190D01*
X135742857Y-11588095D01*
X135371429Y-11588095D01*
X135247619Y-11526190D01*
X135185714Y-11464286D01*
D10*
D11*
X185866667Y-10721429D02*
X185866667Y-11588095D01*
X185557143Y-10226190D02*
X185247619Y-11154762D01*
X186052381Y-11154762D01*
D10*
D11*
X235928571Y-10288095D02*
X235309524Y-10288095D01*
X235247619Y-10907143D01*
X235309524Y-10845238D01*
X235433333Y-10783333D01*
X235742857Y-10783333D01*
X235866667Y-10845238D01*
X235928571Y-10907143D01*
X235990476Y-11030952D01*
X235990476Y-11340476D01*
X235928571Y-11464286D01*
X235866667Y-11526190D01*
X235742857Y-11588095D01*
X235433333Y-11588095D01*
X235309524Y-11526190D01*
X235247619Y-11464286D01*
D10*
D11*
X285866667Y-10288095D02*
X285619048Y-10288095D01*
X285495238Y-10350000D01*
X285433333Y-10411905D01*
X285309524Y-10597619D01*
X285247619Y-10845238D01*
X285247619Y-11340476D01*
X285309524Y-11464286D01*
X285371429Y-11526190D01*
X285495238Y-11588095D01*
X285742857Y-11588095D01*
X285866667Y-11526190D01*
X285928571Y-11464286D01*
X285990476Y-11340476D01*
X285990476Y-11030952D01*
X285928571Y-10907143D01*
X285866667Y-10845238D01*
X285742857Y-10783333D01*
X285495238Y-10783333D01*
X285371429Y-10845238D01*
X285309524Y-10907143D01*
X285247619Y-11030952D01*
D10*
D11*
X60000000Y-198007200D02*
X60000000Y-200007200D01*
D10*
D11*
X110000000Y-198007200D02*
X110000000Y-200007200D01*
D10*
D11*
X160000000Y-198007200D02*
X160000000Y-200007200D01*
D10*
D11*
X210000000Y-198007200D02*
X210000000Y-200007200D01*
D10*
D11*
X260000000Y-198007200D02*
X260000000Y-200007200D01*
D10*
D11*
X35990476Y-199595295D02*
X35247619Y-199595295D01*
X35619048Y-199595295D02*
X35619048Y-198295295D01*
X35495238Y-198481010D01*
X35371429Y-198604819D01*
X35247619Y-198666724D01*
D10*
D11*
X85247619Y-198419105D02*
X85309524Y-198357200D01*
X85433333Y-198295295D01*
X85742857Y-198295295D01*
X85866667Y-198357200D01*
X85928571Y-198419105D01*
X85990476Y-198542914D01*
X85990476Y-198666724D01*
X85928571Y-198852438D01*
X85185714Y-199595295D01*
X85990476Y-199595295D01*
D10*
D11*
X135185714Y-198295295D02*
X135990476Y-198295295D01*
X135557143Y-198790533D01*
X135742857Y-198790533D01*
X135866667Y-198852438D01*
X135928571Y-198914343D01*
X135990476Y-199038152D01*
X135990476Y-199347676D01*
X135928571Y-199471486D01*
X135866667Y-199533390D01*
X135742857Y-199595295D01*
X135371429Y-199595295D01*
X135247619Y-199533390D01*
X135185714Y-199471486D01*
D10*
D11*
X185866667Y-198728629D02*
X185866667Y-199595295D01*
X185557143Y-198233390D02*
X185247619Y-199161962D01*
X186052381Y-199161962D01*
D10*
D11*
X235928571Y-198295295D02*
X235309524Y-198295295D01*
X235247619Y-198914343D01*
X235309524Y-198852438D01*
X235433333Y-198790533D01*
X235742857Y-198790533D01*
X235866667Y-198852438D01*
X235928571Y-198914343D01*
X235990476Y-199038152D01*
X235990476Y-199347676D01*
X235928571Y-199471486D01*
X235866667Y-199533390D01*
X235742857Y-199595295D01*
X235433333Y-199595295D01*
X235309524Y-199533390D01*
X235247619Y-199471486D01*
D10*
D11*
X285866667Y-198295295D02*
X285619048Y-198295295D01*
X285495238Y-198357200D01*
X285433333Y-198419105D01*
X285309524Y-198604819D01*
X285247619Y-198852438D01*
X285247619Y-199347676D01*
X285309524Y-199471486D01*
X285371429Y-199533390D01*
X285495238Y-199595295D01*
X285742857Y-199595295D01*
X285866667Y-199533390D01*
X285928571Y-199471486D01*
X285990476Y-199347676D01*
X285990476Y-199038152D01*
X285928571Y-198914343D01*
X285866667Y-198852438D01*
X285742857Y-198790533D01*
X285495238Y-198790533D01*
X285371429Y-198852438D01*
X285309524Y-198914343D01*
X285247619Y-199038152D01*
D10*
D11*
X10000000Y-60000000D02*
X12000000Y-60000000D01*
D10*
D11*
X10000000Y-110000000D02*
X12000000Y-110000000D01*
D10*
D11*
X10000000Y-160000000D02*
X12000000Y-160000000D01*
D10*
D11*
X10690476Y-35216667D02*
X11309524Y-35216667D01*
X10566667Y-35588095D02*
X11000000Y-34288095D01*
X11433333Y-35588095D01*
D10*
D11*
X11092857Y-84907143D02*
X11278571Y-84969048D01*
X11340476Y-85030952D01*
X11402381Y-85154762D01*
X11402381Y-85340476D01*
X11340476Y-85464286D01*
X11278571Y-85526190D01*
X11154762Y-85588095D01*
X10659524Y-85588095D01*
X10659524Y-84288095D01*
X11092857Y-84288095D01*
X11216667Y-84350000D01*
X11278571Y-84411905D01*
X11340476Y-84535714D01*
X11340476Y-84659524D01*
X11278571Y-84783333D01*
X11216667Y-84845238D01*
X11092857Y-84907143D01*
X10659524Y-84907143D01*
D10*
D11*
X11402381Y-135464286D02*
X11340476Y-135526190D01*
X11154762Y-135588095D01*
X11030952Y-135588095D01*
X10845238Y-135526190D01*
X10721429Y-135402381D01*
X10659524Y-135278571D01*
X10597619Y-135030952D01*
X10597619Y-134845238D01*
X10659524Y-134597619D01*
X10721429Y-134473810D01*
X10845238Y-134350000D01*
X11030952Y-134288095D01*
X11154762Y-134288095D01*
X11340476Y-134350000D01*
X11402381Y-134411905D01*
D10*
D11*
X10659524Y-185588095D02*
X10659524Y-184288095D01*
X10969048Y-184288095D01*
X11154762Y-184350000D01*
X11278571Y-184473810D01*
X11340476Y-184597619D01*
X11402381Y-184845238D01*
X11402381Y-185030952D01*
X11340476Y-185278571D01*
X11278571Y-185402381D01*
X11154762Y-185526190D01*
X10969048Y-185588095D01*
X10659524Y-185588095D01*
D10*
D11*
X287002200Y-60000000D02*
X285002200Y-60000000D01*
D10*
D11*
X287002200Y-110000000D02*
X285002200Y-110000000D01*
D10*
D11*
X287002200Y-160000000D02*
X285002200Y-160000000D01*
D10*
D11*
X285692676Y-35216667D02*
X286311724Y-35216667D01*
X285568867Y-35588095D02*
X286002200Y-34288095D01*
X286435533Y-35588095D01*
D10*
D11*
X286095057Y-84907143D02*
X286280771Y-84969048D01*
X286342676Y-85030952D01*
X286404581Y-85154762D01*
X286404581Y-85340476D01*
X286342676Y-85464286D01*
X286280771Y-85526190D01*
X286156962Y-85588095D01*
X285661724Y-85588095D01*
X285661724Y-84288095D01*
X286095057Y-84288095D01*
X286218867Y-84350000D01*
X286280771Y-84411905D01*
X286342676Y-84535714D01*
X286342676Y-84659524D01*
X286280771Y-84783333D01*
X286218867Y-84845238D01*
X286095057Y-84907143D01*
X285661724Y-84907143D01*
D10*
D11*
X286404581Y-135464286D02*
X286342676Y-135526190D01*
X286156962Y-135588095D01*
X286033152Y-135588095D01*
X285847438Y-135526190D01*
X285723629Y-135402381D01*
X285661724Y-135278571D01*
X285599819Y-135030952D01*
X285599819Y-134845238D01*
X285661724Y-134597619D01*
X285723629Y-134473810D01*
X285847438Y-134350000D01*
X286033152Y-134288095D01*
X286156962Y-134288095D01*
X286342676Y-134350000D01*
X286404581Y-134411905D01*
D10*
D11*
X285661724Y-185588095D02*
X285661724Y-184288095D01*
X285971248Y-184288095D01*
X286156962Y-184350000D01*
X286280771Y-184473810D01*
X286342676Y-184597619D01*
X286404581Y-184845238D01*
X286404581Y-185030952D01*
X286342676Y-185278571D01*
X286280771Y-185402381D01*
X286156962Y-185526190D01*
X285971248Y-185588095D01*
X285661724Y-185588095D01*
D10*
D11*
X200359343Y-193785771D02*
X200359343Y-192285771D01*
X200716486Y-192285771D01*
X200930771Y-192357200D01*
X201073629Y-192500057D01*
X201145057Y-192642914D01*
X201216486Y-192928629D01*
X201216486Y-193142914D01*
X201145057Y-193428629D01*
X201073629Y-193571486D01*
X200930771Y-193714343D01*
X200716486Y-193785771D01*
X200359343Y-193785771D01*
X202502200Y-193785771D02*
X202502200Y-193000057D01*
X202430771Y-192857200D01*
X202287914Y-192785771D01*
X202002200Y-192785771D01*
X201859343Y-192857200D01*
X202502200Y-193714343D02*
X202359343Y-193785771D01*
X202002200Y-193785771D01*
X201859343Y-193714343D01*
X201787914Y-193571486D01*
X201787914Y-193428629D01*
X201859343Y-193285771D01*
X202002200Y-193214343D01*
X202359343Y-193214343D01*
X202502200Y-193142914D01*
X203002200Y-192785771D02*
X203573629Y-192785771D01*
X203216486Y-192285771D02*
X203216486Y-193571486D01*
X203287914Y-193714343D01*
X203430772Y-193785771D01*
X203573629Y-193785771D01*
X204645057Y-193714343D02*
X204502200Y-193785771D01*
X204216486Y-193785771D01*
X204073629Y-193714343D01*
X204002200Y-193571486D01*
X204002200Y-193000057D01*
X204073629Y-192857200D01*
X204216486Y-192785771D01*
X204502200Y-192785771D01*
X204645057Y-192857200D01*
X204716486Y-193000057D01*
X204716486Y-193142914D01*
X204002200Y-193285771D01*
X205359343Y-193642914D02*
X205430771Y-193714343D01*
X205359343Y-193785771D01*
X205287914Y-193714343D01*
X205359343Y-193642914D01*
X205359343Y-193785771D01*
X205359343Y-192857200D02*
X205430771Y-192928629D01*
X205359343Y-193000057D01*
X205287914Y-192928629D01*
X205359343Y-192857200D01*
X205359343Y-193000057D01*
D10*
D11*
X177002200Y-194507200D02*
X285002200Y-194507200D01*
D10*
D11*
X178359343Y-196585771D02*
X178359343Y-195085771D01*
X179216486Y-196585771D02*
X178573629Y-195728629D01*
X179216486Y-195085771D02*
X178359343Y-195942914D01*
X179859343Y-196585771D02*
X179859343Y-195585771D01*
X179859343Y-195085771D02*
X179787914Y-195157200D01*
X179859343Y-195228629D01*
X179930771Y-195157200D01*
X179859343Y-195085771D01*
X179859343Y-195228629D01*
X181430772Y-196442914D02*
X181359343Y-196514343D01*
X181145057Y-196585771D01*
X181002200Y-196585771D01*
X180787915Y-196514343D01*
X180645057Y-196371486D01*
X180573629Y-196228629D01*
X180502200Y-195942914D01*
X180502200Y-195728629D01*
X180573629Y-195442914D01*
X180645057Y-195300057D01*
X180787915Y-195157200D01*
X181002200Y-195085771D01*
X181145057Y-195085771D01*
X181359343Y-195157200D01*
X181430772Y-195228629D01*
X182716486Y-196585771D02*
X182716486Y-195800057D01*
X182645057Y-195657200D01*
X182502200Y-195585771D01*
X182216486Y-195585771D01*
X182073629Y-195657200D01*
X182716486Y-196514343D02*
X182573629Y-196585771D01*
X182216486Y-196585771D01*
X182073629Y-196514343D01*
X182002200Y-196371486D01*
X182002200Y-196228629D01*
X182073629Y-196085771D01*
X182216486Y-196014343D01*
X182573629Y-196014343D01*
X182716486Y-195942914D01*
X184073629Y-196585771D02*
X184073629Y-195085771D01*
X184073629Y-196514343D02*
X183930772Y-196585771D01*
X183645058Y-196585771D01*
X183502200Y-196514343D01*
X183430772Y-196442914D01*
X183359343Y-196300057D01*
X183359343Y-195871486D01*
X183430772Y-195728629D01*
X183502200Y-195657200D01*
X183645058Y-195585771D01*
X183930772Y-195585771D01*
X184073629Y-195657200D01*
X185930772Y-195800057D02*
X186430772Y-195800057D01*
X186645058Y-196585771D02*
X185930772Y-196585771D01*
X185930772Y-195085771D01*
X186645058Y-195085771D01*
X187287915Y-196442914D02*
X187359343Y-196514343D01*
X187287915Y-196585771D01*
X187216486Y-196514343D01*
X187287915Y-196442914D01*
X187287915Y-196585771D01*
X188002201Y-196585771D02*
X188002201Y-195085771D01*
X188359344Y-195085771D01*
X188573629Y-195157200D01*
X188716487Y-195300057D01*
X188787915Y-195442914D01*
X188859344Y-195728629D01*
X188859344Y-195942914D01*
X188787915Y-196228629D01*
X188716487Y-196371486D01*
X188573629Y-196514343D01*
X188359344Y-196585771D01*
X188002201Y-196585771D01*
X189502201Y-196442914D02*
X189573629Y-196514343D01*
X189502201Y-196585771D01*
X189430772Y-196514343D01*
X189502201Y-196442914D01*
X189502201Y-196585771D01*
X190145058Y-196157200D02*
X190859344Y-196157200D01*
X190002201Y-196585771D02*
X190502201Y-195085771D01*
X191002201Y-196585771D01*
X191502201Y-196442914D02*
X191573629Y-196514343D01*
X191502201Y-196585771D01*
X191430772Y-196514343D01*
X191502201Y-196442914D01*
X191502201Y-196585771D01*
X194502201Y-196585771D02*
X194502201Y-195085771D01*
X194645058Y-196014343D02*
X195073629Y-196585771D01*
X195073629Y-195585771D02*
X194502201Y-196157200D01*
X195716487Y-196585771D02*
X195716487Y-195585771D01*
X195716487Y-195085771D02*
X195645058Y-195157200D01*
X195716487Y-195228629D01*
X195787915Y-195157200D01*
X195716487Y-195085771D01*
X195716487Y-195228629D01*
X197073630Y-196514343D02*
X196930773Y-196585771D01*
X196645059Y-196585771D01*
X196502201Y-196514343D01*
X196430773Y-196442914D01*
X196359344Y-196300057D01*
X196359344Y-195871486D01*
X196430773Y-195728629D01*
X196502201Y-195657200D01*
X196645059Y-195585771D01*
X196930773Y-195585771D01*
X197073630Y-195657200D01*
X198359344Y-196585771D02*
X198359344Y-195800057D01*
X198287915Y-195657200D01*
X198145058Y-195585771D01*
X197859344Y-195585771D01*
X197716487Y-195657200D01*
X198359344Y-196514343D02*
X198216487Y-196585771D01*
X197859344Y-196585771D01*
X197716487Y-196514343D01*
X197645058Y-196371486D01*
X197645058Y-196228629D01*
X197716487Y-196085771D01*
X197859344Y-196014343D01*
X198216487Y-196014343D01*
X198359344Y-195942914D01*
X199716487Y-196585771D02*
X199716487Y-195085771D01*
X199716487Y-196514343D02*
X199573630Y-196585771D01*
X199287916Y-196585771D01*
X199145058Y-196514343D01*
X199073630Y-196442914D01*
X199002201Y-196300057D01*
X199002201Y-195871486D01*
X199073630Y-195728629D01*
X199145058Y-195657200D01*
X199287916Y-195585771D01*
X199573630Y-195585771D01*
X199716487Y-195657200D01*
X201859344Y-195085771D02*
X202002201Y-195085771D01*
X202145058Y-195157200D01*
X202216487Y-195228629D01*
X202287916Y-195371486D01*
X202359344Y-195657200D01*
X202359344Y-196014343D01*
X202287916Y-196300057D01*
X202216487Y-196442914D01*
X202145058Y-196514343D01*
X202002201Y-196585771D01*
X201859344Y-196585771D01*
X201716487Y-196514343D01*
X201645058Y-196442914D01*
X201573630Y-196300057D01*
X201502201Y-196014343D01*
X201502201Y-195657200D01*
X201573630Y-195371486D01*
X201645058Y-195228629D01*
X201716487Y-195157200D01*
X201859344Y-195085771D01*
X203002201Y-196442914D02*
X203073629Y-196514343D01*
X203002201Y-196585771D01*
X202930772Y-196514343D01*
X203002201Y-196442914D01*
X203002201Y-196585771D01*
X203645058Y-195228629D02*
X203716487Y-195157200D01*
X203859344Y-195085771D01*
X204216487Y-195085771D01*
X204359344Y-195157200D01*
X204430773Y-195228629D01*
X204502201Y-195371486D01*
X204502201Y-195514343D01*
X204430773Y-195728629D01*
X203573630Y-196585771D01*
X204502201Y-196585771D01*
X205430772Y-195085771D02*
X205573629Y-195085771D01*
X205716486Y-195157200D01*
X205787915Y-195228629D01*
X205859344Y-195371486D01*
X205930772Y-195657200D01*
X205930772Y-196014343D01*
X205859344Y-196300057D01*
X205787915Y-196442914D01*
X205716486Y-196514343D01*
X205573629Y-196585771D01*
X205430772Y-196585771D01*
X205287915Y-196514343D01*
X205216486Y-196442914D01*
X205145058Y-196300057D01*
X205073629Y-196014343D01*
X205073629Y-195657200D01*
X205145058Y-195371486D01*
X205216486Y-195228629D01*
X205287915Y-195157200D01*
X205430772Y-195085771D01*
X207359343Y-196585771D02*
X206502200Y-196585771D01*
X206930772Y-196585771D02*
X206930772Y-195085771D01*
X206787915Y-195300057D01*
X206645057Y-195442914D01*
X206502200Y-195514343D01*
X208716486Y-195085771D02*
X208002200Y-195085771D01*
X207930771Y-195800057D01*
X208002200Y-195728629D01*
X208145057Y-195657200D01*
X208502200Y-195657200D01*
X208645057Y-195728629D01*
X208716486Y-195800057D01*
X208787914Y-195942914D01*
X208787914Y-196300057D01*
X208716486Y-196442914D01*
X208645057Y-196514343D01*
X208502200Y-196585771D01*
X208145057Y-196585771D01*
X208002200Y-196514343D01*
X207930771Y-196442914D01*
X209716485Y-195085771D02*
X209859342Y-195085771D01*
X210002199Y-195157200D01*
X210073628Y-195228629D01*
X210145057Y-195371486D01*
X210216485Y-195657200D01*
X210216485Y-196014343D01*
X210145057Y-196300057D01*
X210073628Y-196442914D01*
X210002199Y-196514343D01*
X209859342Y-196585771D01*
X209716485Y-196585771D01*
X209573628Y-196514343D01*
X209502199Y-196442914D01*
X209430771Y-196300057D01*
X209359342Y-196014343D01*
X209359342Y-195657200D01*
X209430771Y-195371486D01*
X209502199Y-195228629D01*
X209573628Y-195157200D01*
X209716485Y-195085771D01*
X211502199Y-195585771D02*
X211502199Y-196585771D01*
X211145056Y-195014343D02*
X210787913Y-196085771D01*
X211716485Y-196085771D01*
X212216484Y-195228629D02*
X212287913Y-195157200D01*
X212430770Y-195085771D01*
X212787913Y-195085771D01*
X212930770Y-195157200D01*
X213002199Y-195228629D01*
X213073627Y-195371486D01*
X213073627Y-195514343D01*
X213002199Y-195728629D01*
X212145056Y-196585771D01*
X213073627Y-196585771D01*
X214359341Y-195085771D02*
X214073627Y-195085771D01*
X213930770Y-195157200D01*
X213859341Y-195228629D01*
X213716484Y-195442914D01*
X213645055Y-195728629D01*
X213645055Y-196300057D01*
X213716484Y-196442914D01*
X213787912Y-196514343D01*
X213930770Y-196585771D01*
X214216484Y-196585771D01*
X214359341Y-196514343D01*
X214430770Y-196442914D01*
X214502198Y-196300057D01*
X214502198Y-195942914D01*
X214430770Y-195800057D01*
X214359341Y-195728629D01*
X214216484Y-195657200D01*
X213930770Y-195657200D01*
X213787912Y-195728629D01*
X213716484Y-195800057D01*
X213645055Y-195942914D01*
X215930769Y-196585771D02*
X215073626Y-196585771D01*
X215502198Y-196585771D02*
X215502198Y-195085771D01*
X215359341Y-195300057D01*
X215216483Y-195442914D01*
X215073626Y-195514343D01*
X216859340Y-195085771D02*
X217002197Y-195085771D01*
X217145054Y-195157200D01*
X217216483Y-195228629D01*
X217287912Y-195371486D01*
X217359340Y-195657200D01*
X217359340Y-196014343D01*
X217287912Y-196300057D01*
X217216483Y-196442914D01*
X217145054Y-196514343D01*
X217002197Y-196585771D01*
X216859340Y-196585771D01*
X216716483Y-196514343D01*
X216645054Y-196442914D01*
X216573626Y-196300057D01*
X216502197Y-196014343D01*
X216502197Y-195657200D01*
X216573626Y-195371486D01*
X216645054Y-195228629D01*
X216716483Y-195157200D01*
X216859340Y-195085771D01*
X218287911Y-195085771D02*
X218430768Y-195085771D01*
X218573625Y-195157200D01*
X218645054Y-195228629D01*
X218716483Y-195371486D01*
X218787911Y-195657200D01*
X218787911Y-196014343D01*
X218716483Y-196300057D01*
X218645054Y-196442914D01*
X218573625Y-196514343D01*
X218430768Y-196585771D01*
X218287911Y-196585771D01*
X218145054Y-196514343D01*
X218073625Y-196442914D01*
X218002197Y-196300057D01*
X217930768Y-196014343D01*
X217930768Y-195657200D01*
X218002197Y-195371486D01*
X218073625Y-195228629D01*
X218145054Y-195157200D01*
X218287911Y-195085771D01*
X220216482Y-196585771D02*
X219359339Y-196585771D01*
X219787911Y-196585771D02*
X219787911Y-195085771D01*
X219645054Y-195300057D01*
X219502196Y-195442914D01*
X219359339Y-195514343D01*
X220859339Y-196014343D02*
X222002196Y-196014343D01*
X221430767Y-196585771D02*
X221430767Y-195442914D01*
X223430768Y-195085771D02*
X222716482Y-195085771D01*
X222645053Y-195800057D01*
X222716482Y-195728629D01*
X222859339Y-195657200D01*
X223216482Y-195657200D01*
X223359339Y-195728629D01*
X223430768Y-195800057D01*
X223502196Y-195942914D01*
X223502196Y-196300057D01*
X223430768Y-196442914D01*
X223359339Y-196514343D01*
X223216482Y-196585771D01*
X222859339Y-196585771D01*
X222716482Y-196514343D01*
X222645053Y-196442914D01*
X224787910Y-195085771D02*
X224502196Y-195085771D01*
X224359339Y-195157200D01*
X224287910Y-195228629D01*
X224145053Y-195442914D01*
X224073624Y-195728629D01*
X224073624Y-196300057D01*
X224145053Y-196442914D01*
X224216481Y-196514343D01*
X224359339Y-196585771D01*
X224645053Y-196585771D01*
X224787910Y-196514343D01*
X224859339Y-196442914D01*
X224930767Y-196300057D01*
X224930767Y-195942914D01*
X224859339Y-195800057D01*
X224787910Y-195728629D01*
X224645053Y-195657200D01*
X224359339Y-195657200D01*
X224216481Y-195728629D01*
X224145053Y-195800057D01*
X224073624Y-195942914D01*
X225502195Y-195228629D02*
X225573624Y-195157200D01*
X225716481Y-195085771D01*
X226073624Y-195085771D01*
X226216481Y-195157200D01*
X226287910Y-195228629D01*
X226359338Y-195371486D01*
X226359338Y-195514343D01*
X226287910Y-195728629D01*
X225430767Y-196585771D01*
X226359338Y-196585771D01*
X226859338Y-195085771D02*
X227787909Y-195085771D01*
X227287909Y-195657200D01*
X227502195Y-195657200D01*
X227645052Y-195728629D01*
X227716481Y-195800057D01*
X227787909Y-195942914D01*
X227787909Y-196300057D01*
X227716481Y-196442914D01*
X227645052Y-196514343D01*
X227502195Y-196585771D01*
X227073623Y-196585771D01*
X226930766Y-196514343D01*
X226859338Y-196442914D01*
X228359337Y-195228629D02*
X228430766Y-195157200D01*
X228573623Y-195085771D01*
X228930766Y-195085771D01*
X229073623Y-195157200D01*
X229145052Y-195228629D01*
X229216480Y-195371486D01*
X229216480Y-195514343D01*
X229145052Y-195728629D01*
X228287909Y-196585771D01*
X229216480Y-196585771D01*
X229716480Y-195085771D02*
X230645051Y-195085771D01*
X230145051Y-195657200D01*
X230359337Y-195657200D01*
X230502194Y-195728629D01*
X230573623Y-195800057D01*
X230645051Y-195942914D01*
X230645051Y-196300057D01*
X230573623Y-196442914D01*
X230502194Y-196514343D01*
X230359337Y-196585771D01*
X229930765Y-196585771D01*
X229787908Y-196514343D01*
X229716480Y-196442914D01*
X228073623Y-194827200D02*
X230930765Y-194827200D01*
X231930765Y-195585771D02*
X231930765Y-196585771D01*
X231287908Y-195585771D02*
X231287908Y-196371486D01*
X231359336Y-196514343D01*
X231502194Y-196585771D01*
X231716479Y-196585771D01*
X231859336Y-196514343D01*
X231930765Y-196442914D01*
X232645051Y-196585771D02*
X232645051Y-195085771D01*
X232645051Y-195657200D02*
X232787908Y-195585771D01*
X233073622Y-195585771D01*
X233216479Y-195657200D01*
X233287908Y-195728629D01*
X233359337Y-195871486D01*
X233359337Y-196300057D01*
X233287908Y-196442914D01*
X233216479Y-196514343D01*
X233073622Y-196585771D01*
X232787908Y-196585771D01*
X232645051Y-196514343D01*
X234645051Y-195585771D02*
X234645051Y-196585771D01*
X234002194Y-195585771D02*
X234002194Y-196371486D01*
X234073622Y-196514343D01*
X234216480Y-196585771D01*
X234430765Y-196585771D01*
X234573622Y-196514343D01*
X234645051Y-196442914D01*
X235359337Y-195585771D02*
X235359337Y-196585771D01*
X235359337Y-195728629D02*
X235430765Y-195657200D01*
X235573623Y-195585771D01*
X235787908Y-195585771D01*
X235930765Y-195657200D01*
X236002194Y-195800057D01*
X236002194Y-196585771D01*
X236502194Y-195585771D02*
X237073623Y-195585771D01*
X236716480Y-195085771D02*
X236716480Y-196371486D01*
X236787908Y-196514343D01*
X236930766Y-196585771D01*
X237073623Y-196585771D01*
X238216480Y-195585771D02*
X238216480Y-196585771D01*
X237573623Y-195585771D02*
X237573623Y-196371486D01*
X237645051Y-196514343D01*
X237787909Y-196585771D01*
X238002194Y-196585771D01*
X238145051Y-196514343D01*
X238216480Y-196442914D01*
X239716480Y-196585771D02*
X238859337Y-196585771D01*
X239287909Y-196585771D02*
X239287909Y-195085771D01*
X239145052Y-195300057D01*
X239002194Y-195442914D01*
X238859337Y-195514343D01*
X241073623Y-195085771D02*
X240359337Y-195085771D01*
X240287908Y-195800057D01*
X240359337Y-195728629D01*
X240502194Y-195657200D01*
X240859337Y-195657200D01*
X241002194Y-195728629D01*
X241073623Y-195800057D01*
X241145051Y-195942914D01*
X241145051Y-196300057D01*
X241073623Y-196442914D01*
X241002194Y-196514343D01*
X240859337Y-196585771D01*
X240502194Y-196585771D01*
X240359337Y-196514343D01*
X240287908Y-196442914D01*
X241787908Y-196442914D02*
X241859336Y-196514343D01*
X241787908Y-196585771D01*
X241716479Y-196514343D01*
X241787908Y-196442914D01*
X241787908Y-196585771D01*
X242787908Y-195085771D02*
X242930765Y-195085771D01*
X243073622Y-195157200D01*
X243145051Y-195228629D01*
X243216480Y-195371486D01*
X243287908Y-195657200D01*
X243287908Y-196014343D01*
X243216480Y-196300057D01*
X243145051Y-196442914D01*
X243073622Y-196514343D01*
X242930765Y-196585771D01*
X242787908Y-196585771D01*
X242645051Y-196514343D01*
X242573622Y-196442914D01*
X242502194Y-196300057D01*
X242430765Y-196014343D01*
X242430765Y-195657200D01*
X242502194Y-195371486D01*
X242573622Y-195228629D01*
X242645051Y-195157200D01*
X242787908Y-195085771D01*
X244573622Y-195585771D02*
X244573622Y-196585771D01*
X244216479Y-195014343D02*
X243859336Y-196085771D01*
X244787908Y-196085771D01*
X245359336Y-196442914D02*
X245430764Y-196514343D01*
X245359336Y-196585771D01*
X245287907Y-196514343D01*
X245359336Y-196442914D01*
X245359336Y-196585771D01*
X246859336Y-196585771D02*
X246002193Y-196585771D01*
X246430765Y-196585771D02*
X246430765Y-195085771D01*
X246287908Y-195300057D01*
X246145050Y-195442914D01*
X246002193Y-195514343D01*
X247502193Y-196014343D02*
X248645050Y-196014343D01*
X249359336Y-195585771D02*
X249359336Y-197085771D01*
X249359336Y-195657200D02*
X249502193Y-195585771D01*
X249787907Y-195585771D01*
X249930764Y-195657200D01*
X250002193Y-195728629D01*
X250073622Y-195871486D01*
X250073622Y-196300057D01*
X250002193Y-196442914D01*
X249930764Y-196514343D01*
X249787907Y-196585771D01*
X249502193Y-196585771D01*
X249359336Y-196514343D01*
X250716479Y-196585771D02*
X250716479Y-195585771D01*
X250716479Y-195871486D02*
X250787907Y-195728629D01*
X250859336Y-195657200D01*
X251002193Y-195585771D01*
X251145050Y-195585771D01*
X251859336Y-196585771D02*
X251716478Y-196514343D01*
X251645050Y-196442914D01*
X251573621Y-196300057D01*
X251573621Y-195871486D01*
X251645050Y-195728629D01*
X251716478Y-195657200D01*
X251859336Y-195585771D01*
X252073621Y-195585771D01*
X252216478Y-195657200D01*
X252287907Y-195728629D01*
X252359336Y-195871486D01*
X252359336Y-196300057D01*
X252287907Y-196442914D01*
X252216478Y-196514343D01*
X252073621Y-196585771D01*
X251859336Y-196585771D01*
X253645050Y-196585771D02*
X253645050Y-195085771D01*
X253645050Y-196514343D02*
X253502193Y-196585771D01*
X253216479Y-196585771D01*
X253073621Y-196514343D01*
X253002193Y-196442914D01*
X252930764Y-196300057D01*
X252930764Y-195871486D01*
X253002193Y-195728629D01*
X253073621Y-195657200D01*
X253216479Y-195585771D01*
X253502193Y-195585771D01*
X253645050Y-195657200D01*
X255002193Y-195585771D02*
X255002193Y-196585771D01*
X254359336Y-195585771D02*
X254359336Y-196371486D01*
X254430764Y-196514343D01*
X254573622Y-196585771D01*
X254787907Y-196585771D01*
X254930764Y-196514343D01*
X255002193Y-196442914D01*
X256359336Y-196514343D02*
X256216479Y-196585771D01*
X255930765Y-196585771D01*
X255787907Y-196514343D01*
X255716479Y-196442914D01*
X255645050Y-196300057D01*
X255645050Y-195871486D01*
X255716479Y-195728629D01*
X255787907Y-195657200D01*
X255930765Y-195585771D01*
X256216479Y-195585771D01*
X256359336Y-195657200D01*
X256787907Y-195585771D02*
X257359336Y-195585771D01*
X257002193Y-195085771D02*
X257002193Y-196371486D01*
X257073621Y-196514343D01*
X257216479Y-196585771D01*
X257359336Y-196585771D01*
D10*
D11*
X177002200Y-191507200D02*
X285002200Y-191507200D01*
D10*
D12*
X264216486Y-193785771D02*
X263716486Y-193071486D01*
X263359343Y-193785771D02*
X263359343Y-192285771D01*
X263930771Y-192285771D01*
X264073629Y-192357200D01*
X264145057Y-192428629D01*
X264216486Y-192571486D01*
X264216486Y-192785771D01*
X264145057Y-192928629D01*
X264073629Y-193000057D01*
X263930771Y-193071486D01*
X263359343Y-193071486D01*
X265430771Y-193714343D02*
X265287914Y-193785771D01*
X265002200Y-193785771D01*
X264859343Y-193714343D01*
X264787914Y-193571486D01*
X264787914Y-193000057D01*
X264859343Y-192857200D01*
X265002200Y-192785771D01*
X265287914Y-192785771D01*
X265430771Y-192857200D01*
X265502200Y-193000057D01*
X265502200Y-193142914D01*
X264787914Y-193285771D01*
X266002200Y-192785771D02*
X266359343Y-193785771D01*
X266716485Y-192785771D01*
X267287914Y-193642914D02*
X267359342Y-193714343D01*
X267287914Y-193785771D01*
X267216485Y-193714343D01*
X267287914Y-193642914D01*
X267287914Y-193785771D01*
X267287914Y-192857200D02*
X267359342Y-192928629D01*
X267287914Y-193000057D01*
X267216485Y-192928629D01*
X267287914Y-192857200D01*
X267287914Y-193000057D01*
D10*
D11*
X178287914Y-193714343D02*
X178502200Y-193785771D01*
X178859343Y-193785771D01*
X179002200Y-193714343D01*
X179073629Y-193642914D01*
X179145057Y-193500057D01*
X179145057Y-193357200D01*
X179073629Y-193214343D01*
X179002200Y-193142914D01*
X178859343Y-193071486D01*
X178573629Y-193000057D01*
X178430771Y-192928629D01*
X178359343Y-192857200D01*
X178287914Y-192714343D01*
X178287914Y-192571486D01*
X178359343Y-192428629D01*
X178430771Y-192357200D01*
X178573629Y-192285771D01*
X178930771Y-192285771D01*
X179145057Y-192357200D01*
X179787914Y-193785771D02*
X179787914Y-192785771D01*
X179787914Y-192285771D02*
X179716485Y-192357200D01*
X179787914Y-192428629D01*
X179859342Y-192357200D01*
X179787914Y-192285771D01*
X179787914Y-192428629D01*
X180359343Y-192785771D02*
X181145057Y-192785771D01*
X180359343Y-193785771D01*
X181145057Y-193785771D01*
X182287914Y-193714343D02*
X182145057Y-193785771D01*
X181859343Y-193785771D01*
X181716486Y-193714343D01*
X181645057Y-193571486D01*
X181645057Y-193000057D01*
X181716486Y-192857200D01*
X181859343Y-192785771D01*
X182145057Y-192785771D01*
X182287914Y-192857200D01*
X182359343Y-193000057D01*
X182359343Y-193142914D01*
X181645057Y-193285771D01*
X183002200Y-193642914D02*
X183073628Y-193714343D01*
X183002200Y-193785771D01*
X182930771Y-193714343D01*
X183002200Y-193642914D01*
X183002200Y-193785771D01*
X183002200Y-192857200D02*
X183073628Y-192928629D01*
X183002200Y-193000057D01*
X182930771Y-192928629D01*
X183002200Y-192857200D01*
X183002200Y-193000057D01*
X184787914Y-193357200D02*
X185502200Y-193357200D01*
X184645057Y-193785771D02*
X185145057Y-192285771D01*
X185645057Y-193785771D01*
X186787914Y-192785771D02*
X186787914Y-193785771D01*
X186430771Y-192214343D02*
X186073628Y-193285771D01*
X187002200Y-193285771D01*
D10*
D11*
X263359343Y-196585771D02*
X263359343Y-195085771D01*
X264716486Y-196585771D02*
X264716486Y-195085771D01*
X264716486Y-196514343D02*
X264573629Y-196585771D01*
X264287915Y-196585771D01*
X264145057Y-196514343D01*
X264073629Y-196442914D01*
X264002200Y-196300057D01*
X264002200Y-195871486D01*
X264073629Y-195728629D01*
X264145057Y-195657200D01*
X264287915Y-195585771D01*
X264573629Y-195585771D01*
X264716486Y-195657200D01*
X265430772Y-196442914D02*
X265502200Y-196514343D01*
X265430772Y-196585771D01*
X265359343Y-196514343D01*
X265430772Y-196442914D01*
X265430772Y-196585771D01*
X265430772Y-195657200D02*
X265502200Y-195728629D01*
X265430772Y-195800057D01*
X265359343Y-195728629D01*
X265430772Y-195657200D01*
X265430772Y-195800057D01*
X268073629Y-196585771D02*
X267216486Y-196585771D01*
X267645058Y-196585771D02*
X267645058Y-195085771D01*
X267502201Y-195300057D01*
X267359343Y-195442914D01*
X267216486Y-195514343D01*
X269787914Y-195014343D02*
X268502200Y-196942914D01*
X271073629Y-196585771D02*
X270216486Y-196585771D01*
X270645058Y-196585771D02*
X270645058Y-195085771D01*
X270502201Y-195300057D01*
X270359343Y-195442914D01*
X270216486Y-195514343D01*
D10*
D11*
X177002200Y-187507200D02*
X285002200Y-187507200D01*
D10*
D13*
X178454581Y-188211962D02*
X179597438Y-188211962D01*
X178776010Y-190211962D02*
X179026010Y-188211962D01*
X180014105Y-190211962D02*
X180180771Y-188878629D01*
X180264105Y-188211962D02*
X180156962Y-188307200D01*
X180240295Y-188402438D01*
X180347439Y-188307200D01*
X180264105Y-188211962D01*
X180240295Y-188402438D01*
X180847438Y-188878629D02*
X181609343Y-188878629D01*
X181216486Y-188211962D02*
X181002200Y-189926248D01*
X181073630Y-190116724D01*
X181252201Y-190211962D01*
X181442677Y-190211962D01*
X182395058Y-190211962D02*
X182216487Y-190116724D01*
X182145057Y-189926248D01*
X182359343Y-188211962D01*
X183930772Y-190116724D02*
X183728391Y-190211962D01*
X183347439Y-190211962D01*
X183168867Y-190116724D01*
X183097438Y-189926248D01*
X183192676Y-189164343D01*
X183311724Y-188973867D01*
X183514105Y-188878629D01*
X183895057Y-188878629D01*
X184073629Y-188973867D01*
X184145057Y-189164343D01*
X184121248Y-189354819D01*
X183145057Y-189545295D01*
X184895057Y-190021486D02*
X184978392Y-190116724D01*
X184871248Y-190211962D01*
X184787915Y-190116724D01*
X184895057Y-190021486D01*
X184871248Y-190211962D01*
X185026010Y-188973867D02*
X185109344Y-189069105D01*
X185002200Y-189164343D01*
X184918867Y-189069105D01*
X185026010Y-188973867D01*
X185002200Y-189164343D01*
D10*
D11*
X178859343Y-185600057D02*
X178359343Y-185600057D01*
X178359343Y-186385771D02*
X178359343Y-184885771D01*
X179073629Y-184885771D01*
X179645057Y-186385771D02*
X179645057Y-185385771D01*
X179645057Y-184885771D02*
X179573628Y-184957200D01*
X179645057Y-185028629D01*
X179716485Y-184957200D01*
X179645057Y-184885771D01*
X179645057Y-185028629D01*
X180573629Y-186385771D02*
X180430771Y-186314343D01*
X180359343Y-186171486D01*
X180359343Y-184885771D01*
X181716485Y-186314343D02*
X181573628Y-186385771D01*
X181287914Y-186385771D01*
X181145057Y-186314343D01*
X181073628Y-186171486D01*
X181073628Y-185600057D01*
X181145057Y-185457200D01*
X181287914Y-185385771D01*
X181573628Y-185385771D01*
X181716485Y-185457200D01*
X181787914Y-185600057D01*
X181787914Y-185742914D01*
X181073628Y-185885771D01*
X182430771Y-186242914D02*
X182502199Y-186314343D01*
X182430771Y-186385771D01*
X182359342Y-186314343D01*
X182430771Y-186242914D01*
X182430771Y-186385771D01*
X182430771Y-185457200D02*
X182502199Y-185528629D01*
X182430771Y-185600057D01*
X182359342Y-185528629D01*
X182430771Y-185457200D01*
X182430771Y-185600057D01*
X184930771Y-186385771D02*
X184930771Y-185600057D01*
X184859342Y-185457200D01*
X184716485Y-185385771D01*
X184430771Y-185385771D01*
X184287914Y-185457200D01*
X184930771Y-186314343D02*
X184787914Y-186385771D01*
X184430771Y-186385771D01*
X184287914Y-186314343D01*
X184216485Y-186171486D01*
X184216485Y-186028629D01*
X184287914Y-185885771D01*
X184430771Y-185814343D01*
X184787914Y-185814343D01*
X184930771Y-185742914D01*
X185645057Y-186385771D02*
X185645057Y-185385771D01*
X185645057Y-185528629D02*
X185716485Y-185457200D01*
X185859343Y-185385771D01*
X186073628Y-185385771D01*
X186216485Y-185457200D01*
X186287914Y-185600057D01*
X186287914Y-186385771D01*
X186287914Y-185600057D02*
X186359343Y-185457200D01*
X186502200Y-185385771D01*
X186716485Y-185385771D01*
X186859343Y-185457200D01*
X186930771Y-185600057D01*
X186930771Y-186385771D01*
X187645057Y-185385771D02*
X187645057Y-186885771D01*
X187645057Y-185457200D02*
X187787914Y-185385771D01*
X188073628Y-185385771D01*
X188216485Y-185457200D01*
X188287914Y-185528629D01*
X188359343Y-185671486D01*
X188359343Y-186100057D01*
X188287914Y-186242914D01*
X188216485Y-186314343D01*
X188073628Y-186385771D01*
X187787914Y-186385771D01*
X187645057Y-186314343D01*
X189216486Y-186385771D02*
X189073628Y-186314343D01*
X189002200Y-186171486D01*
X189002200Y-184885771D01*
X189787914Y-186385771D02*
X189787914Y-185385771D01*
X189787914Y-184885771D02*
X189716485Y-184957200D01*
X189787914Y-185028629D01*
X189859342Y-184957200D01*
X189787914Y-184885771D01*
X189787914Y-185028629D01*
X190287914Y-185385771D02*
X190859343Y-185385771D01*
X190502200Y-186385771D02*
X190502200Y-185100057D01*
X190573628Y-184957200D01*
X190716486Y-184885771D01*
X190859343Y-184885771D01*
X191359343Y-186385771D02*
X191359343Y-185385771D01*
X191359343Y-184885771D02*
X191287914Y-184957200D01*
X191359343Y-185028629D01*
X191430771Y-184957200D01*
X191359343Y-184885771D01*
X191359343Y-185028629D01*
X192716486Y-186314343D02*
X192573629Y-186385771D01*
X192287915Y-186385771D01*
X192145057Y-186314343D01*
X192073629Y-186242914D01*
X192002200Y-186100057D01*
X192002200Y-185671486D01*
X192073629Y-185528629D01*
X192145057Y-185457200D01*
X192287915Y-185385771D01*
X192573629Y-185385771D01*
X192716486Y-185457200D01*
X194002200Y-186385771D02*
X194002200Y-185600057D01*
X193930771Y-185457200D01*
X193787914Y-185385771D01*
X193502200Y-185385771D01*
X193359343Y-185457200D01*
X194002200Y-186314343D02*
X193859343Y-186385771D01*
X193502200Y-186385771D01*
X193359343Y-186314343D01*
X193287914Y-186171486D01*
X193287914Y-186028629D01*
X193359343Y-185885771D01*
X193502200Y-185814343D01*
X193859343Y-185814343D01*
X194002200Y-185742914D01*
X195359343Y-186385771D02*
X195359343Y-184885771D01*
X195359343Y-186314343D02*
X195216486Y-186385771D01*
X194930772Y-186385771D01*
X194787914Y-186314343D01*
X194716486Y-186242914D01*
X194645057Y-186100057D01*
X194645057Y-185671486D01*
X194716486Y-185528629D01*
X194787914Y-185457200D01*
X194930772Y-185385771D01*
X195216486Y-185385771D01*
X195359343Y-185457200D01*
X196287915Y-186385771D02*
X196145057Y-186314343D01*
X196073629Y-186242914D01*
X196002200Y-186100057D01*
X196002200Y-185671486D01*
X196073629Y-185528629D01*
X196145057Y-185457200D01*
X196287915Y-185385771D01*
X196502200Y-185385771D01*
X196645057Y-185457200D01*
X196716486Y-185528629D01*
X196787915Y-185671486D01*
X196787915Y-186100057D01*
X196716486Y-186242914D01*
X196645057Y-186314343D01*
X196502200Y-186385771D01*
X196287915Y-186385771D01*
X197430772Y-186385771D02*
X197430772Y-185385771D01*
X197430772Y-185671486D02*
X197502200Y-185528629D01*
X197573629Y-185457200D01*
X197716486Y-185385771D01*
X197859343Y-185385771D01*
X198002200Y-186528629D02*
X199145057Y-186528629D01*
X200145057Y-185385771D02*
X200145057Y-186600057D01*
X200073628Y-186742914D01*
X200002200Y-186814343D01*
X199859343Y-186885771D01*
X199645057Y-186885771D01*
X199502200Y-186814343D01*
X200145057Y-186314343D02*
X200002200Y-186385771D01*
X199716486Y-186385771D01*
X199573628Y-186314343D01*
X199502200Y-186242914D01*
X199430771Y-186100057D01*
X199430771Y-185671486D01*
X199502200Y-185528629D01*
X199573628Y-185457200D01*
X199716486Y-185385771D01*
X200002200Y-185385771D01*
X200145057Y-185457200D01*
X201502200Y-186314343D02*
X201359343Y-186385771D01*
X201073629Y-186385771D01*
X200930771Y-186314343D01*
X200859343Y-186242914D01*
X200787914Y-186100057D01*
X200787914Y-185671486D01*
X200859343Y-185528629D01*
X200930771Y-185457200D01*
X201073629Y-185385771D01*
X201359343Y-185385771D01*
X201502200Y-185457200D01*
X202359343Y-186385771D02*
X202216485Y-186314343D01*
X202145057Y-186171486D01*
X202145057Y-184885771D01*
X203573628Y-186385771D02*
X203573628Y-185600057D01*
X203502199Y-185457200D01*
X203359342Y-185385771D01*
X203073628Y-185385771D01*
X202930771Y-185457200D01*
X203573628Y-186314343D02*
X203430771Y-186385771D01*
X203073628Y-186385771D01*
X202930771Y-186314343D01*
X202859342Y-186171486D01*
X202859342Y-186028629D01*
X202930771Y-185885771D01*
X203073628Y-185814343D01*
X203430771Y-185814343D01*
X203573628Y-185742914D01*
X204216485Y-186314343D02*
X204359342Y-186385771D01*
X204645057Y-186385771D01*
X204787914Y-186314343D01*
X204859342Y-186171486D01*
X204859342Y-186100057D01*
X204787914Y-185957200D01*
X204645057Y-185885771D01*
X204430771Y-185885771D01*
X204287914Y-185814343D01*
X204216485Y-185671486D01*
X204216485Y-185600057D01*
X204287914Y-185457200D01*
X204430771Y-185385771D01*
X204645057Y-185385771D01*
X204787914Y-185457200D01*
X205430771Y-186314343D02*
X205573628Y-186385771D01*
X205859343Y-186385771D01*
X206002200Y-186314343D01*
X206073628Y-186171486D01*
X206073628Y-186100057D01*
X206002200Y-185957200D01*
X205859343Y-185885771D01*
X205645057Y-185885771D01*
X205502200Y-185814343D01*
X205430771Y-185671486D01*
X205430771Y-185600057D01*
X205502200Y-185457200D01*
X205645057Y-185385771D01*
X205859343Y-185385771D01*
X206002200Y-185457200D01*
X206716486Y-186242914D02*
X206787914Y-186314343D01*
X206716486Y-186385771D01*
X206645057Y-186314343D01*
X206716486Y-186242914D01*
X206716486Y-186385771D01*
X207430772Y-186385771D02*
X207430772Y-184885771D01*
X207573629Y-185814343D02*
X208002200Y-186385771D01*
X208002200Y-185385771D02*
X207430772Y-185957200D01*
X208645058Y-186385771D02*
X208645058Y-185385771D01*
X208645058Y-184885771D02*
X208573629Y-184957200D01*
X208645058Y-185028629D01*
X208716486Y-184957200D01*
X208645058Y-184885771D01*
X208645058Y-185028629D01*
X210002201Y-186314343D02*
X209859344Y-186385771D01*
X209573630Y-186385771D01*
X209430772Y-186314343D01*
X209359344Y-186242914D01*
X209287915Y-186100057D01*
X209287915Y-185671486D01*
X209359344Y-185528629D01*
X209430772Y-185457200D01*
X209573630Y-185385771D01*
X209859344Y-185385771D01*
X210002201Y-185457200D01*
X211287915Y-186385771D02*
X211287915Y-185600057D01*
X211216486Y-185457200D01*
X211073629Y-185385771D01*
X210787915Y-185385771D01*
X210645058Y-185457200D01*
X211287915Y-186314343D02*
X211145058Y-186385771D01*
X210787915Y-186385771D01*
X210645058Y-186314343D01*
X210573629Y-186171486D01*
X210573629Y-186028629D01*
X210645058Y-185885771D01*
X210787915Y-185814343D01*
X211145058Y-185814343D01*
X211287915Y-185742914D01*
X212645058Y-186385771D02*
X212645058Y-184885771D01*
X212645058Y-186314343D02*
X212502201Y-186385771D01*
X212216487Y-186385771D01*
X212073629Y-186314343D01*
X212002201Y-186242914D01*
X211930772Y-186100057D01*
X211930772Y-185671486D01*
X212002201Y-185528629D01*
X212073629Y-185457200D01*
X212216487Y-185385771D01*
X212502201Y-185385771D01*
X212645058Y-185457200D01*
X213002201Y-186528629D02*
X214145058Y-186528629D01*
X214502201Y-185385771D02*
X214502201Y-186885771D01*
X214502201Y-185457200D02*
X214645058Y-185385771D01*
X214930772Y-185385771D01*
X215073629Y-185457200D01*
X215145058Y-185528629D01*
X215216487Y-185671486D01*
X215216487Y-186100057D01*
X215145058Y-186242914D01*
X215073629Y-186314343D01*
X214930772Y-186385771D01*
X214645058Y-186385771D01*
X214502201Y-186314343D01*
X216502201Y-186314343D02*
X216359344Y-186385771D01*
X216073630Y-186385771D01*
X215930772Y-186314343D01*
X215859344Y-186242914D01*
X215787915Y-186100057D01*
X215787915Y-185671486D01*
X215859344Y-185528629D01*
X215930772Y-185457200D01*
X216073630Y-185385771D01*
X216359344Y-185385771D01*
X216502201Y-185457200D01*
X217145058Y-186385771D02*
X217145058Y-184885771D01*
X217145058Y-185457200D02*
X217287915Y-185385771D01*
X217573629Y-185385771D01*
X217716486Y-185457200D01*
X217787915Y-185528629D01*
X217859344Y-185671486D01*
X217859344Y-186100057D01*
X217787915Y-186242914D01*
X217716486Y-186314343D01*
X217573629Y-186385771D01*
X217287915Y-186385771D01*
X217145058Y-186314343D01*
D10*
D11*
X177002200Y-181507200D02*
X285002200Y-181507200D01*
D10*
D11*
X178287914Y-183614343D02*
X178502200Y-183685771D01*
X178859343Y-183685771D01*
X179002200Y-183614343D01*
X179073629Y-183542914D01*
X179145057Y-183400057D01*
X179145057Y-183257200D01*
X179073629Y-183114343D01*
X179002200Y-183042914D01*
X178859343Y-182971486D01*
X178573629Y-182900057D01*
X178430771Y-182828629D01*
X178359343Y-182757200D01*
X178287914Y-182614343D01*
X178287914Y-182471486D01*
X178359343Y-182328629D01*
X178430771Y-182257200D01*
X178573629Y-182185771D01*
X178930771Y-182185771D01*
X179145057Y-182257200D01*
X179787914Y-183685771D02*
X179787914Y-182185771D01*
X180430771Y-183685771D02*
X180430771Y-182900057D01*
X180359342Y-182757200D01*
X180216485Y-182685771D01*
X180002200Y-182685771D01*
X179859342Y-182757200D01*
X179787914Y-182828629D01*
X181716485Y-183614343D02*
X181573628Y-183685771D01*
X181287914Y-183685771D01*
X181145057Y-183614343D01*
X181073628Y-183471486D01*
X181073628Y-182900057D01*
X181145057Y-182757200D01*
X181287914Y-182685771D01*
X181573628Y-182685771D01*
X181716485Y-182757200D01*
X181787914Y-182900057D01*
X181787914Y-183042914D01*
X181073628Y-183185771D01*
X183002199Y-183614343D02*
X182859342Y-183685771D01*
X182573628Y-183685771D01*
X182430771Y-183614343D01*
X182359342Y-183471486D01*
X182359342Y-182900057D01*
X182430771Y-182757200D01*
X182573628Y-182685771D01*
X182859342Y-182685771D01*
X183002199Y-182757200D01*
X183073628Y-182900057D01*
X183073628Y-183042914D01*
X182359342Y-183185771D01*
X183502199Y-182685771D02*
X184073628Y-182685771D01*
X183716485Y-182185771D02*
X183716485Y-183471486D01*
X183787913Y-183614343D01*
X183930771Y-183685771D01*
X184073628Y-183685771D01*
X184573628Y-183542914D02*
X184645056Y-183614343D01*
X184573628Y-183685771D01*
X184502199Y-183614343D01*
X184573628Y-183542914D01*
X184573628Y-183685771D01*
X184573628Y-182757200D02*
X184645056Y-182828629D01*
X184573628Y-182900057D01*
X184502199Y-182828629D01*
X184573628Y-182757200D01*
X184573628Y-182900057D01*
D10*
D11*
X197002200Y-191507200D02*
X197002200Y-194507200D01*
D10*
D11*
X261002200Y-191507200D02*
X261002200Y-198007200D01*
X50165000Y-113030000D02*
X50165000Y-112014000D01*
X50673000Y-112522000D02*
X49657000Y-112522000D01*
X83820000Y-108585000D02*
X82804000Y-108585000D01*
X83312000Y-108077000D02*
X83312000Y-109093000D01*
X64528700Y-79616300D02*
X64528700Y-78600300D01*
X65036700Y-79108300D02*
X64020700Y-79108300D01*
X33655000Y-114300000D02*
X33655000Y-115316000D01*
X33147000Y-114808000D02*
X34163000Y-114808000D01*
X90805000Y-95250000D02*
X90805000Y-94234000D01*
X91313000Y-94742000D02*
X90297000Y-94742000D01*
X110020100Y-98958400D02*
X109004100Y-98958400D01*
X109512100Y-98450400D02*
X109512100Y-99466400D01*
X140462000Y-90170000D02*
X140462000Y-91186000D01*
X139954000Y-90678000D02*
X140970000Y-90678000D01*
X171462700Y-117373400D02*
X170446700Y-117373400D01*
X170954700Y-116865400D02*
X170954700Y-117881400D01*
X142113000Y-73787000D02*
X141097000Y-73787000D01*
X141605000Y-73279000D02*
X141605000Y-74295000D01*
X145910000Y-76315000D02*
X146926000Y-76315000D01*
X146418000Y-76823000D02*
X146418000Y-75807000D01*
X182635000Y-100460000D02*
X182635000Y-101476000D01*
X182127000Y-100968000D02*
X183143000Y-100968000D01*
X160655000Y-87884000D02*
X160655000Y-86868000D01*
X161163000Y-87376000D02*
X160147000Y-87376000D01*
D14*
X107127040Y-94425020D03*
D15*
X107127040Y-84265020D03*
D14*
X135752840Y-118618520D03*
D15*
X135752840Y-108458520D03*
D14*
X110789480Y-85752540D03*
D15*
X120949480Y-85752540D03*
D14*
X148222220Y-114322860D03*
D15*
X138062220Y-114322860D03*
D14*
X165552540Y-112610520D03*
D15*
X165552540Y-102450520D03*
D14*
X137060520Y-84497460D03*
D15*
X126900520Y-84497460D03*
D16*
X115392200Y-102539800D03*
D17*
X115392200Y-105079800D03*
X115392200Y-107619800D03*
D18*
X171704000Y-103505000D03*
D19*
X174244000Y-103505000D03*
X176784000Y-103505000D03*
D18*
X165862000Y-79248000D03*
D19*
X168402000Y-79248000D03*
X170942000Y-79248000D03*
D18*
X164642800Y-72986900D03*
D19*
X167182800Y-72986900D03*
X169722800Y-72986900D03*
D16*
X176250600Y-114439700D03*
D17*
X176250600Y-111899700D03*
X176250600Y-109359700D03*
D20*
X55880000Y-96520000D03*
X55880000Y-93980000D03*
X55880000Y-99060000D03*
X60960000Y-96520000D03*
X60960000Y-93980000D03*
X60960000Y-99060000D03*
X60960000Y-107950000D03*
X60960000Y-110490000D03*
X60960000Y-105410000D03*
D21*
X52463700Y-82194400D03*
X55003700Y-82194400D03*
X49923700Y-82194400D03*
D20*
X71120000Y-107950000D03*
X71120000Y-110490000D03*
X71120000Y-105410000D03*
D21*
X52463700Y-77114400D03*
X55003700Y-77114400D03*
X49923700Y-77114400D03*
D20*
X71120000Y-96520000D03*
X71120000Y-93980000D03*
X71120000Y-99060000D03*
X76200000Y-96520000D03*
X76200000Y-93980000D03*
X76200000Y-99060000D03*
D21*
X67703700Y-86004400D03*
X65163700Y-86004400D03*
X70243700Y-86004400D03*
D20*
X88900000Y-102870000D03*
X88900000Y-105410000D03*
X88900000Y-100330000D03*
D21*
X74053700Y-78384400D03*
X71513700Y-78384400D03*
X76593700Y-78384400D03*
D20*
X96520000Y-102870000D03*
X96520000Y-105410000D03*
X96520000Y-100330000D03*
D21*
X89877900Y-75742800D03*
X87337900Y-75742800D03*
X92417900Y-75742800D03*
D20*
X121539000Y-114325400D03*
X121539000Y-116865400D03*
X121539000Y-111785400D03*
D21*
X89611200Y-81178400D03*
X87071200Y-81178400D03*
X92151200Y-81178400D03*
D20*
X127914400Y-114274600D03*
X127914400Y-116814600D03*
X127914400Y-111734600D03*
X125971300Y-76631800D03*
X125971300Y-74091800D03*
X125971300Y-79171800D03*
X146050000Y-108204000D03*
X146050000Y-105664000D03*
X146050000Y-110744000D03*
X116547900Y-76631800D03*
X116547900Y-74091800D03*
X116547900Y-79171800D03*
X155194000Y-114554000D03*
X155194000Y-117094000D03*
X155194000Y-112014000D03*
D22*
X45720000Y-96520000D03*
X48260000Y-96520000D03*
X46990000Y-110490000D03*
X50800000Y-110490000D03*
X81280000Y-111760000D03*
X81280000Y-107950000D03*
X83820000Y-119380000D03*
X81280000Y-119380000D03*
X95250000Y-121920000D03*
X95250000Y-119380000D03*
X61353700Y-77076300D03*
X65163700Y-77076300D03*
X36830000Y-116840000D03*
X33020000Y-116840000D03*
X87630000Y-92710000D03*
X91440000Y-92710000D03*
X107480100Y-102133400D03*
X107480100Y-98323400D03*
X143637000Y-92710000D03*
X139827000Y-92710000D03*
X168922700Y-120548400D03*
X168922700Y-116738400D03*
X139573000Y-76962000D03*
X139573000Y-73152000D03*
X148450000Y-73140000D03*
X148450000Y-76950000D03*
X185810000Y-103000000D03*
X182000000Y-103000000D03*
X157480000Y-85344000D03*
X161290000Y-85344000D03*
D23*
X41760140Y-96520000D03*
X35760660Y-96520000D03*
X38760400Y-101219000D03*
D24*
X180213000Y-88011000D03*
X180213000Y-98171000D03*
D25*
X184658000Y-88519000D03*
D26*
X184658000Y-91059000D03*
D16*
X115557300Y-94157800D03*
D17*
X115557300Y-91617800D03*
X115557300Y-89077800D03*
D24*
X41910000Y-106680000D03*
X31750000Y-106680000D03*
X55880000Y-104140000D03*
X45720000Y-104140000D03*
X41910000Y-110490000D03*
X31750000Y-110490000D03*
X49923700Y-87274400D03*
X39763700Y-87274400D03*
X57150000Y-115570000D03*
X67310000Y-115570000D03*
X54610000Y-118110000D03*
X54610000Y-107950000D03*
X49923700Y-87274400D03*
X60083700Y-87274400D03*
X77470000Y-115570000D03*
X67310000Y-115570000D03*
X44843700Y-77114400D03*
X44843700Y-87274400D03*
X76830000Y-119500000D03*
X66670000Y-119500000D03*
X40640000Y-118110000D03*
X50800000Y-118110000D03*
X151130000Y-118110000D03*
X151130000Y-107950000D03*
X82550000Y-90170000D03*
X82550000Y-100330000D03*
X88900000Y-109220000D03*
X88900000Y-119380000D03*
X101600000Y-115570000D03*
X91440000Y-115570000D03*
X78778100Y-73431400D03*
X68618100Y-73431400D03*
X115049300Y-120815100D03*
X104889300Y-120815100D03*
X134073900Y-94056200D03*
X123913900Y-94056200D03*
X140843000Y-98552000D03*
X140843000Y-108712000D03*
X134073900Y-99479100D03*
X123913900Y-99479100D03*
X124091700Y-105435400D03*
X134251700Y-105435400D03*
X107835700Y-106400600D03*
X107835700Y-116560600D03*
X132334000Y-82042000D03*
X132334000Y-71882000D03*
X155575000Y-99314000D03*
X145415000Y-99314000D03*
X122050000Y-82980000D03*
X122050000Y-72820000D03*
X162687000Y-109347000D03*
X162687000Y-119507000D03*
X150530000Y-86050000D03*
X140370000Y-86050000D03*
X154330400Y-84797900D03*
X154330400Y-94957900D03*
X164287200Y-98069400D03*
X164287200Y-87909400D03*
X169164000Y-97917000D03*
X169164000Y-87757000D03*
X174625000Y-87757000D03*
X174625000Y-97917000D03*
D18*
X96520000Y-111760000D03*
D19*
X99060000Y-111760000D03*
X101600000Y-111760000D03*
D18*
X125793500Y-88633300D03*
D19*
X128333500Y-88633300D03*
X130873500Y-88633300D03*
D25*
X77470000Y-104140000D03*
D26*
X80010000Y-104140000D03*
D25*
X180721000Y-73406000D03*
D26*
X183261000Y-73406000D03*
D25*
X181102000Y-80391000D03*
D26*
X183642000Y-80391000D03*
D25*
X182372000Y-118491000D03*
D26*
X184912000Y-118491000D03*
D25*
X182550000Y-111750000D03*
D26*
X185090000Y-111750000D03*
D27*
X186690000Y-67310000D03*
X186690000Y-123190000D03*
X30480000Y-67310000D03*
X30480000Y-123190000D03*
D28*
X164850000Y-76100000D03*
X171000000Y-76300000D03*
X66497200Y-111429800D03*
X66560700Y-106451400D03*
X157000000Y-79500000D03*
X156900000Y-73800000D03*
X74320400Y-103428800D03*
X67284600Y-103403400D03*
X127300000Y-82550000D03*
X129600000Y-80300000D03*
D29*
X170800000Y-76100000D02*
X164850000Y-76100000D01*
X171000000Y-76300000D02*
X170800000Y-76100000D01*
X66497200Y-106514900D02*
X66497200Y-111429800D01*
X66560700Y-106451400D02*
X66497200Y-106514900D01*
X157000000Y-73900000D02*
X157000000Y-79500000D01*
X156900000Y-73800000D02*
X157000000Y-73900000D01*
X67310000Y-103428800D02*
X74320400Y-103428800D01*
X67284600Y-103403400D02*
X67310000Y-103428800D01*
X127350000Y-82550000D02*
X127300000Y-82550000D01*
X129600000Y-80300000D02*
X127350000Y-82550000D01*
D30*
G36*
X190373000Y-126873000D02*
X26797000Y-126873000D01*
X26797000Y-63627000D01*
X190373000Y-63627000D01*
X190373000Y-126873000D01*
X190373000Y-126873000D01*
G37*
X190373000Y-126873000D02*
X26797000Y-126873000D01*
X26797000Y-63627000D01*
X190373000Y-63627000D01*
X190373000Y-126873000D01*
M02*
