G04 #@! TF.FileFunction,Copper,L2,Bot,Signal*
%FSLAX46Y46*%
G04 Gerber Fmt 4.6, Leading zero omitted, Abs format (unit mm)*
G04 Created by KiCad (PCBNEW 0.201504261001+5623~23~ubuntu15.04.1-product) date Mon 22 Jun 2015 07:57:51 PM ART*
%MOMM*%
G01*
G04 APERTURE LIST*
%ADD10C,0.100000*%
%ADD11C,0.300000*%
%ADD12R,2.235200X2.235200*%
%ADD13C,1.501140*%
%ADD14C,1.699260*%
%ADD15O,2.499360X1.501140*%
%ADD16R,2.032000X2.032000*%
%ADD17C,1.998980*%
%ADD18O,2.032000X1.727200*%
%ADD19C,3.000000*%
%ADD20C,2.000000*%
%ADD21O,1.501140X2.499360*%
%ADD22O,3.500120X2.000000*%
%ADD23O,2.000000X3.500120*%
%ADD24C,0.600000*%
%ADD25C,1.270000*%
%ADD26C,0.762000*%
%ADD27C,0.381000*%
%ADD28C,3.000000*%
%ADD29C,2.200000*%
%ADD30C,1.400000*%
%ADD31C,2.000000*%
%ADD32C,1.500000*%
%ADD33C,2.100000*%
%ADD34C,1.168400*%
%ADD35C,1.800000*%
%ADD36C,0.635000*%
%ADD37C,0.254000*%
G04 APERTURE END LIST*
D10*
X232180300Y-24168600D02*
X232193000Y-24168600D01*
X232180300Y-23927300D02*
X232180300Y-24168600D01*
X232142200Y-23889200D02*
X232180300Y-23927300D01*
X38543400Y-23889200D02*
X232142200Y-23889200D01*
X38543400Y-24270200D02*
X38543400Y-23889200D01*
X38530700Y-110033300D02*
X38530700Y-110007900D01*
X232180300Y-110033300D02*
X38530700Y-110033300D01*
X232180300Y-24143200D02*
X232129500Y-24143200D01*
X232180300Y-110058700D02*
X232180300Y-24143200D01*
X38543400Y-24270200D02*
X38543400Y-110134900D01*
X232000000Y-34100000D02*
X231950000Y-34100000D01*
X232000000Y-32500000D02*
X232000000Y-34100000D01*
D11*
X58354684Y-33289814D02*
X58426113Y-33361243D01*
X58640399Y-33432671D01*
X58783256Y-33432671D01*
X58997541Y-33361243D01*
X59140399Y-33218386D01*
X59211827Y-33075529D01*
X59283256Y-32789814D01*
X59283256Y-32575529D01*
X59211827Y-32289814D01*
X59140399Y-32146957D01*
X58997541Y-32004100D01*
X58783256Y-31932671D01*
X58640399Y-31932671D01*
X58426113Y-32004100D01*
X58354684Y-32075529D01*
X57711827Y-32646957D02*
X57211827Y-32646957D01*
X56997541Y-33432671D02*
X57711827Y-33432671D01*
X57711827Y-31932671D01*
X56997541Y-31932671D01*
X56426113Y-32075529D02*
X56354684Y-32004100D01*
X56211827Y-31932671D01*
X55854684Y-31932671D01*
X55711827Y-32004100D01*
X55640398Y-32075529D01*
X55568970Y-32218386D01*
X55568970Y-32361243D01*
X55640398Y-32575529D01*
X56497541Y-33432671D01*
X55568970Y-33432671D01*
X53354685Y-34004100D02*
X53426113Y-34004100D01*
X53568970Y-33932671D01*
X53640399Y-33789814D01*
X53640399Y-33075529D01*
X53711828Y-32932671D01*
X53854685Y-32861243D01*
X53711828Y-32789814D01*
X53640399Y-32646957D01*
X53640399Y-31932671D01*
X53568970Y-31789814D01*
X53426113Y-31718386D01*
X53354685Y-31718386D01*
X52140399Y-31932671D02*
X52426113Y-31932671D01*
X52568970Y-32004100D01*
X52640399Y-32075529D01*
X52783256Y-32289814D01*
X52854685Y-32575529D01*
X52854685Y-33146957D01*
X52783256Y-33289814D01*
X52711828Y-33361243D01*
X52568970Y-33432671D01*
X52283256Y-33432671D01*
X52140399Y-33361243D01*
X52068970Y-33289814D01*
X51997542Y-33146957D01*
X51997542Y-32789814D01*
X52068970Y-32646957D01*
X52140399Y-32575529D01*
X52283256Y-32504100D01*
X52568970Y-32504100D01*
X52711828Y-32575529D01*
X52783256Y-32646957D01*
X52854685Y-32789814D01*
X50711828Y-31932671D02*
X50997542Y-31932671D01*
X51140399Y-32004100D01*
X51211828Y-32075529D01*
X51354685Y-32289814D01*
X51426114Y-32575529D01*
X51426114Y-33146957D01*
X51354685Y-33289814D01*
X51283257Y-33361243D01*
X51140399Y-33432671D01*
X50854685Y-33432671D01*
X50711828Y-33361243D01*
X50640399Y-33289814D01*
X50568971Y-33146957D01*
X50568971Y-32789814D01*
X50640399Y-32646957D01*
X50711828Y-32575529D01*
X50854685Y-32504100D01*
X51140399Y-32504100D01*
X51283257Y-32575529D01*
X51354685Y-32646957D01*
X51426114Y-32789814D01*
X49926114Y-33289814D02*
X49854686Y-33361243D01*
X49926114Y-33432671D01*
X49997543Y-33361243D01*
X49926114Y-33289814D01*
X49926114Y-33432671D01*
X48426114Y-33432671D02*
X49283257Y-33432671D01*
X48854685Y-33432671D02*
X48854685Y-31932671D01*
X48997542Y-32146957D01*
X49140400Y-32289814D01*
X49283257Y-32361243D01*
X47497543Y-31932671D02*
X47354686Y-31932671D01*
X47211829Y-32004100D01*
X47140400Y-32075529D01*
X47068971Y-32218386D01*
X46997543Y-32504100D01*
X46997543Y-32861243D01*
X47068971Y-33146957D01*
X47140400Y-33289814D01*
X47211829Y-33361243D01*
X47354686Y-33432671D01*
X47497543Y-33432671D01*
X47640400Y-33361243D01*
X47711829Y-33289814D01*
X47783257Y-33146957D01*
X47854686Y-32861243D01*
X47854686Y-32504100D01*
X47783257Y-32218386D01*
X47711829Y-32075529D01*
X47640400Y-32004100D01*
X47497543Y-31932671D01*
X46497543Y-34004100D02*
X46426115Y-34004100D01*
X46283258Y-33932671D01*
X46211829Y-33789814D01*
X46211829Y-33075529D01*
X46140400Y-32932671D01*
X45997543Y-32861243D01*
X46140400Y-32789814D01*
X46211829Y-32646957D01*
X46211829Y-31932671D01*
X46283258Y-31789814D01*
X46426115Y-31718386D01*
X46497543Y-31718386D01*
X58176114Y-34404100D02*
X58318971Y-34332671D01*
X58533257Y-34332671D01*
X58747542Y-34404100D01*
X58890400Y-34546957D01*
X58961828Y-34689814D01*
X59033257Y-34975529D01*
X59033257Y-35189814D01*
X58961828Y-35475529D01*
X58890400Y-35618386D01*
X58747542Y-35761243D01*
X58533257Y-35832671D01*
X58390400Y-35832671D01*
X58176114Y-35761243D01*
X58104685Y-35689814D01*
X58104685Y-35189814D01*
X58390400Y-35189814D01*
X56604685Y-35689814D02*
X56676114Y-35761243D01*
X56890400Y-35832671D01*
X57033257Y-35832671D01*
X57247542Y-35761243D01*
X57390400Y-35618386D01*
X57461828Y-35475529D01*
X57533257Y-35189814D01*
X57533257Y-34975529D01*
X57461828Y-34689814D01*
X57390400Y-34546957D01*
X57247542Y-34404100D01*
X57033257Y-34332671D01*
X56890400Y-34332671D01*
X56676114Y-34404100D01*
X56604685Y-34475529D01*
X55747542Y-35832671D02*
X55890400Y-35761243D01*
X55961828Y-35618386D01*
X55961828Y-34332671D01*
X54533257Y-35832671D02*
X54533257Y-35046957D01*
X54604686Y-34904100D01*
X54747543Y-34832671D01*
X55033257Y-34832671D01*
X55176114Y-34904100D01*
X54533257Y-35761243D02*
X54676114Y-35832671D01*
X55033257Y-35832671D01*
X55176114Y-35761243D01*
X55247543Y-35618386D01*
X55247543Y-35475529D01*
X55176114Y-35332671D01*
X55033257Y-35261243D01*
X54676114Y-35261243D01*
X54533257Y-35189814D01*
X53890400Y-35761243D02*
X53747543Y-35832671D01*
X53461828Y-35832671D01*
X53318971Y-35761243D01*
X53247543Y-35618386D01*
X53247543Y-35546957D01*
X53318971Y-35404100D01*
X53461828Y-35332671D01*
X53676114Y-35332671D01*
X53818971Y-35261243D01*
X53890400Y-35118386D01*
X53890400Y-35046957D01*
X53818971Y-34904100D01*
X53676114Y-34832671D01*
X53461828Y-34832671D01*
X53318971Y-34904100D01*
X52676114Y-35761243D02*
X52533257Y-35832671D01*
X52247542Y-35832671D01*
X52104685Y-35761243D01*
X52033257Y-35618386D01*
X52033257Y-35546957D01*
X52104685Y-35404100D01*
X52247542Y-35332671D01*
X52461828Y-35332671D01*
X52604685Y-35261243D01*
X52676114Y-35118386D01*
X52676114Y-35046957D01*
X52604685Y-34904100D01*
X52461828Y-34832671D01*
X52247542Y-34832671D01*
X52104685Y-34904100D01*
X50318971Y-35404100D02*
X49604685Y-35404100D01*
X50461828Y-35832671D02*
X49961828Y-34332671D01*
X49461828Y-35832671D01*
X48961828Y-35832671D02*
X48961828Y-34832671D01*
X48961828Y-34975529D02*
X48890400Y-34904100D01*
X48747542Y-34832671D01*
X48533257Y-34832671D01*
X48390400Y-34904100D01*
X48318971Y-35046957D01*
X48318971Y-35832671D01*
X48318971Y-35046957D02*
X48247542Y-34904100D01*
X48104685Y-34832671D01*
X47890400Y-34832671D01*
X47747542Y-34904100D01*
X47676114Y-35046957D01*
X47676114Y-35832671D01*
X46961828Y-34832671D02*
X46961828Y-36332671D01*
X46961828Y-34904100D02*
X46818971Y-34832671D01*
X46533257Y-34832671D01*
X46390400Y-34904100D01*
X46318971Y-34975529D01*
X46247542Y-35118386D01*
X46247542Y-35546957D01*
X46318971Y-35689814D01*
X46390400Y-35761243D01*
X46533257Y-35832671D01*
X46818971Y-35832671D01*
X46961828Y-35761243D01*
X56033257Y-36804100D02*
X56176114Y-36732671D01*
X56390400Y-36732671D01*
X56604685Y-36804100D01*
X56747543Y-36946957D01*
X56818971Y-37089814D01*
X56890400Y-37375529D01*
X56890400Y-37589814D01*
X56818971Y-37875529D01*
X56747543Y-38018386D01*
X56604685Y-38161243D01*
X56390400Y-38232671D01*
X56247543Y-38232671D01*
X56033257Y-38161243D01*
X55961828Y-38089814D01*
X55961828Y-37589814D01*
X56247543Y-37589814D01*
X55318971Y-38232671D02*
X55318971Y-37232671D01*
X55318971Y-37518386D02*
X55247543Y-37375529D01*
X55176114Y-37304100D01*
X55033257Y-37232671D01*
X54890400Y-37232671D01*
X53747543Y-37232671D02*
X53747543Y-38232671D01*
X54390400Y-37232671D02*
X54390400Y-38018386D01*
X54318972Y-38161243D01*
X54176114Y-38232671D01*
X53961829Y-38232671D01*
X53818972Y-38161243D01*
X53747543Y-38089814D01*
X53033257Y-37232671D02*
X53033257Y-38732671D01*
X53033257Y-37304100D02*
X52890400Y-37232671D01*
X52604686Y-37232671D01*
X52461829Y-37304100D01*
X52390400Y-37375529D01*
X52318971Y-37518386D01*
X52318971Y-37946957D01*
X52390400Y-38089814D01*
X52461829Y-38161243D01*
X52604686Y-38232671D01*
X52890400Y-38232671D01*
X53033257Y-38161243D01*
X51461828Y-38232671D02*
X51604686Y-38161243D01*
X51676114Y-38089814D01*
X51747543Y-37946957D01*
X51747543Y-37518386D01*
X51676114Y-37375529D01*
X51604686Y-37304100D01*
X51461828Y-37232671D01*
X51247543Y-37232671D01*
X51104686Y-37304100D01*
X51033257Y-37375529D01*
X50961828Y-37518386D01*
X50961828Y-37946957D01*
X51033257Y-38089814D01*
X51104686Y-38161243D01*
X51247543Y-38232671D01*
X51461828Y-38232671D01*
X48461828Y-36732671D02*
X49176114Y-36732671D01*
X49247543Y-37446957D01*
X49176114Y-37375529D01*
X49033257Y-37304100D01*
X48676114Y-37304100D01*
X48533257Y-37375529D01*
X48461828Y-37446957D01*
X48390400Y-37589814D01*
X48390400Y-37946957D01*
X48461828Y-38089814D01*
X48533257Y-38161243D01*
X48676114Y-38232671D01*
X49033257Y-38232671D01*
X49176114Y-38161243D01*
X49247543Y-38089814D01*
D12*
X83920000Y-37080000D03*
X217676900Y-43053500D03*
D13*
X86365600Y-76011600D03*
X86365600Y-72201600D03*
D14*
X115222540Y-60772120D03*
X115222540Y-50612120D03*
X130084480Y-82260940D03*
X140244480Y-82260940D03*
X115069480Y-55542540D03*
X125229480Y-55542540D03*
X130090080Y-92360500D03*
X130090080Y-82200500D03*
X169337240Y-95214520D03*
X169337240Y-85054520D03*
X183641420Y-52702960D03*
X173481420Y-52702960D03*
D15*
X152862800Y-53913600D03*
X152862800Y-51373600D03*
X152862800Y-56453600D03*
X158704800Y-82158400D03*
X158704800Y-79618400D03*
X158704800Y-84698400D03*
D13*
X54971200Y-64226000D03*
X54971200Y-66766000D03*
X44404800Y-84393600D03*
X48214800Y-84393600D03*
X88702400Y-87492400D03*
X88702400Y-91302400D03*
X79964800Y-90692800D03*
X79964800Y-88152800D03*
X100792800Y-92978800D03*
X100792800Y-90438800D03*
X84384400Y-53405600D03*
X84384400Y-49595600D03*
X56241200Y-91251600D03*
X60051200Y-91251600D03*
X115226000Y-68910700D03*
X115226000Y-65100700D03*
X167798000Y-60670000D03*
X167798000Y-56860000D03*
X209002800Y-92735900D03*
X209002800Y-96545900D03*
X210476000Y-39307000D03*
X210476000Y-35497000D03*
X210387100Y-44303180D03*
X210387100Y-48113180D03*
X208825000Y-87554300D03*
X208825000Y-83744300D03*
D16*
X227449900Y-68201100D03*
X227449900Y-65661100D03*
D17*
X51750000Y-69610000D03*
X41590000Y-69610000D03*
X57917600Y-73116000D03*
X47757600Y-73116000D03*
X53700000Y-77270000D03*
X43540000Y-77270000D03*
X69810000Y-59700000D03*
X59650000Y-59700000D03*
X69093600Y-80126400D03*
X69093600Y-90286400D03*
X63251600Y-81091600D03*
X53091600Y-81091600D03*
X73180000Y-59700000D03*
X83340000Y-59700000D03*
X73716400Y-80126400D03*
X73716400Y-90286400D03*
X63560000Y-53440000D03*
X63560000Y-43280000D03*
X90124800Y-82412400D03*
X79964800Y-82412400D03*
X52939200Y-85003200D03*
X63099200Y-85003200D03*
X66668820Y-98740460D03*
X76828820Y-98740460D03*
X71690000Y-39960000D03*
X71690000Y-50120000D03*
X94900000Y-79720000D03*
X94900000Y-89880000D03*
X110851200Y-86425600D03*
X100691200Y-86425600D03*
X115169200Y-47563600D03*
X115169200Y-37403600D03*
X113848400Y-81853600D03*
X113848400Y-92013600D03*
X158501600Y-62143200D03*
X148341600Y-62143200D03*
X154888100Y-82106000D03*
X144728100Y-82106000D03*
X144328400Y-60619200D03*
X144328400Y-50459200D03*
X150983200Y-65597600D03*
X150983200Y-75757600D03*
X150983200Y-79110400D03*
X140823200Y-79110400D03*
X162565600Y-72455600D03*
X162565600Y-62295600D03*
X166324800Y-66308800D03*
X166324800Y-76468800D03*
X159642980Y-46325020D03*
X149482980Y-46325020D03*
X161898500Y-100013000D03*
X151738500Y-100013000D03*
D18*
X105009200Y-77230800D03*
X105009200Y-79770800D03*
X105009200Y-82310800D03*
X144226800Y-66867600D03*
X144226800Y-69407600D03*
X144226800Y-71947600D03*
D19*
X190467500Y-93359800D03*
X182867500Y-93359800D03*
X175267500Y-93359800D03*
X157333200Y-41518400D03*
X164933200Y-41518400D03*
X172533200Y-41518400D03*
X195992000Y-41518400D03*
X188392000Y-41518400D03*
X180792000Y-41518400D03*
X148379700Y-93270900D03*
X155979700Y-93270900D03*
X163579700Y-93270900D03*
D20*
X65246420Y-64155820D03*
X65246420Y-67155820D03*
X65246420Y-70155820D03*
X68863380Y-64176140D03*
X68863380Y-67176140D03*
X68863380Y-70176140D03*
X69068200Y-76062400D03*
X66068200Y-76062400D03*
X63068200Y-76062400D03*
X75138000Y-47579000D03*
X75138000Y-50579000D03*
X75138000Y-53579000D03*
X73741800Y-76113200D03*
X76741800Y-76113200D03*
X79741800Y-76113200D03*
X67578000Y-47399000D03*
X67578000Y-50399000D03*
X67578000Y-53399000D03*
X72642900Y-64173600D03*
X72642900Y-67173600D03*
X72642900Y-70173600D03*
X76163340Y-64150740D03*
X76163340Y-67150740D03*
X76163340Y-70150740D03*
X99758000Y-43489000D03*
X99758000Y-46489000D03*
X99758000Y-49489000D03*
X99218000Y-73090600D03*
X99218000Y-70090600D03*
X99218000Y-67090600D03*
X104648000Y-43749000D03*
X104648000Y-46749000D03*
X104648000Y-49749000D03*
X105009200Y-73039800D03*
X105009200Y-70039800D03*
X105009200Y-67039800D03*
X114089000Y-77692000D03*
X117089000Y-77692000D03*
X120089000Y-77692000D03*
X111318000Y-42299000D03*
X111318000Y-45299000D03*
X111318000Y-48299000D03*
X120300000Y-44591800D03*
X120300000Y-47591800D03*
X120300000Y-50591800D03*
X119868200Y-86019200D03*
X122868200Y-86019200D03*
X125868200Y-86019200D03*
D21*
X134574800Y-41772400D03*
X137114800Y-41772400D03*
X132034800Y-41772400D03*
X122992400Y-92928000D03*
X120452400Y-92928000D03*
X125532400Y-92928000D03*
D20*
X190689400Y-47442200D03*
X190689400Y-85942200D03*
X178950000Y-87950000D03*
X178950000Y-49450000D03*
D12*
X90886800Y-67070800D03*
D20*
X128936000Y-62826000D03*
X128936000Y-57926000D03*
X128936000Y-52876000D03*
X128936000Y-69639200D03*
X128936000Y-74539200D03*
X128936000Y-79589200D03*
D12*
X53575000Y-97075000D03*
X227671800Y-91567500D03*
D22*
X47000000Y-57575140D03*
X47000000Y-60075140D03*
X47000000Y-52575140D03*
X47000000Y-50075140D03*
D23*
X42000000Y-55075140D03*
D17*
X99520000Y-52810000D03*
X99520000Y-62970000D03*
D13*
X211570000Y-73520000D03*
X207760000Y-73520000D03*
D17*
X215060000Y-65160000D03*
X204900000Y-65160000D03*
D12*
X114933900Y-28804100D03*
D17*
X198070000Y-65150000D03*
X198070000Y-75310000D03*
X215240000Y-59830000D03*
X205080000Y-59830000D03*
X99620000Y-38370000D03*
X109780000Y-38370000D03*
X135670000Y-47120000D03*
X125510000Y-47120000D03*
X112100000Y-72360000D03*
X122260000Y-72360000D03*
D12*
X227280640Y-50851300D03*
X227582900Y-104546900D03*
X227760700Y-80455000D03*
X227077440Y-29515300D03*
D24*
X114050000Y-98300000D03*
X107230000Y-57920000D03*
X66830000Y-94490000D03*
X66890000Y-84990000D03*
X185114100Y-70917300D03*
X185114100Y-107493300D03*
D25*
X65246420Y-67155820D02*
X55396580Y-67191380D01*
X55396580Y-67191380D02*
X54971200Y-66766000D01*
X68863380Y-67176140D02*
X65246420Y-67155820D01*
X54971200Y-66766000D02*
X54971200Y-70169600D01*
X54971200Y-70169600D02*
X57917600Y-73116000D01*
D26*
X47201340Y-57266400D02*
X47656000Y-57266400D01*
D25*
X50605140Y-57575140D02*
X52770000Y-59740000D01*
X52770000Y-59740000D02*
X52770000Y-62024800D01*
X52770000Y-62024800D02*
X54971200Y-64226000D01*
X47000000Y-57575140D02*
X50605140Y-57575140D01*
X51750000Y-66400000D02*
X53924000Y-64226000D01*
X53924000Y-64226000D02*
X54971200Y-64226000D01*
X51750000Y-69610000D02*
X51750000Y-66400000D01*
X48214800Y-84393600D02*
X48214800Y-83011840D01*
X48214800Y-83011840D02*
X50135040Y-81091600D01*
X50135040Y-81091600D02*
X53091600Y-81091600D01*
D27*
X50135040Y-81091600D02*
X53091600Y-81091600D01*
X48214800Y-83011840D02*
X50135040Y-81091600D01*
D26*
X47808400Y-73166800D02*
X47757600Y-73116000D01*
X44404800Y-84393600D02*
X44404800Y-84266600D01*
D25*
X50906000Y-73116000D02*
X47757600Y-73116000D01*
X53700000Y-75910000D02*
X50906000Y-73116000D01*
X53700000Y-77270000D02*
X53700000Y-75910000D01*
X44404800Y-81635200D02*
X47757600Y-78282400D01*
X47757600Y-78282400D02*
X47757600Y-73116000D01*
X44404800Y-84393600D02*
X44404800Y-81635200D01*
D28*
X210387100Y-44303180D02*
X210387100Y-39395900D01*
X210387100Y-39395900D02*
X210476000Y-39307000D01*
X210387100Y-44303180D02*
X210539500Y-43937420D01*
X211423420Y-43053500D02*
X217676900Y-43053500D01*
X210539500Y-43937420D02*
X211423420Y-43053500D01*
D29*
X208825000Y-87554300D02*
X208825000Y-92558100D01*
X208825000Y-92558100D02*
X209002800Y-92735900D01*
X209002800Y-92735900D02*
X226503400Y-92735900D01*
X226503400Y-92735900D02*
X227671800Y-91567500D01*
D25*
X113848400Y-92013600D02*
X113848400Y-98098400D01*
X113848400Y-98098400D02*
X114050000Y-98300000D01*
D29*
X211570000Y-73520000D02*
X224430000Y-73520000D01*
X224430000Y-73520000D02*
X227449900Y-70500100D01*
D25*
X115169200Y-37403600D02*
X114913100Y-28824900D01*
X114913100Y-28824900D02*
X114933900Y-28804100D01*
X104470000Y-57950000D02*
X107200000Y-57950000D01*
X107200000Y-57950000D02*
X107230000Y-57920000D01*
X99520000Y-62970000D02*
X99520000Y-62900000D01*
X99520000Y-62900000D02*
X104470000Y-57950000D01*
X104470000Y-57950000D02*
X104550000Y-57870000D01*
X99218000Y-67090600D02*
X99218000Y-63272000D01*
X99218000Y-63272000D02*
X99520000Y-62970000D01*
X84384400Y-49595600D02*
X84384400Y-37544400D01*
X84384400Y-37544400D02*
X83920000Y-37080000D01*
D29*
X227449900Y-68201100D02*
X227449900Y-70500100D01*
D25*
X60051200Y-91251600D02*
X66251600Y-91251600D01*
X66251600Y-91251600D02*
X67500000Y-92500000D01*
X67500000Y-92500000D02*
X78460000Y-92500000D01*
X78460000Y-92500000D02*
X79964800Y-90995200D01*
X79964800Y-90995200D02*
X79964800Y-90692800D01*
X54960000Y-93334400D02*
X54960000Y-93815000D01*
X54960000Y-93815000D02*
X53575000Y-95200000D01*
X53575000Y-95200000D02*
X53575000Y-97075000D01*
X54960000Y-93334400D02*
X57968400Y-93334400D01*
X57968400Y-93334400D02*
X60051200Y-91251600D01*
X41590000Y-69610000D02*
X42218740Y-69610000D01*
D26*
X88092800Y-90692800D02*
X88702400Y-91302400D01*
X57968400Y-93334400D02*
X60051200Y-91251600D01*
X41590000Y-69610000D02*
X41590000Y-69584600D01*
D27*
X55275000Y-93500000D02*
X57802800Y-93500000D01*
X57802800Y-93500000D02*
X60051200Y-91251600D01*
D26*
X66251600Y-91251600D02*
X67500000Y-92500000D01*
X78157600Y-92500000D02*
X79964800Y-90692800D01*
X67500000Y-92500000D02*
X78157600Y-92500000D01*
D25*
X79964800Y-90692800D02*
X88092800Y-90692800D01*
X92302400Y-91302400D02*
X93978800Y-92978800D01*
X93978800Y-92978800D02*
X100792800Y-92978800D01*
X88702400Y-91302400D02*
X92302400Y-91302400D01*
D26*
X112883200Y-92978800D02*
X113848400Y-92013600D01*
X53575000Y-95200000D02*
X55275000Y-93500000D01*
X53575000Y-97075000D02*
X53575000Y-95200000D01*
D25*
X44500000Y-55075140D02*
X47000000Y-52575140D01*
X42000000Y-55075140D02*
X44500000Y-55075140D01*
D26*
X42000000Y-56800000D02*
X42000000Y-55075140D01*
D25*
X45275140Y-60075140D02*
X42000000Y-56800000D01*
D26*
X47000000Y-60075140D02*
X45275140Y-60075140D01*
D25*
X70320000Y-37080000D02*
X83920000Y-37080000D01*
X64120000Y-43280000D02*
X70320000Y-37080000D01*
X63560000Y-43280000D02*
X64120000Y-43280000D01*
X43540000Y-71560000D02*
X41590000Y-69610000D01*
X43540000Y-77270000D02*
X43540000Y-71560000D01*
X41590000Y-55485140D02*
X42000000Y-55075140D01*
X41590000Y-69610000D02*
X41590000Y-55485140D01*
X100792800Y-92978800D02*
X112883200Y-92978800D01*
X112883200Y-92978800D02*
X113848400Y-92013600D01*
X54264860Y-52575140D02*
X63560000Y-43280000D01*
X47000000Y-52575140D02*
X54264860Y-52575140D01*
X73716400Y-90286400D02*
X77831200Y-90286400D01*
X77831200Y-90286400D02*
X79964800Y-88152800D01*
X69093600Y-90286400D02*
X73716400Y-90286400D01*
X79964800Y-88152800D02*
X88042000Y-88152800D01*
D26*
X88042000Y-88152800D02*
X88702400Y-87492400D01*
D25*
X79964800Y-88152800D02*
X79964800Y-82412400D01*
D27*
X88042000Y-88152800D02*
X88702400Y-87492400D01*
X77831200Y-90286400D02*
X79964800Y-88152800D01*
D30*
X128936000Y-69639200D02*
X126901900Y-69639200D01*
X124319200Y-67056500D02*
X105886900Y-67056500D01*
X126901900Y-69639200D02*
X124319200Y-67056500D01*
X105886900Y-67056500D02*
X105870200Y-67039800D01*
X105870200Y-67039800D02*
X105009200Y-67039800D01*
D31*
X128936000Y-69639200D02*
X128936000Y-62826000D01*
D25*
X86365600Y-72201600D02*
X86365600Y-65474400D01*
X104648000Y-52612000D02*
X104648000Y-49749000D01*
X100900000Y-56360000D02*
X104648000Y-52612000D01*
X95480000Y-56360000D02*
X100900000Y-56360000D01*
X86365600Y-65474400D02*
X95480000Y-56360000D01*
X105009200Y-67039800D02*
X105870200Y-67039800D01*
X105870200Y-67039800D02*
X112640000Y-60270000D01*
X108249000Y-49749000D02*
X104648000Y-49749000D01*
X112640000Y-54140000D02*
X108249000Y-49749000D01*
X112640000Y-60270000D02*
X112640000Y-54140000D01*
X105009200Y-50110200D02*
X104648000Y-49749000D01*
D26*
X128936000Y-69639200D02*
X128278600Y-69639200D01*
D27*
X128936000Y-69639200D02*
X128275600Y-69639200D01*
X128936000Y-69639200D02*
X128913600Y-69639200D01*
D25*
X115069480Y-55542540D02*
X115069480Y-50765180D01*
X115069480Y-50765180D02*
X115222540Y-50612120D01*
X111318000Y-48299000D02*
X112909420Y-48299000D01*
X112909420Y-48299000D02*
X115222540Y-50612120D01*
X115069480Y-50765180D02*
X115222540Y-50612120D01*
D29*
X125868200Y-86019200D02*
X126326220Y-86019200D01*
X126326220Y-86019200D02*
X130084480Y-82260940D01*
D25*
X125868200Y-86019200D02*
X126579400Y-86019200D01*
X130036380Y-82309040D02*
X130084480Y-82260940D01*
D28*
X198083340Y-52702960D02*
X205797320Y-52702960D01*
X205797320Y-52702960D02*
X210387100Y-48113180D01*
X183641420Y-52702960D02*
X198083340Y-52702960D01*
X198083340Y-52702960D02*
X198423700Y-52362600D01*
D27*
X183641420Y-52702960D02*
X184151440Y-52702960D01*
D28*
X201979700Y-84887300D02*
X201979700Y-83033100D01*
X201979700Y-83033100D02*
X204824500Y-80188300D01*
X213498600Y-80455000D02*
X227760700Y-80455000D01*
X213231900Y-80188300D02*
X213498600Y-80455000D01*
X205269000Y-80188300D02*
X213231900Y-80188300D01*
X204824500Y-80188300D02*
X205269000Y-80188300D01*
X201979700Y-86144600D02*
X201979700Y-84887300D01*
X198855500Y-89268800D02*
X201979700Y-86144600D01*
X188974900Y-89268800D02*
X198855500Y-89268800D01*
X187298500Y-87592400D02*
X188974900Y-89268800D01*
X187298500Y-85611200D02*
X187298500Y-87592400D01*
X181570800Y-79883500D02*
X187298500Y-85611200D01*
X175004900Y-79883500D02*
X181570800Y-79883500D01*
X169833880Y-85054520D02*
X175004900Y-79883500D01*
X169337240Y-85054520D02*
X169833880Y-85054520D01*
D32*
X114089000Y-77692000D02*
X112100000Y-75703000D01*
X112100000Y-75703000D02*
X112100000Y-72360000D01*
X113343860Y-89230700D02*
X113343860Y-85343860D01*
X113343860Y-85343860D02*
X111200000Y-83200000D01*
X111200000Y-83200000D02*
X111200000Y-80581000D01*
X111200000Y-80581000D02*
X114089000Y-77692000D01*
X122992400Y-92928000D02*
X122992400Y-91093635D01*
X121967665Y-90068900D02*
X115403800Y-90068900D01*
X122992400Y-91093635D02*
X121967665Y-90068900D01*
X115403800Y-90068900D02*
X114565600Y-89230700D01*
X114565600Y-89230700D02*
X113343860Y-89230700D01*
X113343860Y-89230700D02*
X112051000Y-89230700D01*
X112051000Y-89230700D02*
X111492200Y-89789500D01*
X111492200Y-89789500D02*
X108901400Y-89789500D01*
X108901400Y-89789500D02*
X105537500Y-86425600D01*
X105537500Y-86425600D02*
X100691200Y-86425600D01*
D28*
X198957100Y-103835700D02*
X160463400Y-103835700D01*
X155979700Y-99352000D02*
X155979700Y-93270900D01*
X160463400Y-103835700D02*
X155979700Y-99352000D01*
D29*
X149208800Y-86500000D02*
X129978520Y-86500000D01*
X123940759Y-89799660D02*
X122819592Y-90920827D01*
X126678860Y-89799660D02*
X123940759Y-89799660D01*
X129978520Y-86500000D02*
X126678860Y-89799660D01*
D28*
X149707940Y-86999140D02*
X150769660Y-86999140D01*
X151713100Y-86055700D02*
X158809860Y-86055700D01*
X150769660Y-86999140D02*
X151713100Y-86055700D01*
X155979700Y-93270900D02*
X149707940Y-86999140D01*
X149707940Y-86999140D02*
X149208800Y-86500000D01*
D25*
X122992400Y-92928000D02*
X122819592Y-90920827D01*
X122819592Y-90920827D02*
X121309300Y-90068900D01*
X121309300Y-90068900D02*
X115403800Y-90068900D01*
X115403800Y-90068900D02*
X114565600Y-89230700D01*
X114565600Y-89230700D02*
X112051000Y-89230700D01*
X112051000Y-89230700D02*
X112051000Y-89321200D01*
X112880000Y-89321200D02*
X112880000Y-84880000D01*
X112051000Y-89321200D02*
X112880000Y-89321200D01*
X112880000Y-84880000D02*
X111200000Y-83200000D01*
X111200000Y-80581000D02*
X114089000Y-77692000D01*
X111200000Y-83200000D02*
X111200000Y-80581000D01*
X112100000Y-72360000D02*
X112100000Y-75703000D01*
X100691200Y-86425600D02*
X106685600Y-86425600D01*
X109581200Y-89321200D02*
X112051000Y-89321200D01*
X106685600Y-86425600D02*
X109581200Y-89321200D01*
D26*
X99116400Y-89880000D02*
X99116400Y-89626000D01*
X99116400Y-89626000D02*
X100691200Y-88051200D01*
D25*
X100691200Y-88051200D02*
X100691200Y-86425600D01*
X94900000Y-89880000D02*
X94900000Y-85409600D01*
D26*
X94900000Y-85409600D02*
X91902800Y-82412400D01*
X91902800Y-82412400D02*
X90124800Y-82412400D01*
X100234000Y-89880000D02*
X99116400Y-89880000D01*
D25*
X99116400Y-89880000D02*
X94900000Y-89880000D01*
D27*
X122992400Y-92928000D02*
X122819592Y-90991927D01*
X100691200Y-86425600D02*
X100691200Y-88051200D01*
D25*
X100691200Y-88051200D02*
X98862400Y-89880000D01*
D27*
X94900000Y-89880000D02*
X98862400Y-89880000D01*
D25*
X98862400Y-89880000D02*
X100234000Y-89880000D01*
X90124800Y-82412400D02*
X91902800Y-82412400D01*
X91902800Y-82412400D02*
X94900000Y-85409600D01*
X151010400Y-84698400D02*
X149208800Y-86500000D01*
X158704800Y-84698400D02*
X151010400Y-84698400D01*
X100792800Y-90438800D02*
X100234000Y-89880000D01*
D29*
X215240000Y-59830000D02*
X215240000Y-64980000D01*
X215240000Y-64980000D02*
X215921100Y-65661100D01*
X215921100Y-65661100D02*
X227449900Y-65661100D01*
D25*
X215060000Y-65160000D02*
X226948800Y-65160000D01*
X226948800Y-65160000D02*
X227449900Y-65661100D01*
X215060000Y-65160000D02*
X215060000Y-60010000D01*
X215060000Y-60010000D02*
X215240000Y-59830000D01*
D27*
X227411800Y-65623000D02*
X227449900Y-65661100D01*
D25*
X73180000Y-59700000D02*
X73180000Y-59574800D01*
X73180000Y-59700000D02*
X69810000Y-59700000D01*
X73180000Y-55537000D02*
X75138000Y-53579000D01*
X73180000Y-59700000D02*
X73180000Y-55537000D01*
X63251600Y-81091600D02*
X66231000Y-81091600D01*
X81243600Y-67107560D02*
X76163340Y-67150740D01*
X83930660Y-69794620D02*
X81243600Y-67107560D01*
X83930660Y-75593440D02*
X83930660Y-69794620D01*
X80999500Y-78524600D02*
X83930660Y-75593440D01*
X78408700Y-78524600D02*
X80999500Y-78524600D01*
X73684300Y-83249000D02*
X78408700Y-78524600D01*
X68388400Y-83249000D02*
X73684300Y-83249000D01*
X66231000Y-81091600D02*
X68388400Y-83249000D01*
X72642900Y-67173600D02*
X76079520Y-67234560D01*
X76079520Y-67234560D02*
X76163340Y-67150740D01*
X63251600Y-81091600D02*
X63251600Y-84850800D01*
D27*
X63251600Y-84850800D02*
X63099200Y-85003200D01*
D25*
X66770000Y-97510000D02*
X66830000Y-97450000D01*
X66830000Y-97450000D02*
X66830000Y-94490000D01*
X66890000Y-84990000D02*
X66876800Y-85003200D01*
X66876800Y-85003200D02*
X63099200Y-85003200D01*
X66668820Y-98740460D02*
X66770000Y-97510000D01*
D31*
X158501600Y-62143200D02*
X158501600Y-62092400D01*
X158501600Y-62092400D02*
X152862800Y-56453600D01*
D32*
X158501600Y-62092400D02*
X152862800Y-56453600D01*
X154888100Y-82106000D02*
X158652400Y-82106000D01*
X158652400Y-82106000D02*
X158704800Y-82158400D01*
D25*
X158652400Y-82106000D02*
X158704800Y-82158400D01*
X125229480Y-55542540D02*
X125229480Y-50400520D01*
X132034800Y-45945200D02*
X132034800Y-41772400D01*
X129200000Y-48780000D02*
X132034800Y-45945200D01*
X126850000Y-48780000D02*
X129200000Y-48780000D01*
X125229480Y-50400520D02*
X126850000Y-48780000D01*
D29*
X125532400Y-92928000D02*
X129522580Y-92928000D01*
X129522580Y-92928000D02*
X130090080Y-92360500D01*
D31*
X135670000Y-47120000D02*
X144578200Y-47120000D01*
X156753400Y-53913600D02*
X152862800Y-53913600D01*
X157250300Y-53416700D02*
X156753400Y-53913600D01*
X157250300Y-51981600D02*
X157250300Y-53416700D01*
X154113400Y-48844700D02*
X157250300Y-51981600D01*
X146302900Y-48844700D02*
X154113400Y-48844700D01*
X144578200Y-47120000D02*
X146302900Y-48844700D01*
X135670000Y-47120000D02*
X135670000Y-45323800D01*
X134574800Y-44228600D02*
X134574800Y-41772400D01*
X135670000Y-45323800D02*
X134574800Y-44228600D01*
D28*
X196906050Y-33077650D02*
X205173750Y-33077650D01*
X208736100Y-29515300D02*
X227077440Y-29515300D01*
X205173750Y-33077650D02*
X208736100Y-29515300D01*
X197268000Y-28092900D02*
X127214800Y-28092900D01*
X127303700Y-28181800D02*
X127303700Y-34138100D01*
X127214800Y-28092900D02*
X127303700Y-28181800D01*
X188392000Y-41518400D02*
X188465300Y-41518400D01*
X188465300Y-41518400D02*
X196906050Y-33077650D01*
X196906050Y-33077650D02*
X197979200Y-32004500D01*
D25*
X189651600Y-41518400D02*
X198000000Y-33170000D01*
X203070000Y-27080000D02*
X205610000Y-29620000D01*
X127120000Y-27080000D02*
X203070000Y-27080000D01*
X126240000Y-27960000D02*
X127120000Y-27080000D01*
X126240000Y-34820000D02*
X126240000Y-27960000D01*
X205610000Y-29620000D02*
X205610000Y-33170000D01*
X198000000Y-33170000D02*
X205610000Y-33170000D01*
X134574800Y-41772400D02*
X134574800Y-38984800D01*
X134574800Y-38984800D02*
X130410000Y-34820000D01*
X130410000Y-34820000D02*
X126240000Y-34820000D01*
X120300000Y-40760000D02*
X126240000Y-34820000D01*
X120300000Y-44591800D02*
X120300000Y-40760000D01*
X134731000Y-41928600D02*
X134574800Y-41772400D01*
X120300000Y-44591800D02*
X118891800Y-44591800D01*
X99620000Y-36040000D02*
X99620000Y-38370000D01*
X101970000Y-33690000D02*
X99620000Y-36040000D01*
X111830000Y-33690000D02*
X101970000Y-33690000D01*
X112190000Y-34050000D02*
X111830000Y-33690000D01*
X112190000Y-37890000D02*
X112190000Y-34050000D01*
X118891800Y-44591800D02*
X112190000Y-37890000D01*
X188392000Y-41518400D02*
X189651600Y-41518400D01*
X99758000Y-43489000D02*
X99758000Y-38508000D01*
X99758000Y-38508000D02*
X99620000Y-38370000D01*
X84384400Y-53405600D02*
X84384400Y-53305600D01*
X84384400Y-53305600D02*
X94201000Y-43489000D01*
X94201000Y-43489000D02*
X99758000Y-43489000D01*
D26*
X84384400Y-52999200D02*
X84384400Y-53405600D01*
D27*
X154082000Y-53913600D02*
X152862800Y-53913600D01*
X84384400Y-52999200D02*
X84384400Y-53405600D01*
D25*
X67578000Y-44072000D02*
X71690000Y-39960000D01*
X67578000Y-47399000D02*
X67578000Y-44072000D01*
X75160000Y-39960000D02*
X80970000Y-45770000D01*
X80970000Y-45770000D02*
X80970000Y-49991200D01*
X80970000Y-49991200D02*
X84384400Y-53405600D01*
X71690000Y-39960000D02*
X75160000Y-39960000D01*
X65246420Y-64155820D02*
X68863380Y-64176140D01*
X65246420Y-64155820D02*
X64375200Y-64173600D01*
X64375200Y-64173600D02*
X59650000Y-60489800D01*
X59650000Y-60489800D02*
X59650000Y-59700000D01*
X69068200Y-76062400D02*
X69068200Y-80101000D01*
D26*
X69068200Y-80101000D02*
X69093600Y-80126400D01*
D27*
X69068200Y-80101000D02*
X69093600Y-80126400D01*
D25*
X72642900Y-64173600D02*
X76079520Y-64234560D01*
X76079520Y-64234560D02*
X76163340Y-64150740D01*
X76163340Y-64150740D02*
X78932440Y-64107560D01*
X78932440Y-64107560D02*
X83340000Y-59700000D01*
D26*
X73716400Y-80126400D02*
X73716400Y-76138600D01*
X73716400Y-76138600D02*
X73741800Y-76113200D01*
D25*
X73741800Y-76113200D02*
X73741800Y-80101000D01*
D27*
X73741800Y-80101000D02*
X73716400Y-80126400D01*
D25*
X71941000Y-53399000D02*
X67578000Y-53399000D01*
X74761000Y-50579000D02*
X71941000Y-53399000D01*
X75138000Y-50579000D02*
X74761000Y-50579000D01*
X63601000Y-53399000D02*
X63560000Y-53440000D01*
X67578000Y-53399000D02*
X63601000Y-53399000D01*
X99520000Y-52810000D02*
X99520000Y-49727000D01*
X99520000Y-49727000D02*
X99758000Y-49489000D01*
X99910000Y-49641000D02*
X99758000Y-49489000D01*
X99758000Y-49489000D02*
X101908000Y-49489000D01*
X101908000Y-49489000D02*
X104648000Y-46749000D01*
D32*
X94900000Y-79720000D02*
X95458800Y-79720000D01*
X95458800Y-79720000D02*
X99218000Y-75960800D01*
X99218000Y-75960800D02*
X99218000Y-73090600D01*
X105009200Y-70039800D02*
X103300200Y-70039800D01*
X103300200Y-70039800D02*
X100249400Y-73090600D01*
X100249400Y-73090600D02*
X99218000Y-73090600D01*
D25*
X99218000Y-73090600D02*
X100249400Y-73090600D01*
X100249400Y-73090600D02*
X103300200Y-70039800D01*
X95458800Y-79720000D02*
X99218000Y-75960800D01*
X99218000Y-75960800D02*
X99218000Y-73090600D01*
D27*
X99218000Y-73090600D02*
X99599000Y-73090600D01*
X95458800Y-79720000D02*
X99218000Y-75960800D01*
X99218000Y-75960800D02*
X99218000Y-73090600D01*
D32*
X105009200Y-77230800D02*
X105009200Y-73039800D01*
X117089000Y-77692000D02*
X119868200Y-80471200D01*
X119868200Y-80471200D02*
X119868200Y-86019200D01*
X122260000Y-72360000D02*
X120580000Y-72360000D01*
X120580000Y-72360000D02*
X117089000Y-75851000D01*
X117089000Y-75851000D02*
X117089000Y-77692000D01*
D25*
X119868200Y-86019200D02*
X119868200Y-80471200D01*
X117089000Y-77692000D02*
X117089000Y-75851000D01*
X117089000Y-75851000D02*
X120580000Y-72360000D01*
X115169200Y-47563600D02*
X116103600Y-47563600D01*
X116103600Y-47563600D02*
X119131800Y-50591800D01*
X119131800Y-50591800D02*
X120300000Y-50591800D01*
X111318000Y-45299000D02*
X112904600Y-45299000D01*
X112904600Y-45299000D02*
X115169200Y-47563600D01*
X119481800Y-50591800D02*
X120300000Y-50591800D01*
D26*
X120279680Y-50612120D02*
X120300000Y-50591800D01*
D27*
X120279680Y-50612120D02*
X120300000Y-50591800D01*
D25*
X76741800Y-76113200D02*
X76741800Y-74133600D01*
X77456200Y-73419200D02*
X76163340Y-70150740D01*
X76741800Y-74133600D02*
X77456200Y-73419200D01*
X72642900Y-70173600D02*
X76079520Y-70234560D01*
X76079520Y-70234560D02*
X76163340Y-70150740D01*
D26*
X76741800Y-76113200D02*
X76741800Y-75684200D01*
X76741800Y-75684200D02*
X75011800Y-73954200D01*
X68176400Y-73954200D02*
X66068200Y-76062400D01*
X75011800Y-73954200D02*
X68176400Y-73954200D01*
D25*
X79741800Y-76113200D02*
X76741800Y-76113200D01*
D26*
X80726800Y-75128200D02*
X79741800Y-76113200D01*
D25*
X76741800Y-75684200D02*
X75037200Y-73979600D01*
X68151000Y-73979600D02*
X66068200Y-76062400D01*
X75037200Y-73979600D02*
X68151000Y-73979600D01*
X79741800Y-76113200D02*
X80726800Y-75128200D01*
X52939200Y-85003200D02*
X52939200Y-87289200D01*
D26*
X52939200Y-87289200D02*
X56241200Y-90591200D01*
X56241200Y-90591200D02*
X56241200Y-91251600D01*
D25*
X56241200Y-91251600D02*
X56241200Y-90591200D01*
X56241200Y-90591200D02*
X52939200Y-87289200D01*
X65246420Y-70155820D02*
X68863380Y-70176140D01*
X63068200Y-77478120D02*
X63068200Y-76062400D01*
X65246420Y-70155820D02*
X65246420Y-70228960D01*
X65246420Y-70228960D02*
X63068200Y-71995700D01*
X63068200Y-71995700D02*
X63068200Y-76062400D01*
D26*
X63068200Y-77510200D02*
X63068200Y-77478120D01*
X86365600Y-76011600D02*
X86365600Y-75376600D01*
D25*
X86365600Y-75376600D02*
X90759800Y-70982400D01*
D26*
X99218000Y-70090600D02*
X92001600Y-70090600D01*
X90759800Y-71332400D02*
X90759800Y-70982400D01*
D25*
X90759800Y-70982400D02*
X90759800Y-67197800D01*
D26*
X92001600Y-70090600D02*
X90759800Y-71332400D01*
X90759800Y-67197800D02*
X90886800Y-67070800D01*
D27*
X63068200Y-77510200D02*
X63068200Y-77515800D01*
D25*
X82184760Y-80192440D02*
X86365600Y-76011600D01*
X79152000Y-80192440D02*
X82184760Y-80192440D01*
X71684400Y-87660040D02*
X79152000Y-80192440D01*
X62774080Y-87660040D02*
X71684400Y-87660040D01*
X60904640Y-85790600D02*
X62774080Y-87660040D01*
X60904640Y-79679360D02*
X60904640Y-85790600D01*
X63068200Y-77515800D02*
X60904640Y-79679360D01*
D27*
X99218000Y-70090600D02*
X92083400Y-70090600D01*
X92083400Y-70090600D02*
X90886800Y-71287200D01*
X86365600Y-76011600D02*
X86365600Y-75808400D01*
X86365600Y-75808400D02*
X90886800Y-71287200D01*
X90886800Y-71287200D02*
X90886800Y-67070800D01*
X86264000Y-76113200D02*
X86264000Y-75910000D01*
X63068200Y-76062400D02*
X63068200Y-76398200D01*
D30*
X128936000Y-74539200D02*
X128449100Y-74539200D01*
X128449100Y-74539200D02*
X122820600Y-68910700D01*
X122820600Y-68910700D02*
X115226000Y-68910700D01*
X140823200Y-79110400D02*
X137960600Y-79110400D01*
X133389400Y-74539200D02*
X128936000Y-74539200D01*
X137960600Y-79110400D02*
X133389400Y-74539200D01*
D32*
X140244480Y-82260940D02*
X140244480Y-79689120D01*
X140244480Y-79689120D02*
X140823200Y-79110400D01*
X144728100Y-82106000D02*
X140399420Y-82106000D01*
X140399420Y-82106000D02*
X140244480Y-82260940D01*
D33*
X128936000Y-74539200D02*
X128936000Y-74353000D01*
D25*
X140244480Y-79689120D02*
X140823200Y-79110400D01*
X140244480Y-82260940D02*
X144573160Y-82260940D01*
X144573160Y-82260940D02*
X144728100Y-82106000D01*
D26*
X140244480Y-82260940D02*
X140782040Y-79151560D01*
X140782040Y-79151560D02*
X140823200Y-79110400D01*
D27*
X140823200Y-79110400D02*
X140285640Y-82219780D01*
X140285640Y-82219780D02*
X140352200Y-82286340D01*
X140822680Y-79110920D02*
X140823200Y-79110400D01*
D32*
X148341600Y-62143200D02*
X148341600Y-59755600D01*
X148341600Y-59755600D02*
X144578260Y-55992260D01*
X144578260Y-55992260D02*
X144578260Y-50709060D01*
X144578260Y-50709060D02*
X144328400Y-50459200D01*
D25*
X115222540Y-60772120D02*
X115228540Y-65098160D01*
D26*
X115228540Y-65098160D02*
X115226000Y-65100700D01*
D25*
X116339130Y-59655530D02*
X115222540Y-60772120D01*
D26*
X144328400Y-50459200D02*
X144328400Y-55742400D01*
X144328400Y-55742400D02*
X148341600Y-59755600D01*
X128936000Y-57926000D02*
X128936000Y-56402800D01*
X128936000Y-56402800D02*
X126751600Y-54218400D01*
X126751600Y-54218400D02*
X126751600Y-51576800D01*
X126751600Y-51576800D02*
X127869200Y-50459200D01*
X127869200Y-50459200D02*
X144328400Y-50459200D01*
X116237530Y-59757130D02*
X116339130Y-59655530D01*
D25*
X116339130Y-59655530D02*
X118068660Y-57926000D01*
X118068660Y-57926000D02*
X128936000Y-57926000D01*
D27*
X127869200Y-50459200D02*
X144328400Y-50459200D01*
X126751600Y-51576800D02*
X127869200Y-50459200D01*
X126751600Y-54218400D02*
X126751600Y-51576800D01*
X128936000Y-56402800D02*
X126751600Y-54218400D01*
X115226000Y-65100700D02*
X115220000Y-60774660D01*
X115220000Y-60774660D02*
X116237530Y-59757130D01*
X118068660Y-57926000D02*
X128936000Y-57926000D01*
D31*
X166324800Y-76468800D02*
X166324800Y-83483600D01*
X187681100Y-93359800D02*
X190467500Y-93359800D01*
X183399600Y-89078300D02*
X187681100Y-93359800D01*
X183399600Y-87478100D02*
X183399600Y-89078300D01*
X180288100Y-84366600D02*
X183399600Y-87478100D01*
X176998800Y-84366600D02*
X180288100Y-84366600D01*
X172109300Y-89256100D02*
X176998800Y-84366600D01*
X168553300Y-89256100D02*
X172109300Y-89256100D01*
X165175100Y-85877900D02*
X168553300Y-89256100D01*
X165175100Y-84633300D02*
X165175100Y-85877900D01*
X166324800Y-83483600D02*
X165175100Y-84633300D01*
X165401500Y-77392100D02*
X163175200Y-79618400D01*
X163175200Y-79618400D02*
X158704800Y-79618400D01*
X168422500Y-61294500D02*
X170690000Y-63562000D01*
X170690000Y-63562000D02*
X170690000Y-72190000D01*
X170690000Y-72190000D02*
X166411200Y-76468800D01*
X166411200Y-76468800D02*
X166324800Y-76468800D01*
D32*
X158704800Y-79618400D02*
X163175200Y-79618400D01*
X165401500Y-77392100D02*
X166324800Y-76468800D01*
D25*
X166324800Y-76468800D02*
X166411200Y-76468800D01*
X166411200Y-76468800D02*
X170690000Y-72190000D01*
X168422500Y-61294500D02*
X167798000Y-60670000D01*
X170690000Y-72190000D02*
X170690000Y-63562000D01*
X163175200Y-79618400D02*
X166324800Y-76468800D01*
D31*
X162565600Y-62295600D02*
X162176300Y-62295600D01*
X162176300Y-62295600D02*
X159764900Y-64707000D01*
X150797100Y-51373600D02*
X152862800Y-51373600D01*
X148868300Y-53302400D02*
X150797100Y-51373600D01*
X148868300Y-56667900D02*
X148868300Y-53302400D01*
X156907400Y-64707000D02*
X148868300Y-56667900D01*
X159764900Y-64707000D02*
X156907400Y-64707000D01*
D32*
X157333200Y-41518400D02*
X157333200Y-44113600D01*
X162660500Y-53480200D02*
X162660500Y-58047800D01*
X156018400Y-46838100D02*
X162660500Y-53480200D01*
X156018400Y-45428400D02*
X156018400Y-46838100D01*
X157333200Y-44113600D02*
X156018400Y-45428400D01*
X167798000Y-56860000D02*
X163848300Y-56860000D01*
X163848300Y-56860000D02*
X162660500Y-58047800D01*
X162660500Y-58047800D02*
X162565600Y-58142700D01*
X162565600Y-58142700D02*
X162565600Y-62295600D01*
D25*
X162565600Y-62295600D02*
X162565600Y-58142700D01*
X162565600Y-58142700D02*
X163848300Y-56860000D01*
D26*
X163848300Y-56860000D02*
X167798000Y-56860000D01*
X162565600Y-58142700D02*
X163848300Y-56860000D01*
D28*
X161898500Y-100013000D02*
X161898500Y-94952100D01*
X161898500Y-94952100D02*
X163579700Y-93270900D01*
X169337240Y-95214520D02*
X167393620Y-93270900D01*
X167393620Y-93270900D02*
X163579700Y-93270900D01*
X182867500Y-93359800D02*
X182763000Y-93359800D01*
X182763000Y-93359800D02*
X178954600Y-97168200D01*
X171290920Y-97168200D02*
X169337240Y-95214520D01*
X178954600Y-97168200D02*
X171290920Y-97168200D01*
D25*
X163579700Y-93270900D02*
X167393620Y-93270900D01*
X167393620Y-93270900D02*
X169337240Y-95214520D01*
D27*
X182321720Y-93359800D02*
X182867500Y-93359800D01*
X163579700Y-93270900D02*
X163797500Y-93270900D01*
X161898500Y-100013000D02*
X161911200Y-100013000D01*
D28*
X159642980Y-46325020D02*
X160126580Y-46325020D01*
X160126580Y-46325020D02*
X164933200Y-41518400D01*
X180792000Y-41518400D02*
X180792000Y-41220600D01*
X180792000Y-41220600D02*
X177265500Y-37694100D01*
X168757500Y-37694100D02*
X164933200Y-41518400D01*
X177265500Y-37694100D02*
X168757500Y-37694100D01*
X173481420Y-52702960D02*
X173481420Y-52401220D01*
X173481420Y-52401220D02*
X164933200Y-43853000D01*
X164933200Y-43853000D02*
X164933200Y-41518400D01*
D27*
X164933200Y-41518400D02*
X164933200Y-40674800D01*
D34*
X177947200Y-39105400D02*
X180792000Y-41518400D01*
X164933200Y-40674800D02*
X166528000Y-39105400D01*
X166528000Y-39105400D02*
X177947200Y-39105400D01*
D27*
X173460900Y-52682440D02*
X173481420Y-52702960D01*
X173077560Y-52299100D02*
X173481420Y-52702960D01*
D32*
X105009200Y-82310800D02*
X105009200Y-79770800D01*
X110851200Y-86425600D02*
X110396520Y-86425600D01*
X110396520Y-86425600D02*
X106281720Y-82310800D01*
X106281720Y-82310800D02*
X105009200Y-82310800D01*
D26*
X110851200Y-85257200D02*
X110851200Y-86425600D01*
D27*
X110851200Y-85257200D02*
X110851200Y-86425600D01*
D31*
X144226800Y-69407600D02*
X147122400Y-69407600D01*
X147122400Y-69407600D02*
X150932400Y-65597600D01*
X150932400Y-65597600D02*
X150983200Y-65597600D01*
X144226800Y-71947600D02*
X144226800Y-69407600D01*
D32*
X147122400Y-69407600D02*
X150932400Y-65597600D01*
X150932400Y-65597600D02*
X150983200Y-65597600D01*
X147122400Y-69407600D02*
X150932400Y-65597600D01*
X150932400Y-65597600D02*
X150983200Y-65597600D01*
D25*
X144226800Y-69407600D02*
X147122400Y-69407600D01*
X147122400Y-69407600D02*
X150932400Y-65597600D01*
D26*
X150932400Y-65597600D02*
X150983200Y-65597600D01*
D27*
X144226800Y-69407600D02*
X147173200Y-69407600D01*
X147173200Y-69407600D02*
X150983200Y-65597600D01*
D31*
X162565600Y-72455600D02*
X162565600Y-67234400D01*
X162565600Y-67234400D02*
X163491200Y-66308800D01*
X163491200Y-66308800D02*
X166324800Y-66308800D01*
D32*
X162565600Y-67234400D02*
X163491200Y-66308800D01*
X163491200Y-66308800D02*
X166324800Y-66308800D01*
D25*
X163491200Y-66308800D02*
X166324800Y-66308800D01*
X162565600Y-67234400D02*
X163491200Y-66308800D01*
D31*
X144328400Y-60619200D02*
X144295400Y-60619200D01*
X144295400Y-60619200D02*
X136552200Y-52876000D01*
X136552200Y-52876000D02*
X128936000Y-52876000D01*
X144226800Y-66867600D02*
X144226800Y-60720800D01*
X144226800Y-60720800D02*
X144328400Y-60619200D01*
D25*
X128936000Y-52876000D02*
X136552200Y-52876000D01*
X136552200Y-52876000D02*
X144295400Y-60619200D01*
D26*
X144226800Y-60720800D02*
X144328400Y-60619200D01*
D27*
X144328400Y-60619200D02*
X144328400Y-66766000D01*
X144328400Y-66766000D02*
X144226800Y-66867600D01*
X128936000Y-52876000D02*
X136585200Y-52876000D01*
X136585200Y-52876000D02*
X144328400Y-60619200D01*
D32*
X150983200Y-79110400D02*
X150983200Y-75757600D01*
D25*
X128936000Y-79589200D02*
X132508500Y-79589200D01*
X150983200Y-80816600D02*
X150983200Y-79110400D01*
X147560200Y-84239600D02*
X150983200Y-80816600D01*
X137158900Y-84239600D02*
X147560200Y-84239600D01*
X132508500Y-79589200D02*
X137158900Y-84239600D01*
D28*
X178950000Y-87950000D02*
X178950000Y-89677300D01*
X178950000Y-89677300D02*
X175267500Y-93359800D01*
X190689400Y-47442200D02*
X182809900Y-47442200D01*
X176430500Y-45415700D02*
X172533200Y-41518400D01*
X180783400Y-45415700D02*
X176430500Y-45415700D01*
X182809900Y-47442200D02*
X180783400Y-45415700D01*
X172533200Y-41518400D02*
X172533200Y-41889900D01*
D27*
X172533200Y-41518400D02*
X172908480Y-41518400D01*
X190689400Y-47442200D02*
X190689400Y-46977800D01*
X172533200Y-41518400D02*
X172533200Y-41580000D01*
D35*
X195992000Y-41518400D02*
X193024600Y-41518400D01*
X146695000Y-41772400D02*
X145263100Y-41772400D01*
X154862700Y-33604700D02*
X146695000Y-41772400D01*
X183577400Y-33604700D02*
X154862700Y-33604700D01*
X184288600Y-34315900D02*
X183577400Y-33604700D01*
X184288600Y-41720000D02*
X184288600Y-34315900D01*
X186993700Y-44425100D02*
X184288600Y-41720000D01*
X190117900Y-44425100D02*
X186993700Y-44425100D01*
X193024600Y-41518400D02*
X190117900Y-44425100D01*
D31*
X149482980Y-46325020D02*
X149482980Y-45992280D01*
X149482980Y-45992280D02*
X145263100Y-41772400D01*
X145263100Y-41772400D02*
X137114800Y-41772400D01*
D25*
X149540480Y-45381200D02*
X149482980Y-46325020D01*
D33*
X148379700Y-93270900D02*
X134185500Y-93270900D01*
X120452400Y-96760880D02*
X120452400Y-92928000D01*
X120720020Y-97028500D02*
X120452400Y-96760880D01*
X130427900Y-97028500D02*
X120720020Y-97028500D01*
X134185500Y-93270900D02*
X130427900Y-97028500D01*
D28*
X151738500Y-100013000D02*
X151738500Y-96629700D01*
X151738500Y-96629700D02*
X148379700Y-93270900D01*
D27*
X120452400Y-92928000D02*
X120452400Y-94045600D01*
D28*
X198070000Y-75310000D02*
X205970000Y-75310000D01*
X205970000Y-75310000D02*
X207760000Y-73520000D01*
D32*
X76828820Y-98740460D02*
X109787860Y-98740460D01*
X190881400Y-65150000D02*
X192094000Y-65150000D01*
X185114100Y-70917300D02*
X190881400Y-65150000D01*
X154634100Y-107493300D02*
X185114100Y-107493300D01*
X147979300Y-100838500D02*
X154634100Y-107493300D01*
X111885900Y-100838500D02*
X147979300Y-100838500D01*
X109787860Y-98740460D02*
X111885900Y-100838500D01*
D29*
X198070000Y-65150000D02*
X204890000Y-65150000D01*
X204890000Y-65150000D02*
X205080000Y-64960000D01*
X205080000Y-64960000D02*
X205080000Y-59830000D01*
X198070000Y-65150000D02*
X192094000Y-65150000D01*
X192094000Y-65150000D02*
X190912000Y-66332000D01*
D28*
X190689400Y-85942200D02*
X190912000Y-66332000D01*
X190912000Y-66332000D02*
X178950000Y-54370000D01*
X178950000Y-54370000D02*
X178950000Y-49450000D01*
D25*
X187830000Y-63250000D02*
X187830000Y-63240000D01*
X190912000Y-66332000D02*
X187830000Y-63250000D01*
X204900000Y-65160000D02*
X204900000Y-60010000D01*
X204900000Y-60010000D02*
X205080000Y-59830000D01*
X204890000Y-65150000D02*
X204900000Y-65160000D01*
X178950000Y-49450000D02*
X178950000Y-54360000D01*
X189740000Y-65150000D02*
X194820000Y-65150000D01*
X194820000Y-65150000D02*
X198070000Y-65150000D01*
X178950000Y-54360000D02*
X187830000Y-63240000D01*
X187830000Y-63240000D02*
X189740000Y-65150000D01*
X71411000Y-50399000D02*
X71690000Y-50120000D01*
X67578000Y-50399000D02*
X71411000Y-50399000D01*
X99758000Y-46489000D02*
X100311000Y-46489000D01*
X100311000Y-46489000D02*
X102110000Y-44690000D01*
X102110000Y-44690000D02*
X102110000Y-41600000D01*
X102110000Y-41600000D02*
X105340000Y-38370000D01*
X105340000Y-38370000D02*
X109780000Y-38370000D01*
D32*
X122868200Y-86019200D02*
X122868200Y-80811800D01*
X122868200Y-80811800D02*
X120089000Y-78032600D01*
X120089000Y-78032600D02*
X120089000Y-77692000D01*
D25*
X122868200Y-80811800D02*
X120089000Y-78032600D01*
X120089000Y-78032600D02*
X120089000Y-77692000D01*
X122868200Y-86019200D02*
X122868200Y-86401800D01*
X122868200Y-86401800D02*
X121040000Y-88230000D01*
X121040000Y-88230000D02*
X118520000Y-88230000D01*
X118520000Y-88230000D02*
X115730000Y-85440000D01*
X115730000Y-85440000D02*
X115730000Y-83735200D01*
X115730000Y-83735200D02*
X113848400Y-81853600D01*
X125510000Y-47120000D02*
X120771800Y-47120000D01*
X120771800Y-47120000D02*
X120300000Y-47591800D01*
X111318000Y-42299000D02*
X113929000Y-42299000D01*
X119221800Y-47591800D02*
X120300000Y-47591800D01*
X113929000Y-42299000D02*
X119221800Y-47591800D01*
D36*
X120271800Y-47563600D02*
X120300000Y-47591800D01*
D27*
X120271800Y-47563600D02*
X120300000Y-47591800D01*
D37*
G36*
X231495300Y-36768595D02*
X228830040Y-36778182D01*
X228830040Y-30759210D01*
X228830040Y-30506591D01*
X228830040Y-29801050D01*
X228830040Y-29229550D01*
X228830040Y-28524009D01*
X228830040Y-28271390D01*
X228733367Y-28038001D01*
X228554738Y-27859373D01*
X228321349Y-27762700D01*
X227363190Y-27762700D01*
X227204440Y-27921450D01*
X227204440Y-29388300D01*
X228671290Y-29388300D01*
X228830040Y-29229550D01*
X228830040Y-29801050D01*
X228671290Y-29642300D01*
X227204440Y-29642300D01*
X227204440Y-31109150D01*
X227363190Y-31267900D01*
X228321349Y-31267900D01*
X228554738Y-31171227D01*
X228733367Y-30992599D01*
X228830040Y-30759210D01*
X228830040Y-36778182D01*
X226950440Y-36784943D01*
X226950440Y-31109150D01*
X226950440Y-29642300D01*
X226950440Y-29388300D01*
X226950440Y-27921450D01*
X226791690Y-27762700D01*
X225833531Y-27762700D01*
X225600142Y-27859373D01*
X225421513Y-28038001D01*
X225324840Y-28271390D01*
X225324840Y-28524009D01*
X225324840Y-29229550D01*
X225483590Y-29388300D01*
X226950440Y-29388300D01*
X226950440Y-29642300D01*
X225483590Y-29642300D01*
X225324840Y-29801050D01*
X225324840Y-30506591D01*
X225324840Y-30759210D01*
X225421513Y-30992599D01*
X225600142Y-31171227D01*
X225833531Y-31267900D01*
X226791690Y-31267900D01*
X226950440Y-31109150D01*
X226950440Y-36784943D01*
X211873767Y-36839175D01*
X211873767Y-35701966D01*
X211845805Y-35151462D01*
X211688931Y-34772735D01*
X211447930Y-34704675D01*
X211268325Y-34884280D01*
X211268325Y-34525070D01*
X211200265Y-34284069D01*
X210680966Y-34099233D01*
X210130462Y-34127195D01*
X209751735Y-34284069D01*
X209683675Y-34525070D01*
X210476000Y-35317395D01*
X211268325Y-34525070D01*
X211268325Y-34884280D01*
X210655605Y-35497000D01*
X211447930Y-36289325D01*
X211688931Y-36221265D01*
X211873767Y-35701966D01*
X211873767Y-36839175D01*
X210879606Y-36842752D01*
X211200265Y-36709931D01*
X211268325Y-36468930D01*
X210476000Y-35676605D01*
X210296395Y-35856210D01*
X210296395Y-35497000D01*
X209504070Y-34704675D01*
X209263069Y-34772735D01*
X209078233Y-35292034D01*
X209106195Y-35842538D01*
X209263069Y-36221265D01*
X209504070Y-36289325D01*
X210296395Y-35497000D01*
X210296395Y-35856210D01*
X209683675Y-36468930D01*
X209751735Y-36709931D01*
X210132448Y-36845439D01*
X196761117Y-36893538D01*
X196868624Y-24574200D01*
X231495300Y-24574200D01*
X231495300Y-32046061D01*
X231367143Y-32237862D01*
X231315000Y-32500000D01*
X231315000Y-33848635D01*
X231265000Y-34100000D01*
X231317143Y-34362138D01*
X231465632Y-34584368D01*
X231495300Y-34604191D01*
X231495300Y-36768595D01*
X231495300Y-36768595D01*
G37*
X231495300Y-36768595D02*
X228830040Y-36778182D01*
X228830040Y-30759210D01*
X228830040Y-30506591D01*
X228830040Y-29801050D01*
X228830040Y-29229550D01*
X228830040Y-28524009D01*
X228830040Y-28271390D01*
X228733367Y-28038001D01*
X228554738Y-27859373D01*
X228321349Y-27762700D01*
X227363190Y-27762700D01*
X227204440Y-27921450D01*
X227204440Y-29388300D01*
X228671290Y-29388300D01*
X228830040Y-29229550D01*
X228830040Y-29801050D01*
X228671290Y-29642300D01*
X227204440Y-29642300D01*
X227204440Y-31109150D01*
X227363190Y-31267900D01*
X228321349Y-31267900D01*
X228554738Y-31171227D01*
X228733367Y-30992599D01*
X228830040Y-30759210D01*
X228830040Y-36778182D01*
X226950440Y-36784943D01*
X226950440Y-31109150D01*
X226950440Y-29642300D01*
X226950440Y-29388300D01*
X226950440Y-27921450D01*
X226791690Y-27762700D01*
X225833531Y-27762700D01*
X225600142Y-27859373D01*
X225421513Y-28038001D01*
X225324840Y-28271390D01*
X225324840Y-28524009D01*
X225324840Y-29229550D01*
X225483590Y-29388300D01*
X226950440Y-29388300D01*
X226950440Y-29642300D01*
X225483590Y-29642300D01*
X225324840Y-29801050D01*
X225324840Y-30506591D01*
X225324840Y-30759210D01*
X225421513Y-30992599D01*
X225600142Y-31171227D01*
X225833531Y-31267900D01*
X226791690Y-31267900D01*
X226950440Y-31109150D01*
X226950440Y-36784943D01*
X211873767Y-36839175D01*
X211873767Y-35701966D01*
X211845805Y-35151462D01*
X211688931Y-34772735D01*
X211447930Y-34704675D01*
X211268325Y-34884280D01*
X211268325Y-34525070D01*
X211200265Y-34284069D01*
X210680966Y-34099233D01*
X210130462Y-34127195D01*
X209751735Y-34284069D01*
X209683675Y-34525070D01*
X210476000Y-35317395D01*
X211268325Y-34525070D01*
X211268325Y-34884280D01*
X210655605Y-35497000D01*
X211447930Y-36289325D01*
X211688931Y-36221265D01*
X211873767Y-35701966D01*
X211873767Y-36839175D01*
X210879606Y-36842752D01*
X211200265Y-36709931D01*
X211268325Y-36468930D01*
X210476000Y-35676605D01*
X210296395Y-35856210D01*
X210296395Y-35497000D01*
X209504070Y-34704675D01*
X209263069Y-34772735D01*
X209078233Y-35292034D01*
X209106195Y-35842538D01*
X209263069Y-36221265D01*
X209504070Y-36289325D01*
X210296395Y-35497000D01*
X210296395Y-35856210D01*
X209683675Y-36468930D01*
X209751735Y-36709931D01*
X210132448Y-36845439D01*
X196761117Y-36893538D01*
X196868624Y-24574200D01*
X231495300Y-24574200D01*
X231495300Y-32046061D01*
X231367143Y-32237862D01*
X231315000Y-32500000D01*
X231315000Y-33848635D01*
X231265000Y-34100000D01*
X231317143Y-34362138D01*
X231465632Y-34584368D01*
X231495300Y-34604191D01*
X231495300Y-36768595D01*
G36*
X231495300Y-109348300D02*
X229335500Y-109348300D01*
X229335500Y-105790810D01*
X229335500Y-105538191D01*
X229335500Y-104832650D01*
X229335500Y-104261150D01*
X229335500Y-103555609D01*
X229335500Y-103302990D01*
X229238827Y-103069601D01*
X229060198Y-102890973D01*
X228826809Y-102794300D01*
X227868650Y-102794300D01*
X227709900Y-102953050D01*
X227709900Y-104419900D01*
X229176750Y-104419900D01*
X229335500Y-104261150D01*
X229335500Y-104832650D01*
X229176750Y-104673900D01*
X227709900Y-104673900D01*
X227709900Y-106140750D01*
X227868650Y-106299500D01*
X228826809Y-106299500D01*
X229060198Y-106202827D01*
X229238827Y-106024199D01*
X229335500Y-105790810D01*
X229335500Y-109348300D01*
X227455900Y-109348300D01*
X227455900Y-106140750D01*
X227455900Y-104673900D01*
X227455900Y-104419900D01*
X227455900Y-102953050D01*
X227297150Y-102794300D01*
X226338991Y-102794300D01*
X226105602Y-102890973D01*
X225926973Y-103069601D01*
X225830300Y-103302990D01*
X225830300Y-103555609D01*
X225830300Y-104261150D01*
X225989050Y-104419900D01*
X227455900Y-104419900D01*
X227455900Y-104673900D01*
X225989050Y-104673900D01*
X225830300Y-104832650D01*
X225830300Y-105538191D01*
X225830300Y-105790810D01*
X225926973Y-106024199D01*
X226105602Y-106202827D01*
X226338991Y-106299500D01*
X227297150Y-106299500D01*
X227455900Y-106140750D01*
X227455900Y-109348300D01*
X210400567Y-109348300D01*
X210400567Y-96750866D01*
X210372605Y-96200362D01*
X210215731Y-95821635D01*
X209974730Y-95753575D01*
X209182405Y-96545900D01*
X209974730Y-97338225D01*
X210215731Y-97270165D01*
X210400567Y-96750866D01*
X210400567Y-109348300D01*
X209795125Y-109348300D01*
X209795125Y-97517830D01*
X209002800Y-96725505D01*
X208823195Y-96905110D01*
X208823195Y-96545900D01*
X208030870Y-95753575D01*
X207789869Y-95821635D01*
X207605033Y-96340934D01*
X207632995Y-96891438D01*
X207789869Y-97270165D01*
X208030870Y-97338225D01*
X208823195Y-96545900D01*
X208823195Y-96905110D01*
X208210475Y-97517830D01*
X208278535Y-97758831D01*
X208797834Y-97943667D01*
X209348338Y-97915705D01*
X209727065Y-97758831D01*
X209795125Y-97517830D01*
X209795125Y-109348300D01*
X196860980Y-109348300D01*
X196723171Y-95504500D01*
X208230093Y-95504500D01*
X208210475Y-95573970D01*
X209002800Y-96366295D01*
X209795125Y-95573970D01*
X209775506Y-95504500D01*
X231495300Y-95504500D01*
X231495300Y-109348300D01*
X231495300Y-109348300D01*
G37*
X231495300Y-109348300D02*
X229335500Y-109348300D01*
X229335500Y-105790810D01*
X229335500Y-105538191D01*
X229335500Y-104832650D01*
X229335500Y-104261150D01*
X229335500Y-103555609D01*
X229335500Y-103302990D01*
X229238827Y-103069601D01*
X229060198Y-102890973D01*
X228826809Y-102794300D01*
X227868650Y-102794300D01*
X227709900Y-102953050D01*
X227709900Y-104419900D01*
X229176750Y-104419900D01*
X229335500Y-104261150D01*
X229335500Y-104832650D01*
X229176750Y-104673900D01*
X227709900Y-104673900D01*
X227709900Y-106140750D01*
X227868650Y-106299500D01*
X228826809Y-106299500D01*
X229060198Y-106202827D01*
X229238827Y-106024199D01*
X229335500Y-105790810D01*
X229335500Y-109348300D01*
X227455900Y-109348300D01*
X227455900Y-106140750D01*
X227455900Y-104673900D01*
X227455900Y-104419900D01*
X227455900Y-102953050D01*
X227297150Y-102794300D01*
X226338991Y-102794300D01*
X226105602Y-102890973D01*
X225926973Y-103069601D01*
X225830300Y-103302990D01*
X225830300Y-103555609D01*
X225830300Y-104261150D01*
X225989050Y-104419900D01*
X227455900Y-104419900D01*
X227455900Y-104673900D01*
X225989050Y-104673900D01*
X225830300Y-104832650D01*
X225830300Y-105538191D01*
X225830300Y-105790810D01*
X225926973Y-106024199D01*
X226105602Y-106202827D01*
X226338991Y-106299500D01*
X227297150Y-106299500D01*
X227455900Y-106140750D01*
X227455900Y-109348300D01*
X210400567Y-109348300D01*
X210400567Y-96750866D01*
X210372605Y-96200362D01*
X210215731Y-95821635D01*
X209974730Y-95753575D01*
X209182405Y-96545900D01*
X209974730Y-97338225D01*
X210215731Y-97270165D01*
X210400567Y-96750866D01*
X210400567Y-109348300D01*
X209795125Y-109348300D01*
X209795125Y-97517830D01*
X209002800Y-96725505D01*
X208823195Y-96905110D01*
X208823195Y-96545900D01*
X208030870Y-95753575D01*
X207789869Y-95821635D01*
X207605033Y-96340934D01*
X207632995Y-96891438D01*
X207789869Y-97270165D01*
X208030870Y-97338225D01*
X208823195Y-96545900D01*
X208823195Y-96905110D01*
X208210475Y-97517830D01*
X208278535Y-97758831D01*
X208797834Y-97943667D01*
X209348338Y-97915705D01*
X209727065Y-97758831D01*
X209795125Y-97517830D01*
X209795125Y-109348300D01*
X196860980Y-109348300D01*
X196723171Y-95504500D01*
X208230093Y-95504500D01*
X208210475Y-95573970D01*
X209002800Y-96366295D01*
X209795125Y-95573970D01*
X209775506Y-95504500D01*
X231495300Y-95504500D01*
X231495300Y-109348300D01*
G36*
X231495300Y-85039700D02*
X229513300Y-85039700D01*
X229513300Y-81698910D01*
X229513300Y-81446291D01*
X229513300Y-80740750D01*
X229513300Y-80169250D01*
X229513300Y-79463709D01*
X229513300Y-79211090D01*
X229416627Y-78977701D01*
X229237998Y-78799073D01*
X229004609Y-78702400D01*
X228046450Y-78702400D01*
X227887700Y-78861150D01*
X227887700Y-80328000D01*
X229354550Y-80328000D01*
X229513300Y-80169250D01*
X229513300Y-80740750D01*
X229354550Y-80582000D01*
X227887700Y-80582000D01*
X227887700Y-82048850D01*
X228046450Y-82207600D01*
X229004609Y-82207600D01*
X229237998Y-82110927D01*
X229416627Y-81932299D01*
X229513300Y-81698910D01*
X229513300Y-85039700D01*
X227633700Y-85039700D01*
X227633700Y-82048850D01*
X227633700Y-80582000D01*
X227633700Y-80328000D01*
X227633700Y-78861150D01*
X227474950Y-78702400D01*
X226516791Y-78702400D01*
X226283402Y-78799073D01*
X226104773Y-78977701D01*
X226008100Y-79211090D01*
X226008100Y-79463709D01*
X226008100Y-80169250D01*
X226166850Y-80328000D01*
X227633700Y-80328000D01*
X227633700Y-80582000D01*
X226166850Y-80582000D01*
X226008100Y-80740750D01*
X226008100Y-81446291D01*
X226008100Y-81698910D01*
X226104773Y-81932299D01*
X226283402Y-82110927D01*
X226516791Y-82207600D01*
X227474950Y-82207600D01*
X227633700Y-82048850D01*
X227633700Y-85039700D01*
X219581900Y-85039700D01*
X219315200Y-85039700D01*
X210222767Y-85039700D01*
X210222767Y-83949266D01*
X210194805Y-83398762D01*
X210037931Y-83020035D01*
X209796930Y-82951975D01*
X209617325Y-83131580D01*
X209617325Y-82772370D01*
X209549265Y-82531369D01*
X209029966Y-82346533D01*
X208479462Y-82374495D01*
X208100735Y-82531369D01*
X208032675Y-82772370D01*
X208825000Y-83564695D01*
X209617325Y-82772370D01*
X209617325Y-83131580D01*
X209004605Y-83744300D01*
X209796930Y-84536625D01*
X210037931Y-84468565D01*
X210222767Y-83949266D01*
X210222767Y-85039700D01*
X209350167Y-85039700D01*
X209549265Y-84957231D01*
X209617325Y-84716230D01*
X208825000Y-83923905D01*
X208645395Y-84103510D01*
X208645395Y-83744300D01*
X207853070Y-82951975D01*
X207612069Y-83020035D01*
X207427233Y-83539334D01*
X207455195Y-84089838D01*
X207612069Y-84468565D01*
X207853070Y-84536625D01*
X208645395Y-83744300D01*
X208645395Y-84103510D01*
X208032675Y-84716230D01*
X208100735Y-84957231D01*
X208332432Y-85039700D01*
X196506000Y-85039700D01*
X196506000Y-77648300D01*
X231495300Y-77648300D01*
X231495300Y-85039700D01*
X231495300Y-85039700D01*
G37*
X231495300Y-85039700D02*
X229513300Y-85039700D01*
X229513300Y-81698910D01*
X229513300Y-81446291D01*
X229513300Y-80740750D01*
X229513300Y-80169250D01*
X229513300Y-79463709D01*
X229513300Y-79211090D01*
X229416627Y-78977701D01*
X229237998Y-78799073D01*
X229004609Y-78702400D01*
X228046450Y-78702400D01*
X227887700Y-78861150D01*
X227887700Y-80328000D01*
X229354550Y-80328000D01*
X229513300Y-80169250D01*
X229513300Y-80740750D01*
X229354550Y-80582000D01*
X227887700Y-80582000D01*
X227887700Y-82048850D01*
X228046450Y-82207600D01*
X229004609Y-82207600D01*
X229237998Y-82110927D01*
X229416627Y-81932299D01*
X229513300Y-81698910D01*
X229513300Y-85039700D01*
X227633700Y-85039700D01*
X227633700Y-82048850D01*
X227633700Y-80582000D01*
X227633700Y-80328000D01*
X227633700Y-78861150D01*
X227474950Y-78702400D01*
X226516791Y-78702400D01*
X226283402Y-78799073D01*
X226104773Y-78977701D01*
X226008100Y-79211090D01*
X226008100Y-79463709D01*
X226008100Y-80169250D01*
X226166850Y-80328000D01*
X227633700Y-80328000D01*
X227633700Y-80582000D01*
X226166850Y-80582000D01*
X226008100Y-80740750D01*
X226008100Y-81446291D01*
X226008100Y-81698910D01*
X226104773Y-81932299D01*
X226283402Y-82110927D01*
X226516791Y-82207600D01*
X227474950Y-82207600D01*
X227633700Y-82048850D01*
X227633700Y-85039700D01*
X219581900Y-85039700D01*
X219315200Y-85039700D01*
X210222767Y-85039700D01*
X210222767Y-83949266D01*
X210194805Y-83398762D01*
X210037931Y-83020035D01*
X209796930Y-82951975D01*
X209617325Y-83131580D01*
X209617325Y-82772370D01*
X209549265Y-82531369D01*
X209029966Y-82346533D01*
X208479462Y-82374495D01*
X208100735Y-82531369D01*
X208032675Y-82772370D01*
X208825000Y-83564695D01*
X209617325Y-82772370D01*
X209617325Y-83131580D01*
X209004605Y-83744300D01*
X209796930Y-84536625D01*
X210037931Y-84468565D01*
X210222767Y-83949266D01*
X210222767Y-85039700D01*
X209350167Y-85039700D01*
X209549265Y-84957231D01*
X209617325Y-84716230D01*
X208825000Y-83923905D01*
X208645395Y-84103510D01*
X208645395Y-83744300D01*
X207853070Y-82951975D01*
X207612069Y-83020035D01*
X207427233Y-83539334D01*
X207455195Y-84089838D01*
X207612069Y-84468565D01*
X207853070Y-84536625D01*
X208645395Y-83744300D01*
X208645395Y-84103510D01*
X208032675Y-84716230D01*
X208100735Y-84957231D01*
X208332432Y-85039700D01*
X196506000Y-85039700D01*
X196506000Y-77648300D01*
X231495300Y-77648300D01*
X231495300Y-85039700D01*
G36*
X231495300Y-56794514D02*
X229033240Y-56792729D01*
X229033240Y-52095210D01*
X229033240Y-51842591D01*
X229033240Y-51137050D01*
X229033240Y-50565550D01*
X229033240Y-49860009D01*
X229033240Y-49607390D01*
X228936567Y-49374001D01*
X228757938Y-49195373D01*
X228524549Y-49098700D01*
X227566390Y-49098700D01*
X227407640Y-49257450D01*
X227407640Y-50724300D01*
X228874490Y-50724300D01*
X229033240Y-50565550D01*
X229033240Y-51137050D01*
X228874490Y-50978300D01*
X227407640Y-50978300D01*
X227407640Y-52445150D01*
X227566390Y-52603900D01*
X228524549Y-52603900D01*
X228757938Y-52507227D01*
X228936567Y-52328599D01*
X229033240Y-52095210D01*
X229033240Y-56792729D01*
X227153640Y-56791367D01*
X227153640Y-52445150D01*
X227153640Y-50978300D01*
X227153640Y-50724300D01*
X227153640Y-49257450D01*
X226994890Y-49098700D01*
X226036731Y-49098700D01*
X225803342Y-49195373D01*
X225624713Y-49374001D01*
X225528040Y-49607390D01*
X225528040Y-49860009D01*
X225528040Y-50565550D01*
X225686790Y-50724300D01*
X227153640Y-50724300D01*
X227153640Y-50978300D01*
X225686790Y-50978300D01*
X225528040Y-51137050D01*
X225528040Y-51842591D01*
X225528040Y-52095210D01*
X225624713Y-52328599D01*
X225803342Y-52507227D01*
X226036731Y-52603900D01*
X226994890Y-52603900D01*
X227153640Y-52445150D01*
X227153640Y-56791367D01*
X211784867Y-56780231D01*
X211784867Y-48318146D01*
X211756905Y-47767642D01*
X211600031Y-47388915D01*
X211359030Y-47320855D01*
X211179425Y-47500460D01*
X211179425Y-47141250D01*
X211111365Y-46900249D01*
X210592066Y-46715413D01*
X210041562Y-46743375D01*
X209662835Y-46900249D01*
X209594775Y-47141250D01*
X210387100Y-47933575D01*
X211179425Y-47141250D01*
X211179425Y-47500460D01*
X210566705Y-48113180D01*
X211359030Y-48905505D01*
X211600031Y-48837445D01*
X211784867Y-48318146D01*
X211784867Y-56780231D01*
X211179425Y-56779792D01*
X211179425Y-49085110D01*
X210387100Y-48292785D01*
X210207495Y-48472390D01*
X210207495Y-48113180D01*
X209415170Y-47320855D01*
X209174169Y-47388915D01*
X208989333Y-47908214D01*
X209017295Y-48458718D01*
X209174169Y-48837445D01*
X209415170Y-48905505D01*
X210207495Y-48113180D01*
X210207495Y-48472390D01*
X209594775Y-49085110D01*
X209662835Y-49326111D01*
X210182134Y-49510947D01*
X210732638Y-49482985D01*
X211111365Y-49326111D01*
X211179425Y-49085110D01*
X211179425Y-56779792D01*
X197102900Y-56769592D01*
X197102900Y-46355452D01*
X209947013Y-46350641D01*
X209976575Y-46356521D01*
X210382633Y-46438175D01*
X210384866Y-46437735D01*
X210387100Y-46438180D01*
X210793535Y-46357334D01*
X210829237Y-46350311D01*
X230889248Y-46342798D01*
X231000985Y-46335180D01*
X231495300Y-46335180D01*
X231495300Y-56794514D01*
X231495300Y-56794514D01*
G37*
X231495300Y-56794514D02*
X229033240Y-56792729D01*
X229033240Y-52095210D01*
X229033240Y-51842591D01*
X229033240Y-51137050D01*
X229033240Y-50565550D01*
X229033240Y-49860009D01*
X229033240Y-49607390D01*
X228936567Y-49374001D01*
X228757938Y-49195373D01*
X228524549Y-49098700D01*
X227566390Y-49098700D01*
X227407640Y-49257450D01*
X227407640Y-50724300D01*
X228874490Y-50724300D01*
X229033240Y-50565550D01*
X229033240Y-51137050D01*
X228874490Y-50978300D01*
X227407640Y-50978300D01*
X227407640Y-52445150D01*
X227566390Y-52603900D01*
X228524549Y-52603900D01*
X228757938Y-52507227D01*
X228936567Y-52328599D01*
X229033240Y-52095210D01*
X229033240Y-56792729D01*
X227153640Y-56791367D01*
X227153640Y-52445150D01*
X227153640Y-50978300D01*
X227153640Y-50724300D01*
X227153640Y-49257450D01*
X226994890Y-49098700D01*
X226036731Y-49098700D01*
X225803342Y-49195373D01*
X225624713Y-49374001D01*
X225528040Y-49607390D01*
X225528040Y-49860009D01*
X225528040Y-50565550D01*
X225686790Y-50724300D01*
X227153640Y-50724300D01*
X227153640Y-50978300D01*
X225686790Y-50978300D01*
X225528040Y-51137050D01*
X225528040Y-51842591D01*
X225528040Y-52095210D01*
X225624713Y-52328599D01*
X225803342Y-52507227D01*
X226036731Y-52603900D01*
X226994890Y-52603900D01*
X227153640Y-52445150D01*
X227153640Y-56791367D01*
X211784867Y-56780231D01*
X211784867Y-48318146D01*
X211756905Y-47767642D01*
X211600031Y-47388915D01*
X211359030Y-47320855D01*
X211179425Y-47500460D01*
X211179425Y-47141250D01*
X211111365Y-46900249D01*
X210592066Y-46715413D01*
X210041562Y-46743375D01*
X209662835Y-46900249D01*
X209594775Y-47141250D01*
X210387100Y-47933575D01*
X211179425Y-47141250D01*
X211179425Y-47500460D01*
X210566705Y-48113180D01*
X211359030Y-48905505D01*
X211600031Y-48837445D01*
X211784867Y-48318146D01*
X211784867Y-56780231D01*
X211179425Y-56779792D01*
X211179425Y-49085110D01*
X210387100Y-48292785D01*
X210207495Y-48472390D01*
X210207495Y-48113180D01*
X209415170Y-47320855D01*
X209174169Y-47388915D01*
X208989333Y-47908214D01*
X209017295Y-48458718D01*
X209174169Y-48837445D01*
X209415170Y-48905505D01*
X210207495Y-48113180D01*
X210207495Y-48472390D01*
X209594775Y-49085110D01*
X209662835Y-49326111D01*
X210182134Y-49510947D01*
X210732638Y-49482985D01*
X211111365Y-49326111D01*
X211179425Y-49085110D01*
X211179425Y-56779792D01*
X197102900Y-56769592D01*
X197102900Y-46355452D01*
X209947013Y-46350641D01*
X209976575Y-46356521D01*
X210382633Y-46438175D01*
X210384866Y-46437735D01*
X210387100Y-46438180D01*
X210793535Y-46357334D01*
X210829237Y-46350311D01*
X230889248Y-46342798D01*
X231000985Y-46335180D01*
X231495300Y-46335180D01*
X231495300Y-56794514D01*
M02*
