G04 #@! TF.FileFunction,Copper,L2,Bot,Signal*
%FSLAX46Y46*%
G04 Gerber Fmt 4.6, Leading zero omitted, Abs format (unit mm)*
G04 Created by KiCad (PCBNEW 0.201504261001+5623~23~ubuntu15.04.1-product) date Tue 09 Jun 2015 11:48:43 PM ART*
%MOMM*%
G01*
G04 APERTURE LIST*
%ADD10C,0.100000*%
%ADD11C,0.300000*%
%ADD12R,2.235200X2.235200*%
%ADD13C,1.501140*%
%ADD14C,1.699260*%
%ADD15O,2.499360X1.501140*%
%ADD16R,3.500120X3.500120*%
%ADD17C,1.998980*%
%ADD18R,2.032000X2.032000*%
%ADD19O,2.032000X1.727200*%
%ADD20C,3.000000*%
%ADD21C,2.000000*%
%ADD22O,1.501140X2.499360*%
%ADD23C,4.064000*%
%ADD24C,0.600000*%
%ADD25C,0.762000*%
%ADD26C,0.381000*%
%ADD27C,1.168400*%
%ADD28C,0.635000*%
%ADD29C,0.254000*%
G04 APERTURE END LIST*
D10*
D11*
X49464284Y-71005714D02*
X49535713Y-71077143D01*
X49749999Y-71148571D01*
X49892856Y-71148571D01*
X50107141Y-71077143D01*
X50249999Y-70934286D01*
X50321427Y-70791429D01*
X50392856Y-70505714D01*
X50392856Y-70291429D01*
X50321427Y-70005714D01*
X50249999Y-69862857D01*
X50107141Y-69720000D01*
X49892856Y-69648571D01*
X49749999Y-69648571D01*
X49535713Y-69720000D01*
X49464284Y-69791429D01*
X48821427Y-70362857D02*
X48321427Y-70362857D01*
X48107141Y-71148571D02*
X48821427Y-71148571D01*
X48821427Y-69648571D01*
X48107141Y-69648571D01*
X47535713Y-69791429D02*
X47464284Y-69720000D01*
X47321427Y-69648571D01*
X46964284Y-69648571D01*
X46821427Y-69720000D01*
X46749998Y-69791429D01*
X46678570Y-69934286D01*
X46678570Y-70077143D01*
X46749998Y-70291429D01*
X47607141Y-71148571D01*
X46678570Y-71148571D01*
X44464285Y-71720000D02*
X44535713Y-71720000D01*
X44678570Y-71648571D01*
X44749999Y-71505714D01*
X44749999Y-70791429D01*
X44821428Y-70648571D01*
X44964285Y-70577143D01*
X44821428Y-70505714D01*
X44749999Y-70362857D01*
X44749999Y-69648571D01*
X44678570Y-69505714D01*
X44535713Y-69434286D01*
X44464285Y-69434286D01*
X43249999Y-69648571D02*
X43535713Y-69648571D01*
X43678570Y-69720000D01*
X43749999Y-69791429D01*
X43892856Y-70005714D01*
X43964285Y-70291429D01*
X43964285Y-70862857D01*
X43892856Y-71005714D01*
X43821428Y-71077143D01*
X43678570Y-71148571D01*
X43392856Y-71148571D01*
X43249999Y-71077143D01*
X43178570Y-71005714D01*
X43107142Y-70862857D01*
X43107142Y-70505714D01*
X43178570Y-70362857D01*
X43249999Y-70291429D01*
X43392856Y-70220000D01*
X43678570Y-70220000D01*
X43821428Y-70291429D01*
X43892856Y-70362857D01*
X43964285Y-70505714D01*
X41821428Y-69648571D02*
X42107142Y-69648571D01*
X42249999Y-69720000D01*
X42321428Y-69791429D01*
X42464285Y-70005714D01*
X42535714Y-70291429D01*
X42535714Y-70862857D01*
X42464285Y-71005714D01*
X42392857Y-71077143D01*
X42249999Y-71148571D01*
X41964285Y-71148571D01*
X41821428Y-71077143D01*
X41749999Y-71005714D01*
X41678571Y-70862857D01*
X41678571Y-70505714D01*
X41749999Y-70362857D01*
X41821428Y-70291429D01*
X41964285Y-70220000D01*
X42249999Y-70220000D01*
X42392857Y-70291429D01*
X42464285Y-70362857D01*
X42535714Y-70505714D01*
X41035714Y-71005714D02*
X40964286Y-71077143D01*
X41035714Y-71148571D01*
X41107143Y-71077143D01*
X41035714Y-71005714D01*
X41035714Y-71148571D01*
X39535714Y-71148571D02*
X40392857Y-71148571D01*
X39964285Y-71148571D02*
X39964285Y-69648571D01*
X40107142Y-69862857D01*
X40250000Y-70005714D01*
X40392857Y-70077143D01*
X38607143Y-69648571D02*
X38464286Y-69648571D01*
X38321429Y-69720000D01*
X38250000Y-69791429D01*
X38178571Y-69934286D01*
X38107143Y-70220000D01*
X38107143Y-70577143D01*
X38178571Y-70862857D01*
X38250000Y-71005714D01*
X38321429Y-71077143D01*
X38464286Y-71148571D01*
X38607143Y-71148571D01*
X38750000Y-71077143D01*
X38821429Y-71005714D01*
X38892857Y-70862857D01*
X38964286Y-70577143D01*
X38964286Y-70220000D01*
X38892857Y-69934286D01*
X38821429Y-69791429D01*
X38750000Y-69720000D01*
X38607143Y-69648571D01*
X37607143Y-71720000D02*
X37535715Y-71720000D01*
X37392858Y-71648571D01*
X37321429Y-71505714D01*
X37321429Y-70791429D01*
X37250000Y-70648571D01*
X37107143Y-70577143D01*
X37250000Y-70505714D01*
X37321429Y-70362857D01*
X37321429Y-69648571D01*
X37392858Y-69505714D01*
X37535715Y-69434286D01*
X37607143Y-69434286D01*
X49285714Y-72120000D02*
X49428571Y-72048571D01*
X49642857Y-72048571D01*
X49857142Y-72120000D01*
X50000000Y-72262857D01*
X50071428Y-72405714D01*
X50142857Y-72691429D01*
X50142857Y-72905714D01*
X50071428Y-73191429D01*
X50000000Y-73334286D01*
X49857142Y-73477143D01*
X49642857Y-73548571D01*
X49500000Y-73548571D01*
X49285714Y-73477143D01*
X49214285Y-73405714D01*
X49214285Y-72905714D01*
X49500000Y-72905714D01*
X47714285Y-73405714D02*
X47785714Y-73477143D01*
X48000000Y-73548571D01*
X48142857Y-73548571D01*
X48357142Y-73477143D01*
X48500000Y-73334286D01*
X48571428Y-73191429D01*
X48642857Y-72905714D01*
X48642857Y-72691429D01*
X48571428Y-72405714D01*
X48500000Y-72262857D01*
X48357142Y-72120000D01*
X48142857Y-72048571D01*
X48000000Y-72048571D01*
X47785714Y-72120000D01*
X47714285Y-72191429D01*
X46857142Y-73548571D02*
X47000000Y-73477143D01*
X47071428Y-73334286D01*
X47071428Y-72048571D01*
X45642857Y-73548571D02*
X45642857Y-72762857D01*
X45714286Y-72620000D01*
X45857143Y-72548571D01*
X46142857Y-72548571D01*
X46285714Y-72620000D01*
X45642857Y-73477143D02*
X45785714Y-73548571D01*
X46142857Y-73548571D01*
X46285714Y-73477143D01*
X46357143Y-73334286D01*
X46357143Y-73191429D01*
X46285714Y-73048571D01*
X46142857Y-72977143D01*
X45785714Y-72977143D01*
X45642857Y-72905714D01*
X45000000Y-73477143D02*
X44857143Y-73548571D01*
X44571428Y-73548571D01*
X44428571Y-73477143D01*
X44357143Y-73334286D01*
X44357143Y-73262857D01*
X44428571Y-73120000D01*
X44571428Y-73048571D01*
X44785714Y-73048571D01*
X44928571Y-72977143D01*
X45000000Y-72834286D01*
X45000000Y-72762857D01*
X44928571Y-72620000D01*
X44785714Y-72548571D01*
X44571428Y-72548571D01*
X44428571Y-72620000D01*
X43785714Y-73477143D02*
X43642857Y-73548571D01*
X43357142Y-73548571D01*
X43214285Y-73477143D01*
X43142857Y-73334286D01*
X43142857Y-73262857D01*
X43214285Y-73120000D01*
X43357142Y-73048571D01*
X43571428Y-73048571D01*
X43714285Y-72977143D01*
X43785714Y-72834286D01*
X43785714Y-72762857D01*
X43714285Y-72620000D01*
X43571428Y-72548571D01*
X43357142Y-72548571D01*
X43214285Y-72620000D01*
X41428571Y-73120000D02*
X40714285Y-73120000D01*
X41571428Y-73548571D02*
X41071428Y-72048571D01*
X40571428Y-73548571D01*
X40071428Y-73548571D02*
X40071428Y-72548571D01*
X40071428Y-72691429D02*
X40000000Y-72620000D01*
X39857142Y-72548571D01*
X39642857Y-72548571D01*
X39500000Y-72620000D01*
X39428571Y-72762857D01*
X39428571Y-73548571D01*
X39428571Y-72762857D02*
X39357142Y-72620000D01*
X39214285Y-72548571D01*
X39000000Y-72548571D01*
X38857142Y-72620000D01*
X38785714Y-72762857D01*
X38785714Y-73548571D01*
X38071428Y-72548571D02*
X38071428Y-74048571D01*
X38071428Y-72620000D02*
X37928571Y-72548571D01*
X37642857Y-72548571D01*
X37500000Y-72620000D01*
X37428571Y-72691429D01*
X37357142Y-72834286D01*
X37357142Y-73262857D01*
X37428571Y-73405714D01*
X37500000Y-73477143D01*
X37642857Y-73548571D01*
X37928571Y-73548571D01*
X38071428Y-73477143D01*
X47142857Y-74520000D02*
X47285714Y-74448571D01*
X47500000Y-74448571D01*
X47714285Y-74520000D01*
X47857143Y-74662857D01*
X47928571Y-74805714D01*
X48000000Y-75091429D01*
X48000000Y-75305714D01*
X47928571Y-75591429D01*
X47857143Y-75734286D01*
X47714285Y-75877143D01*
X47500000Y-75948571D01*
X47357143Y-75948571D01*
X47142857Y-75877143D01*
X47071428Y-75805714D01*
X47071428Y-75305714D01*
X47357143Y-75305714D01*
X46428571Y-75948571D02*
X46428571Y-74948571D01*
X46428571Y-75234286D02*
X46357143Y-75091429D01*
X46285714Y-75020000D01*
X46142857Y-74948571D01*
X46000000Y-74948571D01*
X44857143Y-74948571D02*
X44857143Y-75948571D01*
X45500000Y-74948571D02*
X45500000Y-75734286D01*
X45428572Y-75877143D01*
X45285714Y-75948571D01*
X45071429Y-75948571D01*
X44928572Y-75877143D01*
X44857143Y-75805714D01*
X44142857Y-74948571D02*
X44142857Y-76448571D01*
X44142857Y-75020000D02*
X44000000Y-74948571D01*
X43714286Y-74948571D01*
X43571429Y-75020000D01*
X43500000Y-75091429D01*
X43428571Y-75234286D01*
X43428571Y-75662857D01*
X43500000Y-75805714D01*
X43571429Y-75877143D01*
X43714286Y-75948571D01*
X44000000Y-75948571D01*
X44142857Y-75877143D01*
X42571428Y-75948571D02*
X42714286Y-75877143D01*
X42785714Y-75805714D01*
X42857143Y-75662857D01*
X42857143Y-75234286D01*
X42785714Y-75091429D01*
X42714286Y-75020000D01*
X42571428Y-74948571D01*
X42357143Y-74948571D01*
X42214286Y-75020000D01*
X42142857Y-75091429D01*
X42071428Y-75234286D01*
X42071428Y-75662857D01*
X42142857Y-75805714D01*
X42214286Y-75877143D01*
X42357143Y-75948571D01*
X42571428Y-75948571D01*
X39571428Y-74448571D02*
X40285714Y-74448571D01*
X40357143Y-75162857D01*
X40285714Y-75091429D01*
X40142857Y-75020000D01*
X39785714Y-75020000D01*
X39642857Y-75091429D01*
X39571428Y-75162857D01*
X39500000Y-75305714D01*
X39500000Y-75662857D01*
X39571428Y-75805714D01*
X39642857Y-75877143D01*
X39785714Y-75948571D01*
X40142857Y-75948571D01*
X40285714Y-75877143D01*
X40357143Y-75805714D01*
D10*
X26500000Y-63500000D02*
X27000000Y-63500000D01*
X26500000Y-134000000D02*
X26500000Y-63500000D01*
X226000000Y-134000000D02*
X26500000Y-134000000D01*
X226000000Y-63500000D02*
X226000000Y-134000000D01*
X190500000Y-63500000D02*
X226000000Y-63500000D01*
X26670000Y-63500000D02*
X190500000Y-63500000D01*
D12*
X219000000Y-75000000D03*
X78500000Y-66500000D03*
X96000000Y-66500000D03*
D13*
X80365600Y-105511600D03*
X80365600Y-101701600D03*
D14*
X109222540Y-90272120D03*
X109222540Y-80112120D03*
X124622040Y-112991900D03*
X134782040Y-112991900D03*
X120652540Y-78232520D03*
X120652540Y-68072520D03*
X133571500Y-118351300D03*
X123411500Y-118351300D03*
X163337240Y-124714520D03*
X163337240Y-114554520D03*
X169113720Y-76349860D03*
X158953720Y-76349860D03*
D15*
X146862800Y-83413600D03*
X146862800Y-80873600D03*
X146862800Y-85953600D03*
X152704800Y-111658400D03*
X152704800Y-109118400D03*
X152704800Y-114198400D03*
D13*
X48971200Y-93726000D03*
X48971200Y-96266000D03*
X38404800Y-113893600D03*
X42214800Y-113893600D03*
X82702400Y-116992400D03*
X82702400Y-120802400D03*
X73964800Y-120192800D03*
X73964800Y-117652800D03*
X94792800Y-122478800D03*
X94792800Y-119938800D03*
X78384400Y-82905600D03*
X78384400Y-79095600D03*
X50241200Y-120751600D03*
X54051200Y-120751600D03*
X109220000Y-98094800D03*
X109220000Y-94284800D03*
X161798000Y-90170000D03*
X161798000Y-86360000D03*
X203067920Y-127558800D03*
X203067920Y-123748800D03*
X202819000Y-66548000D03*
X202819000Y-70358000D03*
X203123800Y-78892400D03*
X203123800Y-82702400D03*
X203012040Y-115062000D03*
X203012040Y-111252000D03*
X209677000Y-102870000D03*
X205867000Y-102870000D03*
D16*
X41201340Y-86766400D03*
X35201860Y-86766400D03*
X38201600Y-91465400D03*
D17*
X213161880Y-95123000D03*
X203001880Y-95123000D03*
D18*
X221449900Y-97701100D03*
X221449900Y-95161100D03*
D17*
X41808400Y-98298000D03*
X31648400Y-98298000D03*
X51917600Y-102616000D03*
X41757600Y-102616000D03*
X41808400Y-106680000D03*
X31648400Y-106680000D03*
X63906400Y-87325200D03*
X53746400Y-87325200D03*
X63093600Y-109626400D03*
X63093600Y-119786400D03*
X57251600Y-110591600D03*
X47091600Y-110591600D03*
X67310000Y-87325200D03*
X77470000Y-87325200D03*
X67716400Y-109626400D03*
X67716400Y-119786400D03*
X57099200Y-83362800D03*
X57099200Y-73202800D03*
X84124800Y-111912400D03*
X73964800Y-111912400D03*
X46939200Y-114503200D03*
X57099200Y-114503200D03*
X184302400Y-130251200D03*
X194462400Y-130251200D03*
X85394800Y-90627200D03*
X85394800Y-80467200D03*
X88900000Y-109220000D03*
X88900000Y-119380000D03*
X104851200Y-115925600D03*
X94691200Y-115925600D03*
X109169200Y-77063600D03*
X109169200Y-66903600D03*
X107848400Y-111353600D03*
X107848400Y-121513600D03*
X152501600Y-91643200D03*
X142341600Y-91643200D03*
X148894800Y-112268000D03*
X138734800Y-112268000D03*
X138328400Y-90119200D03*
X138328400Y-79959200D03*
X144983200Y-95097600D03*
X144983200Y-105257600D03*
X144983200Y-108610400D03*
X134823200Y-108610400D03*
X156565600Y-101955600D03*
X156565600Y-91795600D03*
X160324800Y-95808800D03*
X160324800Y-105968800D03*
X151688800Y-75946000D03*
X141528800Y-75946000D03*
X136499600Y-123494800D03*
X126339600Y-123494800D03*
X195707000Y-88138000D03*
X195707000Y-98298000D03*
X213161880Y-88138000D03*
X203001880Y-88138000D03*
D19*
X99009200Y-106730800D03*
X99009200Y-109270800D03*
X99009200Y-111810800D03*
X138226800Y-96367600D03*
X138226800Y-98907600D03*
X138226800Y-101447600D03*
D18*
X213182200Y-70408800D03*
X213182200Y-67868800D03*
X213349840Y-82702400D03*
X213349840Y-80162400D03*
X213126320Y-123774200D03*
X213126320Y-126314200D03*
X213045040Y-111252000D03*
X213045040Y-113792000D03*
D20*
X184467500Y-122859800D03*
X176867500Y-122859800D03*
X169267500Y-122859800D03*
X151333200Y-71018400D03*
X158933200Y-71018400D03*
X166533200Y-71018400D03*
X189992000Y-71018400D03*
X182392000Y-71018400D03*
X174792000Y-71018400D03*
X142379700Y-122770900D03*
X149979700Y-122770900D03*
X157579700Y-122770900D03*
D21*
X55829200Y-93192600D03*
X55829200Y-96192600D03*
X55829200Y-99192600D03*
X60909200Y-93192600D03*
X60909200Y-96192600D03*
X60909200Y-99192600D03*
X63068200Y-105562400D03*
X60068200Y-105562400D03*
X57068200Y-105562400D03*
X62280800Y-75514200D03*
X62280800Y-78514200D03*
X62280800Y-81514200D03*
X67741800Y-105613200D03*
X70741800Y-105613200D03*
X73741800Y-105613200D03*
X69646800Y-75463400D03*
X69646800Y-78463400D03*
X69646800Y-81463400D03*
X69088000Y-93599000D03*
X69088000Y-96599000D03*
X69088000Y-99599000D03*
X74168000Y-93599000D03*
X74168000Y-96599000D03*
X74168000Y-99599000D03*
X89560400Y-84556600D03*
X89560400Y-87556600D03*
X89560400Y-90556600D03*
X93218000Y-102590600D03*
X93218000Y-99590600D03*
X93218000Y-96590600D03*
X95250000Y-84556600D03*
X95250000Y-87556600D03*
X95250000Y-90556600D03*
X99009200Y-102539800D03*
X99009200Y-99539800D03*
X99009200Y-96539800D03*
X104038400Y-74091800D03*
X104038400Y-77091800D03*
X104038400Y-80091800D03*
X113868200Y-105562400D03*
X110868200Y-105562400D03*
X107868200Y-105562400D03*
X114300000Y-74091800D03*
X114300000Y-77091800D03*
X114300000Y-80091800D03*
X113868200Y-115519200D03*
X116868200Y-115519200D03*
X119868200Y-115519200D03*
D22*
X128574800Y-71272400D03*
X131114800Y-71272400D03*
X126034800Y-71272400D03*
X116992400Y-122428000D03*
X114452400Y-122428000D03*
X119532400Y-122428000D03*
D21*
X184912000Y-76410400D03*
X184912000Y-114910400D03*
X172923200Y-115410400D03*
X172923200Y-76910400D03*
D12*
X84886800Y-96570800D03*
D21*
X122936000Y-92326000D03*
X122936000Y-87426000D03*
X122936000Y-82376000D03*
X122936000Y-99139200D03*
X122936000Y-104039200D03*
X122936000Y-109089200D03*
D23*
X222000000Y-67500000D03*
X222000000Y-130000000D03*
X30500000Y-130000000D03*
X30500000Y-67500000D03*
D12*
X30500000Y-113000000D03*
X222000000Y-116500000D03*
X57000000Y-67000000D03*
D24*
X92481400Y-82143600D03*
X92468700Y-94030800D03*
X59847480Y-127518160D03*
X59791600Y-115783360D03*
X194462400Y-126456440D03*
X194462400Y-116230400D03*
D25*
X55829200Y-96192600D02*
X60909200Y-96192600D01*
X48971200Y-96266000D02*
X55755800Y-96266000D01*
X55755800Y-96266000D02*
X55829200Y-96192600D01*
X48971200Y-96266000D02*
X48971200Y-99669600D01*
X48971200Y-99669600D02*
X51917600Y-102616000D01*
D26*
X55829200Y-96192600D02*
X55755800Y-96266000D01*
D25*
X44602400Y-91440000D02*
X44958000Y-91440000D01*
X44958000Y-91440000D02*
X47244000Y-93726000D01*
X47244000Y-93726000D02*
X48971200Y-93726000D01*
X44602400Y-91668600D02*
X44602400Y-91440000D01*
X44602400Y-89712800D02*
X44602400Y-91668600D01*
X44602400Y-91440000D02*
X44602400Y-91694000D01*
X44602400Y-91694000D02*
X41808400Y-94488000D01*
X41808400Y-94488000D02*
X41808400Y-98298000D01*
X41201340Y-86766400D02*
X41656000Y-86766400D01*
X41656000Y-86766400D02*
X44602400Y-89712800D01*
X44602400Y-91694000D02*
X44907200Y-91389200D01*
D26*
X41808400Y-98298000D02*
X41808400Y-94488000D01*
X41808400Y-94488000D02*
X44907200Y-91389200D01*
X41656000Y-86766400D02*
X44602400Y-89712800D01*
X44602400Y-89712800D02*
X44602400Y-91084400D01*
X44602400Y-91084400D02*
X44907200Y-91389200D01*
X44907200Y-91389200D02*
X47244000Y-93726000D01*
X47244000Y-93726000D02*
X48971200Y-93726000D01*
D25*
X42214800Y-113893600D02*
X42214800Y-112511840D01*
X42214800Y-112511840D02*
X44135040Y-110591600D01*
X44135040Y-110591600D02*
X47091600Y-110591600D01*
D26*
X44135040Y-110591600D02*
X47091600Y-110591600D01*
X42214800Y-112511840D02*
X44135040Y-110591600D01*
D25*
X41808400Y-106680000D02*
X41808400Y-102666800D01*
X41808400Y-102666800D02*
X41757600Y-102616000D01*
X38404800Y-113893600D02*
X38404800Y-113766600D01*
X38404800Y-113766600D02*
X41808400Y-110363000D01*
X41808400Y-110363000D02*
X41808400Y-106680000D01*
D26*
X41808400Y-106680000D02*
X41808400Y-110490000D01*
X41808400Y-110490000D02*
X38404800Y-113893600D01*
X41757600Y-102616000D02*
X41757600Y-106629200D01*
X41757600Y-106629200D02*
X41808400Y-106680000D01*
D25*
X82092800Y-120192800D02*
X82702400Y-120802400D01*
X202819000Y-66548000D02*
X204139800Y-67868800D01*
X204139800Y-67868800D02*
X213182200Y-67868800D01*
X85394800Y-80467200D02*
X90805000Y-80467200D01*
X90805000Y-80467200D02*
X92481400Y-82143600D01*
X78384400Y-79095600D02*
X79756000Y-80467200D01*
X79756000Y-80467200D02*
X85394800Y-80467200D01*
X57000000Y-67000000D02*
X57000000Y-73103600D01*
X57000000Y-73103600D02*
X57277000Y-73380600D01*
X57277000Y-73380600D02*
X72669400Y-73380600D01*
X72669400Y-73380600D02*
X78384400Y-79095600D01*
X31648400Y-106680000D02*
X31648400Y-107365800D01*
X31648400Y-107365800D02*
X35483800Y-111201200D01*
X51968400Y-122834400D02*
X54051200Y-120751600D01*
X44334400Y-122834400D02*
X51968400Y-122834400D01*
X35483800Y-113983800D02*
X44334400Y-122834400D01*
X35483800Y-111201200D02*
X35483800Y-113983800D01*
X35201860Y-90347800D02*
X35347800Y-90347800D01*
X35347800Y-90347800D02*
X36465400Y-91465400D01*
X36465400Y-91465400D02*
X38201600Y-91465400D01*
X31648400Y-98298000D02*
X31648400Y-98272600D01*
X31648400Y-98272600D02*
X35201860Y-94719140D01*
X35201860Y-94719140D02*
X35201860Y-90347800D01*
X35201860Y-90347800D02*
X35201860Y-86766400D01*
X31648400Y-106680000D02*
X31648400Y-98298000D01*
X30500000Y-113000000D02*
X30500000Y-107828400D01*
X30500000Y-107828400D02*
X31648400Y-106680000D01*
D26*
X78384400Y-79095600D02*
X72809100Y-73520300D01*
X72809100Y-73520300D02*
X57416700Y-73520300D01*
X57416700Y-73520300D02*
X57099200Y-73202800D01*
X85394800Y-80467200D02*
X79756000Y-80467200D01*
D25*
X93218000Y-96590600D02*
X93218000Y-94780100D01*
D26*
X92481400Y-82143600D02*
X90805000Y-80467200D01*
D25*
X93218000Y-94780100D02*
X92468700Y-94030800D01*
D27*
X216575500Y-102575500D02*
X221449900Y-97701100D01*
X209677000Y-102870000D02*
X216281000Y-102870000D01*
X216281000Y-102870000D02*
X216575500Y-102575500D01*
D25*
X203123800Y-78892400D02*
X212079840Y-78892400D01*
X212079840Y-78892400D02*
X213349840Y-80162400D01*
D27*
X203067920Y-127558800D02*
X211881720Y-127558800D01*
X211881720Y-127558800D02*
X213126320Y-126314200D01*
D25*
X203012040Y-115062000D02*
X211775040Y-115062000D01*
X211775040Y-115062000D02*
X213045040Y-113792000D01*
D26*
X51802800Y-123000000D02*
X54051200Y-120751600D01*
X44500000Y-123000000D02*
X51802800Y-123000000D01*
X35500000Y-114000000D02*
X44500000Y-123000000D01*
X35500000Y-110531600D02*
X35500000Y-114000000D01*
X31648400Y-106680000D02*
X35500000Y-110531600D01*
D25*
X60251600Y-120751600D02*
X61500000Y-122000000D01*
X54051200Y-120751600D02*
X60251600Y-120751600D01*
X72157600Y-122000000D02*
X73964800Y-120192800D01*
X61500000Y-122000000D02*
X72157600Y-122000000D01*
X73964800Y-120192800D02*
X82092800Y-120192800D01*
X86302400Y-120802400D02*
X87978800Y-122478800D01*
X87978800Y-122478800D02*
X94792800Y-122478800D01*
X82702400Y-120802400D02*
X86302400Y-120802400D01*
X106883200Y-122478800D02*
X107848400Y-121513600D01*
X94792800Y-122478800D02*
X106883200Y-122478800D01*
D26*
X35201860Y-90201860D02*
X35201860Y-86766400D01*
X36465400Y-91465400D02*
X35201860Y-90201860D01*
X38201600Y-91465400D02*
X36465400Y-91465400D01*
X35201860Y-94744540D02*
X31648400Y-98298000D01*
X35201860Y-90201860D02*
X35201860Y-94744540D01*
X30500000Y-107828400D02*
X31648400Y-106680000D01*
D27*
X204139800Y-67868800D02*
X213182200Y-67868800D01*
X200687200Y-64949600D02*
X204139800Y-67868800D01*
X115736200Y-64949600D02*
X200687200Y-64949600D01*
X113096400Y-66903600D02*
X115736200Y-64949600D01*
X109169200Y-66903600D02*
X113096400Y-66903600D01*
X218185800Y-126314200D02*
X222000000Y-122500000D01*
X222000000Y-122500000D02*
X222000000Y-116500000D01*
X213126320Y-126314200D02*
X218185800Y-126314200D01*
D25*
X219292000Y-113792000D02*
X222000000Y-116500000D01*
X213045040Y-113792000D02*
X219292000Y-113792000D01*
D27*
X222000000Y-108000000D02*
X216575500Y-102575500D01*
X222000000Y-116500000D02*
X222000000Y-108000000D01*
X219000000Y-71500000D02*
X219000000Y-75000000D01*
X215368800Y-67868800D02*
X219000000Y-71500000D01*
X213182200Y-67868800D02*
X215368800Y-67868800D01*
D25*
X213837600Y-80162400D02*
X219000000Y-75000000D01*
D26*
X213349840Y-80162400D02*
X213837600Y-80162400D01*
X57099200Y-67099200D02*
X57000000Y-67000000D01*
X57099200Y-73202800D02*
X57099200Y-67099200D01*
D25*
X67716400Y-119786400D02*
X71831200Y-119786400D01*
X71831200Y-119786400D02*
X73964800Y-117652800D01*
X63093600Y-119786400D02*
X67716400Y-119786400D01*
X73964800Y-117652800D02*
X82042000Y-117652800D01*
X82042000Y-117652800D02*
X82702400Y-116992400D01*
X73964800Y-117652800D02*
X73964800Y-111912400D01*
D26*
X82042000Y-117652800D02*
X82702400Y-116992400D01*
X71831200Y-119786400D02*
X73964800Y-117652800D01*
D25*
X122936000Y-99139200D02*
X122278600Y-99139200D01*
X122278600Y-99139200D02*
X119200700Y-96061300D01*
X119199200Y-96062800D02*
X119200700Y-96061300D01*
X119200700Y-96061300D02*
X122936000Y-92326000D01*
X100203000Y-96539800D02*
X106471200Y-96539800D01*
X106948200Y-96062800D02*
X119199200Y-96062800D01*
X106471200Y-96539800D02*
X106948200Y-96062800D01*
X95250000Y-92780600D02*
X99009200Y-96539800D01*
X80365600Y-101701600D02*
X80365600Y-96012000D01*
X83597000Y-92780600D02*
X95250000Y-92780600D01*
X80365600Y-96012000D02*
X83597000Y-92780600D01*
X95250000Y-92780600D02*
X95250000Y-90556600D01*
D26*
X99009200Y-96539800D02*
X100203000Y-96539800D01*
X122936000Y-99139200D02*
X122275600Y-99139200D01*
X122275600Y-99139200D02*
X119199200Y-96062800D01*
X122936000Y-99139200D02*
X122913600Y-99139200D01*
X80365600Y-101701600D02*
X80365600Y-95707200D01*
X83362800Y-92710000D02*
X95250000Y-92710000D01*
X80365600Y-95707200D02*
X83362800Y-92710000D01*
X95250000Y-90556600D02*
X95250000Y-92710000D01*
X95250000Y-92710000D02*
X95250000Y-92780600D01*
D25*
X114300000Y-80091800D02*
X116859800Y-80091800D01*
X116859800Y-80091800D02*
X118440200Y-78511400D01*
X118440200Y-78511400D02*
X120373660Y-78511400D01*
X120373660Y-78511400D02*
X120652540Y-78232520D01*
X109222540Y-80112120D02*
X114279680Y-80112120D01*
X114279680Y-80112120D02*
X114300000Y-80091800D01*
D26*
X118719080Y-78232520D02*
X120652540Y-78232520D01*
X116859800Y-80091800D02*
X118719080Y-78232520D01*
X114279680Y-80112120D02*
X114300000Y-80091800D01*
D25*
X123411500Y-115831500D02*
X123411500Y-115708500D01*
X124622040Y-114497960D02*
X124622040Y-112991900D01*
X123411500Y-115708500D02*
X124622040Y-114497960D01*
X119868200Y-115519200D02*
X123099200Y-115519200D01*
X123411500Y-115831500D02*
X123411500Y-118351300D01*
X123099200Y-115519200D02*
X123411500Y-115831500D01*
D26*
X124622040Y-112991900D02*
X124622040Y-114219240D01*
X124622040Y-114219240D02*
X123257050Y-115584230D01*
X123411500Y-118351300D02*
X123411500Y-115738680D01*
X123411500Y-115738680D02*
X123257050Y-115584230D01*
X123257050Y-115584230D02*
X123192020Y-115519200D01*
X119868200Y-115519200D02*
X122872500Y-115519200D01*
X122872500Y-115519200D02*
X123192020Y-115519200D01*
D25*
X203123800Y-82702400D02*
X213349840Y-82702400D01*
D26*
X169113720Y-76349860D02*
X169623740Y-76349860D01*
D28*
X169623740Y-76349860D02*
X170973600Y-75000000D01*
X170973600Y-75000000D02*
X174898200Y-75000000D01*
X174898200Y-75000000D02*
X182600600Y-82702400D01*
D25*
X182600600Y-82702400D02*
X203123800Y-82702400D01*
X169621200Y-111213900D02*
X176022000Y-111213900D01*
X176022000Y-111213900D02*
X182600600Y-117792500D01*
X182600600Y-117792500D02*
X196471540Y-117792500D01*
X196471540Y-117792500D02*
X203012040Y-111252000D01*
X163337240Y-114554520D02*
X166280580Y-114554520D01*
X166280580Y-114554520D02*
X169621200Y-111213900D01*
X213045040Y-111252000D02*
X203012040Y-111252000D01*
X94237000Y-119383000D02*
X94792800Y-119938800D01*
X113868200Y-115519200D02*
X113868200Y-105562400D01*
X111036100Y-119138700D02*
X111036100Y-118503700D01*
X111036100Y-118503700D02*
X105156000Y-112623600D01*
X105156000Y-112623600D02*
X105156000Y-104656000D01*
X105156000Y-104656000D02*
X107000000Y-102812000D01*
X107000000Y-102812000D02*
X112808600Y-102812000D01*
X112808600Y-102812000D02*
X113868200Y-103871600D01*
X113868200Y-103871600D02*
X113868200Y-105562400D01*
X94691200Y-115925600D02*
X100685600Y-115925600D01*
X111036100Y-119138700D02*
X111036100Y-120963900D01*
X110718600Y-118821200D02*
X111036100Y-119138700D01*
X103581200Y-118821200D02*
X110718600Y-118821200D01*
X100685600Y-115925600D02*
X103581200Y-118821200D01*
X93116400Y-119380000D02*
X93116400Y-119126000D01*
X93116400Y-119126000D02*
X94691200Y-117551200D01*
X94691200Y-117551200D02*
X94691200Y-115925600D01*
X88900000Y-119380000D02*
X88900000Y-114909600D01*
X88900000Y-114909600D02*
X85902800Y-111912400D01*
X85902800Y-111912400D02*
X84124800Y-111912400D01*
X94237000Y-119383000D02*
X94234000Y-119380000D01*
X94234000Y-119380000D02*
X93116400Y-119380000D01*
X93116400Y-119380000D02*
X88900000Y-119380000D01*
D26*
X111036100Y-120963900D02*
X111036100Y-118821200D01*
X111000000Y-118821200D02*
X111036100Y-118821200D01*
D27*
X185318400Y-127482600D02*
X115214400Y-127482600D01*
X189052200Y-123748800D02*
X185318400Y-127482600D01*
X203067920Y-123748800D02*
X189052200Y-123748800D01*
X111036100Y-123304300D02*
X111036100Y-120963900D01*
X115214400Y-127482600D02*
X111036100Y-123304300D01*
D26*
X116992400Y-122428000D02*
X116992400Y-121754900D01*
D27*
X116992400Y-121754900D02*
X118521480Y-120225820D01*
X143208800Y-116000000D02*
X149979700Y-122770900D01*
X129117620Y-116000000D02*
X143208800Y-116000000D01*
X124891800Y-120225820D02*
X129117620Y-116000000D01*
X118521480Y-120225820D02*
X124891800Y-120225820D01*
D26*
X116992400Y-122428000D02*
X116992400Y-121323100D01*
X94691200Y-115925600D02*
X100390960Y-115925600D01*
X100390960Y-115925600D02*
X103286560Y-118821200D01*
X103286560Y-118821200D02*
X111000000Y-118821200D01*
D27*
X203067920Y-123748800D02*
X213100920Y-123748800D01*
D26*
X213100920Y-123748800D02*
X213126320Y-123774200D01*
X94691200Y-115925600D02*
X94691200Y-117551200D01*
X94691200Y-117551200D02*
X92862400Y-119380000D01*
X88900000Y-119380000D02*
X92862400Y-119380000D01*
X92862400Y-119380000D02*
X94234000Y-119380000D01*
X84124800Y-111912400D02*
X85902800Y-111912400D01*
X85902800Y-111912400D02*
X88900000Y-114909600D01*
D27*
X116992400Y-120492400D02*
X116000000Y-119500000D01*
X116992400Y-122428000D02*
X116992400Y-120492400D01*
X112500000Y-119500000D02*
X111036100Y-120963900D01*
X116000000Y-119500000D02*
X112500000Y-119500000D01*
D26*
X111000000Y-118500000D02*
X105000000Y-112500000D01*
X111000000Y-118821200D02*
X111000000Y-118500000D01*
X113868200Y-103368200D02*
X113868200Y-105562400D01*
X113000000Y-102500000D02*
X113868200Y-103368200D01*
X107000000Y-102500000D02*
X113000000Y-102500000D01*
X105000000Y-104500000D02*
X107000000Y-102500000D01*
X105000000Y-112500000D02*
X105000000Y-104500000D01*
D25*
X145010400Y-114198400D02*
X143208800Y-116000000D01*
X152704800Y-114198400D02*
X145010400Y-114198400D01*
D27*
X213161880Y-95123000D02*
X221411800Y-95123000D01*
D26*
X221411800Y-95123000D02*
X221449900Y-95161100D01*
D27*
X213161880Y-95123000D02*
X213161880Y-88138000D01*
D26*
X213161880Y-88138000D02*
X213202520Y-88097360D01*
D25*
X62280800Y-81514200D02*
X62280800Y-85699600D01*
X62280800Y-85699600D02*
X63906400Y-87325200D01*
X63906400Y-87325200D02*
X67310000Y-87325200D01*
D26*
X62280800Y-85699600D02*
X63906400Y-87325200D01*
D25*
X73152000Y-108305600D02*
X75920600Y-108305600D01*
X76657200Y-99009200D02*
X74247000Y-96599000D01*
X76657200Y-107569000D02*
X76657200Y-99009200D01*
X75920600Y-108305600D02*
X76657200Y-107569000D01*
X74247000Y-96599000D02*
X74168000Y-96599000D01*
X57251600Y-110591600D02*
X60299600Y-110591600D01*
X60299600Y-110591600D02*
X61518800Y-111810800D01*
X61518800Y-111810800D02*
X69240400Y-111810800D01*
X69240400Y-111810800D02*
X72745600Y-108305600D01*
X72745600Y-108305600D02*
X73152000Y-108305600D01*
X73152000Y-108305600D02*
X73431400Y-108305600D01*
X69088000Y-96599000D02*
X74168000Y-96599000D01*
X184302400Y-130251200D02*
X62580520Y-130251200D01*
X62580520Y-130251200D02*
X60068460Y-127739140D01*
D28*
X60068460Y-127739140D02*
X62580520Y-130251200D01*
X59791600Y-115783360D02*
X58511440Y-114503200D01*
X58511440Y-114503200D02*
X57099200Y-114503200D01*
X184302400Y-130251200D02*
X62580520Y-130251200D01*
X60068460Y-127739140D02*
X59847480Y-127518160D01*
D26*
X60299600Y-110591600D02*
X61518800Y-111810800D01*
X61518800Y-111810800D02*
X69646800Y-111810800D01*
X69646800Y-111810800D02*
X72898000Y-108559600D01*
X72898000Y-108559600D02*
X75641200Y-108559600D01*
X75641200Y-108559600D02*
X76606400Y-107594400D01*
X76606400Y-107594400D02*
X76606400Y-99037400D01*
X76606400Y-99037400D02*
X74168000Y-96599000D01*
X57251600Y-110591600D02*
X57251600Y-114350800D01*
X57251600Y-114350800D02*
X57099200Y-114503200D01*
D25*
X146862800Y-85953600D02*
X146862800Y-89077800D01*
X149428200Y-91643200D02*
X152501600Y-91643200D01*
X146862800Y-89077800D02*
X149428200Y-91643200D01*
D28*
X151282400Y-111658400D02*
X152704800Y-111658400D01*
X148894800Y-112268000D02*
X150672800Y-112268000D01*
X150672800Y-112268000D02*
X151282400Y-111658400D01*
D25*
X120652540Y-68072520D02*
X120652540Y-69420740D01*
X122504200Y-71272400D02*
X126034800Y-71272400D01*
X120652540Y-69420740D02*
X122504200Y-71272400D01*
X124383800Y-122428000D02*
X124642000Y-122428000D01*
X130722800Y-121200000D02*
X130917200Y-121005600D01*
X125870000Y-121200000D02*
X130722800Y-121200000D01*
X124642000Y-122428000D02*
X125870000Y-121200000D01*
X119532400Y-122428000D02*
X124383800Y-122428000D01*
X130917200Y-121005600D02*
X133571500Y-118351300D01*
X89560400Y-84556600D02*
X95250000Y-84556600D01*
X78384400Y-82905600D02*
X87909400Y-82905600D01*
X87909400Y-82905600D02*
X89560400Y-84556600D01*
X69646800Y-75463400D02*
X71348600Y-75463400D01*
X71348600Y-75463400D02*
X78384400Y-82499200D01*
X78384400Y-82499200D02*
X78384400Y-82905600D01*
X62280800Y-75514200D02*
X69596000Y-75514200D01*
X69596000Y-75514200D02*
X69646800Y-75463400D01*
X104038400Y-74091800D02*
X101371400Y-74091800D01*
X101371400Y-74091800D02*
X95250000Y-80213200D01*
X95250000Y-80213200D02*
X95250000Y-84556600D01*
X104038400Y-74091800D02*
X114300000Y-74091800D01*
D27*
X202819000Y-70358000D02*
X213233000Y-70358000D01*
X196283580Y-70358000D02*
X202819000Y-70358000D01*
X182392000Y-68341240D02*
X194266820Y-68341240D01*
X194266820Y-68341240D02*
X196283580Y-70358000D01*
X182392000Y-71018400D02*
X182392000Y-68341240D01*
D25*
X180087280Y-66366400D02*
X131707880Y-66366400D01*
X131707880Y-66366400D02*
X128574800Y-69016880D01*
X128574800Y-69016880D02*
X128574800Y-71272400D01*
D28*
X182392000Y-68341240D02*
X182392000Y-68340920D01*
D25*
X182392000Y-68340920D02*
X180087280Y-66366400D01*
D28*
X134150100Y-77914500D02*
X146151600Y-77914500D01*
X146151600Y-77914500D02*
X148132800Y-77914500D01*
X148132800Y-77914500D02*
X149542500Y-79324200D01*
X149542500Y-79324200D02*
X149542500Y-81953100D01*
X149542500Y-81953100D02*
X148082000Y-83413600D01*
X128574800Y-73202800D02*
X129438400Y-73202800D01*
X129438400Y-73202800D02*
X134150100Y-77914500D01*
D26*
X148082000Y-83413600D02*
X146862800Y-83413600D01*
D28*
X128574800Y-73202800D02*
X128574800Y-72999600D01*
X128574800Y-72999600D02*
X128574800Y-71272400D01*
X114300000Y-74091800D02*
X127685800Y-74091800D01*
X127685800Y-74091800D02*
X128574800Y-73202800D01*
D26*
X95250000Y-84556600D02*
X95250000Y-80213200D01*
X95250000Y-80213200D02*
X101371400Y-74091800D01*
X87909400Y-82905600D02*
X89560400Y-84556600D01*
X71348600Y-75463400D02*
X78384400Y-82499200D01*
X78384400Y-82499200D02*
X78384400Y-82905600D01*
X89535000Y-84531200D02*
X89560400Y-84556600D01*
X69596000Y-75514200D02*
X69646800Y-75463400D01*
X69596000Y-75514200D02*
X69646800Y-75463400D01*
D25*
X122936000Y-82376000D02*
X130552200Y-82376000D01*
X130552200Y-82376000D02*
X138295400Y-90119200D01*
X138295400Y-90119200D02*
X138328400Y-90119200D01*
X138226800Y-96367600D02*
X138226800Y-90220800D01*
X138226800Y-90220800D02*
X138328400Y-90119200D01*
D26*
X138328400Y-90119200D02*
X138328400Y-96266000D01*
X138328400Y-96266000D02*
X138226800Y-96367600D01*
X122936000Y-82376000D02*
X130585200Y-82376000D01*
X130585200Y-82376000D02*
X138328400Y-90119200D01*
D25*
X144983200Y-108610400D02*
X144983200Y-105257600D01*
X140360400Y-114731800D02*
X140360400Y-114780798D01*
X144983200Y-110157998D02*
X144983200Y-108610400D01*
X140360400Y-114780798D02*
X144983200Y-110157998D01*
X140360400Y-114749580D02*
X140360400Y-114731800D01*
X122936000Y-109089200D02*
X129968000Y-109089200D01*
X132267960Y-111389160D02*
X132267960Y-114051080D01*
X129968000Y-109089200D02*
X132267960Y-111389160D01*
X132267960Y-114051080D02*
X132966460Y-114749580D01*
X132966460Y-114749580D02*
X140360400Y-114749580D01*
X140360400Y-114749580D02*
X140398500Y-114749580D01*
D26*
X144983200Y-110164880D02*
X144983200Y-108610400D01*
X140398500Y-114749580D02*
X144983200Y-110164880D01*
X132966460Y-114749580D02*
X140398500Y-114749580D01*
X132267960Y-114051080D02*
X132966460Y-114749580D01*
D27*
X169267500Y-122859800D02*
X169267500Y-119066100D01*
X169267500Y-119066100D02*
X172923200Y-115410400D01*
D28*
X148249760Y-67431800D02*
X175686600Y-67431800D01*
X175686600Y-67431800D02*
X178480720Y-69794120D01*
X178480720Y-69794120D02*
X178480720Y-71973440D01*
X178480720Y-71973440D02*
X180380640Y-73873360D01*
X180380640Y-73873360D02*
X187137040Y-73873360D01*
X187137040Y-73873360D02*
X189992000Y-71018400D01*
X141528800Y-75946000D02*
X141528800Y-73720960D01*
X141528800Y-73720960D02*
X148249760Y-67431800D01*
D25*
X131114800Y-71272400D02*
X136855200Y-71272400D01*
X136855200Y-71272400D02*
X141528800Y-75946000D01*
X55829200Y-93192600D02*
X53746400Y-91109800D01*
X53746400Y-91109800D02*
X53746400Y-87325200D01*
X60909200Y-93192600D02*
X55829200Y-93192600D01*
D26*
X53746400Y-87325200D02*
X53746400Y-91109800D01*
D25*
X63068200Y-105562400D02*
X63068200Y-109601000D01*
X63068200Y-109601000D02*
X63093600Y-109626400D01*
D26*
X63068200Y-109601000D02*
X63093600Y-109626400D01*
D25*
X74168000Y-93599000D02*
X77470000Y-90297000D01*
X77470000Y-90297000D02*
X77470000Y-87325200D01*
X69088000Y-93599000D02*
X74168000Y-93599000D01*
D26*
X77470000Y-90297000D02*
X77470000Y-87325200D01*
D25*
X67716400Y-109626400D02*
X67716400Y-105638600D01*
X67716400Y-105638600D02*
X67741800Y-105613200D01*
D26*
X67741800Y-105613200D02*
X67741800Y-109601000D01*
X67741800Y-109601000D02*
X67716400Y-109626400D01*
D25*
X69646800Y-78463400D02*
X69646800Y-81463400D01*
X62280800Y-78514200D02*
X63192400Y-78514200D01*
X63192400Y-78514200D02*
X63243200Y-78463400D01*
X63243200Y-78463400D02*
X69646800Y-78463400D01*
X57099200Y-83362800D02*
X57432200Y-83362800D01*
X57432200Y-83362800D02*
X62280800Y-78514200D01*
D26*
X62280800Y-78514200D02*
X61947800Y-78514200D01*
X61947800Y-78514200D02*
X57099200Y-83362800D01*
X69646800Y-78463400D02*
X69161400Y-77978000D01*
X69161400Y-77978000D02*
X62817000Y-77978000D01*
X62817000Y-77978000D02*
X62280800Y-78514200D01*
X69596000Y-78514200D02*
X69646800Y-78463400D01*
D25*
X89560400Y-90556600D02*
X89560400Y-87556600D01*
X85394800Y-90627200D02*
X89489800Y-90627200D01*
X89489800Y-90627200D02*
X89560400Y-90556600D01*
X89560400Y-87556600D02*
X95250000Y-87556600D01*
D26*
X89560400Y-90556600D02*
X89489800Y-90627200D01*
D25*
X93218000Y-102590600D02*
X94157800Y-102590600D01*
X94157800Y-102590600D02*
X97208600Y-99539800D01*
X97208600Y-99539800D02*
X99009200Y-99539800D01*
X88900000Y-109220000D02*
X89458800Y-109220000D01*
X89458800Y-109220000D02*
X93218000Y-105460800D01*
X93218000Y-105460800D02*
X93218000Y-102590600D01*
D26*
X93218000Y-102590600D02*
X93599000Y-102590600D01*
X93599000Y-102590600D02*
X96649800Y-99539800D01*
X96649800Y-99539800D02*
X99009200Y-99539800D01*
X89458800Y-109220000D02*
X93218000Y-105460800D01*
X93218000Y-105460800D02*
X93218000Y-102590600D01*
D25*
X99009200Y-106730800D02*
X99009200Y-102539800D01*
D28*
X109169200Y-77063600D02*
X114271800Y-77063600D01*
X114271800Y-77063600D02*
X114300000Y-77091800D01*
X104038400Y-77091800D02*
X109141000Y-77091800D01*
X109141000Y-77091800D02*
X109169200Y-77063600D01*
D26*
X104038400Y-80091800D02*
X104038400Y-77091800D01*
X114271800Y-77063600D02*
X114300000Y-77091800D01*
D25*
X107848400Y-111353600D02*
X107848400Y-113080800D01*
X107848400Y-113080800D02*
X112572800Y-117805200D01*
X112572800Y-117805200D02*
X114582200Y-117805200D01*
X114582200Y-117805200D02*
X116868200Y-115519200D01*
X107848400Y-111353600D02*
X107848400Y-105582200D01*
X107848400Y-105582200D02*
X107868200Y-105562400D01*
X107868200Y-105562400D02*
X110868200Y-105562400D01*
D26*
X114582200Y-117805200D02*
X116868200Y-115519200D01*
X112572800Y-117805200D02*
X114582200Y-117805200D01*
X107848400Y-113080800D02*
X112572800Y-117805200D01*
X107868200Y-105562400D02*
X107848400Y-105582200D01*
D25*
X70741800Y-105613200D02*
X70741800Y-105184200D01*
X70741800Y-105184200D02*
X69011800Y-103454200D01*
X62176400Y-103454200D02*
X60068200Y-105562400D01*
X69011800Y-103454200D02*
X62176400Y-103454200D01*
X73741800Y-105613200D02*
X70741800Y-105613200D01*
X74168000Y-99599000D02*
X74726800Y-100157800D01*
X74726800Y-100157800D02*
X74726800Y-104628200D01*
X74726800Y-104628200D02*
X73741800Y-105613200D01*
X69088000Y-99599000D02*
X74168000Y-99599000D01*
D26*
X70741800Y-105184200D02*
X69037200Y-103479600D01*
X62151000Y-103479600D02*
X60068200Y-105562400D01*
X69037200Y-103479600D02*
X62151000Y-103479600D01*
X74726800Y-100157800D02*
X74726800Y-104628200D01*
X74726800Y-104628200D02*
X73741800Y-105613200D01*
D25*
X46939200Y-114503200D02*
X46939200Y-116789200D01*
X46939200Y-116789200D02*
X50241200Y-120091200D01*
X50241200Y-120091200D02*
X50241200Y-120751600D01*
X50241200Y-120751600D02*
X50241200Y-120091200D01*
X50241200Y-120091200D02*
X46939200Y-116789200D01*
X57068200Y-107010200D02*
X57068200Y-105562400D01*
X80365600Y-105511600D02*
X80365600Y-104876600D01*
X80365600Y-104876600D02*
X84759800Y-100482400D01*
X93218000Y-99590600D02*
X86001600Y-99590600D01*
X84759800Y-100832400D02*
X84759800Y-100482400D01*
X84759800Y-100482400D02*
X84759800Y-96697800D01*
X86001600Y-99590600D02*
X84759800Y-100832400D01*
X84759800Y-96697800D02*
X84886800Y-96570800D01*
X57068200Y-105562400D02*
X55575200Y-104069400D01*
X55575200Y-104069400D02*
X55575200Y-99446600D01*
X55575200Y-99446600D02*
X55829200Y-99192600D01*
X55829200Y-99192600D02*
X60909200Y-99192600D01*
D26*
X57068200Y-107010200D02*
X57068200Y-107015800D01*
D25*
X76184760Y-109692440D02*
X80365600Y-105511600D01*
X73152000Y-109692440D02*
X76184760Y-109692440D01*
X65684400Y-117160040D02*
X73152000Y-109692440D01*
X56774080Y-117160040D02*
X65684400Y-117160040D01*
X54904640Y-115290600D02*
X56774080Y-117160040D01*
X54904640Y-109179360D02*
X54904640Y-115290600D01*
X57068200Y-107015800D02*
X54904640Y-109179360D01*
D26*
X93218000Y-99590600D02*
X86083400Y-99590600D01*
X86083400Y-99590600D02*
X84886800Y-100787200D01*
X80365600Y-105511600D02*
X80365600Y-105308400D01*
X80365600Y-105308400D02*
X84886800Y-100787200D01*
X84886800Y-100787200D02*
X84886800Y-96570800D01*
X80264000Y-105613200D02*
X80264000Y-105410000D01*
X57068200Y-105562400D02*
X57068200Y-105898200D01*
X55829200Y-99192600D02*
X55575200Y-99446600D01*
X55575200Y-99446600D02*
X55575200Y-104069400D01*
D25*
X109220000Y-98094800D02*
X116991600Y-98094800D01*
X116991600Y-98094800D02*
X122936000Y-104039200D01*
X122936000Y-104039200D02*
X130252000Y-104039200D01*
X130252000Y-104039200D02*
X134823200Y-108610400D01*
X134782040Y-112991900D02*
X138010900Y-112991900D01*
X138010900Y-112991900D02*
X138734800Y-112268000D01*
X134782040Y-112991900D02*
X134782040Y-108651560D01*
X134782040Y-108651560D02*
X134823200Y-108610400D01*
D26*
X134823200Y-108610400D02*
X134823200Y-112950740D01*
X134823200Y-112950740D02*
X134889760Y-113017300D01*
X134889760Y-113017300D02*
X137985500Y-113017300D01*
X137985500Y-113017300D02*
X138734800Y-112268000D01*
X134822680Y-108610920D02*
X134823200Y-108610400D01*
X130252000Y-104039200D02*
X134823200Y-108610400D01*
X116991600Y-98094800D02*
X122936000Y-104039200D01*
D25*
X109222540Y-90272120D02*
X109222540Y-94282260D01*
X109222540Y-94282260D02*
X109220000Y-94284800D01*
X110339130Y-89155530D02*
X109222540Y-90272120D01*
X138328400Y-79959200D02*
X138328400Y-85242400D01*
X142341600Y-89255600D02*
X142341600Y-91643200D01*
X138328400Y-85242400D02*
X142341600Y-89255600D01*
X122936000Y-87426000D02*
X122936000Y-85902800D01*
X122936000Y-85902800D02*
X120751600Y-83718400D01*
X120751600Y-83718400D02*
X120751600Y-81076800D01*
X120751600Y-81076800D02*
X121869200Y-79959200D01*
X121869200Y-79959200D02*
X138328400Y-79959200D01*
X110237530Y-89257130D02*
X110339130Y-89155530D01*
X110339130Y-89155530D02*
X112068660Y-87426000D01*
X112068660Y-87426000D02*
X122936000Y-87426000D01*
D26*
X121869200Y-79959200D02*
X138328400Y-79959200D01*
X120751600Y-81076800D02*
X121869200Y-79959200D01*
X120751600Y-83718400D02*
X120751600Y-81076800D01*
X122936000Y-85902800D02*
X120751600Y-83718400D01*
X109220000Y-94284800D02*
X109220000Y-90274660D01*
X109220000Y-90274660D02*
X110237530Y-89257130D01*
X112068660Y-87426000D02*
X122936000Y-87426000D01*
D25*
X161798000Y-116992400D02*
X167665400Y-116992400D01*
X167665400Y-116992400D02*
X171310300Y-113347500D01*
X171310300Y-113347500D02*
X174777400Y-113347500D01*
X174777400Y-113347500D02*
X177977800Y-116547900D01*
X177977800Y-116547900D02*
X177977800Y-118770400D01*
X177977800Y-118770400D02*
X182067200Y-122859800D01*
X182067200Y-122859800D02*
X184467500Y-122859800D01*
X160324800Y-105968800D02*
X160324800Y-115519200D01*
X160324800Y-115519200D02*
X161798000Y-116992400D01*
X163309300Y-98145600D02*
X163309300Y-91681300D01*
D28*
X163309300Y-91681300D02*
X161798000Y-90170000D01*
D25*
X160324800Y-105968800D02*
X160324800Y-101130100D01*
X160324800Y-101130100D02*
X163309300Y-98145600D01*
X152704800Y-109118400D02*
X157175200Y-109118400D01*
X157175200Y-109118400D02*
X160324800Y-105968800D01*
X149255480Y-74655680D02*
X149255480Y-76443840D01*
X149255480Y-76443840D02*
X156565600Y-83753960D01*
X156565600Y-83753960D02*
X156565600Y-87642700D01*
D28*
X151333200Y-71018400D02*
X151333200Y-72577960D01*
D25*
X151333200Y-72577960D02*
X149255480Y-74655680D01*
X153085800Y-93878400D02*
X149707600Y-93878400D01*
X149707600Y-93878400D02*
X143840200Y-88011000D01*
X143840200Y-88011000D02*
X143840200Y-81788000D01*
X143840200Y-81788000D02*
X144754600Y-80873600D01*
X144754600Y-80873600D02*
X146862800Y-80873600D01*
X156565600Y-91795600D02*
X155168600Y-91795600D01*
X155168600Y-91795600D02*
X153085800Y-93878400D01*
X156565600Y-91795600D02*
X156565600Y-87642700D01*
X157848300Y-86360000D02*
X161798000Y-86360000D01*
X156565600Y-87642700D02*
X157848300Y-86360000D01*
D27*
X195707000Y-98298000D02*
X201295000Y-98298000D01*
X201295000Y-98298000D02*
X205867000Y-102870000D01*
D28*
X157579700Y-122770900D02*
X161393620Y-122770900D01*
X161393620Y-122770900D02*
X163337240Y-124714520D01*
D27*
X167137080Y-125618240D02*
X174109060Y-125618240D01*
X174109060Y-125618240D02*
X176867500Y-122859800D01*
X163337240Y-124714520D02*
X166233360Y-124714520D01*
X166233360Y-124714520D02*
X167137080Y-125618240D01*
D26*
X161393620Y-122770900D02*
X163337240Y-124714520D01*
X176321720Y-122859800D02*
X176867500Y-122859800D01*
X157579700Y-122770900D02*
X157797500Y-122770900D01*
X136499600Y-123494800D02*
X136512300Y-123494800D01*
D27*
X138912600Y-125895100D02*
X154455500Y-125895100D01*
X136512300Y-123494800D02*
X138912600Y-125895100D01*
X154455500Y-125895100D02*
X157579700Y-122770900D01*
D26*
X158933200Y-71018400D02*
X158933200Y-70174800D01*
D27*
X171947200Y-68605400D02*
X174792000Y-71018400D01*
X158933200Y-70174800D02*
X160528000Y-68605400D01*
X160528000Y-68605400D02*
X171947200Y-68605400D01*
D25*
X158933200Y-71018400D02*
X158933200Y-76329340D01*
D26*
X158933200Y-76329340D02*
X158953720Y-76349860D01*
D25*
X151688800Y-75946000D02*
X158549860Y-75946000D01*
D26*
X158549860Y-75946000D02*
X158953720Y-76349860D01*
D25*
X184912000Y-114910400D02*
X193142400Y-114910400D01*
X194462400Y-126456440D02*
X194462400Y-130251200D01*
X193142400Y-114910400D02*
X194462400Y-116230400D01*
D26*
X199110600Y-88138000D02*
X200035160Y-88138000D01*
D25*
X203001880Y-91104720D02*
X203001880Y-95123000D01*
X200035160Y-88138000D02*
X203001880Y-91104720D01*
D27*
X195707000Y-88138000D02*
X199110600Y-88138000D01*
X199110600Y-88138000D02*
X203001880Y-88138000D01*
X175981360Y-88138000D02*
X195707000Y-88138000D01*
X172923200Y-81975960D02*
X172923200Y-85079840D01*
X172923200Y-85079840D02*
X175981360Y-88138000D01*
X172923200Y-76910400D02*
X172923200Y-81975960D01*
X184912000Y-104444800D02*
X184912000Y-114910400D01*
X172923200Y-81975960D02*
X172923200Y-92456000D01*
X172923200Y-92456000D02*
X184912000Y-104444800D01*
D25*
X99009200Y-111810800D02*
X99009200Y-109270800D01*
X99009200Y-111810800D02*
X101904800Y-111810800D01*
X101904800Y-111810800D02*
X104851200Y-114757200D01*
X104851200Y-114757200D02*
X104851200Y-115925600D01*
D26*
X101904800Y-111810800D02*
X104851200Y-114757200D01*
X104851200Y-114757200D02*
X104851200Y-115925600D01*
D25*
X138226800Y-101447600D02*
X138226800Y-98907600D01*
X138226800Y-98907600D02*
X141122400Y-98907600D01*
X141122400Y-98907600D02*
X144932400Y-95097600D01*
X144932400Y-95097600D02*
X144983200Y-95097600D01*
D26*
X138226800Y-98907600D02*
X141173200Y-98907600D01*
X141173200Y-98907600D02*
X144983200Y-95097600D01*
D27*
X172821600Y-73723500D02*
X177660300Y-73723500D01*
X177660300Y-73723500D02*
X180347200Y-76410400D01*
X180347200Y-76410400D02*
X184912000Y-76410400D01*
X166533200Y-71018400D02*
X170116500Y-71018400D01*
X170116500Y-71018400D02*
X172821600Y-73723500D01*
D26*
X166533200Y-71018400D02*
X166908480Y-71018400D01*
X184912000Y-76410400D02*
X184912000Y-75946000D01*
X166533200Y-71018400D02*
X166533200Y-71080000D01*
D28*
X134721600Y-121577100D02*
X141185900Y-121577100D01*
X141185900Y-121577100D02*
X142379700Y-122770900D01*
D25*
X126339600Y-123494800D02*
X132803900Y-123494800D01*
D28*
X132803900Y-123494800D02*
X134721600Y-121577100D01*
D26*
X114452400Y-122428000D02*
X114452400Y-123545600D01*
D25*
X115722400Y-124815600D02*
X125018800Y-124815600D01*
X114452400Y-123545600D02*
X115722400Y-124815600D01*
X125018800Y-124815600D02*
X126339600Y-123494800D01*
X156565600Y-101955600D02*
X156565600Y-99568000D01*
X156565600Y-99568000D02*
X160324800Y-95808800D01*
D29*
G36*
X98873000Y-74873000D02*
X97752600Y-74873000D01*
X97752600Y-67743910D01*
X97752600Y-67491291D01*
X97752600Y-66785750D01*
X97752600Y-66214250D01*
X97752600Y-65508709D01*
X97752600Y-65256090D01*
X97655927Y-65022701D01*
X97477298Y-64844073D01*
X97243909Y-64747400D01*
X96285750Y-64747400D01*
X96127000Y-64906150D01*
X96127000Y-66373000D01*
X97593850Y-66373000D01*
X97752600Y-66214250D01*
X97752600Y-66785750D01*
X97593850Y-66627000D01*
X96127000Y-66627000D01*
X96127000Y-68093850D01*
X96285750Y-68252600D01*
X97243909Y-68252600D01*
X97477298Y-68155927D01*
X97655927Y-67977299D01*
X97752600Y-67743910D01*
X97752600Y-74873000D01*
X95873000Y-74873000D01*
X95873000Y-68093850D01*
X95873000Y-66627000D01*
X95873000Y-66373000D01*
X95873000Y-64906150D01*
X95714250Y-64747400D01*
X94756091Y-64747400D01*
X94522702Y-64844073D01*
X94344073Y-65022701D01*
X94247400Y-65256090D01*
X94247400Y-65508709D01*
X94247400Y-66214250D01*
X94406150Y-66373000D01*
X95873000Y-66373000D01*
X95873000Y-66627000D01*
X94406150Y-66627000D01*
X94247400Y-66785750D01*
X94247400Y-67491291D01*
X94247400Y-67743910D01*
X94344073Y-67977299D01*
X94522702Y-68155927D01*
X94756091Y-68252600D01*
X95714250Y-68252600D01*
X95873000Y-68093850D01*
X95873000Y-74873000D01*
X80252600Y-74873000D01*
X80252600Y-67743910D01*
X80252600Y-67491291D01*
X80252600Y-66785750D01*
X80252600Y-66214250D01*
X80252600Y-65508709D01*
X80252600Y-65256090D01*
X80155927Y-65022701D01*
X79977298Y-64844073D01*
X79743909Y-64747400D01*
X78785750Y-64747400D01*
X78627000Y-64906150D01*
X78627000Y-66373000D01*
X80093850Y-66373000D01*
X80252600Y-66214250D01*
X80252600Y-66785750D01*
X80093850Y-66627000D01*
X78627000Y-66627000D01*
X78627000Y-68093850D01*
X78785750Y-68252600D01*
X79743909Y-68252600D01*
X79977298Y-68155927D01*
X80155927Y-67977299D01*
X80252600Y-67743910D01*
X80252600Y-74873000D01*
X78373000Y-74873000D01*
X78373000Y-68093850D01*
X78373000Y-66627000D01*
X78373000Y-66373000D01*
X78373000Y-64906150D01*
X78214250Y-64747400D01*
X77256091Y-64747400D01*
X77022702Y-64844073D01*
X76844073Y-65022701D01*
X76747400Y-65256090D01*
X76747400Y-65508709D01*
X76747400Y-66214250D01*
X76906150Y-66373000D01*
X78373000Y-66373000D01*
X78373000Y-66627000D01*
X76906150Y-66627000D01*
X76747400Y-66785750D01*
X76747400Y-67491291D01*
X76747400Y-67743910D01*
X76844073Y-67977299D01*
X77022702Y-68155927D01*
X77256091Y-68252600D01*
X78214250Y-68252600D01*
X78373000Y-68093850D01*
X78373000Y-74873000D01*
X76127000Y-74873000D01*
X76127000Y-64627000D01*
X98873000Y-64627000D01*
X98873000Y-74873000D01*
X98873000Y-74873000D01*
G37*
X98873000Y-74873000D02*
X97752600Y-74873000D01*
X97752600Y-67743910D01*
X97752600Y-67491291D01*
X97752600Y-66785750D01*
X97752600Y-66214250D01*
X97752600Y-65508709D01*
X97752600Y-65256090D01*
X97655927Y-65022701D01*
X97477298Y-64844073D01*
X97243909Y-64747400D01*
X96285750Y-64747400D01*
X96127000Y-64906150D01*
X96127000Y-66373000D01*
X97593850Y-66373000D01*
X97752600Y-66214250D01*
X97752600Y-66785750D01*
X97593850Y-66627000D01*
X96127000Y-66627000D01*
X96127000Y-68093850D01*
X96285750Y-68252600D01*
X97243909Y-68252600D01*
X97477298Y-68155927D01*
X97655927Y-67977299D01*
X97752600Y-67743910D01*
X97752600Y-74873000D01*
X95873000Y-74873000D01*
X95873000Y-68093850D01*
X95873000Y-66627000D01*
X95873000Y-66373000D01*
X95873000Y-64906150D01*
X95714250Y-64747400D01*
X94756091Y-64747400D01*
X94522702Y-64844073D01*
X94344073Y-65022701D01*
X94247400Y-65256090D01*
X94247400Y-65508709D01*
X94247400Y-66214250D01*
X94406150Y-66373000D01*
X95873000Y-66373000D01*
X95873000Y-66627000D01*
X94406150Y-66627000D01*
X94247400Y-66785750D01*
X94247400Y-67491291D01*
X94247400Y-67743910D01*
X94344073Y-67977299D01*
X94522702Y-68155927D01*
X94756091Y-68252600D01*
X95714250Y-68252600D01*
X95873000Y-68093850D01*
X95873000Y-74873000D01*
X80252600Y-74873000D01*
X80252600Y-67743910D01*
X80252600Y-67491291D01*
X80252600Y-66785750D01*
X80252600Y-66214250D01*
X80252600Y-65508709D01*
X80252600Y-65256090D01*
X80155927Y-65022701D01*
X79977298Y-64844073D01*
X79743909Y-64747400D01*
X78785750Y-64747400D01*
X78627000Y-64906150D01*
X78627000Y-66373000D01*
X80093850Y-66373000D01*
X80252600Y-66214250D01*
X80252600Y-66785750D01*
X80093850Y-66627000D01*
X78627000Y-66627000D01*
X78627000Y-68093850D01*
X78785750Y-68252600D01*
X79743909Y-68252600D01*
X79977298Y-68155927D01*
X80155927Y-67977299D01*
X80252600Y-67743910D01*
X80252600Y-74873000D01*
X78373000Y-74873000D01*
X78373000Y-68093850D01*
X78373000Y-66627000D01*
X78373000Y-66373000D01*
X78373000Y-64906150D01*
X78214250Y-64747400D01*
X77256091Y-64747400D01*
X77022702Y-64844073D01*
X76844073Y-65022701D01*
X76747400Y-65256090D01*
X76747400Y-65508709D01*
X76747400Y-66214250D01*
X76906150Y-66373000D01*
X78373000Y-66373000D01*
X78373000Y-66627000D01*
X76906150Y-66627000D01*
X76747400Y-66785750D01*
X76747400Y-67491291D01*
X76747400Y-67743910D01*
X76844073Y-67977299D01*
X77022702Y-68155927D01*
X77256091Y-68252600D01*
X78214250Y-68252600D01*
X78373000Y-68093850D01*
X78373000Y-74873000D01*
X76127000Y-74873000D01*
X76127000Y-64627000D01*
X98873000Y-64627000D01*
X98873000Y-74873000D01*
M02*
