M48
;DRILL file {kicad 0.201504261001+5623~23~ubuntu15.04.1-product} date Tue 09 Jun 2015 11:47:11 PM ART
;FORMAT={-:-/ absolute / inch / decimal}
FMAT,2
INCH,TZ
T1C0.016
T2C0.028
T3C0.028
T4C0.032
T5C0.039
T6C0.039
T7C0.040
T8C0.043
T9C0.051
T10C0.120
%
G90
G05
M72
T1
X2.354Y-4.5584
X2.3562Y-5.0204
X3.6405Y-3.702
X3.641Y-3.234
X7.656Y-4.576
X7.656Y-4.9786
T2
X2.198Y-3.669
X2.198Y-3.7871
X2.198Y-3.9052
X2.2468Y-4.156
X2.3649Y-4.156
X2.398Y-3.669
X2.398Y-3.7871
X2.398Y-3.9052
X2.452Y-2.973
X2.452Y-3.0911
X2.452Y-3.2092
X2.483Y-4.156
X2.667Y-4.158
X2.72Y-3.685
X2.72Y-3.8031
X2.72Y-3.9212
X2.742Y-2.971
X2.742Y-3.0891
X2.742Y-3.2072
X2.7851Y-4.158
X2.9032Y-4.158
X2.92Y-3.685
X2.92Y-3.8031
X2.92Y-3.9212
X3.526Y-3.329
X3.526Y-3.4471
X3.526Y-3.5652
X3.67Y-3.8028
X3.67Y-3.9209
X3.67Y-4.039
X3.75Y-3.329
X3.75Y-3.4471
X3.75Y-3.5652
X3.898Y-3.8008
X3.898Y-3.9189
X3.898Y-4.037
X4.096Y-2.917
X4.096Y-3.0351
X4.096Y-3.1532
X4.2468Y-4.156
X4.3649Y-4.156
X4.483Y-4.156
X4.483Y-4.548
X4.5Y-2.917
X4.5Y-3.0351
X4.5Y-3.1532
X4.6011Y-4.548
X4.7192Y-4.548
T3
X4.3001Y-3.154
X4.3001Y-3.554
X4.7501Y-2.68
X4.7501Y-3.08
X4.8587Y-4.6595
X4.9064Y-4.4485
X5.2587Y-4.6595
X5.3064Y-4.4485
X6.258Y-3.0059
X6.4306Y-4.51
X6.4306Y-4.91
X6.658Y-3.0059
T4
X1.512Y-4.484
X1.662Y-4.484
X1.928Y-3.69
X1.928Y-3.79
X1.978Y-4.754
X2.128Y-4.754
X2.912Y-4.632
X2.912Y-4.732
X3.086Y-3.114
X3.086Y-3.264
X3.164Y-4.004
X3.164Y-4.154
X3.256Y-4.606
X3.256Y-4.756
X3.732Y-4.722
X3.732Y-4.822
X4.3Y-3.712
X4.3Y-3.862
X6.37Y-3.4
X6.37Y-3.55
X7.985Y-2.62
X7.985Y-2.77
X7.9926Y-4.38
X7.9926Y-4.53
X7.9948Y-4.872
X7.9948Y-5.022
X7.997Y-3.106
X7.997Y-3.256
X8.105Y-4.05
X8.255Y-4.05
T5
X6.808Y-3.028
X6.808Y-4.5437
X7.28Y-3.0083
X7.28Y-4.524
T6
X1.246Y-3.87
X1.246Y-4.2
X1.644Y-4.04
X1.646Y-3.87
X1.646Y-4.2
X1.848Y-4.508
X1.854Y-4.354
X2.044Y-4.04
X2.116Y-3.438
X2.248Y-2.882
X2.248Y-3.282
X2.248Y-4.508
X2.254Y-4.354
X2.484Y-4.316
X2.484Y-4.716
X2.516Y-3.438
X2.65Y-3.438
X2.666Y-4.316
X2.666Y-4.716
X2.912Y-4.406
X3.05Y-3.438
X3.312Y-4.406
X3.362Y-3.168
X3.362Y-3.568
X3.5Y-4.3
X3.5Y-4.7
X3.728Y-4.564
X4.128Y-4.564
X4.246Y-4.384
X4.246Y-4.784
X4.298Y-2.634
X4.298Y-3.034
X4.506Y-4.82
X4.606Y-4.82
X4.706Y-4.82
X4.962Y-2.806
X4.974Y-4.862
X5.062Y-2.806
X5.162Y-2.806
X5.308Y-4.276
X5.374Y-4.862
X5.446Y-3.148
X5.446Y-3.548
X5.462Y-4.42
X5.572Y-2.99
X5.604Y-3.608
X5.708Y-3.744
X5.708Y-4.144
X5.708Y-4.276
X5.782Y-3.184
X5.782Y-3.284
X5.782Y-3.384
X5.862Y-4.42
X5.972Y-2.99
X6.004Y-3.608
X6.012Y-4.296
X6.012Y-4.396
X6.012Y-4.496
X6.164Y-3.614
X6.164Y-4.014
X6.312Y-3.772
X6.312Y-4.172
X7.256Y-5.128
X7.656Y-5.128
X7.705Y-3.47
X7.705Y-3.87
X7.9922Y-3.47
X7.9922Y-3.745
X8.3922Y-3.47
X8.3922Y-3.745
T7
X1.2008Y-4.4488
X2.2441Y-2.6378
X3.0906Y-2.6181
X3.342Y-3.802
X3.7795Y-2.6181
X3.898Y-4.202
X3.898Y-4.302
X3.898Y-4.402
X5.442Y-3.794
X5.442Y-3.894
X5.442Y-3.994
X8.3876Y-4.38
X8.3876Y-4.48
X8.3908Y-4.873
X8.3908Y-4.973
X8.393Y-2.672
X8.393Y-2.772
X8.3996Y-3.156
X8.3996Y-3.256
X8.622Y-2.9528
X8.7185Y-3.7465
X8.7185Y-3.8465
X8.7402Y-4.5866
T8
X4.84Y-3.2431
X4.84Y-3.442
X4.84Y-3.6349
X4.84Y-3.9031
X4.84Y-4.096
X4.84Y-4.2949
T9
X5.6055Y-4.8335
X5.9047Y-4.8335
X5.958Y-2.796
X6.2039Y-4.8335
X6.2572Y-2.796
X6.5564Y-2.796
X6.6641Y-4.837
X6.8816Y-2.796
X6.9633Y-4.837
X7.1808Y-2.796
X7.2625Y-4.837
X7.48Y-2.796
T10
X1.2008Y-2.6575
X1.2008Y-5.1181
X8.7402Y-2.6575
X8.7402Y-5.1181
T6
X1.3859Y-3.3766G85X1.3859Y-3.4553
G05
X1.4647Y-3.601G85X1.5433Y-3.601
G05
X1.6221Y-3.3766G85X1.6221Y-3.4553
G05
T0
M30
