M48
;DRILL file {kicad 0.201504261001+5623~23~ubuntu15.04.1-product} date Fri 05 Jun 2015 12:02:14 AM ART
;FORMAT={-:-/ absolute / inch / decimal}
FMAT,2
INCH,TZ
T1C0.016
T2C0.028
T3C0.032
T4C0.039
T5C0.040
T6C0.120
%
G90
G05
M72
T1
X2.618Y-4.387
X2.6205Y-4.191
X2.649Y-4.071
X2.926Y-4.072
X5.0118Y-3.25
X5.1024Y-3.1614
X6.1772Y-2.9055
X6.1811Y-3.1299
X6.4902Y-2.9961
X6.7323Y-3.0039
T2
X4.2176Y-3.3175
X4.2176Y-3.7175
X4.3618Y-3.3761
X4.7618Y-3.3761
X4.9961Y-3.3267
X5.3446Y-4.27
X5.3446Y-4.67
X5.3961Y-3.3267
X5.4355Y-4.5009
X5.8355Y-4.5009
X6.5178Y-4.0335
X6.5178Y-4.4335
T3
X1.3Y-4.6
X1.45Y-4.6
X1.8Y-3.8
X1.85Y-4.35
X1.9Y-3.8
X2.Y-4.35
X2.4155Y-3.0345
X2.5655Y-3.0345
X3.2Y-4.25
X3.2Y-4.4
X3.2Y-4.7
X3.3Y-4.7
X3.45Y-3.65
X3.6Y-3.65
X3.75Y-4.7
X3.75Y-4.8
X4.2315Y-3.871
X4.2315Y-4.021
X5.495Y-2.88
X5.495Y-3.03
X5.505Y-3.65
X5.655Y-3.65
X5.8445Y-2.8795
X5.8445Y-3.0295
X6.2Y-3.36
X6.35Y-3.36
X6.6505Y-4.596
X6.6505Y-4.746
X7.1654Y-4.0551
X7.3154Y-4.0551
T4
X1.25Y-4.2
X1.25Y-4.35
X1.5655Y-3.436
X1.6Y-4.65
X1.65Y-4.2
X1.65Y-4.35
X1.7655Y-3.036
X1.7655Y-3.436
X1.8Y-4.1
X1.9655Y-3.036
X1.9655Y-3.236
X1.9655Y-3.436
X1.9655Y-3.436
X2.Y-4.65
X2.0655Y-3.036
X2.0655Y-3.236
X2.15Y-4.25
X2.15Y-4.65
X2.1655Y-3.036
X2.1655Y-3.236
X2.2Y-3.7
X2.2Y-3.8
X2.2Y-3.9
X2.2Y-4.1
X2.25Y-4.55
X2.3655Y-3.436
X2.4Y-3.7
X2.4Y-3.8
X2.4Y-3.9
X2.4Y-4.15
X2.4Y-4.25
X2.4Y-4.35
X2.5655Y-3.386
X2.6248Y-4.7047
X2.65Y-4.55
X2.65Y-4.55
X2.6655Y-3.386
X2.7015Y-2.891
X2.7655Y-3.386
X2.8Y-3.7
X2.8Y-3.8
X2.8Y-3.9
X2.8Y-4.15
X2.8Y-4.25
X2.8Y-4.35
X2.8155Y-3.086
X2.9155Y-3.086
X3.Y-3.7
X3.Y-3.8
X3.Y-3.9
X3.0155Y-3.086
X3.0248Y-4.7047
X3.05Y-4.55
X3.1015Y-2.891
X3.25Y-3.55
X3.25Y-3.95
X3.428Y-3.196
X3.4385Y-2.982
X3.5Y-3.95
X3.5Y-4.05
X3.5Y-4.15
X3.5Y-4.3
X3.5Y-4.7
X3.528Y-3.196
X3.5385Y-2.982
X3.6Y-4.55
X3.628Y-3.196
X3.6385Y-2.982
X3.8Y-3.95
X3.8Y-4.05
X3.8Y-4.15
X4.Y-4.55
X4.1295Y-4.7565
X4.2455Y-4.189
X4.2455Y-4.589
X4.5295Y-4.7565
X4.5885Y-2.917
X4.5885Y-3.017
X4.5885Y-3.117
X4.785Y-4.401
X4.785Y-4.501
X4.785Y-4.601
X4.8051Y-2.8669
X4.8051Y-3.2669
X4.8785Y-3.703
X4.8785Y-3.9165
X4.8855Y-4.151
X4.9595Y-2.917
X4.9595Y-3.017
X4.9595Y-3.117
X5.036Y-4.399
X5.036Y-4.499
X5.036Y-4.599
X5.21Y-2.83
X5.21Y-3.23
X5.2785Y-3.703
X5.2785Y-3.9165
X5.2855Y-4.151
X5.5264Y-3.3878
X5.545Y-3.88
X5.545Y-4.28
X5.725Y-3.91
X5.75Y-4.16
X5.75Y-4.26
X5.75Y-4.36
X5.9264Y-3.3878
X5.95Y-4.25
X5.95Y-4.65
X6.076Y-3.3385
X6.076Y-3.7385
X6.11Y-4.41
X6.11Y-4.51
X6.11Y-4.61
X6.125Y-3.91
X6.405Y-4.305
X6.405Y-4.705
X6.468Y-3.461
X6.468Y-3.861
X6.66Y-3.455
X6.66Y-3.855
X6.875Y-3.455
X6.875Y-3.855
X7.095Y-3.465
X7.095Y-3.865
T5
X3.05Y-4.1
X3.15Y-4.1
X3.8Y-4.4
X3.9Y-4.4
X4.Y-4.4
X4.543Y-4.037
X4.543Y-4.137
X4.543Y-4.237
X4.5495Y-3.507
X4.5495Y-3.607
X4.5495Y-3.707
X4.9525Y-3.4895
X5.0525Y-3.4895
X5.1525Y-3.4895
X6.482Y-2.8735
X6.53Y-3.12
X6.582Y-2.8735
X6.63Y-3.12
X6.682Y-2.8735
X6.73Y-3.12
X6.76Y-4.075
X6.86Y-4.075
X6.939Y-4.3055
X6.939Y-4.4055
X6.939Y-4.5055
X6.96Y-4.075
X7.115Y-2.89
X7.13Y-3.165
X7.18Y-4.665
X7.187Y-4.3996
X7.215Y-2.89
X7.23Y-3.165
X7.27Y-3.485
X7.27Y-3.585
X7.28Y-4.665
X7.287Y-4.3996
T6
X1.2Y-2.65
X1.2Y-4.85
X7.35Y-2.65
X7.35Y-4.85
T4
X1.4079Y-3.7607G85X1.4079Y-3.8394
G05
X1.4867Y-3.985G85X1.5654Y-3.985
G05
X1.6441Y-3.7607G85X1.6441Y-3.8394
G05
T0
M30
