M48
;DRILL file {kicad (after 2015-mar-04 BZR unknown)-product} date 11/06/2015 08:20:57 p.m.
;FORMAT={-:-/ absolute / inch / decimal}
FMAT,2
INCH,TZ
T1C0.016
T2C0.028
T3C0.028
T4C0.032
T5C0.039
T6C0.039
T7C0.040
T8C0.043
T9C0.051
T10C0.120
%
G90
G05
M72
T1
X2.5902Y-3.397
X2.5924Y-3.859
X3.8767Y-2.5406
X3.8772Y-2.0726
X7.8922Y-3.4146
X7.8922Y-3.8172
T2
X2.4342Y-2.5076
X2.4342Y-2.6257
X2.4342Y-2.7438
X2.483Y-2.9946
X2.6011Y-2.9946
X2.6342Y-2.5076
X2.6342Y-2.6257
X2.6342Y-2.7438
X2.6882Y-1.8116
X2.6882Y-1.9297
X2.6882Y-2.0478
X2.7192Y-2.9946
X2.9032Y-2.9966
X2.9562Y-2.5236
X2.9562Y-2.6417
X2.9562Y-2.7598
X2.9782Y-1.8096
X2.9782Y-1.9277
X2.9782Y-2.0458
X3.0213Y-2.9966
X3.1394Y-2.9966
X3.1562Y-2.5236
X3.1562Y-2.6417
X3.1562Y-2.7598
X3.7622Y-2.1676
X3.7622Y-2.2857
X3.7622Y-2.4038
X3.9062Y-2.6414
X3.9062Y-2.7595
X3.9062Y-2.8776
X3.9862Y-2.1676
X3.9862Y-2.2857
X3.9862Y-2.4038
X4.1342Y-2.6394
X4.1342Y-2.7575
X4.1342Y-2.8756
X4.3322Y-1.7556
X4.3322Y-1.8737
X4.3322Y-1.9918
X4.483Y-2.9946
X4.6011Y-2.9946
X4.7192Y-2.9946
X4.7192Y-3.3866
X4.7362Y-1.7556
X4.7362Y-1.8737
X4.7362Y-1.9918
X4.8373Y-3.3866
X4.9554Y-3.3866
T3
X4.5363Y-1.9926
X4.5363Y-2.3926
X4.9863Y-1.5186
X4.9863Y-1.9186
X5.0949Y-3.4981
X5.1426Y-3.2871
X5.4949Y-3.4981
X5.5426Y-3.2871
X6.4942Y-1.8445
X6.6668Y-3.3486
X6.6668Y-3.7486
X6.8942Y-1.8445
T4
X1.7482Y-3.3226
X1.8982Y-3.3226
X2.1642Y-2.5286
X2.1642Y-2.6286
X2.2142Y-3.5926
X2.3642Y-3.5926
X3.1482Y-3.4706
X3.1482Y-3.5706
X3.3222Y-1.9526
X3.3222Y-2.1026
X3.4002Y-2.8426
X3.4002Y-2.9926
X3.4922Y-3.4446
X3.4922Y-3.5946
X3.9682Y-3.5606
X3.9682Y-3.6606
X4.5362Y-2.5506
X4.5362Y-2.7006
X6.6062Y-2.2386
X6.6062Y-2.3886
X8.2212Y-1.4586
X8.2212Y-1.6086
X8.2288Y-3.2186
X8.2288Y-3.3686
X8.231Y-3.7106
X8.231Y-3.8606
X8.2332Y-1.9446
X8.2332Y-2.0946
X8.3412Y-2.8886
X8.4912Y-2.8886
T5
X7.0453Y-1.9469
X7.0453Y-3.4626
X7.5162Y-1.8469
X7.5162Y-3.3626
T6
X1.4822Y-2.7086
X1.4822Y-3.0386
X1.8802Y-2.8786
X1.8822Y-2.7086
X1.8822Y-3.0386
X2.0842Y-3.3466
X2.0902Y-3.1926
X2.2802Y-2.8786
X2.3522Y-2.2766
X2.4842Y-1.7206
X2.4842Y-2.1206
X2.4842Y-3.3466
X2.4902Y-3.1926
X2.7202Y-3.1546
X2.7202Y-3.5546
X2.7522Y-2.2766
X2.8862Y-2.2766
X2.9022Y-3.1546
X2.9022Y-3.5546
X3.1482Y-3.2446
X3.2862Y-2.2766
X3.5482Y-3.2446
X3.5982Y-2.0066
X3.5982Y-2.4066
X3.7362Y-3.1386
X3.7362Y-3.5386
X3.9642Y-3.4026
X4.3642Y-3.4026
X4.4822Y-3.2226
X4.4822Y-3.6226
X4.5342Y-1.4726
X4.5342Y-1.8726
X4.7422Y-3.6586
X4.8422Y-3.6586
X4.9422Y-3.6586
X5.1982Y-1.6446
X5.2102Y-3.7006
X5.2982Y-1.6446
X5.3982Y-1.6446
X5.5442Y-3.1146
X5.6102Y-3.7006
X5.6822Y-1.9866
X5.6822Y-2.3866
X5.6982Y-3.2586
X5.8082Y-1.8286
X5.8402Y-2.4466
X5.9442Y-2.5826
X5.9442Y-2.9826
X5.9442Y-3.1146
X6.0182Y-2.0226
X6.0182Y-2.1226
X6.0182Y-2.2226
X6.0982Y-3.2586
X6.2082Y-1.8286
X6.2402Y-2.4466
X6.2482Y-3.1346
X6.2482Y-3.2346
X6.2482Y-3.3346
X6.4002Y-2.4526
X6.4002Y-2.8526
X6.5482Y-2.6106
X6.5482Y-3.0106
X7.4922Y-3.9666
X7.8922Y-3.9666
X7.9412Y-2.3086
X7.9412Y-2.7086
X8.2284Y-2.3086
X8.2284Y-2.5836
X8.6284Y-2.3086
X8.6284Y-2.5836
T7
X2.1093Y-3.8219
X2.4803Y-1.4764
X3.3268Y-1.4567
X3.5782Y-2.6406
X4.0157Y-1.4567
X4.1342Y-3.0406
X4.1342Y-3.1406
X4.1342Y-3.2406
X5.6782Y-2.6326
X5.6782Y-2.7326
X5.6782Y-2.8326
X8.5238Y-3.2186
X8.527Y-3.7116
X8.6238Y-3.2186
X8.627Y-3.7116
X8.6292Y-1.6106
X8.6358Y-2.0946
X8.7292Y-1.6106
X8.7358Y-2.0946
X8.8209Y-3.502
X8.8583Y-1.7913
X8.9547Y-2.5851
X8.9547Y-2.6851
T8
X1.6535Y-2.1683
X1.8504Y-1.9715
X1.8504Y-2.0699
X1.8504Y-2.2667
X1.8504Y-2.3652
X5.0762Y-2.0817
X5.0762Y-2.2806
X5.0762Y-2.4735
X5.0762Y-2.7417
X5.0762Y-2.9346
X5.0762Y-3.1334
T9
X5.8417Y-3.6721
X6.1409Y-3.6721
X6.1942Y-1.6346
X6.4401Y-3.6721
X6.4934Y-1.6346
X6.7926Y-1.6346
X6.9003Y-3.6756
X7.1178Y-1.6346
X7.1995Y-3.6756
X7.417Y-1.6346
X7.4987Y-3.6756
X7.7162Y-1.6346
T10
X1.437Y-1.4961
X1.437Y-3.9567
X8.9764Y-1.4961
X8.9764Y-3.9567
T0
M30
