G04 #@! TF.FileFunction,Copper,L2,Bot,Signal*
%FSLAX46Y46*%
G04 Gerber Fmt 4.6, Leading zero omitted, Abs format (unit mm)*
G04 Created by KiCad (PCBNEW (2016-09-05 BZR 7119, Git caafcde)-product) date Tue Sep 20 16:16:29 2016*
%MOMM*%
%LPD*%
G01*
G04 APERTURE LIST*
%ADD10C,0.100000*%
%ADD11C,0.300000*%
%ADD12C,4.600000*%
%ADD13C,1.699260*%
%ADD14R,1.699260X1.699260*%
%ADD15R,1.397000X1.397000*%
%ADD16C,1.397000*%
%ADD17C,1.998980*%
%ADD18R,2.032000X2.032000*%
%ADD19O,2.032000X2.032000*%
%ADD20R,1.300000X1.300000*%
%ADD21C,1.300000*%
%ADD22R,2.000000X1.900000*%
%ADD23C,1.900000*%
%ADD24C,1.800000*%
%ADD25R,1.998980X1.998980*%
%ADD26R,1.900000X2.000000*%
%ADD27C,2.000000*%
%ADD28C,1.524000*%
%ADD29O,2.032000X2.540000*%
%ADD30O,1.501140X0.899160*%
%ADD31C,0.500000*%
%ADD32C,1.500000*%
%ADD33C,5.000000*%
%ADD34C,0.400000*%
G04 APERTURE END LIST*
D10*
D11*
X64714285Y-145975000D02*
X64000000Y-145975000D01*
X64857142Y-146403571D02*
X64357142Y-144903571D01*
X63857142Y-146403571D01*
X63357142Y-146403571D02*
X63357142Y-145403571D01*
X63357142Y-145546428D02*
X63285714Y-145475000D01*
X63142857Y-145403571D01*
X62928571Y-145403571D01*
X62785714Y-145475000D01*
X62714285Y-145617857D01*
X62714285Y-146403571D01*
X62714285Y-145617857D02*
X62642857Y-145475000D01*
X62500000Y-145403571D01*
X62285714Y-145403571D01*
X62142857Y-145475000D01*
X62071428Y-145617857D01*
X62071428Y-146403571D01*
X61357142Y-145403571D02*
X61357142Y-146903571D01*
X61357142Y-145475000D02*
X61214285Y-145403571D01*
X60928571Y-145403571D01*
X60785714Y-145475000D01*
X60714285Y-145546428D01*
X60642857Y-145689285D01*
X60642857Y-146117857D01*
X60714285Y-146260714D01*
X60785714Y-146332142D01*
X60928571Y-146403571D01*
X61214285Y-146403571D01*
X61357142Y-146332142D01*
X59785714Y-146403571D02*
X59928571Y-146332142D01*
X60000000Y-146189285D01*
X60000000Y-144903571D01*
X59214285Y-146403571D02*
X59214285Y-145403571D01*
X59214285Y-144903571D02*
X59285714Y-144975000D01*
X59214285Y-145046428D01*
X59142857Y-144975000D01*
X59214285Y-144903571D01*
X59214285Y-145046428D01*
X58714285Y-145403571D02*
X58142857Y-145403571D01*
X58500000Y-146403571D02*
X58500000Y-145117857D01*
X58428571Y-144975000D01*
X58285714Y-144903571D01*
X58142857Y-144903571D01*
X57642857Y-146403571D02*
X57642857Y-145403571D01*
X57642857Y-144903571D02*
X57714285Y-144975000D01*
X57642857Y-145046428D01*
X57571428Y-144975000D01*
X57642857Y-144903571D01*
X57642857Y-145046428D01*
X56285714Y-146332142D02*
X56428571Y-146403571D01*
X56714285Y-146403571D01*
X56857142Y-146332142D01*
X56928571Y-146260714D01*
X57000000Y-146117857D01*
X57000000Y-145689285D01*
X56928571Y-145546428D01*
X56857142Y-145475000D01*
X56714285Y-145403571D01*
X56428571Y-145403571D01*
X56285714Y-145475000D01*
X55000000Y-146403571D02*
X55000000Y-145617857D01*
X55071428Y-145475000D01*
X55214285Y-145403571D01*
X55500000Y-145403571D01*
X55642857Y-145475000D01*
X55000000Y-146332142D02*
X55142857Y-146403571D01*
X55500000Y-146403571D01*
X55642857Y-146332142D01*
X55714285Y-146189285D01*
X55714285Y-146046428D01*
X55642857Y-145903571D01*
X55500000Y-145832142D01*
X55142857Y-145832142D01*
X55000000Y-145760714D01*
X53642857Y-146403571D02*
X53642857Y-144903571D01*
X53642857Y-146332142D02*
X53785714Y-146403571D01*
X54071428Y-146403571D01*
X54214285Y-146332142D01*
X54285714Y-146260714D01*
X54357142Y-146117857D01*
X54357142Y-145689285D01*
X54285714Y-145546428D01*
X54214285Y-145475000D01*
X54071428Y-145403571D01*
X53785714Y-145403571D01*
X53642857Y-145475000D01*
X52714285Y-146403571D02*
X52857142Y-146332142D01*
X52928571Y-146260714D01*
X53000000Y-146117857D01*
X53000000Y-145689285D01*
X52928571Y-145546428D01*
X52857142Y-145475000D01*
X52714285Y-145403571D01*
X52500000Y-145403571D01*
X52357142Y-145475000D01*
X52285714Y-145546428D01*
X52214285Y-145689285D01*
X52214285Y-146117857D01*
X52285714Y-146260714D01*
X52357142Y-146332142D01*
X52500000Y-146403571D01*
X52714285Y-146403571D01*
X51571428Y-146403571D02*
X51571428Y-145403571D01*
X51571428Y-145689285D02*
X51500000Y-145546428D01*
X51428571Y-145475000D01*
X51285714Y-145403571D01*
X51142857Y-145403571D01*
X61178571Y-148810714D02*
X61250000Y-148882142D01*
X61464285Y-148953571D01*
X61607142Y-148953571D01*
X61821428Y-148882142D01*
X61964285Y-148739285D01*
X62035714Y-148596428D01*
X62107142Y-148310714D01*
X62107142Y-148096428D01*
X62035714Y-147810714D01*
X61964285Y-147667857D01*
X61821428Y-147525000D01*
X61607142Y-147453571D01*
X61464285Y-147453571D01*
X61250000Y-147525000D01*
X61178571Y-147596428D01*
X60321428Y-148953571D02*
X60464285Y-148882142D01*
X60535714Y-148739285D01*
X60535714Y-147453571D01*
X59107142Y-148953571D02*
X59107142Y-148167857D01*
X59178571Y-148025000D01*
X59321428Y-147953571D01*
X59607142Y-147953571D01*
X59750000Y-148025000D01*
X59107142Y-148882142D02*
X59250000Y-148953571D01*
X59607142Y-148953571D01*
X59750000Y-148882142D01*
X59821428Y-148739285D01*
X59821428Y-148596428D01*
X59750000Y-148453571D01*
X59607142Y-148382142D01*
X59250000Y-148382142D01*
X59107142Y-148310714D01*
X58464285Y-148882142D02*
X58321428Y-148953571D01*
X58035714Y-148953571D01*
X57892857Y-148882142D01*
X57821428Y-148739285D01*
X57821428Y-148667857D01*
X57892857Y-148525000D01*
X58035714Y-148453571D01*
X58250000Y-148453571D01*
X58392857Y-148382142D01*
X58464285Y-148239285D01*
X58464285Y-148167857D01*
X58392857Y-148025000D01*
X58250000Y-147953571D01*
X58035714Y-147953571D01*
X57892857Y-148025000D01*
X56607142Y-148882142D02*
X56750000Y-148953571D01*
X57035714Y-148953571D01*
X57178571Y-148882142D01*
X57250000Y-148739285D01*
X57250000Y-148167857D01*
X57178571Y-148025000D01*
X57035714Y-147953571D01*
X56750000Y-147953571D01*
X56607142Y-148025000D01*
X56535714Y-148167857D01*
X56535714Y-148310714D01*
X57250000Y-148453571D01*
X53964285Y-147525000D02*
X54107142Y-147453571D01*
X54321428Y-147453571D01*
X54535714Y-147525000D01*
X54678571Y-147667857D01*
X54750000Y-147810714D01*
X54821428Y-148096428D01*
X54821428Y-148310714D01*
X54750000Y-148596428D01*
X54678571Y-148739285D01*
X54535714Y-148882142D01*
X54321428Y-148953571D01*
X54178571Y-148953571D01*
X53964285Y-148882142D01*
X53892857Y-148810714D01*
X53892857Y-148310714D01*
X54178571Y-148310714D01*
D12*
X166116000Y-44958000D03*
X173736000Y-44958000D03*
X181356000Y-44958000D03*
X175980000Y-64920000D03*
X175980000Y-72540000D03*
X175980000Y-80160000D03*
X175980000Y-110400000D03*
X175980000Y-102780000D03*
X175980000Y-95160000D03*
X166116000Y-33274000D03*
X173736000Y-33274000D03*
X181356000Y-33274000D03*
D13*
X139722000Y-41024000D03*
D14*
X149882000Y-41024000D03*
D15*
X147450000Y-110160000D03*
D16*
X134750000Y-110160000D03*
D17*
X157556000Y-115160000D03*
X147396000Y-115160000D03*
D13*
X149896000Y-132160000D03*
D14*
X139736000Y-132160000D03*
D17*
X147396000Y-119160000D03*
X157556000Y-119160000D03*
X147396000Y-123660000D03*
X157556000Y-123660000D03*
D13*
X149687080Y-128160000D03*
X147396000Y-128160000D03*
X151978160Y-128160000D03*
D17*
X77586000Y-111660000D03*
X77586000Y-121820000D03*
D18*
X82586000Y-121660000D03*
D19*
X85126000Y-121660000D03*
D17*
X89086000Y-111660000D03*
X89086000Y-121820000D03*
D20*
X101086000Y-100660000D03*
D21*
X101086000Y-95660000D03*
D17*
X91086000Y-92160000D03*
X101246000Y-92160000D03*
D18*
X88586000Y-87660000D03*
D19*
X91126000Y-87660000D03*
D17*
X100086000Y-77500000D03*
X100086000Y-87660000D03*
D12*
X90086000Y-97660000D03*
D15*
X95586000Y-87660000D03*
D16*
X95586000Y-77500000D03*
D12*
X90086000Y-77660000D03*
D17*
X51926000Y-99160000D03*
X62086000Y-99160000D03*
X51926000Y-94160000D03*
X62086000Y-94160000D03*
D18*
X77586000Y-107160000D03*
D19*
X80126000Y-107160000D03*
D22*
X60586000Y-82200000D03*
D23*
X60586000Y-79660000D03*
D24*
X112090000Y-95160000D03*
X157810000Y-95160000D03*
D20*
X77586000Y-73160000D03*
D21*
X82586000Y-73160000D03*
D20*
X54086000Y-73160000D03*
D21*
X49086000Y-73160000D03*
D20*
X157450000Y-85160000D03*
D21*
X157450000Y-90160000D03*
D15*
X122428000Y-144780000D03*
D16*
X135128000Y-144780000D03*
D15*
X72086000Y-58160000D03*
D16*
X59386000Y-58160000D03*
D15*
X54386000Y-116660000D03*
D16*
X67086000Y-116660000D03*
D15*
X134620000Y-27940000D03*
D16*
X121920000Y-27940000D03*
D15*
X100786000Y-107160000D03*
D16*
X88086000Y-107160000D03*
D15*
X88086000Y-68160000D03*
D16*
X100786000Y-68160000D03*
D20*
X77586000Y-92660000D03*
D21*
X77586000Y-97660000D03*
D17*
X223774000Y-55880000D03*
D25*
X223774000Y-66040000D03*
D13*
X134664000Y-46790000D03*
D14*
X134664000Y-36630000D03*
D13*
X134664000Y-59950000D03*
D14*
X134664000Y-49790000D03*
D13*
X134896000Y-125320000D03*
D14*
X134896000Y-115160000D03*
D13*
X134898540Y-138820520D03*
D14*
X134898540Y-128660520D03*
D17*
X223520000Y-109474000D03*
D25*
X223520000Y-119634000D03*
D26*
X62086000Y-88660000D03*
D23*
X59546000Y-88660000D03*
D18*
X77586000Y-68160000D03*
D19*
X80126000Y-68160000D03*
D18*
X81586000Y-53660000D03*
D19*
X84126000Y-53660000D03*
D13*
X149628000Y-33290000D03*
X151919080Y-33290000D03*
X147336920Y-33290000D03*
X149633080Y-37214000D03*
X151924160Y-37214000D03*
X147342000Y-37214000D03*
X149865080Y-135890000D03*
X152156160Y-135890000D03*
X147574000Y-135890000D03*
D12*
X166116000Y-140970000D03*
X173736000Y-140970000D03*
X181356000Y-140970000D03*
D13*
X149865080Y-140970000D03*
X152156160Y-140970000D03*
X147574000Y-140970000D03*
D12*
X166116000Y-130556000D03*
X173736000Y-130556000D03*
X181356000Y-130556000D03*
D27*
X117500000Y-67660000D03*
X122400000Y-67660000D03*
X127450000Y-67660000D03*
X117500000Y-107660000D03*
X122400000Y-107660000D03*
X127450000Y-107660000D03*
D17*
X166116000Y-62484000D03*
X166116000Y-72644000D03*
D24*
X157810000Y-80160000D03*
X112090000Y-80160000D03*
D17*
X157502000Y-51692000D03*
X147342000Y-51692000D03*
X166116000Y-102660000D03*
X166116000Y-112820000D03*
X139722000Y-49660000D03*
X139722000Y-59820000D03*
X139896000Y-125320000D03*
X139896000Y-115160000D03*
X100586000Y-116660000D03*
X100586000Y-126820000D03*
X77586000Y-87660000D03*
X77586000Y-77500000D03*
X83586000Y-97820000D03*
X83586000Y-87660000D03*
X58086000Y-63160000D03*
X58086000Y-73320000D03*
X100586000Y-48500000D03*
X100586000Y-58660000D03*
D24*
X200152000Y-91440000D03*
X200152000Y-137160000D03*
X213868000Y-91440000D03*
X213868000Y-137160000D03*
X213868000Y-38100000D03*
X213868000Y-83820000D03*
X200152000Y-38100000D03*
X200152000Y-83820000D03*
D17*
X157502000Y-59820000D03*
X147342000Y-59820000D03*
X89586000Y-53500000D03*
X89586000Y-63660000D03*
X157502000Y-55756000D03*
X147342000Y-55756000D03*
X160274000Y-75184000D03*
X160274000Y-65024000D03*
X159950000Y-100000000D03*
X159950000Y-110160000D03*
X77586000Y-53500000D03*
X77586000Y-63660000D03*
X143764000Y-67564000D03*
X153924000Y-67564000D03*
D28*
X136652000Y-67564000D03*
X139192000Y-67564000D03*
X134112000Y-67564000D03*
D17*
X67086000Y-79660000D03*
X67086000Y-89820000D03*
X62086000Y-75820000D03*
X62086000Y-65660000D03*
D12*
X157480000Y-24130000D03*
X144780000Y-24130000D03*
X142240000Y-148590000D03*
X157480000Y-148590000D03*
D29*
X69586000Y-62160000D03*
X67046000Y-62160000D03*
X72126000Y-62160000D03*
X67126000Y-110660000D03*
X64586000Y-110660000D03*
X69666000Y-110660000D03*
D13*
X149628000Y-45596000D03*
X147336920Y-45596000D03*
X151919080Y-45596000D03*
D30*
X100586000Y-111660000D03*
X100586000Y-110390000D03*
X100586000Y-112930000D03*
X84586000Y-107160000D03*
X84586000Y-105890000D03*
X84586000Y-108430000D03*
X84586000Y-68160000D03*
X84586000Y-69430000D03*
X84586000Y-66890000D03*
X100586000Y-63660000D03*
X100586000Y-64930000D03*
X100586000Y-62390000D03*
D18*
X49000000Y-88540000D03*
D19*
X49000000Y-86000000D03*
D31*
X77586000Y-77500000D02*
X77586000Y-73160000D01*
X54086000Y-73160000D02*
X57926000Y-73160000D01*
X57926000Y-73160000D02*
X58086000Y-73320000D01*
X49000000Y-86000000D02*
X49000000Y-73246000D01*
X49000000Y-73246000D02*
X49086000Y-73160000D01*
X162814000Y-64796000D02*
X162938000Y-64920000D01*
X162938000Y-64920000D02*
X175980000Y-64920000D01*
X153416000Y-74323248D02*
X153416000Y-82276000D01*
X153416000Y-82276000D02*
X156300000Y-85160000D01*
X156300000Y-85160000D02*
X157450000Y-85160000D01*
X162814000Y-64796000D02*
X162814000Y-64925248D01*
X162814000Y-64925248D02*
X153416000Y-74323248D01*
X162814000Y-57004000D02*
X162814000Y-64796000D01*
X157502000Y-51692000D02*
X162814000Y-57004000D01*
X151924160Y-37214000D02*
X157502000Y-42791840D01*
X157502000Y-42791840D02*
X157502000Y-51692000D01*
X155448000Y-125768000D02*
X155448000Y-132598160D01*
X155448000Y-132598160D02*
X152156160Y-135890000D01*
X157556000Y-123660000D02*
X155448000Y-125768000D01*
X163120000Y-110400000D02*
X163120000Y-118096000D01*
X163120000Y-118096000D02*
X157556000Y-123660000D01*
X175980000Y-110400000D02*
X172727309Y-110400000D01*
X172727309Y-110400000D02*
X163120000Y-110400000D01*
X163120000Y-110400000D02*
X153416000Y-100696000D01*
X153416000Y-100696000D02*
X153416000Y-93274762D01*
X157450000Y-90160000D02*
X156530762Y-90160000D01*
X156530762Y-90160000D02*
X153416000Y-93274762D01*
X130000000Y-144780000D02*
X129794000Y-144780000D01*
D32*
X130000000Y-144780000D02*
X135128000Y-144780000D01*
X111834000Y-126820000D02*
X129794000Y-144780000D01*
X100586000Y-126820000D02*
X111834000Y-126820000D01*
X89086000Y-121820000D02*
X89086000Y-124660000D01*
X89086000Y-124660000D02*
X91246000Y-126820000D01*
X91246000Y-126820000D02*
X100586000Y-126820000D01*
X85126000Y-121660000D02*
X88926000Y-121660000D01*
X88926000Y-121660000D02*
X89086000Y-121820000D01*
X135128000Y-144780000D02*
X149865080Y-144780000D01*
X149865080Y-140970000D02*
X149865080Y-145547080D01*
X149865080Y-135890000D02*
X149865080Y-140970000D01*
X157480000Y-148590000D02*
X152908000Y-148590000D01*
X152908000Y-148590000D02*
X149865080Y-145547080D01*
D31*
X149865080Y-140970000D02*
X149865080Y-144780000D01*
X149865080Y-144780000D02*
X149865080Y-145547080D01*
D33*
X173736000Y-144780000D02*
X173736000Y-140970000D01*
X169926000Y-148590000D02*
X173736000Y-144780000D01*
X157480000Y-148590000D02*
X169926000Y-148590000D01*
X173736000Y-130556000D02*
X173736000Y-140970000D01*
D32*
X72086000Y-58160000D02*
X72086000Y-62120000D01*
X72086000Y-62120000D02*
X72126000Y-62160000D01*
X72086000Y-44000000D02*
X72086000Y-58160000D01*
X144780000Y-24130000D02*
X91956000Y-24130000D01*
X91956000Y-24130000D02*
X72086000Y-44000000D01*
X208280000Y-17780000D02*
X151130000Y-17780000D01*
X151130000Y-17780000D02*
X144780000Y-24130000D01*
X223774000Y-55880000D02*
X223774000Y-33274000D01*
X223774000Y-33274000D02*
X208280000Y-17780000D01*
X223520000Y-119634000D02*
X223520000Y-147320000D01*
X215840000Y-155000000D02*
X223520000Y-147320000D01*
X142240000Y-148590000D02*
X148650000Y-155000000D01*
X148650000Y-155000000D02*
X215840000Y-155000000D01*
X215840000Y-155000000D02*
X215900000Y-154940000D01*
X91440000Y-148590000D02*
X142240000Y-148590000D01*
X67086000Y-116660000D02*
X67086000Y-124236000D01*
X67086000Y-124236000D02*
X91440000Y-148590000D01*
X67126000Y-110660000D02*
X67126000Y-116620000D01*
X67126000Y-116620000D02*
X67086000Y-116660000D01*
D31*
X215900000Y-154940000D02*
X223520000Y-147320000D01*
D32*
X100586000Y-48500000D02*
X108980000Y-48500000D01*
X92246000Y-48500000D02*
X100586000Y-48500000D01*
X89586000Y-53500000D02*
X89586000Y-51160000D01*
X89586000Y-51160000D02*
X92246000Y-48500000D01*
X84126000Y-53660000D02*
X89426000Y-53660000D01*
X89426000Y-53660000D02*
X89586000Y-53500000D01*
X134620000Y-27940000D02*
X129540000Y-27940000D01*
X129540000Y-27940000D02*
X108980000Y-48500000D01*
X149628000Y-28000000D02*
X149628000Y-33290000D01*
X149628000Y-26692000D02*
X149628000Y-28000000D01*
X149628000Y-28000000D02*
X149568000Y-27940000D01*
X149568000Y-27940000D02*
X134620000Y-27940000D01*
X149606000Y-26670000D02*
X149628000Y-26692000D01*
X157480000Y-24130000D02*
X152146000Y-24130000D01*
X152146000Y-24130000D02*
X149606000Y-26670000D01*
X149628000Y-33290000D02*
X149628000Y-37208920D01*
X149628000Y-37208920D02*
X149633080Y-37214000D01*
D31*
X149606000Y-26670000D02*
X149606000Y-27940000D01*
X149606000Y-27940000D02*
X149606000Y-31960000D01*
X134620000Y-27940000D02*
X135818500Y-27940000D01*
X135818500Y-27940000D02*
X149606000Y-27940000D01*
X149606000Y-31960000D02*
X149628000Y-31982000D01*
X149628000Y-31982000D02*
X149628000Y-33290000D01*
D33*
X173736000Y-28702000D02*
X173736000Y-33274000D01*
X169164000Y-24130000D02*
X173736000Y-28702000D01*
X157480000Y-24130000D02*
X169164000Y-24130000D01*
X173736000Y-33274000D02*
X173736000Y-44958000D01*
D31*
X149633080Y-37214000D02*
X149561455Y-37214000D01*
X101246000Y-92160000D02*
X101246000Y-95500000D01*
X101246000Y-95500000D02*
X101086000Y-95660000D01*
X103024000Y-110390000D02*
X117954000Y-125320000D01*
X117954000Y-125320000D02*
X134896000Y-125320000D01*
X100586000Y-110390000D02*
X103024000Y-110390000D01*
X134896000Y-125320000D02*
X134896000Y-128657980D01*
X134896000Y-128657980D02*
X134898540Y-128660520D01*
X100586000Y-110390000D02*
X100586000Y-107360000D01*
X100586000Y-107360000D02*
X100786000Y-107160000D01*
X84586000Y-107160000D02*
X80126000Y-107160000D01*
X88086000Y-107160000D02*
X84586000Y-107160000D01*
X84586000Y-68160000D02*
X88086000Y-68160000D01*
X84586000Y-68160000D02*
X80126000Y-68160000D01*
X100586000Y-64930000D02*
X101836570Y-64930000D01*
X101836570Y-64930000D02*
X116976570Y-49790000D01*
X116976570Y-49790000D02*
X133314370Y-49790000D01*
X133314370Y-49790000D02*
X134664000Y-49790000D01*
X134664000Y-46790000D02*
X134664000Y-49790000D01*
X100586000Y-64930000D02*
X100586000Y-67960000D01*
X100586000Y-67960000D02*
X100786000Y-68160000D01*
X77586000Y-87660000D02*
X83586000Y-87660000D01*
X77586000Y-87660000D02*
X77586000Y-89073492D01*
X77586000Y-89073492D02*
X77586000Y-92660000D01*
X83586000Y-92660000D02*
X88586000Y-87660000D01*
X83586000Y-97820000D02*
X83586000Y-92660000D01*
X83586000Y-97820000D02*
X77746000Y-97820000D01*
X77746000Y-97820000D02*
X77586000Y-97660000D01*
X147450000Y-110160000D02*
X147450000Y-99952000D01*
X147450000Y-99952000D02*
X122400000Y-74902000D01*
X122400000Y-74902000D02*
X122400000Y-67660000D01*
X125984000Y-59944000D02*
X125990000Y-59950000D01*
X125990000Y-59950000D02*
X134664000Y-59950000D01*
X122428000Y-63500000D02*
X125984000Y-59944000D01*
X122428000Y-66217787D02*
X122428000Y-63500000D01*
X122400000Y-67660000D02*
X122400000Y-66245787D01*
X122400000Y-66245787D02*
X122428000Y-66217787D01*
X139722000Y-59820000D02*
X143532000Y-59820000D01*
X143532000Y-59820000D02*
X144040000Y-59820000D01*
X145928508Y-59820000D02*
X143532000Y-59820000D01*
X147342000Y-59820000D02*
X145928508Y-59820000D01*
X139722000Y-59820000D02*
X134794000Y-59820000D01*
X134794000Y-59820000D02*
X134664000Y-59950000D01*
D34*
X122610000Y-67450000D02*
X122400000Y-67660000D01*
D31*
X122400000Y-107660000D02*
X122400000Y-109074213D01*
X122400000Y-109074213D02*
X128485787Y-115160000D01*
X128485787Y-115160000D02*
X134896000Y-115160000D01*
X134896000Y-115160000D02*
X134896000Y-110306000D01*
X134896000Y-110306000D02*
X134750000Y-110160000D01*
X147396000Y-115160000D02*
X144896000Y-115160000D01*
X134950000Y-110360000D02*
X134750000Y-110160000D01*
X147196000Y-114960000D02*
X147396000Y-115160000D01*
X139896000Y-115160000D02*
X144896000Y-115160000D01*
D34*
X139736000Y-115160000D02*
X134896000Y-115160000D01*
X134846000Y-115110000D02*
X134896000Y-115160000D01*
D32*
X175980000Y-72540000D02*
X166220000Y-72540000D01*
X166220000Y-72540000D02*
X166116000Y-72644000D01*
X213868000Y-83820000D02*
X216154000Y-83820000D01*
X216154000Y-83820000D02*
X223774000Y-76200000D01*
X223774000Y-66040000D02*
X223774000Y-76200000D01*
D33*
X213868000Y-83820000D02*
X200152000Y-83820000D01*
X175980000Y-72540000D02*
X188872000Y-72540000D01*
X188872000Y-72540000D02*
X200152000Y-83820000D01*
D31*
X134664000Y-36630000D02*
X134664000Y-35280370D01*
X134664000Y-35280370D02*
X136654370Y-33290000D01*
X136654370Y-33290000D02*
X147336920Y-33290000D01*
X147574000Y-140970000D02*
X137048020Y-140970000D01*
X137048020Y-140970000D02*
X134898540Y-138820520D01*
X141500000Y-37214000D02*
X147342000Y-37214000D01*
X139722000Y-38992000D02*
X141500000Y-37214000D01*
X139722000Y-41024000D02*
X139722000Y-38992000D01*
X139722000Y-41024000D02*
X139722000Y-42225558D01*
X139722000Y-42225558D02*
X139722000Y-49660000D01*
X149628000Y-45596000D02*
X149628000Y-41278000D01*
X149628000Y-41278000D02*
X149882000Y-41024000D01*
X149687080Y-131951080D02*
X149896000Y-132160000D01*
X149687080Y-128160000D02*
X149687080Y-131951080D01*
X147574000Y-135890000D02*
X142116370Y-135890000D01*
X142116370Y-135890000D02*
X139736000Y-133509630D01*
X139736000Y-133509630D02*
X139736000Y-132160000D01*
X139736000Y-132160000D02*
X139736000Y-125480000D01*
X139736000Y-125480000D02*
X139896000Y-125320000D01*
D32*
X213868000Y-91440000D02*
X215900000Y-91440000D01*
X215900000Y-91440000D02*
X223520000Y-99060000D01*
X223520000Y-99060000D02*
X223520000Y-109474000D01*
X166116000Y-102660000D02*
X175860000Y-102660000D01*
X175860000Y-102660000D02*
X175980000Y-102780000D01*
D33*
X200152000Y-91440000D02*
X213868000Y-91440000D01*
X175980000Y-102780000D02*
X188812000Y-102780000D01*
X188812000Y-102780000D02*
X200152000Y-91440000D01*
D31*
X60586000Y-82200000D02*
X60636000Y-82200000D01*
X60636000Y-82200000D02*
X67086000Y-88650000D01*
X67086000Y-88650000D02*
X67086000Y-89820000D01*
X60586000Y-77320000D02*
X60586000Y-79660000D01*
X62086000Y-75820000D02*
X60586000Y-77320000D01*
X62086000Y-88660000D02*
X62086000Y-94160000D01*
X59586000Y-96660000D02*
X59546000Y-96620000D01*
X59546000Y-96620000D02*
X59546000Y-88660000D01*
X57086000Y-99160000D02*
X59586000Y-96660000D01*
X51926000Y-99160000D02*
X57086000Y-99160000D01*
X77586000Y-68160000D02*
X77586000Y-63660000D01*
X77586000Y-107160000D02*
X77586000Y-111660000D01*
X81586000Y-53660000D02*
X77746000Y-53660000D01*
X77746000Y-53660000D02*
X77586000Y-53500000D01*
X82586000Y-121660000D02*
X77746000Y-121660000D01*
X77746000Y-121660000D02*
X77586000Y-121820000D01*
D32*
X91126000Y-87660000D02*
X91126000Y-92120000D01*
X91126000Y-92120000D02*
X91086000Y-92160000D01*
X95586000Y-87660000D02*
X91126000Y-87660000D01*
D31*
X147396000Y-119160000D02*
X119950000Y-119160000D01*
X119950000Y-119160000D02*
X112090000Y-111300000D01*
X112090000Y-111300000D02*
X112090000Y-95160000D01*
X117980000Y-55756000D02*
X112090000Y-61646000D01*
X112090000Y-61646000D02*
X112090000Y-80160000D01*
X147342000Y-55756000D02*
X117980000Y-55756000D01*
X147336920Y-45596000D02*
X147336920Y-51686920D01*
X147336920Y-51686920D02*
X147342000Y-51692000D01*
X147342000Y-55756000D02*
X147342000Y-51692000D01*
X93746000Y-87660000D02*
X97586000Y-87660000D01*
X147396000Y-119160000D02*
X147396000Y-123660000D01*
X147396000Y-123660000D02*
X147396000Y-128160000D01*
D33*
X100086000Y-87660000D02*
X95586000Y-87660000D01*
X112090000Y-95160000D02*
X104590000Y-87660000D01*
X104226000Y-87660000D02*
X100086000Y-87660000D01*
X112090000Y-80160000D02*
X104590000Y-87660000D01*
X100086000Y-77500000D02*
X95586000Y-77500000D01*
X95586000Y-77500000D02*
X90246000Y-77500000D01*
X90246000Y-77500000D02*
X90086000Y-77660000D01*
D31*
X166116000Y-44958000D02*
X166116000Y-48210691D01*
X166116000Y-48210691D02*
X166116000Y-62484000D01*
X166116000Y-33274000D02*
X151935080Y-33274000D01*
X151935080Y-33274000D02*
X151919080Y-33290000D01*
X166116000Y-33274000D02*
X166116000Y-36526691D01*
X166116000Y-36526691D02*
X166116000Y-44958000D01*
X166100000Y-33290000D02*
X166116000Y-33274000D01*
D33*
X181356000Y-33274000D02*
X184150000Y-30480000D01*
X184150000Y-30480000D02*
X206248000Y-30480000D01*
X206248000Y-30480000D02*
X213868000Y-38100000D01*
D32*
X160274000Y-75184000D02*
X160274000Y-80160000D01*
D33*
X175980000Y-80160000D02*
X160274000Y-80160000D01*
X160274000Y-80160000D02*
X158050010Y-80160000D01*
D31*
X157450000Y-79800000D02*
X157810000Y-80160000D01*
X166116000Y-130556000D02*
X166116000Y-112820000D01*
X166116000Y-140970000D02*
X162863309Y-140970000D01*
X162863309Y-140970000D02*
X152156160Y-140970000D01*
X166116000Y-130556000D02*
X166116000Y-140970000D01*
D33*
X181356000Y-140970000D02*
X185166000Y-144780000D01*
X185166000Y-144780000D02*
X206248000Y-144780000D01*
X206248000Y-144780000D02*
X213868000Y-137160000D01*
D31*
X86086000Y-111660000D02*
X84586000Y-110160000D01*
X89086000Y-111660000D02*
X86086000Y-111660000D01*
X84586000Y-110160000D02*
X84586000Y-108459590D01*
X89086000Y-111660000D02*
X100586000Y-111660000D01*
X100586000Y-112930000D02*
X100586000Y-116660000D01*
D33*
X181356000Y-44958000D02*
X193294000Y-44958000D01*
X193294000Y-44958000D02*
X200152000Y-38100000D01*
X181356000Y-130556000D02*
X193548000Y-130556000D01*
X193548000Y-130556000D02*
X200152000Y-137160000D01*
D31*
X100586000Y-63660000D02*
X89586000Y-63660000D01*
X84586000Y-66890000D02*
X84586000Y-65160000D01*
X84586000Y-65160000D02*
X86086000Y-63660000D01*
X86086000Y-63660000D02*
X89586000Y-63660000D01*
X100586000Y-62390000D02*
X100586000Y-58660000D01*
X117500000Y-67660000D02*
X117500000Y-107660000D01*
X127450000Y-67660000D02*
X134016000Y-67660000D01*
X134016000Y-67660000D02*
X134112000Y-67564000D01*
X134112000Y-67564000D02*
X137668000Y-64008000D01*
X137668000Y-64008000D02*
X153314000Y-64008000D01*
X153314000Y-64008000D02*
X157502000Y-59820000D01*
X154918000Y-112522000D02*
X150876000Y-112522000D01*
X150876000Y-112522000D02*
X142748000Y-112522000D01*
X150950000Y-71882000D02*
X150950000Y-112448000D01*
X150950000Y-112448000D02*
X150876000Y-112522000D01*
X157556000Y-115160000D02*
X154918000Y-112522000D01*
X142748000Y-112522000D02*
X137886000Y-107660000D01*
X137886000Y-107660000D02*
X127450000Y-107660000D01*
X150950000Y-71882000D02*
X150950000Y-71660000D01*
X153924000Y-67564000D02*
X150950000Y-70538000D01*
X150950000Y-70538000D02*
X150950000Y-71882000D01*
X157556000Y-119160000D02*
X158969492Y-119160000D01*
X158969492Y-119160000D02*
X159950000Y-118179492D01*
X159950000Y-118179492D02*
X159950000Y-111573492D01*
X159950000Y-111573492D02*
X159950000Y-110160000D01*
X159950000Y-110320000D02*
X159950000Y-110160000D01*
X151978160Y-124737840D02*
X155896000Y-120820000D01*
X154896000Y-121820000D02*
X155896000Y-120820000D01*
X151978160Y-128160000D02*
X151978160Y-124737840D01*
X155896000Y-120820000D02*
X157556000Y-119160000D01*
D32*
X159950000Y-100000000D02*
X159950000Y-95344000D01*
X159950000Y-95344000D02*
X159766000Y-95160000D01*
D33*
X157810000Y-95160000D02*
X159766000Y-95160000D01*
X159766000Y-95160000D02*
X175980000Y-95160000D01*
D31*
X139192000Y-67564000D02*
X136652000Y-67564000D01*
X143764000Y-67564000D02*
X139192000Y-67564000D01*
X160274000Y-62336000D02*
X160274000Y-65024000D01*
X160274000Y-62336000D02*
X160274000Y-58528000D01*
X160274000Y-58528000D02*
X157502000Y-55756000D01*
X151919080Y-45596000D02*
X151919080Y-50173080D01*
X151919080Y-50173080D02*
X157502000Y-55756000D01*
M02*
